<svg xmlns="http://www.w3.org/2000/svg" xmlns:xlink="http://www.w3.org/1999/xlink" viewBox="0 0 187.93 183.32"><defs><style>.cls-1,.cls-2,.cls-4{fill:none;}.cls-2,.cls-4{stroke:#2e39bf;}.cls-2{stroke-miterlimit:10;stroke-width:1.5px;}.cls-3{fill:#2e39bf;}.cls-10,.cls-11,.cls-12,.cls-13,.cls-14,.cls-15,.cls-3,.cls-5,.cls-6,.cls-7,.cls-8,.cls-9{fill-rule:evenodd;}.cls-4{stroke-linecap:round;stroke-linejoin:round;}.cls-5{fill:url(#linear-gradient);}.cls-6{fill:url(#linear-gradient-2);}.cls-7{fill:url(#linear-gradient-3);}.cls-8{fill:url(#linear-gradient-4);}.cls-9{fill:url(#linear-gradient-5);}.cls-10{fill:#232e9b;}.cls-11{fill:url(#linear-gradient-6);}.cls-12{fill:url(#linear-gradient-7);}.cls-13{fill:url(#linear-gradient-8);}.cls-14{fill:url(#linear-gradient-9);}.cls-15{fill:url(#linear-gradient-10);}.cls-16{isolation:isolate;}.cls-17{clip-path:url(#clip-path);}.cls-18{fill:#fff;}</style><linearGradient id="linear-gradient" x1="83.22" y1="754.96" x2="171.02" y2="754.96" gradientTransform="translate(0 -636.26)" gradientUnits="userSpaceOnUse"><stop offset="0" stop-color="#afcdfd"/><stop offset="1" stop-color="#d7e6fe"/></linearGradient><linearGradient id="linear-gradient-2" x1="83.13" y1="733.72" x2="171.08" y2="733.72" gradientTransform="translate(0 -636.26)" gradientUnits="userSpaceOnUse"><stop offset="0" stop-color="#97befc"/><stop offset="1" stop-color="#abcaff"/></linearGradient><linearGradient id="linear-gradient-3" x1="83.1" y1="727.7" x2="171.02" y2="727.7" xlink:href="#linear-gradient"/><linearGradient id="linear-gradient-4" x1="83.13" y1="706.5" x2="171.08" y2="706.5" xlink:href="#linear-gradient-2"/><linearGradient id="linear-gradient-5" x1="82.74" y1="689.19" x2="171.15" y2="689.19" xlink:href="#linear-gradient"/><linearGradient id="linear-gradient-6" x1="9.49" y1="796.96" x2="98.28" y2="796.96" xlink:href="#linear-gradient"/><linearGradient id="linear-gradient-7" x1="9.51" y1="775.7" x2="98.32" y2="775.7" xlink:href="#linear-gradient-2"/><linearGradient id="linear-gradient-8" x1="9.5" y1="769.71" x2="98.42" y2="769.71" xlink:href="#linear-gradient"/><linearGradient id="linear-gradient-9" x1="9.51" y1="748.42" x2="98.26" y2="748.42" xlink:href="#linear-gradient-2"/><linearGradient id="linear-gradient-10" x1="9.37" y1="731.07" x2="98.29" y2="731.07" xlink:href="#linear-gradient"/><clipPath id="clip-path"><polygon class="cls-1" points="145.89 130.73 151.07 91.64 177.53 84.56 172.35 123.64 145.89 130.73"/></clipPath></defs><title>Asset 4</title><g id="Layer_2" data-name="Layer 2"><g id="Layer_1-2" data-name="Layer 1"><path class="cls-2" d="M86.07,123.76c18.52,10.75,50.25,29,56.55,32.6a8.72,8.72,0,0,0,10.25-.74c4.07-3.46,3.08-6.55,3.08-8.89V131.29"/><path class="cls-2" d="M55.45,107.22c-4.57-2.72-37.29-21.73-54-31.36L36.81,55.24l35.8-20.75L99.28,19.18c17,9.76,50.38,29,55.07,31.74"/><path class="cls-2" d="M55.45,134.75C50.88,132,18.16,113,1.49,103.39L36.81,82.77,72.61,62,99.16,46.72c17,9.75,50.37,29,55.07,31.73"/><path class="cls-2" d="M72.61,90.06,99.28,74.75c17,9.75,50.38,29,55.07,31.73m-98.9,56.3c-4.57-2.72-37.29-21.73-54-31.36L36.81,110.8"/><path id="Kształt_2_kopia" data-name="Kształt 2 kopia" class="cls-3" d="M38,9.55c-7.16,4.08-12.84,14-12.84,22.23S31,43.26,38,39.19,50.88,25.11,50.88,17,45.08,5.36,38,9.55Zm-.62,1.61v6.42a20.18,20.18,0,0,1-4.07,1.85l.74-2.59A13.89,13.89,0,0,1,37.42,11.16Zm1.11-.62q1.86-.55,3.34,1.85c.25.5.49,1.11.74,1.73A33,33,0,0,1,38.53,17Zm-3.82,2.59a18.86,18.86,0,0,0-1.61,3.58,18.8,18.8,0,0,0-.86,2.84,25.57,25.57,0,0,1-3,.5A36.6,36.6,0,0,1,34.71,13.13Zm6.54-3.7a6.6,6.6,0,0,1,5.31.74,21.78,21.78,0,0,1-3,3,9.79,9.79,0,0,0-.87-2A6.34,6.34,0,0,0,41.25,9.43Zm6,1.36A8.27,8.27,0,0,1,49.65,17l-5.07,3A29.54,29.54,0,0,0,44,14.25,30.89,30.89,0,0,0,47.3,10.79ZM28.66,21.53A10.38,10.38,0,0,0,32,21a39.12,39.12,0,0,0-.62,6.54l-5.06,3A22.59,22.59,0,0,1,28.66,21.53Zm4.44-.74a19.11,19.11,0,0,0,4.32-2V24l-5.06,3A48.86,48.86,0,0,1,33.1,20.79ZM43,15.11a26,26,0,0,1,.62,5.31l-5.07,3V18.2C40.14,17.21,41.5,16.22,43,15.11ZM26.31,31.78l5.06-3A29.57,29.57,0,0,0,32,34.49,30,30,0,0,0,28.66,38,8.45,8.45,0,0,1,26.31,31.78Zm6.17-3.58,5.07-2.84v5.18a34,34,0,0,0-4.32,3.09A21,21,0,0,1,32.48,28.2Zm6.18-3.58,5.06-3a33.9,33.9,0,0,1-.62,6.18,19.52,19.52,0,0,0-4.32,2V24.62Zm6.17-3.46,5.06-3a24.2,24.2,0,0,1-2.34,8.89,10.48,10.48,0,0,0-3.34.49A58.46,58.46,0,0,0,44.83,21.16ZM37.55,31.78v6.29q-1.86.57-3.34-1.85a7.77,7.77,0,0,1-.74-1.73A40,40,0,0,1,37.55,31.78ZM38.66,31a20.77,20.77,0,0,1,4.07-1.86L42,31.78a13.42,13.42,0,0,1-3.33,5.68Zm-6.18,4.44a14.21,14.21,0,0,0,.87,2A4.41,4.41,0,0,0,35,39.19a6.71,6.71,0,0,1-5.31-.74C30.51,37.46,31.5,36.47,32.48,35.48Zm11.36-6.54a12.08,12.08,0,0,1,3-.37,26.43,26.43,0,0,1-5.31,6.91,17.52,17.52,0,0,0,1.36-3.58,27.5,27.5,0,0,0,.86-3Z"/><path id="Elipsa_1378" data-name="Elipsa 1378" class="cls-4" d="M51.25,2.89c3,1.85,4.82,5.55,4.82,10.86,0,11-7.66,24.2-17,29.63a15.3,15.3,0,0,1-6.55,2.23"/><path id="Kształt_1385" data-name="Kształt 1385" class="cls-4" d="M31.5,45.85,35,47.09"/><path id="Kształt_1385-2" data-name="Kształt 1385-2" class="cls-4" d="M33.84,42.89l-2.22,2.84"/><path id="Elipsa_1378-2" data-name="Elipsa 1378-2" class="cls-4" d="M24.58,45.11c-3-1.85-4.81-5.68-4.81-11,0-11,7.65-24.2,17-29.63a15.34,15.34,0,0,1,6.54-2.22"/><path id="Prostokąt_zaokrąglony_1402_kopia_3-2" data-name="Prostokąt zaokrąglony 1402 kopia 3-2" class="cls-5" d="M171,115.61a3.93,3.93,0,0,1-1.85,2.35l-38.9,22.22c-2.84,1.61-7.78,1.49-11-.49L86,120.92c-2-1.11-2.84-2.71-2.72-4.07V98.33L171,96.11Z"/><path id="Prostokąt_zaokrąglony_1402_kopia_4-2" data-name="Prostokąt zaokrąglony 1402 kopia 4-2" class="cls-6" d="M85.21,95.74,124,74.38c2.84-1.61,7.65-1.49,11,.49l33.47,18c3.21,1.72,3.58,4.69.74,6.17L130.4,120.55c-2.84,1.61-7.66,1.48-11-.49L86.07,101.91C80.14,98.7,85,95.86,85.21,95.74Z"/><path id="Prostokąt_zaokrąglony_1402_kopia_3-2-2" data-name="Prostokąt zaokrąglony 1402 kopia 3-2-2" class="cls-7" d="M171,88.33a3.91,3.91,0,0,1-1.85,2.34l-38.9,22.23c-2.84,1.73-7.78,1.48-11-.5L85.82,93.64c-2-1.11-2.84-2.72-2.71-4.08V71L171,68.82Z"/><path id="Prostokąt_zaokrąglony_1402_kopia_4-2-2" data-name="Prostokąt zaokrąglony 1402 kopia 4-2-2" class="cls-8" d="M85.21,68.45,124,47.09c2.84-1.61,7.65-1.48,11,.49l33.47,18.15c3.21,1.73,3.58,4.69.74,6.18L130.4,93.39c-2.84,1.6-7.66,1.48-11-.49L86.07,74.62C80.14,71.41,85,68.57,85.21,68.45Z"/><path id="Prostokąt_zaokrąglony_1402_kopia_16-2" data-name="Prostokąt zaokrąglony 1402 kopia 16-2" class="cls-9" d="M171.27,61.16l-.13.37a3.66,3.66,0,0,1-2,2.1l-38.9,21.61a12.39,12.39,0,0,1-11-.49L86.07,66.47c-2-1.11-3.33-2.59-3.21-3.95V44.62a3.51,3.51,0,0,1,2.35-2.22L124,20.67c2.84-1.61,7.77-1.49,11,.49l33.47,18.27c1.48.87,2.84,2.47,2.84,4Z"/><path id="Elipsa_1549_kopia_8" data-name="Elipsa 1549 kopia 8" class="cls-10" d="M151.76,71.66c5.92-3.33,11.36-4.32,15.68-3.33,4.69,1.6,5.92,1.6,10.37,3.7l-37.66,70.13s-8.64-4.57-12-8.89a23.28,23.28,0,0,1-4.07-14.2C124.35,101.54,136.69,80.3,151.76,71.66Z"/><path id="Elipsa_1549_kopia_7" data-name="Elipsa 1549 kopia 7" class="cls-3" d="M159.66,74.87c15.56-9,28.27-1.73,28.27,16.3s-12.59,39.88-28.27,48.77-28.28,1.73-28.28-16.3S143.85,83.64,159.66,74.87Z"/><path id="Prostokąt_zaokrąglony_1402_kopia_3-2-3" data-name="Prostokąt zaokrąglony 1402 kopia 3-2-3" class="cls-11" d="M98.29,157.59a3.41,3.41,0,0,1-2,2.35L57.43,182.16c-2.84,1.73-7.78,1.49-11-.49L13.1,162.9c-2-1.11-3.83-3-3.58-4.44L9.4,140.31l88.77-2.22v19.5Z"/><path id="Prostokąt_zaokrąglony_1402_kopia_4-2-3" data-name="Prostokąt zaokrąglony 1402 kopia 4-2-3" class="cls-12" d="M11.62,137.59l39.51-21.23c2.84-1.61,7.65-1.49,11,.49L95.45,135c3.21,1.73,4.08,4.44.75,6.17L57.55,162.53c-2.84,1.61-7.66,1.48-11-.49l-34.2-18.4C6.56,140.43,11.37,137.72,11.62,137.59Z"/><path id="Prostokąt_zaokrąglony_1402_kopia_3-2-4" data-name="Prostokąt zaokrąglony 1402 kopia 3-2-4" class="cls-13" d="M98.29,130.31a4,4,0,0,1-2,2.47L57.43,155c-2.84,1.61-7.78,1.48-11-.49L13.1,135.74c-2-1.11-3.83-2.84-3.58-4.2V113.27l88.77-2.47.13,18.89Z"/><path id="Prostokąt_zaokrąglony_1402_kopia_4-2-4" data-name="Prostokąt zaokrąglony 1402 kopia 4-2-4" class="cls-14" d="M11.62,110.43,51.13,89.07c2.84-1.61,7.65-1.48,11,.49l33.33,18.15c3.21,1.73,4,4.45.75,6.18L57.55,135.25c-2.84,1.6-7.66,1.48-11-.5l-34.2-18.27C6.56,113.27,11.37,110.55,11.62,110.43Z"/><path id="Prostokąt_zaokrąglony_1402_kopia_16-2-2" data-name="Prostokąt zaokrąglony 1402 kopia 16-2-2" class="cls-15" d="M98.29,103.14l-.12.25a3.15,3.15,0,0,1-1.85,2.1L57.43,127.1c-2.84,1.6-7.78,1.48-11-.5L13.1,108.45c-2-1.11-3.95-2.59-3.7-3.82v-18c.24-1,2-2,3-2.35L51.13,62.52c2.84-1.6,7.78-1.48,11,.5L95.45,81.41c2,1.11,3,2.6,2.72,4v.13Z"/><g class="cls-16"><g class="cls-17"><path class="cls-18" d="M162.23,110.85l-.09,0a1.35,1.35,0,0,0-.66,1.12l-.22,8.81a5.09,5.09,0,0,1,0,.55,5.78,5.78,0,0,1-2.78,4.3l-.41.15c-1.31.35-2.29-.67-2.24-2.46,0-.42-.21-.65-.51-.57l-.1,0a1.34,1.34,0,0,0-.65,1.11c-.07,2.63,1.35,4.12,3.27,3.61a4,4,0,0,0,.6-.22c2-.92,3.71-3.62,4.06-6.28a7.2,7.2,0,0,0,.07-.8l.22-8.82c0-.41-.21-.65-.52-.57"/><path class="cls-18" d="M150.29,111.05a.36.36,0,0,1-.39-.11.65.65,0,0,1-.11-.52l.06-.53c1.09-8.21,6.39-16.58,12.6-19.46a11.88,11.88,0,0,1,1.85-.68c5.45-1.46,9.62,2.34,10.09,9.29h0v.21a1.45,1.45,0,0,1-.25.62.94.94,0,0,1-.46.38h-.08A3.89,3.89,0,0,1,172,100a3.75,3.75,0,0,0-2.16,0h0a7,7,0,0,0-1.11.41,9.91,9.91,0,0,0-3.6,3,7.92,7.92,0,0,1-3,2.48,5.49,5.49,0,0,1-.92.33,3.12,3.12,0,0,1-2-.09,3.92,3.92,0,0,0-2.42-.11,6.89,6.89,0,0,0-1.12.42,9.07,9.07,0,0,0-3.06,2.35,17.14,17.14,0,0,1-2,2.18.61.61,0,0,1-.26.14m14.24-23a12.6,12.6,0,0,0-2,.74c-6.85,3.17-12.68,12.39-13.88,21.45,0,.19-.05.38-.07.57a2.18,2.18,0,0,0,.35,1.62,1.08,1.08,0,0,0,1.17.36,2.06,2.06,0,0,0,.79-.43,20.88,20.88,0,0,0,2.26-2.43,7,7,0,0,1,2.46-1.89,7.58,7.58,0,0,1,.93-.35,3.22,3.22,0,0,1,2,.11,4,4,0,0,0,2.4.11h0a7.35,7.35,0,0,0,1.1-.41,9.91,9.91,0,0,0,3.6-3,7.92,7.92,0,0,1,3-2.48,5.7,5.7,0,0,1,.93-.34,3,3,0,0,1,1.77,0,4.57,4.57,0,0,0,1.91.29,1,1,0,0,0,.24,0,3.78,3.78,0,0,0,2.19-3,3.45,3.45,0,0,0,0-.64c-.53-7.66-5.11-11.83-11.12-10.22"/></g></g><path id="Kształt_1385-3" data-name="Kształt 1385-3" class="cls-4" d="M44.31,2.32,41.11.5"/><path id="Kształt_1385-4" data-name="Kształt 1385-4" class="cls-4" d="M41.62,4.74l2.69-2.42"/></g></g></svg>