<svg xmlns="http://www.w3.org/2000/svg" xmlns:xlink="http://www.w3.org/1999/xlink" viewBox="0 0 177.86 175.2"><defs><style>.cls-1,.cls-2,.cls-4,.cls-5,.cls-6,.cls-7{fill:none;}.cls-2,.cls-3,.cls-6,.cls-7{stroke:#2e39bf;}.cls-12,.cls-15,.cls-19,.cls-3{fill:#fff;}.cls-10,.cls-11,.cls-12,.cls-13,.cls-14,.cls-15,.cls-16,.cls-3,.cls-8,.cls-9{fill-rule:evenodd;}.cls-4,.cls-5{stroke:#98bffc;}.cls-15,.cls-4,.cls-6,.cls-7{stroke-linecap:round;}.cls-15,.cls-4,.cls-5,.cls-6,.cls-7{stroke-width:2px;}.cls-15,.cls-7{stroke-linejoin:round;}.cls-8{fill:url(#linear-gradient);}.cls-9{fill:url(#linear-gradient-2);}.cls-10{fill:url(#linear-gradient-3);}.cls-11{fill:url(#linear-gradient-4);}.cls-13{fill:url(#linear-gradient-5);}.cls-14{fill:url(#linear-gradient-6);}.cls-15{stroke:#1a6ee2;}.cls-16{fill:#2e39bf;}.cls-17{isolation:isolate;}.cls-18{clip-path:url(#clip-path);}</style><linearGradient id="linear-gradient" x1="33.74" y1="2109.29" x2="91.42" y2="2109.29" gradientTransform="matrix(1, 0, 0, -1, 0, 2194.17)" gradientUnits="userSpaceOnUse"><stop offset="0" stop-color="#97befc"/><stop offset="1" stop-color="#abcaff"/></linearGradient><linearGradient id="linear-gradient-2" x1="33.74" y1="2106.65" x2="91.42" y2="2106.65" gradientTransform="matrix(1, 0, 0, -1, 0, 2194.17)" gradientUnits="userSpaceOnUse"><stop offset="0" stop-color="#afcdfd"/><stop offset="1" stop-color="#d7e6fe"/></linearGradient><linearGradient id="linear-gradient-3" x1="117.93" y1="36.42" x2="168.99" y2="36.42" gradientTransform="matrix(1, 0, 0, 1, 0, 0)" xlink:href="#linear-gradient"/><linearGradient id="linear-gradient-4" x1="124.57" y1="38.38" x2="168.99" y2="38.38" gradientTransform="matrix(1, 0, 0, 1, 0, 0)" xlink:href="#linear-gradient-2"/><linearGradient id="linear-gradient-5" x1="5.88" y1="2053.27" x2="37.39" y2="2053.27" xlink:href="#linear-gradient"/><linearGradient id="linear-gradient-6" x1="0" y1="2051.98" x2="33.22" y2="2051.98" xlink:href="#linear-gradient-2"/><clipPath id="clip-path"><polygon class="cls-1" points="90.25 128.13 91.85 90.09 129.86 67.25 128.26 105.29 90.25 128.13"/></clipPath></defs><title>Asset-pc</title><g id="Layer_2" data-name="Layer 2"><g id="Layer_1-2" data-name="Layer 1"><path id="Kształt_1559_kopia" data-name="Kształt 1559 kopia" class="cls-2" d="M64.31,115.78S28.55,136.89,22.9,140.12s-6.69,6.81-1.15,10.5C42.51,164.23,40,162.15,55.08,171.5c4.39,2.77,8.19,4.26,11.54,2.3,4-2.42,8.07-4.61,8.07-4.61"/><path id="Kształt_1538" data-name="Kształt 1538" class="cls-3" d="M176.32,119.7a1.6,1.6,0,0,1,0,3L87.73,174a6.1,6.1,0,0,1-5.31,0L14.71,134.81l3.92-6.8,85.94-49.72,3.92,2.31Z"/><path id="Kształt_1538_kopia" data-name="Kształt 1538 kopia" class="cls-3" d="M108,2.28a1.66,1.66,0,0,0-.69-1.62,2.09,2.09,0,0,0-1.85.12L17.25,52.22a5.05,5.05,0,0,0-1.85,2,5,5,0,0,0-.69,2.54v78.67L108.15,81Z"/><g id="charts"><path class="cls-4" d="M39.51,54.41c4.15-2.3,7.5-.46,7.5,4.16a15.37,15.37,0,0,1-7.5,12.34c-4.15,2.19-7.5.46-7.5-4.15S35.36,56.72,39.51,54.41Z"/><path class="cls-5" d="M61.43,41.73c4.15-2.31,7.5-.47,7.5,4.15a15.37,15.37,0,0,1-7.5,12.34c-4.15,2.19-7.5.46-7.5-4.15S57.28,44,61.43,41.73ZM82.19,30.19c4.15-2.31,7.5-.46,7.5,4.15a15.39,15.39,0,0,1-7.5,12.35c-4.15,2.19-7.5.46-7.5-4.16S78,32.5,82.19,30.19Z"/><path id="Elipsa_1549_kopia_4" data-name="Elipsa 1549 kopia 4" class="cls-6" d="M39.51,54.41c4.15-2.3,7.5-.46,7.5,4.16a15.59,15.59,0,0,1-4,9.57"/><path id="Elipsa_1549_kopia_5" data-name="Elipsa 1549 kopia 5" class="cls-7" d="M61.43,41.73c4.15-2.31,7.5-.47,7.5,4.15a15.37,15.37,0,0,1-7.5,12.34c-2.08,1.15-3.92,1.27-5.31.46"/><path id="Elipsa_1549_kopia_6" data-name="Elipsa 1549 kopia 6" class="cls-7" d="M82.19,30.19c4.15-2.31,7.5-.46,7.5,4.15A15.41,15.41,0,0,1,84.5,45.07"/></g><path id="Kształt_1560_kopia" data-name="Kształt 1560 kopia" class="cls-8" d="M33.74,113.47V99.63S33.86,80.14,39.51,80c4.73-.11,8.08,14.88,13.84,1.16,1.62-3.93,8,7.15,16.15,1.15,4.62-3.46,9.58-12.23,13.27-21.57,4-10.5,8.65.81,8.65.81v17.3Z"/><path id="Kształt_1560" data-name="Kształt 1560" class="cls-9" d="M33.74,113.47V99.63S35,94,40.66,93.87c4.73-.12,4.39,6.11,11.77,2.07,3.81-2.07,7.27-18,17.07-20.53,2.54-.69,14.42,2.08,19.61-6.92a16.42,16.42,0,0,0,2.31-6.92v17.3Z"/><path id="Kształt_1533_kopia" data-name="Kształt 1533 kopia" class="cls-10" d="M135,65.86s-17-7.74-17-35.82C131.8,18.21,135,8.68,139.29,6.13s7.15,1.27,21-3.32A76.68,76.68,0,0,1,169,6.55L145.5,70Z"/><path id="Kształt_1533" data-name="Kształt 1533" class="cls-11" d="M146.78,70.12s-22.21.93-22.21-37.1C138.44,21.19,142.44,12.51,146.78,10s8.43,1.27,22.21-3.32C169,43.4,146.78,70.12,146.78,70.12Z"/><path id="Kształt_1559" data-name="Kształt 1559" class="cls-12" d="M146.87,29a9.65,9.65,0,0,0-4.43,7.66v.85a3.51,3.51,0,0,0-1.53,2.55v8.51a.87.87,0,0,0,.68,1,.81.81,0,0,0,.77-.17l8.93-5.11a3.51,3.51,0,0,0,1.53-2.55V33.27a.88.88,0,0,0-.68-1,.82.82,0,0,0-.76.17v-.85C151.29,28.68,149.33,27.57,146.87,29Zm0,1.7c1.7-.94,3-.26,3,1.7v.85l-6,3.41v-.86A6.23,6.23,0,0,1,146.87,30.72Z"/><g id="Grupa_66" data-name="Grupa 66"><path id="Elipsa_1549_kopia_8" data-name="Elipsa 1549 kopia 8" class="cls-13" d="M21.22,121.28c-3.46-2-6.69-2.54-9.22-2a38.49,38.49,0,0,0-6.12,2.19L28,162.69s5.08-2.65,7-5.19a13.5,13.5,0,0,0,2.42-8.3C37.37,138.81,30.11,126.36,21.22,121.28Z"/><path id="Elipsa_1549_kopia_7" data-name="Elipsa 1549 kopia 7" class="cls-14" d="M16.61,123.13C7.5,117.82,0,122.09,0,132.7s7.38,23.42,16.61,28.61,16.61,1,16.61-9.58S25.84,128.32,16.61,123.13Z"/><path id="Kształt_1570" data-name="Kształt 1570" class="cls-15" d="M17.19,148.5V137"/><path id="Kształt_1571" data-name="Kształt 1571" class="cls-15" d="M17.19,135.7,12.57,138"/><path id="Kształt_1572" data-name="Kształt 1572" class="cls-15" d="M17.19,135.7l3.46,6.92"/></g><g id="wp"><path id="Prostokąt_zaokrąglony_1356_kopia_6" data-name="Prostokąt zaokrąglony 1356 kopia 6" class="cls-16" d="M75.07,80.38,145,41c2.45-1.5,4.53-.56,4.53,1.89v65.26a9.5,9.5,0,0,1-4.53,7l-70,39.42c-2.45,1.32-4.53.57-4.53-1.88V87.55A9.86,9.86,0,0,1,75.07,80.38Z"/></g><g class="cls-17"><g class="cls-18"><path class="cls-19" d="M103,88.2l-2.3,1.38-.81,4.7c-.24,1.35-.44,2.69-.61,4l0,0c-.09-1.16-.24-2.24-.41-3.35L98.29,91l-1.84,1.11-1,5c-.21,1.17-.49,2.55-.68,3.85l0,0c-.07-1.17-.18-2.28-.27-3.3L94,93.6,91.64,95l1.74,9.55,2.21-1.32L96.5,99c.23-1.11.43-2.23.62-3.67h0c.1,1.26.2,2.16.35,3.1l.55,3.38,2.19-1.31L103,88.2"/><path class="cls-19" d="M106.65,81.2l-2.35,1.4-.66,15.82L106,97l.27-6.46a3,3,0,0,1,.12-.78,3.19,3.19,0,0,1,1.22-1.9c.87-.53,1.17.25,1.11,1.66l-.25,6,2.34-1.4.27-6.35c.13-3.29-.94-4.09-2.43-3.2a4.65,4.65,0,0,0-1.24,1.16,7.13,7.13,0,0,0-1,1.69l0,0,.27-6.25"/><path class="cls-19" d="M115.47,80.71l-2.34,1.41L112.67,93,115,91.59l.46-10.88m-1-4a3.11,3.11,0,0,0-1.32,2.44c0,.94.41,1.4,1.14,1h0a3.11,3.11,0,0,0,1.32-2.44c0-1-.41-1.4-1.16-1"/><path class="cls-19" d="M120.09,75.05l-2.33,2.29-.09,2-1,.6-.1,2.49,1-.6-.19,4.45c-.07,1.53.11,2.44.51,2.83s1,.33,1.73-.13a7,7,0,0,0,1.52-1.19l.1-2.55a4.9,4.9,0,0,1-.7.51c-.7.41-.9,0-.84-1.37l.16-3.93,1.68-1,.1-2.49L120,78l.12-3"/><path class="cls-19" d="M124.53,79.36a4.35,4.35,0,0,1,1.56-3.08c1.06-.64,1.25.6,1.21,1.41l-2.77,1.67m1.78-5.4c-2.61,1.57-3.94,5.33-4,8.09-.15,3.4,1.22,4.66,3.79,3.12a11.06,11.06,0,0,0,2.75-2.33l-.21-2.1a9.31,9.31,0,0,1-2.1,1.72c-1.09.66-2,.56-2-.79l4.85-2.92a12.46,12.46,0,0,0,.13-1.38c.12-2.69-.69-4.87-3.12-3.41"/><polyline class="cls-19" points="95 109.62 92.65 111.03 91.99 126.85 94.33 125.44 95 109.62"/><path class="cls-19" d="M100,120c-.52.32-.9.13-.87-.73a4,4,0,0,1,2.26-3l0,1.18a4.25,4.25,0,0,1-.08.61,3.29,3.29,0,0,1-1.27,2m.61-9.12a10.67,10.67,0,0,0-3,2.74l.33,1.89a8.27,8.27,0,0,1,2.12-2c1.15-.69,1.34,0,1.31.58v.13c-2.67,1.61-4.48,4-4.6,6.82-.07,1.74.77,2.79,2.3,1.88a5.86,5.86,0,0,0,2.2-2.63l0,0,.1,1,2.1-1.26a21,21,0,0,1,0-2.56l.16-3.8c.11-2.56-.59-4.22-3.1-2.71"/><path class="cls-19" d="M110.07,113.62c-.68.41-1.18,0-1.3-.77a2.69,2.69,0,0,1,0-.58l.06-1.6a4.78,4.78,0,0,1,.07-.65,4,4,0,0,1,1.45-2.5c1.09-.65,1.56.37,1.49,2.06-.09,2-.75,3.44-1.75,4m-.85-12.54-2.34,1.4-.53,12.58c0,1.22-.14,2.55-.2,3.28l2-1.19.15-1.56,0,0c.47,1,1.32.91,2.19.39,1.73-1,3.52-4,3.68-7.93.16-3.36-1.06-4.72-2.86-3.64a5.92,5.92,0,0,0-2.34,2.9l0,0,.27-6.23"/><polyline class="cls-19" points="119.35 94.99 117.01 96.4 116.34 112.22 118.69 110.81 119.35 94.99"/><path class="cls-19" d="M123.57,101.37a4.39,4.39,0,0,1,1.56-3.09c1.06-.63,1.25.6,1.21,1.43l-2.77,1.66m1.77-5.4c-2.6,1.56-3.93,5.33-4,8.09-.14,3.4,1.23,4.65,3.79,3.12a11.46,11.46,0,0,0,2.75-2.32l-.21-2.12a9.09,9.09,0,0,1-2.1,1.72c-1.09.66-2,.56-2-.79l4.85-2.92a12.21,12.21,0,0,0,.13-1.38c.12-2.69-.69-4.87-3.13-3.4"/></g></g></g></g></svg>