<svg xmlns="http://www.w3.org/2000/svg" xmlns:xlink="http://www.w3.org/1999/xlink" viewBox="0 0 1580.25 875.34"><defs><style>.cls-1{fill:url(#linear-gradient);}.cls-2{fill:#f1f95a;}.cls-19,.cls-3{fill:#95dbe5;}.cls-4{fill:#078282;}.cls-15,.cls-16,.cls-20,.cls-5{fill:#fff;}.cls-15,.cls-19,.cls-5,.cls-6{stroke:#505050;}.cls-15,.cls-17,.cls-18,.cls-19,.cls-20,.cls-28,.cls-29,.cls-5,.cls-6{stroke-miterlimit:10;}.cls-15,.cls-18,.cls-19,.cls-20,.cls-5,.cls-6{stroke-width:0.5px;}.cls-17,.cls-18,.cls-28,.cls-29,.cls-6{fill:none;}.cls-15,.cls-6{stroke-linecap:round;}.cls-7{fill:#a8c6f5;}.cls-8{fill:#4383ea;}.cls-9{fill:#ecf2fd;}.cls-10{fill:#01579b;}.cls-11{fill:#505050;}.cls-12,.cls-28{opacity:0.49;}.cls-13{fill:url(#linear-gradient-2);}.cls-14{fill:url(#linear-gradient-3);}.cls-17,.cls-18,.cls-20{stroke:#4d4d4d;}.cls-17{stroke-width:0.75px;}.cls-21{fill:url(#linear-gradient-4);}.cls-22{fill:url(#linear-gradient-5);}.cls-23{fill:url(#linear-gradient-6);}.cls-24{fill:url(#linear-gradient-7);}.cls-25{fill:url(#linear-gradient-8);}.cls-26{fill:url(#linear-gradient-9);}.cls-27{fill:gray;}.cls-28{stroke:gray;}.cls-29{stroke:#078282;stroke-width:3px;}</style><linearGradient id="linear-gradient" x1="2882.4" y1="975.14" x2="4331.08" y2="975.14" gradientTransform="matrix(-1.09, 0, 0, 1.3, 4725.12, -829.85)" gradientUnits="userSpaceOnUse"><stop offset="0.15" stop-color="#339e66" stop-opacity="0.8"/><stop offset="0.52" stop-color="#70c4b5" stop-opacity="0.92"/><stop offset="0.74" stop-color="#95dbe5"/></linearGradient><linearGradient id="linear-gradient-2" x1="255.36" y1="416.28" x2="273.7" y2="416.28" gradientUnits="userSpaceOnUse"><stop offset="0.49" stop-color="#fff"/><stop offset="0.67" stop-color="#d7e5fc"/><stop offset="0.84" stop-color="#a1dde9"/><stop offset="0.95" stop-color="#95dbe5"/></linearGradient><linearGradient id="linear-gradient-3" x1="259.26" y1="421.64" x2="269.81" y2="421.64" xlink:href="#linear-gradient-2"/><linearGradient id="linear-gradient-4" x1="1579.35" y1="234.22" x2="0" y2="234.22" xlink:href="#linear-gradient-2"/><linearGradient id="linear-gradient-5" x1="363.98" y1="259.87" x2="509.58" y2="259.87" gradientUnits="userSpaceOnUse"><stop offset="0" stop-color="#9bd9e5"/><stop offset="0.55" stop-color="#6acdee"/><stop offset="1" stop-color="#74aede"/></linearGradient><linearGradient id="linear-gradient-6" x1="191.03" y1="252.06" x2="340.81" y2="252.06" gradientUnits="userSpaceOnUse"><stop offset="0" stop-color="#9bd9e5"/><stop offset="0.44" stop-color="#6acdee"/><stop offset="0.51" stop-color="#6cc7eb"/><stop offset="0.8" stop-color="#72b5e1"/><stop offset="1" stop-color="#74aede"/></linearGradient><linearGradient id="linear-gradient-7" x1="258.58" y1="237.02" x2="411.91" y2="237.02" gradientUnits="userSpaceOnUse"><stop offset="0" stop-color="#9bd9e5"/><stop offset="0.38" stop-color="#6acdee"/><stop offset="0.62" stop-color="#6dc5ea"/><stop offset="0.98" stop-color="#74afdf"/><stop offset="1" stop-color="#74aede"/></linearGradient><linearGradient id="linear-gradient-8" x1="476.58" y1="248.22" x2="568.9" y2="248.22" gradientUnits="userSpaceOnUse"><stop offset="0" stop-color="#9bd9e5"/><stop offset="0.35" stop-color="#6acdee"/><stop offset="0.85" stop-color="#74aede"/></linearGradient><linearGradient id="linear-gradient-9" x1="232.94" y1="313.27" x2="462.16" y2="313.27" xlink:href="#linear-gradient-2"/></defs><title>Asset 35</title><g id="Layer_2" data-name="Layer 2"><g id="Layer_1-2" data-name="Layer 1"><path class="cls-1" d="M1.15,0,.07,765.43c121.34,37.32,243.14,63.28,361.65,80.5,167.6,24.34,281.47,31.94,429.49,28.7,16.89-.37,81.63-1.62,98.15-2.25A3320.93,3320.93,0,0,0,1301,830.88c171.78-28.25,279.21-59.48,279.21-59.48V5.69Z"/><path class="cls-2" d="M429.71,346.2a50.83,50.83,0,0,1,41.13-2.79,117.32,117.32,0,0,1,12.07,5.19s12.57,6,20,6.67,18.16,1.75,33.63,14.2c14.74,11.87,45.79,37,103.6,45.12a50.29,50.29,0,0,0,14.75-.23c11-1.72,34.31-2.06,43.89,22.85,12.78,33.22,9.18,47.64,54.68,62.06s2,49.39,2,49.39-19.16,15.73-24.35,32.77c-2.6,8.54-8,16.09-12.75,21.5a57.47,57.47,0,0,1-12.82,10.68c-5.2,3.27-15.14,11.53-27.91,31.63-19.16,30.15-43.11-2.19-88.21,11.8s-69.84,20.54-105,15.3S455,665.78,411.07,678s-82.62,13.54-103.38,0-19.95-18.8-34.72-19.23S237.45,624.26,208.31,623s-46.7-15.73-70.25-63.81-16-88.71,20-114.06,71.44-1.31,116.55-30.37c42.57-27.44,13.31-60.13,94.47-47.9a51.07,51.07,0,0,0,31.08-5.3Z"/><path class="cls-3" d="M373.16,611.39c36.93-1.22,96.52-.93,147.72-5.17,49.37-4.09,59.24,10.34,59.24,10.34s7.56,8.14,0,15.72c-11.15,11.19-33,3-68.65,3.22s-81.73,1.64-140.68,1.42c-88.68-.34-113.36-11.32-113.36-11.32s-22.72-8,11.45-11.63C305.81,610.1,339,612.52,373.16,611.39Z"/><path class="cls-4" d="M452.69,464.32s.49-27.47-19.52-34.7c0,0,3.25,4.23,2.63,9.29,0,0-18.72-11.1-34.09-1.23a9.31,9.31,0,0,1,5.31,6.14s-9.85,5-8.09,20.5Z"/><rect class="cls-3" x="340.59" y="464.32" width="170.24" height="126.74" rx="4.25"/><path class="cls-5" d="M443.2,502.44h-35a7.33,7.33,0,0,0-7,6.21L379.67,621.84h92.08L450.19,508.65A7.32,7.32,0,0,0,443.2,502.44Z"/><path class="cls-6" d="M425,542.46v115.4c0,13,9.66,23.53,21.57,23.53H563.33c11.92,0,21.58,10.53,21.58,23.52v11.26c0,13-9.66,23.52-21.58,23.52H445.46"/><path class="cls-6" d="M547.57,621.84h22.18"/><path class="cls-6" d="M471.75,621.84H536"/><path class="cls-6" d="M315.4,621.84h64.27"/><path class="cls-6" d="M281.66,621.84h21.51"/><ellipse class="cls-4" cx="425" cy="530.33" rx="11.13" ry="12.14"/><line class="cls-6" x1="487.2" y1="562.63" x2="487.2" y2="580.45"/><line class="cls-6" x1="494.7" y1="566.81" x2="494.7" y2="576.26"/><line class="cls-6" x1="479.71" y1="566.81" x2="479.71" y2="576.26"/><path class="cls-6" d="M385.2,475.48c36.39-.62,75-.62,110.41,0"/><path class="cls-6" d="M355.8,475.48h17.83"/><path class="cls-4" d="M398.62,464.32a34,34,0,0,1,54.18,0"/><path class="cls-4" d="M542.23,464.32a5.9,5.9,0,1,0,5.39,5.88A5.66,5.66,0,0,0,542.23,464.32Zm0,10.14a4.28,4.28,0,1,1,3.91-4.26A4.1,4.1,0,0,1,542.23,474.46Z"/><path class="cls-7" d="M308.55,468.61c-3.77,0-6.84,3.35-6.84,7.47s3.07,7.46,6.84,7.46,6.85-3.35,6.85-7.46S312.33,468.61,308.55,468.61Zm0,12.88a5.43,5.43,0,1,1,5-5.41A5.21,5.21,0,0,1,308.55,481.49Z"/><path class="cls-7" d="M514.26,325.57a3.86,3.86,0,1,0,3.53,3.85A3.7,3.7,0,0,0,514.26,325.57Zm0,6.64a2.8,2.8,0,1,1,2.56-2.79A2.69,2.69,0,0,1,514.26,332.21Z"/><path class="cls-7" d="M208.15,468.61c-3.77,0-6.84,3.35-6.84,7.47s3.07,7.46,6.84,7.46,6.85-3.35,6.85-7.46S211.93,468.61,208.15,468.61Zm0,12.88a5.43,5.43,0,1,1,5-5.41A5.21,5.21,0,0,1,208.15,481.49Z"/><path class="cls-7" d="M480.43,412.08a3.34,3.34,0,1,0,3.05,3.33A3.2,3.2,0,0,0,480.43,412.08Zm0,5.74a2.42,2.42,0,1,1,2.21-2.41A2.33,2.33,0,0,1,480.43,417.82Z"/><ellipse class="cls-8" cx="215.07" cy="430.88" rx="2.52" ry="2.75"/><ellipse class="cls-7" cx="337.63" cy="362.5" rx="2.52" ry="2.75"/><ellipse class="cls-7" cx="484.05" cy="331.77" rx="2.52" ry="2.75"/><ellipse class="cls-7" cx="462.71" cy="450.84" rx="1.15" ry="1.26"/><ellipse class="cls-7" cx="395.83" cy="419.67" rx="1.15" ry="1.26"/><ellipse class="cls-7" cx="509.92" cy="438.58" rx="1.15" ry="1.26"/><path class="cls-7" d="M251.92,422.82h-2.79v-3.05a1.26,1.26,0,1,0-2.51,0v3.05h-2.79a1.37,1.37,0,0,0,0,2.73h2.79v3.05a1.26,1.26,0,1,0,2.51,0v-3.05h2.79a1.37,1.37,0,0,0,0-2.73Z"/><path class="cls-9" d="M469.51,374h-2.79V371a1.26,1.26,0,1,0-2.51,0V374h-2.79a1.37,1.37,0,0,0,0,2.73h2.79v3a1.26,1.26,0,1,0,2.51,0v-3h2.79a1.37,1.37,0,0,0,0-2.73Z"/><path class="cls-8" d="M546.45,357.49h-2.88v-3.15a1.3,1.3,0,1,0-2.59,0v3.15H538.1a1.41,1.41,0,0,0,0,2.82H541v3.14a1.3,1.3,0,1,0,2.59,0v-3.14h2.88a1.41,1.41,0,0,0,0-2.82Z"/><path class="cls-10" d="M348.92,441.73h0l0-101.38a39.2,39.2,0,0,0-2.59,14.06,39.07,39.07,0,0,0-2.41-13.52V441.16h0v9.64c0,4.14.11,9.82-2.57,12.79-1.44,1.58-3.61,2.36-6.62,2.36a6.86,6.86,0,0,1-5.66-2.46c-2.93-3.57-2.94-10.49-2.7-12.85a2.69,2.69,0,0,0-2.2-3,2.57,2.57,0,0,0-2.78,2.41c0,.43-1.09,11,3.93,17.09a11.57,11.57,0,0,0,9.41,4.3c4.36,0,7.78-1.35,10.18-4,4.15-4.58,4.07-11.86,4-16.69Z"/><ellipse class="cls-5" cx="266.24" cy="412.29" rx="34.96" ry="38.11"/><path class="cls-4" d="M262.84,429c-3.22,0-6-2.25-7.76-4.14a14.67,14.67,0,0,1-2.87-4.08h2l0-.15a16.33,16.33,0,0,1,2.41-12.35,10.09,10.09,0,0,0,2.1,4.42l.24.34,0-.42c-.44-8.73,3.2-14.4,10.81-16.85-1.28,2.62-.41,5.95.58,9.77a41.6,41.6,0,0,1,1.52,8.1l0,.48,2.16-4.41a19.47,19.47,0,0,0,1.77,4.57,9.56,9.56,0,0,1,1.05,2.67,5.33,5.33,0,0,1-2.71,5l-.18.11.19.1a1.8,1.8,0,0,0,.87.23,2.05,2.05,0,0,0,1.55-.85c-1.66,4.32-5.12,6.18-8.33,7.42Z"/><path class="cls-11" d="M269.5,395.93c-1.12,2.62-.28,5.87.69,9.59a40.83,40.83,0,0,1,1.51,8.07l.05,1,.43-.87L274,410a19.79,19.79,0,0,0,1.7,4.27,9.2,9.2,0,0,1,1,2.61,5.1,5.1,0,0,1-2.65,4.93l-.36.23.38.2a1.82,1.82,0,0,0,2.13-.21c-1.71,3.85-4.95,5.59-8,6.77h-5.38c-5.41,0-9.86-6.58-10.45-8h2l-.07-.31a16.15,16.15,0,0,1,2.22-12,10.81,10.81,0,0,0,2.07,4.15l.49.67,0-.84c-.43-8.56,3.08-14.15,10.45-16.63m.48-.42c-8,2.47-11.63,8.26-11.18,17.07a9.33,9.33,0,0,1-2.11-4.73c-2.63,4.15-3.59,8.4-2.63,12.76h-2c-.35.23,4.56,8.46,10.75,8.46h5.43c3.85-1.5,7.23-3.63,8.68-8.32-.6,1-1.25,1.51-1.95,1.51a1.7,1.7,0,0,1-.81-.22,5.38,5.38,0,0,0,2.76-5.16c-.3-2-2.12-3.83-2.89-7.6l-2.11,4.3c-.39-7.22-4.36-13.75-2-18.07Z"/><g class="cls-12"><path class="cls-13" d="M263.26,429c-2.2,0-4.13-1.48-5.36-2.72a12.41,12.41,0,0,1-2.54-3.51h1.5l0-.15a12.68,12.68,0,0,1,1.76-9.35,8,8,0,0,0,1.56,3.31l.25.34,0-.42c-.33-6.64,2.36-11,8-12.84-.92,2-.28,4.53.46,7.43a31.66,31.66,0,0,1,1.13,6.19l0,.49,1.62-3.41a14.94,14.94,0,0,0,1.31,3.42,7.11,7.11,0,0,1,.78,2,4,4,0,0,1-2,3.83l-.18.12.19.09a1.4,1.4,0,0,0,.67.18,1.43,1.43,0,0,0,1.06-.53c-1.25,3.18-3.79,4.57-6.14,5.5Z"/><path class="cls-11" d="M268.13,403.82c-.77,2-.14,4.45.57,7.25a32.21,32.21,0,0,1,1.13,6.17l.05,1,.42-.89,1.27-2.65a15.34,15.34,0,0,0,1.23,3.11,7.24,7.24,0,0,1,.76,2,3.85,3.85,0,0,1-1.95,3.72l-.35.24.37.2a1.65,1.65,0,0,0,.73.19,1.39,1.39,0,0,0,.74-.23c-1.29,2.78-3.63,4.06-5.83,4.94h-4c-4,0-7.18-4.79-7.72-6H257l-.06-.31a12.43,12.43,0,0,1,1.57-9,8.83,8.83,0,0,0,1.52,3l.49.69,0-.85c-.32-6.56,2.18-10.7,7.64-12.62m.47-.42c-6,1.89-8.69,6.32-8.36,13.05a7.16,7.16,0,0,1-1.57-3.62,12.9,12.9,0,0,0-2,9.77h-1.47c-.26.18,3.41,6.47,8,6.47h4.06c2.89-1.15,5.41-2.78,6.49-6.36-.45.76-.93,1.15-1.45,1.15a1.31,1.31,0,0,1-.61-.17,4.13,4.13,0,0,0,2.06-3.94c-.22-1.51-1.58-2.93-2.16-5.82l-1.57,3.29c-.29-5.52-3.27-10.52-1.48-13.82Z"/></g><g class="cls-12"><path class="cls-14" d="M263.79,429c-2.35,0-4.25-2.88-4.53-3.52h.86l0-.16A7.3,7.3,0,0,1,261,420a5,5,0,0,0,.9,1.81l.24.34,0-.42c-.19-3.8,1.33-6.28,4.51-7.39-.47,1.16-.11,2.6.31,4.25a18.94,18.94,0,0,1,.66,3.6l0,.49,1-2a9.24,9.24,0,0,0,.73,1.86,4.42,4.42,0,0,1,.45,1.17,2.26,2.26,0,0,1-1.15,2.17l-.18.12.19.1a.93.93,0,0,0,.41.11.86.86,0,0,0,.49-.17,5.79,5.79,0,0,1-3.46,3Z"/><path class="cls-11" d="M266.45,414.54a8.18,8.18,0,0,0,.4,4.07,18.92,18.92,0,0,1,.66,3.57l.05,1,.42-.88.62-1.29a9.4,9.4,0,0,0,.65,1.55,4.59,4.59,0,0,1,.43,1.12,2.15,2.15,0,0,1-1.09,2.07l-.35.23.37.2a1.08,1.08,0,0,0,.47.13.78.78,0,0,0,.22,0,5.8,5.8,0,0,1-3.2,2.56h-2.31c-2.12,0-3.88-2.42-4.33-3.27h.82l-.07-.3a7.12,7.12,0,0,1,.78-4.93,5.94,5.94,0,0,0,.83,1.55l.5.69,0-.85c-.19-3.69,1.18-6,4.17-7.17m.45-.42c-3.5,1.1-5.07,3.68-4.87,7.6a4.11,4.11,0,0,1-.92-2.11A7.46,7.46,0,0,0,260,425.3h-.86c-.16.11,2,3.77,4.68,3.77h2.36a5.67,5.67,0,0,0,3.78-3.71c-.26.45-.54.68-.85.68a.81.81,0,0,1-.35-.1,2.4,2.4,0,0,0,1.2-2.3c-.13-.88-.92-1.71-1.26-3.39l-.91,1.92c-.17-3.22-1.91-6.13-.86-8.05Z"/></g><ellipse class="cls-15" cx="442.98" cy="378.28" rx="34.96" ry="38.11"/><path class="cls-5" d="M424.44,386.09H409.93"/><path class="cls-5" d="M476.64,386.09H462.13"/><path class="cls-4" d="M460.29,390.76a4.38,4.38,0,0,0-4.13-4.53c-2.49.16-4,1.64-4.5,4.53H434.28c-.3-2.87-1.79-4.41-4.43-4.59-2.78.45-4.18,2-4.21,4.59h-2.78a3.67,3.67,0,0,1,.57-2.61c1.31-2.33,4.39-4.91,6.23-5.21l.17,0,0-.17c1.22-6.07,4.81-9.16,11-9.45,5.12.09,8.43,2.62,10.1,7.74l.06.17h.18c4,0,6.85,1,8.78,2.95,2.65,2,3.42,4.11,2.42,6.61Z"/><path class="cls-11" d="M440.83,373.54c5,.09,8.24,2.57,9.87,7.56l.12.35h.36c3.9,0,6.72.94,8.6,2.87l0,0,0,0c2.46,1.87,3.22,3.82,2.36,6.14h-1.67a4.59,4.59,0,0,0-4.35-4.53h-.07c-2.53.16-4.05,1.65-4.65,4.53h-17c-.37-2.86-1.92-4.41-4.63-4.59h-.12c-2.77.47-4.24,2-4.36,4.59h-2.33a3.76,3.76,0,0,1,.59-2.24c1.28-2.27,4.27-4.79,6.05-5.08l.34-.06.07-.34c1.2-5.94,4.71-9,10.72-9.25m0-.5c-6.13.29-9.95,3.4-11.21,9.65-2.7.45-8.05,5.59-6.93,8.32h3.2c-.05-2.44,1.05-4.11,3.95-4.59,2.71.18,4,1.84,4.21,4.59h17.82c.44-2.56,1.59-4.36,4.27-4.54A4.15,4.15,0,0,1,460,391h2.5c1.26-2.95,0-5.18-2.4-7-2.14-2.2-5.26-3-9-3-1.64-5-4.95-7.81-10.35-7.91Z"/><ellipse class="cls-3" cx="456.19" cy="390.62" rx="3.17" ry="3.46"/><ellipse class="cls-3" cx="430.02" cy="390.62" rx="3.17" ry="3.46"/><path class="cls-3" d="M441.9,380.18v-4.6c3.57.16,5.6,1.67,6.21,4.6Z"/><path class="cls-11" d="M442.15,375.84c3.15.21,5,1.56,5.64,4.09h-5.64v-4.09m-.5-.52v5.11h6.76q-.84-4.95-6.76-5.11Z"/><path class="cls-3" d="M433.49,380.29c.64-3.11,2.77-4.7,6.5-4.83v4.83Z"/><path class="cls-11" d="M439.74,375.72V380H433.8c.67-2.72,2.62-4.13,5.94-4.32m.5-.51c-4.31.07-6.48,2-7.05,5.33h7.05v-5.33Z"/><ellipse class="cls-15" cx="565.12" cy="421.74" rx="34.96" ry="38.11"/><rect class="cls-16" x="558.55" y="425.59" width="3.05" height="3.33"/><path class="cls-17" d="M546.46,435.77h0Z"/><path class="cls-18" d="M553.44,438.92h0Z"/><polyline class="cls-19" points="568.09 408.93 552.6 408.93 550.3 408.93 549.95 408.93 544.71 421.55 544.71 422.93 545.4 422.93 545.52 433.67 558.76 433.67 580.99 433.67 580.85 418.73 582.26 419.92 583.24 418.85 570.51 407.04 557.38 418.66 557.96 419.66 558.88 419.04 558.84 421.8 558.83 422.87 558.7 433.35"/><polyline class="cls-18" points="558.66 419.13 570.53 409.12 581.42 419.21"/><polygon class="cls-18" points="547.82 424.25 556.69 424.25 556.69 426.57 556.69 428.89 548.11 428.89 547.82 428.89 547.82 426.57 547.82 424.25"/><polygon class="cls-18" points="544.71 421.67 558.59 421.67 558.59 423.07 544.71 422.93 544.71 421.67"/><path class="cls-17" d="M556.69,426.57h0Z"/><polygon class="cls-20" points="570.2 422.37 576.66 422.37 576.66 423.95 576.66 429.01 570.2 429.01 570.2 423.93 570.2 422.37"/><polygon class="cls-17" points="570.2 424.04 576.66 424.04 570.08 424.04 570.2 424.04"/><rect class="cls-18" x="551.65" y="406.1" width="1.76" height="2.76"/><polygon class="cls-4" points="562.39 432.65 562.39 421.86 567.84 421.97 567.74 432.65 562.39 432.65"/><path class="cls-11" d="M562.64,422.11l5,.11-.1,10.18h-4.85V422.11m-.5-.51v11.3H568l.11-11.17-6-.13Z"/><rect class="cls-4" x="438.13" y="731.12" width="21.22" height="23.14" rx="1.25"/><g class="cls-12"><rect class="cls-21" y="149.98" width="1579.35" height="168.5"/></g><path class="cls-22" d="M493.86,261.6c-1-21.39-18.36-38.4-39.57-38.4A39.55,39.55,0,0,0,418.63,246a29.65,29.65,0,0,0-26.8,11.44c-.6,0-1.2-.06-1.82-.06a26,26,0,0,0-26,25.87,25.59,25.59,0,0,0,3.71,13.31H504.47a21.78,21.78,0,0,0,5.11-14.07,21.54,21.54,0,0,0-15.72-20.87Z"/><path class="cls-23" d="M207.2,254.16c1.07-25.94,18.89-46.58,40.71-46.58,16.13,0,30.08,11.28,36.68,27.64A25.1,25.1,0,0,1,288,235c9.85,0,18.6,5.52,24.19,14.09.62-.05,1.25-.08,1.88-.08,14.79,0,26.78,14.05,26.78,31.38A35.38,35.38,0,0,1,337,296.54H196.29A29.37,29.37,0,0,1,191,279.48c0-12.13,6.86-22.33,16.17-25.32Z"/><path class="cls-24" d="M395.36,238.85c-1.09-22.53-19.33-40.45-41.68-40.45a41.67,41.67,0,0,0-37.55,24,32.65,32.65,0,0,0-3.45-.18,31.19,31.19,0,0,0-24.77,12.23c-.63,0-1.27-.07-1.92-.07a27.33,27.33,0,0,0-27.41,27.25,27,27,0,0,0,3.9,14h144a22.94,22.94,0,0,0-11.17-36.79Z"/><path class="cls-25" d="M486.54,249.52c.66-16,11.64-28.72,25.1-28.72,9.94,0,18.54,7,22.61,17a15.8,15.8,0,0,1,2.08-.13c6.07,0,11.46,3.4,14.91,8.68.38,0,.77,0,1.16,0,9.11,0,16.5,8.66,16.5,19.35a21.82,21.82,0,0,1-2.35,9.95H479.82a18.11,18.11,0,0,1-3.24-10.52c0-7.47,4.22-13.76,10-15.6Z"/><g class="cls-12"><path class="cls-26" d="M405.56,370c-1.69-4.75-5.24-12.16-12.06-17.47a26.12,26.12,0,0,0-16.17-5.76l-.91,0a29.4,29.4,0,0,0-15.73,4.83c-7.18,4.64-11.57,11.41-14.08,16.64-1.63-4.37-5.08-11.37-11.63-16.3a24.82,24.82,0,0,0-15-5.2c-.48,0-.9,0-1.25,0l-.55,0a27.62,27.62,0,0,0-16,5.33c-6.43,4.69-10.2,11.21-12.31,16.21C288,364,284.2,357,277.46,352.07a27.09,27.09,0,0,0-16.24-5.27c-.81,0-1.5,0-2.06.05l-.4,0a25.67,25.67,0,0,0-15.65,6.28,37,37,0,0,0-10.17,14.54,138.92,138.92,0,0,1,12.2-44.93c6.79-14.43,16.18-27,27.15-36.42,15.75-13.49,29.36-19.59,33.15-21.14A113.62,113.62,0,0,1,335,257.7a111.66,111.66,0,0,1,15-1.1c1.8,0,3.61,0,5.4.16,16.33,1,28.25,6.09,35.37,9.15l1.5.64c9.75,4.18,23.11,9.89,35.9,23.46A126.55,126.55,0,0,1,454,332.53a149.66,149.66,0,0,1,8.14,33.86,37.64,37.64,0,0,0-11.89-14.6,26.79,26.79,0,0,0-15.49-5.06h-.62c-.31,0-.74,0-1.25,0a25.12,25.12,0,0,0-16,5.93C410.35,358,407.08,365.28,405.56,370Z"/><path class="cls-27" d="M350,257.1c1.79,0,3.59,0,5.37.15,16.25,1,28.11,6.07,35.2,9.12l1.5.64c9.71,4.16,23,9.85,35.73,23.35a125.71,125.71,0,0,1,25.8,42.35,148.34,148.34,0,0,1,7.75,30.92,36.87,36.87,0,0,0-10.74-12.25,27.34,27.34,0,0,0-15.78-5.15h-.59c-.43,0-.85,0-1.28,0a25.55,25.55,0,0,0-16.33,6,37.3,37.3,0,0,0-11,16.22,38.66,38.66,0,0,0-11.73-16.39,26.66,26.66,0,0,0-16.48-5.86l-.9,0a30,30,0,0,0-16,4.91A40.72,40.72,0,0,0,346.66,367a36.41,36.41,0,0,0-11.38-15.46,25.33,25.33,0,0,0-15.33-5.3c-.44,0-.86,0-1.29,0l-.54,0a28,28,0,0,0-16.25,5.43,38.36,38.36,0,0,0-12,15.37,39,39,0,0,0-12.09-15.4,27.58,27.58,0,0,0-16.54-5.37c-.82,0-1.52,0-2.08.05l-.4,0a26.13,26.13,0,0,0-16,6.39,36,36,0,0,0-9,11.79A137.35,137.35,0,0,1,245.59,323c6.77-14.37,16.11-26.91,27-36.26,15.69-13.44,29.23-19.51,33-21.05A112.66,112.66,0,0,1,335,258.2,111,111,0,0,1,350,257.1m0-1a111.44,111.44,0,0,0-15,1.11,113.94,113.94,0,0,0-29.66,7.53C298.86,267.35,286,273.94,272,286c-6.59,5.64-18.11,17.1-27.28,36.59a140,140,0,0,0-12.58,49c.93-3.13,3.9-11.82,11.32-18.06a25.19,25.19,0,0,1,15.35-6.16c.6,0,1.43-.07,2.44-.07a26.5,26.5,0,0,1,15.95,5.17c7.73,5.62,11.38,13.83,12.69,17.17,1.34-3.44,5-11.58,12.6-17.13a27.53,27.53,0,0,1,16.26-5.27q.51,0,1.23,0a24.33,24.33,0,0,1,14.73,5.1c7.63,5.74,10.86,14.25,11.86,17.22,1.63-3.6,5.94-12.06,14.42-17.54a28.65,28.65,0,0,1,15.48-4.75l.89,0a25.68,25.68,0,0,1,15.86,5.65c8.11,6.31,11.4,15.57,12.39,18.72.84-3,3.8-12.17,11.63-18.56a24.64,24.64,0,0,1,15.7-5.82q.75,0,1.26,0h.61a26.31,26.31,0,0,1,15.21,5c8,5.65,11.77,14.17,13,17.44a151.61,151.61,0,0,0-8.54-37.28,125.14,125.14,0,0,0-26-42.69c-13.53-14.36-27.75-20-37.56-24.22-7.59-3.26-19.45-8.24-35.54-9.19-1.9-.12-3.71-.16-5.43-.16Z"/></g><path class="cls-28" d="M347.37,256.26c-44.26,29.13-60.72,67.79-57.83,113.08"/><line class="cls-28" x1="346.93" y1="255.78" x2="346.93" y2="369.82"/><path class="cls-28" d="M346.93,255.78c48,33.57,62.75,73.08,58.71,115.94"/><path class="cls-29" d="M1530.13,247.23h0a31.22,31.22,0,0,0,.5-5.58c0-15.16-10.7-27.92-25.28-31.76"/><path class="cls-29" d="M1487,209.89c-14.57,3.84-25.27,16.6-25.27,31.76a31.21,31.21,0,0,0,.49,5.58h0c21-15.43,22.93,0,33.94,0,12.23.25,13.42-14.62,33.94,0"/><path class="cls-29" d="M1472.42,231.39s2.74-7.76,10.44-10.39"/><path class="cls-29" d="M1479,273.38c0,5.17,3.85,9.36,8.59,9.36s8.59-4.19,8.59-9.36V256.23"/><path class="cls-4" d="M1496.19,204.6c.38,0,.8.47.8,1.14s-.42,1.15-.8,1.15-.8-.47-.8-1.15.42-1.14.8-1.14m0-3a4.16,4.16,0,1,0,3.8,4.14,4,4,0,0,0-3.8-4.14Z"/></g></g></svg>