<svg xmlns="http://www.w3.org/2000/svg" viewBox="0 0 10.82 10.55" fit="" height="100%" width="100%" preserveAspectRatio="xMidYMid meet" focusable="false"><defs><style>.cls-1{fill:#0084c6;} </style></defs><title>Asset 9</title><g id="Layer_2" data-name="Layer 2"><g id="Layer_2-2" data-name="Layer 2"><path class="cls-1" d="M3.83,7.55l.75-.9L9.47.76A7,7,0,0,1,10,.19.84.84,0,0,1,10.25,0c.39-.14.6.11.56.46a1.56,1.56,0,0,1-.28.71L5.31,9.33c-.14.22-.28.43-.41.65A1.15,1.15,0,0,1,3,10.12c-.68-.78-1.34-1.56-2-2.35-.27-.32-.56-.62-.8-1A1.11,1.11,0,0,1,.4,5.31a1.11,1.11,0,0,1,1.52,0c.4.42.76.88,1.14,1.31S3.56,7.25,3.83,7.55Z"></path></g></g></svg>