<svg xmlns="http://www.w3.org/2000/svg" viewBox="0 0 36.17 35.04"><defs><style>.cls-1,.cls-2,.cls-3{fill:none;stroke-linecap:round;stroke-linejoin:round;}.cls-1{stroke:#1f2b7e;}.cls-2{stroke:#ff364e;}.cls-3{stroke:#3b8bff;}</style></defs><title>compare-icon</title><g id="Layer_2" data-name="Layer 2"><g id="Layer_1-2" data-name="Layer 1"><path class="cls-1" d="M3.9,28v3.1a3.41,3.41,0,0,0,3.41,3.41h25"/><line class="cls-1" x1="3.9" y1="3.9" x2="3.9" y2="25.46"/><path class="cls-1" d="M35.67,28.67V25.46H28.86v5.67a3.41,3.41,0,0,0,3.41,3.41h0a3.41,3.41,0,0,0,3.4-3.41"/><path class="cls-1" d="M11.28,3.9H22.06A3.4,3.4,0,0,1,25.46.5h0a3.4,3.4,0,0,1,3.4,3.4"/><path class="cls-1" d="M28.86,25.46V3.9A3.4,3.4,0,0,0,25.46.5H3.9A3.4,3.4,0,0,0,.5,3.9H7.87"/><circle class="cls-2" cx="11.28" cy="12.25" r="3.97"/><circle class="cls-3" cx="21.49" cy="12.25" r="3.97"/><polyline class="cls-3" points="20.09 12.12 21.11 13.14 22.89 11.36"/><line class="cls-2" x1="12.41" y1="11.12" x2="10.14" y2="13.38"/><line class="cls-2" x1="10.14" y1="11.12" x2="12.41" y2="13.38"/><line class="cls-1" x1="18.73" y1="19.99" x2="18.09" y2="19.99"/><line class="cls-1" x1="24.89" y1="19.99" x2="20.94" y2="19.99"/><line class="cls-3" x1="14.68" y1="19.99" x2="7.87" y2="19.99"/><line class="cls-2" x1="24.89" y1="24.33" x2="18.09" y2="24.33"/><line class="cls-1" x1="14.68" y1="24.33" x2="7.87" y2="24.33"/><line class="cls-1" x1="24.89" y1="28.67" x2="18.09" y2="28.67"/><line class="cls-3" x1="10.56" y1="28.67" x2="7.87" y2="28.67"/><line class="cls-3" x1="14.68" y1="28.67" x2="13.24" y2="28.67"/></g></g></svg>