<svg xmlns="http://www.w3.org/2000/svg" xmlns:xlink="http://www.w3.org/1999/xlink" viewBox="0 0 619.29 248.52"><defs><style>.cls-1{fill:url(#linear-gradient);}.cls-13,.cls-16,.cls-2{fill:#0a8aff;}.cls-15,.cls-3{fill:#27a3ff;}.cls-4{fill:#1f2b7e;}.cls-5{fill:#fff;}.cls-6{fill:#0860db;}.cls-7{fill:#fc922a;}.cls-8{fill:#e6f3ff;}.cls-35,.cls-9{fill:#9dd0ff;}.cls-10{fill:#cee8ff;}.cls-11{fill:#ffc1c1;}.cls-12{fill:#fed3aa;}.cls-13{opacity:0.4;}.cls-14{fill:#fcae61;}.cls-15,.cls-16{opacity:0.7;}.cls-17{fill:#f0f7ff;}.cls-18{fill:#fe6363;}.cls-19{fill:#8fcaff;}.cls-20{fill:url(#linear-gradient-2);}.cls-21{fill:#b13939;}.cls-22{fill:#0144c6;}.cls-23{fill:url(#linear-gradient-3);}.cls-24{fill:url(#linear-gradient-4);}.cls-25{fill:url(#linear-gradient-5);}.cls-26{fill:none;stroke:#349eff;stroke-miterlimit:10;}.cls-27{fill:#c4e3ff;}.cls-28{fill:#3c485a;}.cls-29{fill:url(#linear-gradient-6);}.cls-30{fill:#3b8bff;}.cls-31{fill:url(#linear-gradient-7);}.cls-32{fill:#82f995;}.cls-33{fill:url(#linear-gradient-8);}.cls-34{fill:url(#linear-gradient-9);}.cls-35{opacity:0.5;}</style><linearGradient id="linear-gradient" x1="311.54" y1="167.05" x2="309.44" y2="243.74" gradientUnits="userSpaceOnUse"><stop offset="0" stop-color="#60b2fe" stop-opacity="0.15"/><stop offset="1" stop-color="#0d8cff" stop-opacity="0.3"/></linearGradient><linearGradient id="linear-gradient-2" x1="295.19" y1="100.36" x2="362.98" y2="100.36" gradientTransform="translate(-18.16 -12.17) rotate(0.41)" gradientUnits="userSpaceOnUse"><stop offset="0" stop-color="#fc8f2e"/><stop offset="1" stop-color="#fe675e"/></linearGradient><linearGradient id="linear-gradient-3" x1="452.12" y1="162.69" x2="457.05" y2="227.48" gradientUnits="userSpaceOnUse"><stop offset="0" stop-color="#60b2fe"/><stop offset="1" stop-color="#0d8cff"/></linearGradient><linearGradient id="linear-gradient-4" x1="454.85" y1="115.78" x2="455.79" y2="158.28" gradientUnits="userSpaceOnUse"><stop offset="0" stop-color="#0985f9"/><stop offset="1" stop-color="#0042a6"/></linearGradient><linearGradient id="linear-gradient-5" x1="416.45" y1="112.34" x2="442.86" y2="130.12" xlink:href="#linear-gradient-4"/><linearGradient id="linear-gradient-6" x1="546.42" y1="199.39" x2="540.59" y2="236.42" gradientUnits="userSpaceOnUse"><stop offset="0" stop-color="#3b8bff"/><stop offset="0.26" stop-color="#3787fa"/><stop offset="0.58" stop-color="#2d7beb"/><stop offset="0.92" stop-color="#1c68d3"/><stop offset="1" stop-color="#1763cc"/></linearGradient><linearGradient id="linear-gradient-7" x1="517.25" y1="175.11" x2="516.56" y2="235.69" gradientUnits="userSpaceOnUse"><stop offset="0" stop-color="#a7ff9c"/><stop offset="0.21" stop-color="#9ffa96"/><stop offset="0.53" stop-color="#89ed87"/><stop offset="0.93" stop-color="#65d86f"/><stop offset="1" stop-color="#5ed46a"/></linearGradient><linearGradient id="linear-gradient-8" x1="130.2" y1="172.66" x2="119" y2="227.94" xlink:href="#linear-gradient-6"/><linearGradient id="linear-gradient-9" x1="68.93" y1="107.43" x2="75.37" y2="222.97" xlink:href="#linear-gradient-7"/></defs><title>cp</title><g id="Layer_2" data-name="Layer 2"><g id="Layer_1-2" data-name="Layer 1"><path class="cls-1" d="M606.82,248.52H12.46c-10.78,0-16.5-12.87-9.16-20.77,7.16-7.7,16.89-15.36,29.06-18.67,28.52-7.74,57.4,3.17,92.61-24.64s69.72-55.64,124.65-45.08,79.93,33.21,150.12,9.39c52.76-17.9,101.88,24.42,119.25,40.38s38,26.29,69.48,25.82c15.79-.23,24.49,7.1,29.14,15A12.38,12.38,0,0,1,606.82,248.52Z"/><path class="cls-2" d="M188.08,50.67l192.47,1.51,2.82-8.06H183.24a7.11,7.11,0,0,0-7.1,7.6l11,161.11a7.12,7.12,0,0,0,7.1,6.64h131l11.27-30.09H196.41a3.56,3.56,0,0,1-3.56-3.34L184.5,54.46A3.57,3.57,0,0,1,188.08,50.67Zm119,144.86a8.54,8.54,0,1,1-8.54,8.53A8.53,8.53,0,0,1,307.05,195.53Z"/><path class="cls-3" d="M421.16,219.47H325.27l11.27-30.09h80.12a3.56,3.56,0,0,0,3.55-3.86L409.53,55.64A3.56,3.56,0,0,0,406,52.38l-25.46-.2,2.82-8.06h26.46a7.11,7.11,0,0,1,7.1,6.62l11.33,161.11A7.12,7.12,0,0,1,421.16,219.47Z"/><path class="cls-4" d="M194.24,219.47H185.8a7.14,7.14,0,0,1-7.12-6.64l-11-161.11a7.11,7.11,0,0,1,7.1-7.6h8.45a7.11,7.11,0,0,0-7.1,7.6l11,161.11A7.12,7.12,0,0,0,194.24,219.47Z"/><path class="cls-5" d="M420.21,185.52a3.56,3.56,0,0,1-3.55,3.86H196.41a3.56,3.56,0,0,1-3.56-3.34L184.5,54.46a3.57,3.57,0,0,1,3.58-3.79l192.47,1.51,25.46.2a3.56,3.56,0,0,1,3.52,3.26Z"/><path class="cls-5" d="M315.59,204.06a8.54,8.54,0,1,1-8.54-8.53A8.54,8.54,0,0,1,315.59,204.06Z"/><path class="cls-2" d="M347.27,248.52H305.64c0-5-3.47-6.45-5.24-6.87h40.89A6.48,6.48,0,0,1,347.27,248.52Z"/><path class="cls-6" d="M318.41,219.47l-6.17,22.18H300.4a7.26,7.26,0,0,0-1-.17H274.22c-5.29,0-2.83-4.58-2.83-4.58L277,219.47Z"/><path class="cls-4" d="M305.64,248.52H270.69s-8.45-.52-6.34-9.86c1.65-7.29,4.21-15.81,5.24-19.19H277l-5.64,17.43s-2.46,4.58,2.83,4.58h25.17a7.26,7.26,0,0,1,1,.17C302.17,242.07,305.64,243.54,305.64,248.52Z"/><path class="cls-7" d="M403.24,71.05H194.47L194,63.6a3.56,3.56,0,0,1,3.55-3.81H399.16a3.56,3.56,0,0,1,3.55,3.32Z"/><path class="cls-8" d="M410.33,176.06a3.56,3.56,0,0,1-3.56,3.8H205.45a3.56,3.56,0,0,1-3.55-3.31l-7.43-105.5H403.24Z"/><path class="cls-5" d="M211.44,84h32.8A1.77,1.77,0,0,1,246,85.64l5,80.24a1.78,1.78,0,0,1-1.78,1.89h-31.9a1.78,1.78,0,0,1-1.77-1.65l-5.85-80.24A1.78,1.78,0,0,1,211.44,84Z"/><path class="cls-5" d="M261.81,113.51H391.32a1.77,1.77,0,0,1,1.77,1.67l3.42,50.7a1.77,1.77,0,0,1-1.77,1.89H265.18a1.79,1.79,0,0,1-1.78-1.65L260,115.42A1.79,1.79,0,0,1,261.81,113.51Z"/><path class="cls-5" d="M259.12,84H389.58a1.77,1.77,0,0,1,1.77,1.67l.85,14.28a1.79,1.79,0,0,1-1.78,1.89H260a1.78,1.78,0,0,1-1.78-1.65l-.9-14.28A1.79,1.79,0,0,1,259.12,84Z"/><rect class="cls-9" x="222.2" y="153.36" width="20.95" height="4.58" rx="2.29"/><rect class="cls-9" x="271.97" y="156.65" width="20.95" height="4.58" rx="2.29"/><rect class="cls-9" x="270.91" y="144.82" width="20.95" height="4.58" rx="2.29"/><rect class="cls-9" x="269.85" y="133" width="20.95" height="4.58" rx="2.29"/><rect class="cls-9" x="268.8" y="121.17" width="20.95" height="4.58" rx="2.29"/><rect class="cls-10" x="302.03" y="156.09" width="83.91" height="4.58" rx="2.29"/><rect class="cls-10" x="300.97" y="144.27" width="83.91" height="4.58" rx="2.29"/><rect class="cls-10" x="299.91" y="132.44" width="83.91" height="4.58" rx="2.29"/><rect class="cls-10" x="298.86" y="120.62" width="83.91" height="4.58" rx="2.29"/><rect class="cls-9" x="267.79" y="90.88" width="20.95" height="4.58" rx="2.29"/><rect class="cls-10" x="297.85" y="90.32" width="83.91" height="4.58" rx="2.29"/><rect class="cls-11" x="221.23" y="138.35" width="20.95" height="4.58" rx="2.29"/><rect class="cls-12" x="220.26" y="123.34" width="20.95" height="4.58" rx="2.29"/><rect class="cls-11" x="219.3" y="108.33" width="20.95" height="4.58" rx="2.29"/><rect class="cls-12" x="218.33" y="93.32" width="20.95" height="4.58" rx="2.29"/><path class="cls-13" d="M448.66,42.25l-.45-9a3.57,3.57,0,0,0-3.53-3.38l-73.16-.52-128.36-.92a3.56,3.56,0,0,0-3.57,3.78l.51,8.54,6.41,104.82a3.55,3.55,0,0,0,3.53,3.34l65.42.47,134.93,1a3.56,3.56,0,0,0,3.58-3.74Z"/><path class="cls-14" d="M458.88,31.39,376,30.79l5.75-12.29L454.9,19a3.55,3.55,0,0,1,3.53,3.38Z"/><path class="cls-7" d="M381.74,18.5,376,30.79,250.32,29.9l-.52-8.54a3.57,3.57,0,0,1,3.58-3.78Z"/><path class="cls-15" d="M464.19,135.75a3.56,3.56,0,0,1-3.58,3.74l-134.93-1L376,30.79l82.89.6Z"/><path class="cls-16" d="M376,30.79,325.68,138.53l-65.42-.47a3.56,3.56,0,0,1-3.53-3.35L250.32,29.9Z"/><path class="cls-17" d="M268.19,72.4l2.73,49.95a3.56,3.56,0,0,0,3.53,3.36l76.93.55a3.55,3.55,0,0,0,3.58-3.72L352.65,72.6a3.57,3.57,0,0,0-3.53-3.4l-77.35-.55A3.56,3.56,0,0,0,268.19,72.4Z"/><path class="cls-17" d="M367.55,122.8,364.9,72.86a3.51,3.51,0,0,1,3.49-3.75l75.37.53A3.52,3.52,0,0,1,447.2,73L449.64,123a3.53,3.53,0,0,1-3.49,3.74L371,126.17A3.51,3.51,0,0,1,367.55,122.8Z"/><path class="cls-5" d="M452.29,42.21l.49,10.72a3.55,3.55,0,0,1-3.58,3.72l-28.27-.2A3.57,3.57,0,0,1,417.39,53l-.34-10.73a3.55,3.55,0,0,1,3.58-3.67l28.13.2A3.55,3.55,0,0,1,452.29,42.21Z"/><rect class="cls-18" x="441.16" y="43.23" width="3.87" height="9.8" transform="translate(0.36 -3.16) rotate(0.41)"/><rect class="cls-2" x="432.52" y="45.05" width="3.87" height="7.92" transform="translate(0.36 -3.1) rotate(0.41)"/><rect class="cls-19" x="423.71" y="47.56" width="3.87" height="5.34" transform="translate(0.37 -3.04) rotate(0.41)"/><path class="cls-5" d="M398.55,46.28,399,57a3.56,3.56,0,0,1-3.58,3.72l-28.27-.2a3.57,3.57,0,0,1-3.53-3.45l-.35-10.72a3.56,3.56,0,0,1,3.58-3.68l28.13.21A3.54,3.54,0,0,1,398.55,46.28Z"/><rect class="cls-18" x="387.42" y="47.31" width="3.87" height="9.8" transform="translate(0.38 -2.78) rotate(0.41)"/><rect class="cls-2" x="378.78" y="49.12" width="3.87" height="7.92" transform="translate(0.39 -2.72) rotate(0.41)"/><rect class="cls-19" x="369.97" y="51.64" width="3.87" height="5.34" transform="translate(0.4 -2.66) rotate(0.41)"/><path class="cls-5" d="M350.61,45.94l.49,10.73a3.57,3.57,0,0,1-3.59,3.72l-28.27-.2a3.57,3.57,0,0,1-3.53-3.45L315.36,46A3.58,3.58,0,0,1,319,42.34l28.13.2A3.57,3.57,0,0,1,350.61,45.94Z"/><rect class="cls-18" x="339.18" y="46.96" width="3.87" height="9.8" transform="translate(0.38 -2.44) rotate(0.41)"/><rect class="cls-2" x="330.55" y="48.78" width="3.87" height="7.92" transform="translate(0.39 -2.37) rotate(0.41)"/><rect class="cls-19" x="322.73" y="51.3" width="3.87" height="5.34" transform="translate(0.39 -2.32) rotate(0.41)"/><path class="cls-5" d="M302.66,45.6l.49,10.72A3.55,3.55,0,0,1,299.57,60l-28.27-.2a3.57,3.57,0,0,1-3.54-3.44l-.34-10.73A3.55,3.55,0,0,1,271,42l28.13.2A3.56,3.56,0,0,1,302.66,45.6Z"/><rect class="cls-18" x="291.53" y="46.62" width="3.87" height="9.8" transform="translate(0.38 -2.1) rotate(0.41)"/><rect class="cls-2" x="282.89" y="48.44" width="3.87" height="7.92" transform="translate(0.38 -2.03) rotate(0.41)"/><rect class="cls-19" x="275.08" y="50.96" width="3.87" height="5.34" transform="translate(0.39 -1.98) rotate(0.41)"/><rect class="cls-19" x="325.11" y="84.4" width="3.56" height="31.87" transform="translate(-6.35 23.67) rotate(-4.11)"/><rect class="cls-19" x="311.25" y="97.15" width="3.56" height="19.01" transform="translate(-7.9 26.88) rotate(-4.86)"/><rect class="cls-19" x="297.17" y="101.69" width="3.56" height="14.37" transform="translate(-9 28.93) rotate(-5.46)"/><rect class="cls-19" x="282.84" y="97.16" width="3.56" height="18.81" transform="translate(-8.16 25.03) rotate(-4.97)"/><rect class="cls-19" x="339.18" y="79.85" width="3.56" height="36.53" transform="translate(-6.04 24.15) rotate(-4.02)"/><path class="cls-20" d="M298.37,104.75a2.55,2.55,0,0,1-.78-.13l-19.46-6.11a2.67,2.67,0,0,1,1.61-5.1l18.56,5.84,12.86-4.9,12.88-13a2.58,2.58,0,0,1,1.22-.7l15.57-4.1a2.67,2.67,0,0,1,1.36,5.17l-14.87,3.91L314.55,98.52a2.74,2.74,0,0,1-.95.62l-14.26,5.43A2.69,2.69,0,0,1,298.37,104.75Z"/><path class="cls-2" d="M412.06,121.09a20.88,20.88,0,0,1-20.71-21l5.34,0a15.52,15.52,0,1,0,15.63-15.4l0-5.35a20.86,20.86,0,1,1-.3,41.72Z"/><path class="cls-21" d="M409.81,73.84A23,23,0,0,0,386.7,96.62l-2.83-.38C385.69,71.69,409.81,73.84,409.81,73.84Z"/><path class="cls-18" d="M409.81,73.84l-.07,9.79a13.18,13.18,0,0,0-13.25,13.06l-9.79-.07A23,23,0,0,1,409.81,73.84Z"/><path class="cls-22" d="M478,230.59s-9,6.75-11.27,6.86-2.17-1.82.35-5.1,3.06-4.64,3.11-5.46,3.06.12,5.4-1.76C476.88,224.78,480.51,228.77,478,230.59Z"/><path class="cls-22" d="M449.78,240.7s-10.55,4-12.72,3.5-1.59-2.35,1.74-4.81,4.21-3.62,4.5-4.39,2.9.95,5.67-.21C450.32,234.81,452.7,239.65,449.78,240.7Z"/><path class="cls-23" d="M470.24,225.1c-.7.22-3.17-5.49-5.12-10.42s-12.14-25.63-9.43-31.8C461,170.73,460,168.32,460,168.32c-3.41,13.27-14.55,28.87-13.61,31.1s2,8.58,1.64,13.5.59,13.09.76,17.19-3.87,3.35-5.05,2.94-1.34-4.46-1.34-4.46-6-32.1-6-37.38c0-4.66,4.94-28.06,7.63-32a2.39,2.39,0,0,0,1.38,1.71c2.09.83,16.22,2.35,21.13,0a4.17,4.17,0,0,0,2.38-2.91c4.51,14.16-4.67,31.68-3.84,34.67.87,3.21,3.95,10,4.85,15s2.67,9.58,3.85,14.72C474.67,226.14,471,224.89,470.24,225.1Z"/><path class="cls-24" d="M469,158.07a4.21,4.21,0,0,1-2.38,2.91c-4.91,2.35-19,.82-21.13,0a2.42,2.42,0,0,1-1.38-1.72,7.08,7.08,0,0,1-.09-2.63c.61-9-1.11-19.71-1.85-23.47-.19-1-.34-1.74-.42-2.41-.23-1.91.21-2.89,2.39-5,2.95-2.82-.61-8.57-1-9.51s1.23-2,14.25-1.29,10.93,10.91,10.81,23.71C468.09,148.06,469.91,154.43,469,158.07Z"/><path class="cls-25" d="M444.1,125.77c-2.18,2.09-2.62,3.07-2.39,5-.08-.24-.86-2.41-5.27-1.68-5.64,2-10.83,5.1-13.29,1.46s-12.33-15.5-12-18.43,3.75-3.29,3.75-3.29c2.47,2.71,10,17.37,13.15,15.5,4.81-2.94,15-8,15-8C443.49,117.2,447.05,123,444.1,125.77Z"/><path class="cls-26" d="M441.72,130.77a0,0,0,0,0,0,0"/><path class="cls-27" d="M408.18,109.34a3,3,0,0,0,3.58,0c2.17-1.29,1.94-3.29.41-5.11s-6.75-8.39-6.51-6.39,2.4,3.9,2.4,4.61-2.53,1.43-2.41,3.08A5.2,5.2,0,0,0,408.18,109.34Z"/><path class="cls-28" d="M461.35,102.11c-.29,5.28-5.16,7.33-5.52,8-1.63,1.27-2.63.88-4.42.88s-1.74-4.93-1.56-6.57,2.52-4,1-4.84-3,1.72-3.06,2.78-1.11,2.94-1.87.47.58-5.92.58-5.92a24.1,24.1,0,0,1-4.3-1.79c-1-2.1-2.14-6.68,4.54-7.49C460.58,86.61,461.64,96.82,461.35,102.11Z"/><path class="cls-27" d="M455.83,113.32c-.11,1.11-4.46.65-6.34.58s-1.53-3.28-1.58-3.52c-.29-1.47-2.9-.3-4.05-.78-1.93-.79-.31-3.61-1.67-4.71-2.82-2.27,1.91-3.83.26-9.29a3.88,3.88,0,0,0-.25-.5,24.1,24.1,0,0,0,4.3,1.79s-1.35,3.46-.58,5.92,1.81.59,1.87-.47,1.54-3.62,3.06-2.78-.82,3.19-1,4.84-.22,6.57,1.56,6.57,2.79.39,4.42-.88C455.48,110.74,456,112.2,455.83,113.32Z"/><path class="cls-29" d="M539.77,240.85s6,1.16,7.73-4.93-4.31-10.7.09-16.74,9.32-21.49,1.12-20.63-8.37,17.17-9.12,22.9C539,226,525.58,238.34,539.77,240.85Z"/><path class="cls-30" d="M539.82,248.52a34.38,34.38,0,0,1-.28-10.23,70.6,70.6,0,0,1,1.72-10.12,101.4,101.4,0,0,1,2.93-9.81l1.83-4.78c.7-1.56,1.35-3.13,2.08-4.67l-3,9.76c-.9,3.27-1.86,6.51-2.61,9.81s-1.48,6.6-2,9.93c-.27,1.67-.46,3.35-.6,5A33.13,33.13,0,0,0,539.82,248.52Z"/><path class="cls-31" d="M511.19,240.85a20.32,20.32,0,0,0,12-8.38c4.67-7,5.66-12.87,0-22.18s1.47-8.46-.6-14.24-4.49-4.4-4.31-14.24-6.61-8.59-5.81-1.73c.88,7.63-5.72,6.9,0,17.61s-3.86,10.61-5.67,24.94C505.5,232.58,507,239.49,511.19,240.85Z"/><path class="cls-32" d="M507.27,248.52a50.69,50.69,0,0,0,3.62-7.81l.76-2,.67-2c.47-1.35.8-2.75,1.19-4.13a101.62,101.62,0,0,0,2.93-16.9l.34-4.28c.13-1.43.09-2.86.15-4.29.14-2.87,0-5.73-.09-8.6,0-1.44-.13-2.87-.24-4.3l-.32-4.3-1-8.58c.58,2.82,1.12,5.66,1.61,8.5l.52,4.31c.16,1.43.37,2.86.42,4.31.19,2.89.35,5.78.27,8.67,0,1.45,0,2.9-.09,4.35l-.29,4.33a93.26,93.26,0,0,1-3.26,17.06A56.08,56.08,0,0,1,507.27,248.52Z"/><path class="cls-33" d="M118.37,236.71a12.76,12.76,0,0,0,10.1-7.42c3.25-7-2.65-18.31,0-22.4s9.51-12.29,9.76-22.53-2.29-12.52-5.79-12.28S120,180.27,119,192.31s.37,18.31-5.42,23.25-6.14,16-2.28,19S118.37,236.71,118.37,236.71Z"/><path class="cls-30" d="M117.59,248.52a121,121,0,0,1,.32-16.49,164.66,164.66,0,0,1,2.18-16.38,138.76,138.76,0,0,1,4-16,92,92,0,0,1,6.34-15.25c-1.63,5.27-3.21,10.48-4.51,15.77-.61,2.66-1.31,5.29-1.83,8l-.86,4-.76,4C120.46,226.82,119,237.62,117.59,248.52Z"/><path class="cls-34" d="M84.2,236.71s3.32-2,5.24-22-12-30.6-9.15-39.51,7.23-13.25,3.13-21.92,5.3-16.62-.24-16.86-11.56,7.46-11.56,18.3-8,12.05-3.86,22.65S38,214.86,84.2,236.71Z"/><path class="cls-32" d="M89.44,248.52A103.59,103.59,0,0,1,79.3,224.43a144.39,144.39,0,0,1-5-25.75c-.27-2.17-.32-4.36-.49-6.55l-.22-3.27c0-1.09,0-2.19,0-3.28V179c.08-2.18.24-4.37.37-6.55.15-4.37.91-8.69,1.43-13l.24-1.62.32-1.6.66-3.21q.65-3.19,1.36-6.39c-.38,4.35-1.1,8.64-1.39,13L76,166.07c-.05,1.08-.2,2.16-.2,3.24l-.07,3.24L75.63,179l.19,6.47c0,1.08,0,2.16.09,3.24l.24,3.23c.19,2.15.26,4.31.54,6.45l.75,6.43c.28,2.14.7,4.26,1,6.4s.79,4.24,1.21,6.36.93,4.21,1.45,6.31A142.63,142.63,0,0,0,89.44,248.52Z"/><path class="cls-8" d="M138.35,110.14H61.66a5,5,0,0,1-4.75-4.76L54.12,69.05a5,5,0,0,1,4.76-5.62h76.69a5,5,0,0,1,4.75,4.76l2.78,36.33A5,5,0,0,1,138.35,110.14Z"/><rect class="cls-35" x="64.08" y="71.09" width="28.06" height="6.13" rx="2.57"/><rect class="cls-35" x="101.97" y="71.09" width="28.06" height="6.13" rx="2.57"/><rect class="cls-35" x="65.64" y="83.11" width="28.06" height="6.13" rx="2.57"/><rect class="cls-35" x="103.53" y="83.11" width="28.06" height="6.13" rx="2.57"/><rect class="cls-35" x="67.2" y="95.14" width="28.06" height="6.13" rx="2.57"/><rect class="cls-35" x="105.09" y="95.14" width="28.06" height="6.13" rx="2.57"/><path class="cls-8" d="M530,37H476.65c-1.73,0-3.16-1.64-3.31-3.77L471.41,4.45c-.16-2.39,1.37-4.45,3.3-4.45H528c1.72,0,3.16,1.64,3.3,3.77l1.94,28.77C533.44,34.94,531.91,37,530,37Z"/><rect class="cls-35" x="478.33" y="7.58" width="46.86" height="4.26" rx="2.13"/><rect class="cls-35" x="479.42" y="15.94" width="46.86" height="4.26" rx="2.13"/><rect class="cls-35" x="480.5" y="24.3" width="46.86" height="4.26" rx="2.13"/></g></g></svg>