<svg xmlns="http://www.w3.org/2000/svg" viewBox="0 0 38.75 33"><defs><style>.cls-1,.cls-2{fill:none;stroke-linecap:round;stroke-linejoin:round;}.cls-1{stroke:#1f2b7e;}.cls-2{stroke:#ff364e;}.cls-3{fill:#3b8bff;}.cls-4{fill:#ff364e;}</style></defs><title>domain-info</title><g id="Layer_2" data-name="Layer 2"><g id="Layer_1-2" data-name="Layer 1"><path class="cls-1" d="M5,23.47a16,16,0,0,0,28.79,0"/><path class="cls-1" d="M13.72,1.53a16,16,0,0,1,20.06,8"/><path class="cls-2" d="M10.38,3.27l.08-.06"/><path class="cls-1" d="M5,9.54a16,16,0,0,1,3.45-4.7"/><path class="cls-1" d="M25.92,23.47h8.13a4.2,4.2,0,0,0,4.2-4.2V13.73a4.2,4.2,0,0,0-4.2-4.2H4.7a4.2,4.2,0,0,0-4.2,4.2v5.54a4.2,4.2,0,0,0,4.2,4.2h17"/><line class="cls-2" x1="23.77" y1="23.47" x2="23.92" y2="23.47"/><path class="cls-3" d="M8.08,14.43a1.82,1.82,0,0,0-1.47.7v-2.7H5.76v7.08h.85V16a1.5,1.5,0,0,1,.49-.58,1.23,1.23,0,0,1,.73-.22,1,1,0,0,1,.75.26,1.14,1.14,0,0,1,.25.8v3.3h.85v-3.3Q9.66,14.43,8.08,14.43Z"/><path class="cls-3" d="M12.8,18.72a.69.69,0,0,1-.12-.45v-3.1h.93v-.66h-.93V13.31h-.85v1.21h-.91v.66h.91v3.09a1.48,1.48,0,0,0,.29,1,1.06,1.06,0,0,0,.86.35,2.51,2.51,0,0,0,.65-.09v-.69a2.06,2.06,0,0,1-.41.06A.52.52,0,0,1,12.8,18.72Z"/><path class="cls-3" d="M16.45,18.72a.69.69,0,0,1-.12-.45v-3.1h.93v-.66h-.93V13.31h-.85v1.21h-.91v.66h.91v3.09a1.48,1.48,0,0,0,.29,1,1.06,1.06,0,0,0,.86.35,2.51,2.51,0,0,0,.65-.09v-.69a2.06,2.06,0,0,1-.41.06A.52.52,0,0,1,16.45,18.72Z"/><path class="cls-3" d="M21.09,14.43a1.76,1.76,0,0,0-1.45.65l0-.55h-.78v6.9h.85V19a1.83,1.83,0,0,0,1.43.58,1.67,1.67,0,0,0,1.41-.7A3,3,0,0,0,23,17.07V17a3,3,0,0,0-.52-1.89A1.7,1.7,0,0,0,21.09,14.43Zm.73,4a1.15,1.15,0,0,1-1,.49,1.25,1.25,0,0,1-1.17-.68V15.84a1.25,1.25,0,0,1,1.16-.69,1.16,1.16,0,0,1,1,.49A2.21,2.21,0,0,1,22.18,17,2.41,2.41,0,0,1,21.82,18.42Z"/><path class="cls-3" d="M25.18,18.54a.5.5,0,0,0-.39.15.54.54,0,0,0-.13.37.51.51,0,0,0,.13.35.51.51,0,0,0,.39.14.52.52,0,0,0,.4-.14.49.49,0,0,0,.14-.35.52.52,0,0,0-.14-.37A.51.51,0,0,0,25.18,18.54Z"/><path class="cls-3" d="M25.19,14.47a.5.5,0,0,0-.39.15.53.53,0,0,0-.13.37.5.5,0,0,0,.13.35.5.5,0,0,0,.39.14.52.52,0,0,0,.4-.14.49.49,0,0,0,.14-.35.53.53,0,0,0-.14-.37A.52.52,0,0,0,25.19,14.47Z"/><polygon class="cls-4" points="29.78 12.79 26.97 20.08 27.71 20.08 30.5 12.79 29.78 12.79"/><polygon class="cls-4" points="33.2 12.79 30.4 20.08 31.13 20.08 33.93 12.79 33.2 12.79"/><path class="cls-1" d="M5,23.47h7.07a2.34,2.34,0,1,1,0,4.69H8.44"/><path class="cls-1" d="M33.76,9.53H26.71a2.34,2.34,0,1,1,0-4.69h3.61"/></g></g></svg>