<svg xmlns="http://www.w3.org/2000/svg" viewBox="0 0 517.37 115.6"><defs><style>.cls-1{fill:#fff;}</style></defs><title>Asset 1</title><g id="Layer_2" data-name="Layer 2"><g id="Layer_1-2" data-name="Layer 1"><path class="cls-1" d="M487.5,4.87a25,25,0,0,1,25,25V85.73a25,25,0,0,1-25,25H431.64a25,25,0,0,1-25-25V29.87a25,25,0,0,1,25-25H487.5m0-4.87H431.64a29.87,29.87,0,0,0-29.88,29.87V85.73a29.87,29.87,0,0,0,29.88,29.87H487.5a29.87,29.87,0,0,0,29.87-29.87V29.87A29.87,29.87,0,0,0,487.5,0Z"/><path class="cls-1" d="M371.48,23.76a3.91,3.91,0,0,0-3.9,3.9v49a3.9,3.9,0,1,0,7.8,0v-49A3.91,3.91,0,0,0,371.48,23.76Z"/><path class="cls-1" d="M352,43.49a3.9,3.9,0,0,0-3.89,3.9V61a11.72,11.72,0,0,1-11.7,11.7h-7.67A11.71,11.71,0,0,1,317,61v-3.9a3.9,3.9,0,0,0-7.8,0v21.4a15.6,15.6,0,0,1-15.59,15.59,3.9,3.9,0,1,0,0,7.8A23.42,23.42,0,0,0,317,78.53V76.59a19.33,19.33,0,0,0,11.69,3.93h7.67A19.51,19.51,0,0,0,355.89,61V47.39A3.9,3.9,0,0,0,352,43.49Z"/><path class="cls-1" d="M210.42,43.49a3.91,3.91,0,0,0-3.9,3.9V61a11.71,11.71,0,0,1-11.69,11.7H189a13.66,13.66,0,0,1-13.64-13.64V47.39a3.9,3.9,0,1,0-7.79,0V61a11.72,11.72,0,0,1-11.7,11.7h-5.82a13.66,13.66,0,0,1-13.64-13.64,21.44,21.44,0,1,0-42.88,0A13.66,13.66,0,0,1,79.89,72.73H56.5A13.65,13.65,0,0,1,42.87,59.2v-.11A21.48,21.48,0,1,0,39,71.38,21.41,21.41,0,0,0,56.5,80.52H79.89a21.4,21.4,0,0,0,17.54-9.15,21.39,21.39,0,0,0,35.08,0,21.4,21.4,0,0,0,17.54,9.15h5.82A19.46,19.46,0,0,0,172,72,21.38,21.38,0,0,0,189,80.52h5.83A19.51,19.51,0,0,0,214.32,61V47.39A3.91,3.91,0,0,0,210.42,43.49Zm-189,29.24A13.65,13.65,0,1,1,35.07,59v.19A13.65,13.65,0,0,1,21.44,72.73Zm93.53,0a13.65,13.65,0,1,1,13.64-13.64A13.66,13.66,0,0,1,115,72.73Z"/><circle class="cls-1" cx="328.67" cy="95.09" r="4.87"/><circle class="cls-1" cx="340.36" cy="95.09" r="4.87"/><circle class="cls-1" cx="146.14" cy="95.09" r="4.87"/><circle class="cls-1" cx="157.83" cy="95.09" r="4.87"/><circle class="cls-1" cx="190.94" cy="95.09" r="4.87"/><circle class="cls-1" cx="313.14" cy="40.53" r="4.87"/><path class="cls-1" d="M297.55,68.71a17.68,17.68,0,0,0-17.66-17.66h-11.3a9.75,9.75,0,0,1,0-19.49h5.85a3.9,3.9,0,0,0,0-7.8h-5.85a17.54,17.54,0,0,0,0,35.08h11.3a9.87,9.87,0,0,1,0,19.73H249.4A15.6,15.6,0,0,1,233.81,63V53.24a3.9,3.9,0,0,0-7.8,0V63A23.41,23.41,0,0,0,249.4,86.37h30.49A17.68,17.68,0,0,0,297.55,68.71Z"/><path class="cls-1" d="M469.92,23a2.26,2.26,0,1,0-1.06,4.4c14.93,3.61,25.37,15.55,25.37,29q0,.86-.06,1.71c-13.36-7.8-19.26-4.6-25-1.49-2.9,1.58-5.62,3.06-9.62,3-3.29,0-5.69-1.4-8.48-3C445.41,53.28,439,49.56,425,58c0-.55-.05-1.1-.05-1.65,0-13.49,10.44-25.43,25.38-29a2.26,2.26,0,1,0-1.07-4.4c-17,4.09-28.84,17.85-28.84,33.44a30.58,30.58,0,0,0,.54,5.74,2.19,2.19,0,0,0,.4,1,2.25,2.25,0,0,0,3.12.58c13.87-9.37,18.74-6.53,24.38-3.24,2.93,1.7,6.24,3.63,10.71,3.63h.36c4.95,0,8.41-1.88,11.48-3.54,5.42-3,10.1-5.5,23.36,3.17a2.27,2.27,0,0,0,3.48-1.56,30.53,30.53,0,0,0,.56-5.82C498.76,40.8,486.9,27,469.92,23Z"/><path class="cls-1" d="M447.92,33.71a18.71,18.71,0,0,0-12.37,9.12,2,2,0,0,0,.88,2.72,2.09,2.09,0,0,0,.71.22,2,2,0,0,0,2-1.08,14.89,14.89,0,0,1,9.56-7,2,2,0,0,0-.8-4Z"/><path class="cls-1" d="M459.57,69.47a2.26,2.26,0,0,0-2.27,2.26V87.59a6.95,6.95,0,1,1-13.9,0,2.27,2.27,0,1,0-4.53,0,11.48,11.48,0,1,0,23,0V71.73A2.26,2.26,0,0,0,459.57,69.47Z"/><circle class="cls-1" cx="459.57" cy="21.27" r="4.74"/></g></g></svg>