<svg xmlns="http://www.w3.org/2000/svg" width="144.91" height="34.63" viewBox="0 0 144.91 34.63"><defs><style>.cls-1{fill:#09ebaf;}.cls-2{fill:#fff;}</style></defs><title>Asset 9</title><g id="Layer_2" data-name="Layer 2"><g id="Layer_1-2" data-name="Layer 1"><path class="cls-1" d="M38.62,20.83h5.85a5.1,5.1,0,0,1,.65,0,1.57,1.57,0,0,1,.51.18c.34.18.51.67.51,1.48s-.23,1.41-.7,1.56a3.13,3.13,0,0,1-1,.11H36.92c-.88,0-1.4-.24-1.55-.72a2.86,2.86,0,0,1-.12-1V11.93a1.86,1.86,0,0,1,.36-1.32A2,2,0,0,1,37,10.26h7.49a5.1,5.1,0,0,1,.65,0,1.57,1.57,0,0,1,.51.18c.34.18.51.67.51,1.48s-.23,1.41-.7,1.56a3.07,3.07,0,0,1-1,.12H38.62v1.92h3.76a5.56,5.56,0,0,1,.65,0,1.57,1.57,0,0,1,.51.18c.34.18.51.68.51,1.49s-.24,1.4-.72,1.55a3.07,3.07,0,0,1-1,.12H38.62Z"/><path class="cls-1" d="M58.44,16.72a4.54,4.54,0,0,1-.18,6.17,4.15,4.15,0,0,1-3.07,1.28h-5q-1.34,0-1.56-.72a3.36,3.36,0,0,1-.11-1V11.92a5.25,5.25,0,0,1,0-.67,1.18,1.18,0,0,1,.18-.49c.17-.35.67-.52,1.48-.52H55a3.94,3.94,0,0,1,2.93,1.22,4,4,0,0,1,1.23,3A3.94,3.94,0,0,1,58.44,16.72Zm-2.24,2.8a2,2,0,0,0-.11-.73.67.67,0,0,0-.35-.37,2.75,2.75,0,0,0-1.06-.16,1.72,1.72,0,0,1-1-.26,1.35,1.35,0,0,1-.34-1.1,1.3,1.3,0,0,1,.35-1.09,2,2,0,0,1,1.17-.26c.5,0,.81-.14.91-.4a2.79,2.79,0,0,0,.06-.69.71.71,0,0,0-.32-.66,1.81,1.81,0,0,0-.94-.19H51.88v7.2H55Q56.2,20.81,56.2,19.52Z"/><path class="cls-2" d="M69.06,21.15l.29-.2a1.92,1.92,0,0,1,.76-.32c.32,0,.68.29,1.06.89a1.86,1.86,0,0,1,.35.88.76.76,0,0,1-.22.56,2.16,2.16,0,0,1-.5.39l-.54.34a6.53,6.53,0,0,1-1.07.41,5.18,5.18,0,0,1-1.56.25,5.72,5.72,0,0,1-1.52-.2,6.56,6.56,0,0,1-1.59-.66,6.46,6.46,0,0,1-1.46-1.14A5.36,5.36,0,0,1,62,20.62a6.1,6.1,0,0,1-.42-2.29A6,6,0,0,1,62,16.09,5.21,5.21,0,0,1,63,14.43a5.66,5.66,0,0,1,1.46-1.1,6.42,6.42,0,0,1,3.12-.86,5.32,5.32,0,0,1,1.51.23,5.6,5.6,0,0,1,1.17.47l.38.22.44.29a1,1,0,0,1,.41.75,1.53,1.53,0,0,1-.33.88c-.41.57-.78.85-1.11.85a1.62,1.62,0,0,1-.81-.35,2.77,2.77,0,0,0-1.77-.53,3.43,3.43,0,0,0-2,.71,2.61,2.61,0,0,0-.79,1,3.38,3.38,0,0,0,0,2.87,2.79,2.79,0,0,0,.81,1,3.39,3.39,0,0,0,2,.69,3.48,3.48,0,0,0,.93-.12A2.23,2.23,0,0,0,69.06,21.15Z"/><path class="cls-2" d="M79,12.44a5.86,5.86,0,0,1,5.8,5.9,6,6,0,0,1-1.65,4.28,5.31,5.31,0,0,1-4,1.76A5.5,5.5,0,0,1,75,22.64a5.77,5.77,0,0,1-1.69-4.15A6.31,6.31,0,0,1,73.75,16a5.63,5.63,0,0,1,3.09-3.14A5.21,5.21,0,0,1,79,12.44Zm-2.88,6A3,3,0,0,0,77,20.7a2.84,2.84,0,0,0,2,.88,2.92,2.92,0,0,0,2-.85,3,3,0,0,0,.9-2.3A3,3,0,0,0,81,16.12a2.81,2.81,0,0,0-2-.87,2.85,2.85,0,0,0-2,.87A3.07,3.07,0,0,0,76.08,18.41Z"/><path class="cls-2" d="M94.24,13.07a.77.77,0,0,1,.45-.38,2.65,2.65,0,0,1,.75-.09,2.89,2.89,0,0,1,.73.08,1.21,1.21,0,0,1,.41.19.6.6,0,0,1,.2.33,2.64,2.64,0,0,1,.09.81V22.8a3.89,3.89,0,0,1,0,.55,1.53,1.53,0,0,1-.15.42c-.15.28-.56.42-1.24.42a2.72,2.72,0,0,1-.85-.09,1,1,0,0,1-.4-.3c-2.37-3.17-3.94-5.24-4.69-6.21V22.8a3.89,3.89,0,0,1,0,.55,1.53,1.53,0,0,1-.15.42c-.15.28-.56.42-1.24.42s-1-.14-1.2-.42a1.58,1.58,0,0,1-.15-.43c0-.13,0-.31,0-.56V14a1.93,1.93,0,0,1,.15-.88.77.77,0,0,1,.45-.38,2.76,2.76,0,0,1,.77-.09,2.58,2.58,0,0,1,.76.09.88.88,0,0,1,.39.2,3.44,3.44,0,0,1,.36.41q3.34,4.54,4.47,6V14A1.93,1.93,0,0,1,94.24,13.07Z"/><path class="cls-2" d="M106.59,13.07a.77.77,0,0,1,.45-.38,2.65,2.65,0,0,1,.75-.09,2.84,2.84,0,0,1,.73.08,1.12,1.12,0,0,1,.41.19.6.6,0,0,1,.2.33,2.31,2.31,0,0,1,.1.81V22.8a3.54,3.54,0,0,1,0,.55,1.07,1.07,0,0,1-.15.42q-.22.42-1.23.42a2.8,2.8,0,0,1-.86-.09.89.89,0,0,1-.39-.3Q103,19,101.88,17.59V22.8a3.54,3.54,0,0,1,0,.55,1.07,1.07,0,0,1-.15.42c-.14.28-.56.42-1.23.42s-1.06-.14-1.21-.42a1.58,1.58,0,0,1-.15-.43c0-.13,0-.31,0-.56V14a1.93,1.93,0,0,1,.15-.88.77.77,0,0,1,.45-.38,2.78,2.78,0,0,1,.78-.09,2.56,2.56,0,0,1,.75.09.88.88,0,0,1,.39.2,3.44,3.44,0,0,1,.36.41q3.34,4.54,4.47,6V14A1.93,1.93,0,0,1,106.59,13.07Z"/><path class="cls-2" d="M114.25,21.39h4.87l.55,0a1.53,1.53,0,0,1,.42.15c.29.15.43.56.43,1.24s-.2,1.17-.59,1.3a2.76,2.76,0,0,1-.82.09h-6.27c-.74,0-1.17-.2-1.3-.6a2.31,2.31,0,0,1-.1-.81V14a1.52,1.52,0,0,1,.3-1.1,1.64,1.64,0,0,1,1.14-.3h6.24a3.63,3.63,0,0,1,.55,0,1.07,1.07,0,0,1,.42.15c.29.15.43.56.43,1.23s-.2,1.17-.59,1.3a2.41,2.41,0,0,1-.82.1h-4.86V17h3.13a4,4,0,0,1,.55,0,1.53,1.53,0,0,1,.42.15c.28.15.43.56.43,1.24s-.2,1.17-.61,1.3a2.76,2.76,0,0,1-.82.09h-3.1Z"/><path class="cls-2" d="M129.75,21.15,130,21a1.92,1.92,0,0,1,.76-.32c.32,0,.68.29,1.06.89a1.86,1.86,0,0,1,.35.88A.76.76,0,0,1,132,23a2.16,2.16,0,0,1-.5.39l-.54.34a6.53,6.53,0,0,1-1.07.41,5.18,5.18,0,0,1-1.56.25,5.72,5.72,0,0,1-1.52-.2,6.56,6.56,0,0,1-1.59-.66,6.46,6.46,0,0,1-1.46-1.14,5.36,5.36,0,0,1-1.07-1.73,6.1,6.1,0,0,1-.42-2.29,6,6,0,0,1,.41-2.24,5.36,5.36,0,0,1,1-1.66,5.89,5.89,0,0,1,1.47-1.1,6.39,6.39,0,0,1,3.12-.86,5.32,5.32,0,0,1,1.51.23,5.84,5.84,0,0,1,1.17.47l.38.22.44.29a1,1,0,0,1,.41.75,1.53,1.53,0,0,1-.33.88c-.41.57-.78.85-1.11.85a1.62,1.62,0,0,1-.81-.35,2.77,2.77,0,0,0-1.77-.53,3.43,3.43,0,0,0-2,.71,2.61,2.61,0,0,0-.79,1,3.38,3.38,0,0,0,0,2.87,2.79,2.79,0,0,0,.81,1,3.39,3.39,0,0,0,2,.69,3.54,3.54,0,0,0,.93-.12A2.38,2.38,0,0,0,129.75,21.15Z"/><path class="cls-2" d="M135,12.57h8.81a1.74,1.74,0,0,1,.74.12.62.62,0,0,1,.32.37,2.4,2.4,0,0,1,.08.67,2.25,2.25,0,0,1-.08.65.59.59,0,0,1-.27.34,1.79,1.79,0,0,1-.81.14h-3v8a3.57,3.57,0,0,1,0,.54,1.07,1.07,0,0,1-.14.4.65.65,0,0,1-.42.33,2.86,2.86,0,0,1-.79.09,2.81,2.81,0,0,1-.79-.09.66.66,0,0,1-.41-.33,1.33,1.33,0,0,1-.14-.41,4,4,0,0,1,0-.55V14.86h-3a2,2,0,0,1-.75-.11.64.64,0,0,1-.32-.38,2.42,2.42,0,0,1-.07-.66,2.33,2.33,0,0,1,.07-.66.59.59,0,0,1,.27-.34A1.93,1.93,0,0,1,135,12.57Z"/><path class="cls-1" d="M14.65,23.32h-.13a7.67,7.67,0,0,1-4-1.35c-2.08-1.21-3.87-2.26-9,1.2a.88.88,0,0,1-1.21-.23,1,1,0,0,1-.15-.4A11.64,11.64,0,0,1,0,20.41C0,14.91,4,10,9.82,8.25a.87.87,0,0,1,.51,1.67C5.2,11.47,1.75,15.69,1.75,20.41c0,.19,0,.37,0,.55,5.19-3.11,7.55-1.73,9.66-.5a6,6,0,0,0,3.11,1.11,6.69,6.69,0,0,0,3.55-1.1c2.12-1.16,4.3-2.34,9.22.52a5.62,5.62,0,0,0,0-.58c0-4.72-3.45-8.94-8.58-10.49a.87.87,0,1,1,.51-1.67c5.87,1.78,9.82,6.66,9.82,12.16a11.24,11.24,0,0,1-.21,2.17.89.89,0,0,1-.21.45.87.87,0,0,1-1.13.14C22.63,20,20.91,20.92,18.91,22A8.36,8.36,0,0,1,14.65,23.32Z"/><path class="cls-2" d="M11.12,34.63a4.23,4.23,0,0,1-2.93-1.17,4.31,4.31,0,0,1-1.35-3.12.88.88,0,0,1,1.75,0,2.53,2.53,0,0,0,.8,1.85,2.49,2.49,0,0,0,1.89.68,2.61,2.61,0,0,0,2.38-2.66V25.52a.88.88,0,0,1,1.75,0v4.69a4.36,4.36,0,0,1-4,4.41Z"/><path class="cls-2" d="M14.53,7.93a3.19,3.19,0,0,1-3.19-3.19V3.19a3.2,3.2,0,0,1,6.39,0V4.74A3.2,3.2,0,0,1,14.53,7.93Zm0-6.18a1.45,1.45,0,0,0-1.44,1.44V4.74a1.45,1.45,0,0,0,2.89,0V3.19A1.45,1.45,0,0,0,14.53,1.75Z"/><path class="cls-2" d="M14.53,17.17A3.2,3.2,0,0,1,11.34,14V12.43a3.2,3.2,0,0,1,6.39,0V14A3.21,3.21,0,0,1,14.53,17.17Zm0-6.19a1.45,1.45,0,0,0-1.44,1.45V14A1.45,1.45,0,1,0,16,14V12.43A1.45,1.45,0,0,0,14.53,11Z"/><path class="cls-2" d="M14.53,12.63a.87.87,0,0,1-.87-.87V5.4a.88.88,0,0,1,1.75,0v6.36A.87.87,0,0,1,14.53,12.63Z"/></g></g></svg>