<svg xmlns="http://www.w3.org/2000/svg" width="86.7" height="103.28" viewBox="0 0 86.7 103.28"><defs><style>.cls-1{fill:#09ebaf;}.cls-2{fill:#fff;}</style></defs><title>icon</title><g id="Layer_2" data-name="Layer 2"><g id="Layer_1-2" data-name="Layer 1"><path class="cls-1" d="M43.7,69.55h-.4c-4.95,0-8.63-2.14-11.87-4C25.24,61.92,19.9,58.8,4.65,69.1A2.6,2.6,0,0,1,.6,67.23,33.63,33.63,0,0,1,0,60.89c0-16.41,11.77-31,29.29-36.3a2.61,2.61,0,0,1,1.52,5C15.5,34.22,5.21,46.8,5.21,60.89c0,.54,0,1.09,0,1.64,15.46-9.28,22.52-5.17,28.8-1.51,3,1.78,5.69,3.31,9.29,3.31,4.36.08,7.38-1.55,10.57-3.29,6.32-3.43,12.83-7,27.52,1.56,0-.57,0-1.14,0-1.71,0-14.09-10.28-26.67-25.58-31.3a2.61,2.61,0,1,1,1.51-5C74.93,29.9,86.7,44.49,86.7,60.89a34.08,34.08,0,0,1-.62,6.46,2.58,2.58,0,0,1-.64,1.34,2.61,2.61,0,0,1-3.36.43c-14.58-9.53-19.72-6.73-25.67-3.5C53,67.47,49.18,69.55,43.7,69.55Z"/><path class="cls-2" d="M33.17,103.28a12.69,12.69,0,0,1-8.74-3.47,12.86,12.86,0,0,1-4-9.3,2.61,2.61,0,0,1,5.22,0,7.56,7.56,0,0,0,8,7.54,7.79,7.79,0,0,0,7.09-7.94v-14a2.61,2.61,0,0,1,5.21,0v14a13,13,0,0,1-12,13.14C33.7,103.27,33.44,103.28,33.17,103.28Z"/><path class="cls-2" d="M43.35,23.65a9.53,9.53,0,0,1-9.52-9.52V9.52a9.52,9.52,0,1,1,19,0v4.61A9.53,9.53,0,0,1,43.35,23.65Zm0-18.44a4.31,4.31,0,0,0-4.3,4.31v4.61a4.31,4.31,0,0,0,8.61,0V9.52A4.31,4.31,0,0,0,43.35,5.21Z"/><path class="cls-2" d="M43.35,51.2a9.53,9.53,0,0,1-9.52-9.52V37.07a9.52,9.52,0,1,1,19,0v4.61A9.53,9.53,0,0,1,43.35,51.2Zm0-18.44a4.31,4.31,0,0,0-4.3,4.31v4.61a4.31,4.31,0,0,0,8.61,0V37.07A4.32,4.32,0,0,0,43.35,32.76Z"/><path class="cls-2" d="M43.35,37.68a2.59,2.59,0,0,1-2.6-2.6v-19a2.61,2.61,0,1,1,5.21,0v19A2.6,2.6,0,0,1,43.35,37.68Z"/></g></g></svg>