<svg id="Layer_1" data-name="Layer 1" xmlns="http://www.w3.org/2000/svg" viewBox="0 0 32 96">
  <defs>
    <style>
      .cls-1 {
        fill: #1dd8cf;
      }

      .cls-2 {
        fill: none;
        stroke: #212121;
        stroke-linecap: round;
        stroke-linejoin: round;
      }
    </style>
  </defs>
  <title>Artboard 5</title>
  <g>
    <path class="cls-1" d="M27.75,9.55H8a1.54,1.54,0,0,0-1.54,1.54V23.74A1.54,1.54,0,0,0,8,25.28h19.8a1.54,1.54,0,0,0,1.55-1.54V11.09A1.54,1.54,0,0,0,27.75,9.55Z"/>
    <g>
      <rect class="cls-2" x="2.7" y="6.72" width="24" height="16.5" rx="2"/>
      <path class="cls-2" d="M3.31,7.29l7.91,7.41,1.45,1.35a3,3,0,0,0,4.06,0l1.45-1.35L26.1,7.29"/>
      <line class="cls-2" x1="9.75" y1="16.18" x2="3.29" y2="22.63"/>
      <line class="cls-2" x1="26.12" y1="22.63" x2="19.66" y2="16.18"/>
    </g>
  </g>
  <g>
    <path class="cls-1" d="M27.84,42.5H24.4v-1a1,1,0,0,0-1-1H19.76a1,1,0,0,0-1,1v1H9.09A1.48,1.48,0,0,0,7.63,44V56.25a1.48,1.48,0,0,0,1.46,1.5H27.84a1.48,1.48,0,0,0,1.46-1.5V44A1.48,1.48,0,0,0,27.84,42.5Z"/>
    <g>
      <path class="cls-2" d="M24.78,39.27a1.92,1.92,0,0,1,1.92,1.92V54.81a1.93,1.93,0,0,1-1.92,1.93"/>
      <path class="cls-2" d="M14.71,56.74H4.62A1.93,1.93,0,0,1,2.7,54.81V41.19a1.92,1.92,0,0,1,1.92-1.92h10"/>
      <path class="cls-2" d="M17.86,51.3V44.7a1.17,1.17,0,0,0-.55-1,1.22,1.22,0,0,1-.62-1.06v-4a1.22,1.22,0,0,1,1.22-1.22h4a1.23,1.23,0,0,1,1.23,1.22v4a1.22,1.22,0,0,1-.62,1.06,1.15,1.15,0,0,0-.55,1v6.6a1.14,1.14,0,0,0,.55,1,1.24,1.24,0,0,1,.62,1.07v4a1.23,1.23,0,0,1-1.23,1.22h-4a1.22,1.22,0,0,1-1.22-1.22v-4a1.24,1.24,0,0,1,.62-1.07A1.14,1.14,0,0,0,17.86,51.3Z"/>
      <path class="cls-2" d="M9.55,42.5h2.76a1.5,1.5,0,0,1,1.5,1.5v8a1.5,1.5,0,0,1-1.5,1.5H7.23A1.5,1.5,0,0,1,5.73,52V44a1.5,1.5,0,0,1,1.5-1.5"/>
    </g>
  </g>
  <g>
    <path class="cls-1" d="M28.08,91l-5.73-5.63,2-2.35a10,10,0,0,0,1.47-10.38,9.24,9.24,0,0,0-1.16-1.79c-.37-.45-.66-.74-.66-.74a9.62,9.62,0,0,0-13.59,0A10.08,10.08,0,0,0,8.6,72.68a9.56,9.56,0,0,0,1.47,10.38l2,2.36L6.36,91a1.31,1.31,0,0,0,1.13,2H26.94A1.32,1.32,0,0,0,28.08,91ZM16.33,80.62a3.57,3.57,0,1,1,3.57-3.57A3.57,3.57,0,0,1,16.33,80.62Z"/>
    <g>
      <path class="cls-2" d="M21.1,86.15l3.12,3A1.23,1.23,0,0,1,23.16,91H5a1.23,1.23,0,0,1-1.06-1.84l3.13-3"/>
      <path class="cls-2" d="M22.12,72a8.93,8.93,0,0,1-1.37,9.7l-4.82,5.62a2.45,2.45,0,0,1-3.72,0L7.39,81.69A8.92,8.92,0,0,1,6,72a9.3,9.3,0,0,1,1.7-2.37h0a9,9,0,0,1,12.71,0h0"/>
      <circle class="cls-2" cx="14.07" cy="76.03" r="3.15"/>
    </g>
  </g>
</svg>
