<svg xmlns="http://www.w3.org/2000/svg" viewBox="0 0 221 97"><defs><style>.cls-1,.cls-3{fill:#1dd8cf;}.cls-1{fill-opacity:0.1;stroke:#1dd8cf;stroke-miterlimit:10;}.cls-2{font-size:16px;fill:#212121;font-family:Roboto-Medium, Roboto;font-weight:500;}.cls-4{fill:none;stroke:#212121;stroke-linecap:round;stroke-linejoin:round;}</style></defs><title>foter-question</title><g id="Layer_2" data-name="Layer 2"><g id="Layer_1-2" data-name="Layer 1"><rect class="cls-1" x="0.5" y="0.5" width="220" height="96" rx="4"/><text class="cls-2" transform="translate(31.43 71.16)"><tspan xml:space="preserve"> Info@easybimeh.com</tspan></text><path class="cls-3" d="M122.25,28.89h-19.8a1.55,1.55,0,0,0-1.54,1.55V43.09a1.54,1.54,0,0,0,1.54,1.54h19.8a1.54,1.54,0,0,0,1.55-1.54V30.44A1.55,1.55,0,0,0,122.25,28.89Z"/><rect class="cls-4" x="97.2" y="26.06" width="24" height="16.5" rx="2"/><path class="cls-4" d="M97.81,26.64l7.91,7.41,1.45,1.35a3,3,0,0,0,4.06,0l1.45-1.35,7.92-7.41"/><line class="cls-4" x1="104.25" y1="35.53" x2="97.79" y2="41.98"/><line class="cls-4" x1="120.62" y1="41.98" x2="114.16" y2="35.53"/></g></g></svg>