<svg xmlns="http://www.w3.org/2000/svg" viewBox="0 0 188.74 36"><defs><style>.cls-1{fill:#f23857;}.cls-2{opacity:0.6;}.cls-3,.cls-4{fill:none;stroke:#fff;stroke-linecap:round;stroke-linejoin:round;}.cls-4{stroke-dasharray:2 3;}</style></defs><title>free</title><g id="Layer_2" data-name="Layer 2"><g id="Layer_1-2" data-name="Layer 1"><path class="cls-1" d="M.5,36H184.73a4,4,0,0,0,3.16-6.46l-7.07-9.09a4,4,0,0,1,0-4.91l7.07-9.09A4,4,0,0,0,184.73,0H.5Z"/><g class="cls-2"><line class="cls-3" x1="0.5" y1="3" x2="1.5" y2="3"/><path class="cls-4" d="M4.5,3H184.73a1,1,0,0,1,.9.56,1,1,0,0,1-.11,1.05l-7.07,9.09a7,7,0,0,0,0,8.59l7.07,9.09a1,1,0,0,1-.79,1.61H3"/><line class="cls-3" x1="1.5" y1="33" x2="0.5" y2="33"/></g></g></g></svg>