<svg xmlns="http://www.w3.org/2000/svg" viewBox="0 0 32.04 38.57"><defs><style>.cls-1,.cls-2,.cls-3,.cls-4{fill:none;stroke-linecap:round;stroke-linejoin:round;}.cls-1,.cls-2{stroke:#2f3061;}.cls-1{fill-rule:evenodd;}.cls-3{stroke:#3b8bff;}.cls-4{stroke:#e5273a;}</style></defs><title>help-info</title><g id="Layer_2" data-name="Layer 2"><g id="Layer_1-2" data-name="Layer 1"><path class="cls-1" d="M6.38,14.83a11.74,11.74,0,0,0,0,1.54"/><path class="cls-1" d="M6.68,18.8A14.46,14.46,0,0,0,9.44,24c.8,1.07,1.44,1.91,1.44,2.73,0,.34,0,.68,0,1v6s0,0,0,.06h0a.71.71,0,0,0,0,.08h0a5.36,5.36,0,0,0,1.79,3,5.11,5.11,0,0,0,6.58,0,5.36,5.36,0,0,0,1.79-3h0v-.08h0s0,0,0-.06v-6c0-.32,0-.65,0-1,0-.81.63-1.66,1.44-2.73a12.73,12.73,0,0,0,3.14-8.19,9.71,9.71,0,0,0-18.93-3"/><line class="cls-2" x1="13.27" y1="26.85" x2="18.77" y2="26.85"/><line class="cls-3" x1="13.27" y1="29.76" x2="18.77" y2="29.76"/><line class="cls-2" x1="13.27" y1="32.66" x2="18.77" y2="32.66"/><line class="cls-4" x1="11.86" y1="16.57" x2="20.18" y2="16.57"/><line class="cls-2" x1="16.02" y1="24.28" x2="16.02" y2="26.85"/><line class="cls-4" x1="16.02" y1="21.12" x2="16.02" y2="21.96"/><line class="cls-4" x1="16.02" y1="16.57" x2="16.02" y2="18.55"/><line class="cls-3" x1="16.02" y1="0.5" x2="16.02" y2="3.07"/><line class="cls-2" x1="5.05" y1="5.05" x2="6.86" y2="6.86"/><line class="cls-3" x1="0.5" y1="16.02" x2="3.07" y2="16.02"/><line class="cls-2" x1="5.05" y1="26.99" x2="6.86" y2="25.17"/><line class="cls-2" x1="26.99" y1="26.99" x2="25.17" y2="25.17"/><line class="cls-3" x1="31.54" y1="16.02" x2="28.96" y2="16.02"/><line class="cls-2" x1="26.99" y1="5.05" x2="25.17" y2="6.86"/></g></g></svg>