<svg xmlns="http://www.w3.org/2000/svg" viewBox="0 0 65 73.24"><defs><style>.cls-1{fill:#3b8bff;opacity:0.3;}.cls-2{fill:#2e39bf;}.cls-3{fill:none;stroke:#0a0d35;stroke-linecap:round;stroke-linejoin:round;}</style></defs><title>image2</title><g id="Layer_2" data-name="Layer 2"><g id="Layer_1-2" data-name="Layer 1"><polygon class="cls-1" points="0 54.51 32.5 73.24 65 54.51 52 46.93 32.5 58.84 13.31 46.77 0 54.51"/><polygon class="cls-2" points="0 47.39 32.5 66.27 65 47.39 52 39.96 51.84 46 31.57 57.14 13.15 45.69 12.85 39.96 0 47.39"/><polyline class="cls-3" points="13.15 11.49 13.15 45.69 31.73 56.68 51.69 45.69 51.69 11.49"/><polygon class="cls-3" points="31.73 22.63 13.15 11.49 32.66 0.5 51.69 11.49 31.73 22.63"/><polygon class="cls-2" points="40.86 23.25 35.91 26.04 35.91 32.23 40.86 29.29 40.86 23.25"/><polygon class="cls-2" points="47.82 19.38 43.02 22.17 43.02 28.36 47.98 25.42 47.98 19.38 47.82 19.38"/><polygon class="cls-2" points="40.86 33 35.91 35.94 35.91 41.98 40.86 39.19 40.86 33"/><polygon class="cls-2" points="47.82 29.13 43.02 32.07 43.02 38.11 47.98 35.32 47.98 29.13 47.82 29.13"/><line class="cls-3" x1="31.73" y1="22.63" x2="31.73" y2="56.06"/></g></g></svg>