<svg xmlns="http://www.w3.org/2000/svg" viewBox="0 0 60.28 56.5"><defs><style>.cls-1{fill:#3b8bff;opacity:0.3;}.cls-2{fill:#2e39bf;}.cls-3,.cls-4{fill:none;stroke-linecap:round;stroke-linejoin:round;}.cls-3{stroke:#0a0d35;}.cls-4{stroke:#3b8bff;}</style></defs><title>image5</title><g id="Layer_2" data-name="Layer 2"><g id="Layer_1-2" data-name="Layer 1"><polygon class="cls-1" points="30.14 56.5 0.5 40.36 11.6 34.43 30.14 43.51 48.3 34.43 59.78 40.61 30.14 56.5"/><polygon class="cls-2" points="30.14 44.77 0.5 28.63 11.53 22.78 32.28 34.81 50.57 24.21 59.78 28.88 30.14 44.77"/><line class="cls-3" x1="50.57" y1="24.21" x2="49.34" y2="21.87"/><line class="cls-3" x1="23.07" y1="6.46" x2="18.79" y2="5.92"/><polyline class="cls-3" points="19.95 8.25 33.42 0.5 59.78 15.76 46.5 23.53"/><polyline class="cls-3" points="32.28 34.81 50.57 24.21 25.85 20.05"/><polyline class="cls-3" points="25.85 20.05 18.79 5.92 0.5 16.39"/><polyline class="cls-3" points="0.5 16.39 16.39 25.6 32.28 34.81"/><line class="cls-3" x1="7.68" y1="15.72" x2="20.05" y2="17.78"/><line class="cls-3" x1="33.49" y1="30.4" x2="30.14" y2="23.6"/><line class="cls-4" x1="33.04" y1="7.31" x2="47.04" y2="15.38"/><line class="cls-4" x1="28.88" y1="9.71" x2="42.88" y2="17.78"/></g></g></svg>