<svg xmlns="http://www.w3.org/2000/svg" viewBox="0 0 57.73 56.5"><defs><style>.cls-1{fill:#3b8bff;opacity:0.3;}.cls-2{fill:#2e39bf;}.cls-3{fill:#fff;stroke:#0a0d35;}.cls-3,.cls-4{stroke-linecap:round;stroke-linejoin:round;}.cls-4{fill:none;stroke:#2e39bf;}</style></defs><title>image3</title><g id="Layer_2" data-name="Layer 2"><g id="Layer_1-2" data-name="Layer 1"><polygon class="cls-1" points="0.26 40.26 29.35 56.5 56.98 40.38 46.92 34.32 29.35 44.02 11.89 34.2 0.26 40.26"/><path class="cls-2" d="M.26,28.74,29.35,45,57.11,28.74C57,28.62,47.66,23,47.54,23S35.17,30.44,29.35,33.83L10.86,23.11C10.74,23.11.38,28.62.26,28.74Z"/><polygon class="cls-3" points="0.5 17.11 29.35 33.83 57.23 17.23 29.35 0.5 0.5 17.11"/><path class="cls-4" d="M35.17,11.53l2.06,8.61-10.67-.37,1.33,5.7m4.37-12.24-.24.24,2.66-2.55,4.49,1.46"/><path class="cls-2" d="M14.44,16.14c.73.36.61,1.09-.24,1.57a2.94,2.94,0,0,1-2.67.12c-.73-.36-.61-1.09.24-1.57A2.62,2.62,0,0,1,14.44,16.14Z"/><path class="cls-2" d="M18.44,13.71c.73.37.61,1.09-.24,1.58a3,3,0,0,1-2.67.12c-.73-.36-.61-1.09.24-1.58A3,3,0,0,1,18.44,13.71Z"/><path class="cls-2" d="M22.56,11.29c.73.36.61,1.09-.24,1.57a2.94,2.94,0,0,1-2.67.12c-.73-.36-.6-1.09.24-1.57A3.43,3.43,0,0,1,22.56,11.29Z"/></g></g></svg>