<svg xmlns="http://www.w3.org/2000/svg" xmlns:xlink="http://www.w3.org/1999/xlink" viewBox="0 0 49.85 56.5"><defs><style>.cls-1,.cls-4{fill:none;}.cls-2{fill:#3b8bff;opacity:0.3;}.cls-3{fill:#2e39bf;}.cls-4{stroke:#0a0d35;stroke-linecap:round;stroke-linejoin:round;}.cls-5{isolation:isolate;}.cls-6{clip-path:url(#clip-path);}</style><clipPath id="clip-path"><polygon class="cls-1" points="13.23 11.41 19.93 7.4 36.62 18.3 29.92 22.31 13.23 11.41"/></clipPath></defs><title>image4</title><g id="Layer_2" data-name="Layer 2"><g id="Layer_1-2" data-name="Layer 1"><polygon class="cls-2" points="0.5 42.2 24.93 56.5 49.35 42.2 40.53 36.84 24.93 45.54 9.44 36.72 0.5 42.2"/><polygon class="cls-3" points="49.35 35.53 24.93 49.83 0.5 35.53 0.5 27.67 6.46 28.98 24.33 38.51 43.39 28.98 49.35 27.67 49.35 35.53"/><polygon class="cls-3" points="0.5 27.55 24.93 41.84 49.35 27.55 45.78 25.28 24.93 37.2 4.19 25.16 0.5 27.55"/><polyline class="cls-4" points="49.35 15.04 49.35 22.9 24.93 37.2 0.5 22.9 0.5 15.04"/><polygon class="cls-4" points="0.5 14.8 24.93 29.21 49.35 14.8 24.93 0.5 0.5 14.8"/><line class="cls-1" x1="12.18" y1="25.76" x2="3.24" y2="20.64"/><g class="cls-5"><g class="cls-6"><path d="M22.35,9a4,4,0,0,0-4-.44c-.91.55-.75,1.34,0,2.32.62.82.65,1.27.05,1.64a2.51,2.51,0,0,1-2.59-.3,3.25,3.25,0,0,1-1.21-1.33l-.93.27A3.86,3.86,0,0,0,15,12.58a4.21,4.21,0,0,0,4.35.5c.95-.57.86-1.29.1-2.32-.62-.84-.76-1.3-.15-1.66a2.23,2.23,0,0,1,2.3.28,2.88,2.88,0,0,1,1,1.06l.94-.24A3.54,3.54,0,0,0,22.35,9"/><polyline points="29.15 13.56 25.34 11.07 18.86 14.95 22.82 17.54 23.52 17.12 20.47 15.13 22.81 13.73 25.55 15.52 26.24 15.1 23.5 13.31 25.55 12.09 28.45 13.98 29.15 13.56"/><path d="M27.39,19.8c-1.44-.94-1-2.21.37-3a4.82,4.82,0,0,1,5-.14c1.51,1,.9,2.28-.39,3.05a4.83,4.83,0,0,1-5,.13m6.06-3.57a6.52,6.52,0,0,0-6.68-.1c-2,1.18-2,2.83-.12,4.05a6.39,6.39,0,0,0,6.69.09c1.93-1.15,2-2.78.11-4"/></g></g></g></g></svg>