<svg xmlns="http://www.w3.org/2000/svg" xmlns:xlink="http://www.w3.org/1999/xlink" viewBox="0 0 108.46 148.49"><defs><style>.cls-1{fill:none;}.cls-2,.cls-3,.cls-4,.cls-5,.cls-6{fill-rule:evenodd;}.cls-2{fill:url(#linear-gradient);}.cls-3{fill:url(#linear-gradient-2);}.cls-4{fill:url(#linear-gradient-3);}.cls-5{fill:url(#linear-gradient-4);}.cls-6{fill:url(#linear-gradient-5);}.cls-7{isolation:isolate;}.cls-8{clip-path:url(#clip-path);}.cls-9{fill:#fff;}</style><linearGradient id="linear-gradient" x1="0.14" y1="757.2" x2="108.29" y2="757.2" gradientTransform="translate(0 -636.26)" gradientUnits="userSpaceOnUse"><stop offset="0" stop-color="#afcdfd"/><stop offset="1" stop-color="#d7e6fe"/></linearGradient><linearGradient id="linear-gradient-2" x1="0.16" y1="731.3" x2="108.33" y2="731.3" gradientTransform="translate(0 -636.26)" gradientUnits="userSpaceOnUse"><stop offset="0" stop-color="#97befc"/><stop offset="1" stop-color="#abcaff"/></linearGradient><linearGradient id="linear-gradient-3" x1="0.15" y1="724" x2="108.46" y2="724" xlink:href="#linear-gradient"/><linearGradient id="linear-gradient-4" x1="0.16" y1="698.06" x2="108.27" y2="698.06" xlink:href="#linear-gradient-2"/><linearGradient id="linear-gradient-5" x1="0" y1="676.93" x2="108.31" y2="676.93" xlink:href="#linear-gradient"/><clipPath id="clip-path"><polygon class="cls-1" points="39.96 44.66 27.82 38.32 69.9 14.99 82.04 21.34 39.96 44.66"/></clipPath></defs><title>img-sec9</title><g id="Layer_2" data-name="Layer 2"><g id="Layer_1-2" data-name="Layer 1"><path id="Prostokąt_zaokrąglony_1402_kopia_3-2-3" data-name="Prostokąt zaokrąglony 1402 kopia 3-2-3" class="cls-2" d="M108.31,117.15A4.18,4.18,0,0,1,105.9,120L58.53,147.08c-3.46,2.1-9.48,1.8-13.39-.6L4.54,123.62C2.13,122.26-.12,120,.18,118.2L0,96.09l108.13-2.7v23.76Z"/><path id="Prostokąt_zaokrąglony_1402_kopia_4-2-3" data-name="Prostokąt zaokrąglony 1402 kopia 4-2-3" class="cls-3" d="M2.73,92.79,50.86,66.92c3.46-2,9.32-1.81,13.38.6l40.61,22.11c3.91,2.1,5,5.41.9,7.52l-47.07,26c-3.46,2-9.33,1.8-13.39-.61L3.63,100.16C-3.43,96.24,2.43,92.94,2.73,92.79Z"/><path id="Prostokąt_zaokrąglony_1402_kopia_3-2-4" data-name="Prostokąt zaokrąglony 1402 kopia 3-2-4" class="cls-4" d="M108.31,83.91a4.84,4.84,0,0,1-2.41,3L58.53,114c-3.46,2-9.48,1.81-13.39-.6L4.54,90.53C2.13,89.18-.12,87.07.18,85.42V63.16l108.13-3,.15,23Z"/><path id="Prostokąt_zaokrąglony_1402_kopia_4-2-4" data-name="Prostokąt zaokrąglony 1402 kopia 4-2-4" class="cls-5" d="M2.73,59.7l48.13-26c3.46-1.95,9.32-1.8,13.38.6l40.61,22.11c3.91,2.11,4.81,5.41.9,7.52l-47.07,26c-3.46,1.95-9.33,1.8-13.39-.6L3.63,67.07C-3.43,63.16,2.43,59.85,2.73,59.7Z"/><path id="Prostokąt_zaokrąglony_1402_kopia_16-2-2" data-name="Prostokąt zaokrąglony 1402 kopia 16-2-2" class="cls-6" d="M108.31,50.83l-.15.3a3.83,3.83,0,0,1-2.26,2.55L58.53,80c-3.46,2-9.48,1.81-13.39-.6L4.54,57.29C2.13,55.94-.28,54.13,0,52.63v-22c.3-1.2,2.4-2.4,3.6-2.85L50.86,1.35c3.46-2,9.47-1.81,13.38.6l40.61,22.41c2.41,1.35,3.61,3.16,3.31,4.81v.15Z"/><g class="cls-7"><g class="cls-8"><polyline class="cls-9" points="38.86 32.2 35.42 34.11 37.41 37.34 31.34 36.37 27.91 38.27 37.41 39.48 39.96 44.66 43.42 42.74 41.4 39.43 47.63 40.41 51.1 38.49 41.39 37.27 38.86 32.2"/><polyline class="cls-9" points="56.57 22.38 52.61 24.58 58.28 30.53 47.04 27.66 43.09 29.85 55.23 36.2 58.24 34.53 55.41 33.05 49.3 30.17 60.98 33.01 62.97 31.91 57.35 25.72 62.86 28.92 65.7 30.4 68.71 28.73 56.57 22.38"/><polyline class="cls-9" points="64.66 17.9 61.64 19.57 73.79 25.91 82.04 21.34 79.79 20.16 74.55 23.06 64.66 17.9"/></g></g></g></g></svg>