<svg xmlns="http://www.w3.org/2000/svg" viewBox="0 0 46.5 50.45"><defs><style>.note-write-svg-1{fill:#424242;}.note-write-svg-2{fill:#1e88e5;}</style></defs> <g id="Layer_2" data-name="Layer 2"><g id="Layer_2-2" data-name="Layer 2"><g id="insurance"><path class="note-write-svg-1" d="M14.64,21.54a.74.74,0,0,0,0-1.48H7.53a.74.74,0,1,0,0,1.48Z"/><path class="note-write-svg-1" d="M5.48,27.54H9.43a.74.74,0,0,0,0-1.48H5.48a.74.74,0,0,0,0,1.48Z"/><path class="note-write-svg-1" d="M17.72,21.54h4a.74.74,0,1,0,0-1.48h-4a.74.74,0,0,0,0,1.48Z"/><path class="note-write-svg-1" d="M23.15,26.8a.74.74,0,0,0-.74-.74H12.59a.74.74,0,0,0,0,1.48h9.82a.74.74,0,0,0,.74-.74Z"/><path class="note-write-svg-1" d="M7.16,31.64a.74.74,0,0,0,0,1.48H9.53a.74.74,0,0,0,0-1.48Z"/><path class="note-write-svg-1" d="M12.68,31.64a.74.74,0,0,0,0,1.48H19a.74.74,0,1,0,0-1.48Z"/><path class="note-write-svg-1" d="M5.48,38.17h9.9a.74.74,0,0,0,0-1.48H5.48a.74.74,0,1,0,0,1.48Z"/><path class="note-write-svg-1" d="M44.61,16.77c-1.45-1.28-3.54-1.5-6-.64-.25.09-.51.18-.77.29V5.48a.74.74,0,0,0-.74-.74H15.68a5.08,5.08,0,0,0-10.14,0H3.21a.74.74,0,0,0-.74.74V7.9H.74A.74.74,0,0,0,0,8.64V28.38a.74.74,0,0,0,1.48,0v-19H5.53V13a3.51,3.51,0,1,0,7,0V9.38H26.85V15a.75.75,0,0,0,.74.75h5.58v3.5c-.44.34-.89.7-1.34,1.09a.75.75,0,0,0-.25.44l-.45,2.81a4.51,4.51,0,0,0-.9-.9.75.75,0,0,0-1,.08,25.91,25.91,0,0,0-5.44,7.64c-1.44,3.18-1,5-.29,6l-4.38,4.07a.75.75,0,0,0-.09,1,.76.76,0,0,0,1.1.09l4.53-4.21a4.13,4.13,0,0,0,1.61.29,16.37,16.37,0,0,0,6.88-2.2V49H1.48V31.9A.74.74,0,0,0,0,31.9V49.7a.75.75,0,0,0,.74.75H33.91a.75.75,0,0,0,.74-.75V48.08h2.42a.74.74,0,0,0,.74-.74V32.54A35.26,35.26,0,0,0,42,29a.74.74,0,0,0,0-1l-1.23-1.5a12.83,12.83,0,0,1,2.93-.06.77.77,0,0,0,.7-.31C47.12,22.36,47.19,19,44.61,16.77ZM5.53,7.9H4V6.22H5.53Zm5.08-6.42A3.61,3.61,0,0,1,14.2,4.74H7A3.6,3.6,0,0,1,10.61,1.48ZM11.06,13A2,2,0,0,1,7,13V9.38h4.05Zm17.27,1.23V10.42l3.79,3.79Zm-.21-6.1a.78.78,0,0,0-.53-.21h-15V7.06a.74.74,0,1,0-1.48,0V7.9H7V6.22H36.33V17.13q-.82.45-1.68,1V14.93a.72.72,0,0,0-.22-.5ZM36.33,46.6H34.65v-12q.85-.51,1.68-1ZM43.44,25a17,17,0,0,0-4.21.34.73.73,0,0,0-.54.48.71.71,0,0,0,.13.71l1.61,2c-4.36,4.16-10.82,7.72-14.14,7.72H26l5-4.66h2.87a.74.74,0,0,0,0-1.48H32.59l9.67-9a.74.74,0,1,0-1-1.09l-3.94,3.67.43-2.19a.74.74,0,0,0-1.45-.29l-.79,3.95a1.48,1.48,0,0,0,0,.21L24.62,35.38c-1.11-2,1-6.6,5.2-11.1a4.57,4.57,0,0,1,.94,1.88.75.75,0,0,0,.73.59h0a.74.74,0,0,0,.72-.62L33,21.24c3.61-3,8.24-5.46,10.64-3.36C45.55,19.55,45.48,21.93,43.44,25Z"/><rect class="note-write-svg-2" x="3.95" y="6.22" width="1.58" height="1.68"/><path class="note-write-svg-2" d="M36.33,33.57v13H34.65v-12Q35.5,34.11,36.33,33.57Z"/><path class="note-write-svg-2" d="M36.33,6.22V17.13q-.82.45-1.68,1V14.93a.72.72,0,0,0-.22-.5L28.12,8.11a.78.78,0,0,0-.53-.21h-15V7.06a.74.74,0,1,0-1.48,0V7.9H7V6.22Z"/><path class="note-write-svg-2" d="M43.44,25a17,17,0,0,0-4.21.34.73.73,0,0,0-.54.48.71.71,0,0,0,.13.71l1.61,2c-4.36,4.16-10.82,7.72-14.14,7.72H26l5-4.66h2.87a.74.74,0,0,0,0-1.48H32.59l9.67-9a.74.74,0,1,0-1-1.09l-3.94,3.67.43-2.19a.74.74,0,0,0-1.45-.29l-.79,3.95a1.48,1.48,0,0,0,0,.21L24.62,35.38c-1.11-2,1-6.6,5.2-11.1a4.57,4.57,0,0,1,.94,1.88.75.75,0,0,0,.73.59h0a.74.74,0,0,0,.72-.62L33,21.24c3.61-3,8.24-5.46,10.64-3.36C45.55,19.55,45.48,21.93,43.44,25Z"/></g></g></g></svg>