<svg xmlns="http://www.w3.org/2000/svg" xmlns:xlink="http://www.w3.org/1999/xlink" width="552.92" height="397.59" viewBox="0 0 552.92 397.59">
    <defs>
        <style>
            .cls-1,
            .cls-11,
            .cls-12,
            .cls-23 {
                fill: none;
            }
            
            .cls-2 {
                fill: #383838;
            }
            
            .cls-3 {
                fill: url(#linear-gradient);
            }
            
            .cls-4 {
                fill: url(#linear-gradient-2);
            }
            
            .cls-5 {
                fill: #212c8f;
            }
            
            .cls-6 {
                fill: #4552c6;
            }
            
            .cls-7 {
                fill: url(#linear-gradient-3);
            }
            
            .cls-8 {
                isolation: isolate;
            }
            
            .cls-9 {
                clip-path: url(#clip-path);
            }
            
            .cls-10 {
                fill: #fff;
            }
            
            .cls-11,
            .cls-12 {
                stroke: #fff;
                stroke-width: 3px;
            }
            
            .cls-11,
            .cls-12,
            .cls-23 {
                stroke-linecap: round;
                stroke-linejoin: round;
            }
            
            .cls-11 {
                opacity: 0.5;
            }
            
            .cls-13 {
                fill: url(#linear-gradient-4);
            }
            
            .cls-14 {
                fill: #71c5ea;
            }
            
            .cls-15 {
                fill: #3241a9;
            }
            
            .cls-16 {
                fill: url(#linear-gradient-5);
            }
            
            .cls-17 {
                fill: #3d48b9;
            }
            
            .cls-18 {
                fill: #343ead;
            }
            
            .cls-19 {
                fill: #222992;
            }
            
            .cls-20 {
                fill: #5366f4;
            }
            
            .cls-21 {
                fill: url(#linear-gradient-6);
            }
            
            .cls-22 {
                fill: #353dab;
            }
            
            .cls-23 {
                stroke: #43ffff;
            }
            
            .cls-24 {
                fill: url(#linear-gradient-7);
            }
            
            .cls-25 {
                fill: url(#linear-gradient-8);
            }
            
            .cls-26 {
                fill: url(#linear-gradient-9);
            }
            
            .cls-27 {
                fill: url(#linear-gradient-10);
            }
            
            .cls-28 {
                fill: url(#linear-gradient-11);
            }
            
            .cls-29 {
                fill: url(#linear-gradient-12);
            }
            
            .cls-30 {
                fill: url(#linear-gradient-13);
            }
            
            .cls-31 {
                fill: url(#linear-gradient-14);
            }
            
            .cls-32 {
                fill: url(#linear-gradient-15);
            }
            
            .cls-33 {
                fill: url(#linear-gradient-16);
            }
            
            .cls-34 {
                fill: url(#linear-gradient-17);
            }
            
            .cls-35 {
                opacity: 0.7;
                fill: url(#linear-gradient-18);
            }
            
            .cls-36 {
                fill: url(#linear-gradient-19);
            }
            
            .cls-37 {
                fill: #e2f8ff;
            }
            
            .cls-38 {
                fill: url(#linear-gradient-20);
            }
            
            .cls-39 {
                fill: #242992;
            }
            
            .cls-40 {
                fill: url(#linear-gradient-21);
            }
            
            .cls-41 {
                fill: url(#linear-gradient-22);
            }
            
            .cls-42 {
                fill: url(#linear-gradient-23);
            }
            
            .cls-43 {
                fill: url(#linear-gradient-24);
            }
            
            .cls-44 {
                fill: url(#linear-gradient-25);
            }
            
            .cls-45 {
                fill: url(#linear-gradient-26);
            }
            
            .cls-46 {
                fill: url(#linear-gradient-27);
            }
            
            .cls-47 {
                fill: url(#linear-gradient-28);
            }
            
            .cls-48 {
                fill: url(#linear-gradient-29);
            }
            
            .cls-49 {
                fill: url(#linear-gradient-30);
            }
            
            .cls-50 {
                fill: url(#linear-gradient-31);
            }
            
            .cls-51 {
                fill: url(#linear-gradient-32);
            }
            
            .cls-52 {
                fill: url(#linear-gradient-33);
            }
            
            .cls-53 {
                fill: url(#linear-gradient-34);
            }
            
            .cls-54 {
                fill: url(#linear-gradient-35);
            }
            
            .cls-55 {
                fill: url(#linear-gradient-36);
            }
            
            .cls-56 {
                fill: url(#linear-gradient-37);
            }
            
            .cls-57 {
                fill: url(#linear-gradient-38);
            }
            
            .cls-58 {
                fill: url(#linear-gradient-39);
            }
            
            .cls-59 {
                fill: url(#linear-gradient-40);
            }
            
            .cls-60 {
                fill: url(#linear-gradient-41);
            }
            
            .cls-61 {
                fill: url(#linear-gradient-42);
            }
            
            .cls-62 {
                fill: url(#linear-gradient-43);
            }
            
            .cls-63 {
                fill: url(#linear-gradient-44);
            }
            
            .cls-64 {
                fill: url(#linear-gradient-45);
            }
            
            .cls-65 {
                fill: url(#linear-gradient-46);
            }
            
            .cls-66 {
                fill: url(#linear-gradient-47);
            }
            
            .cls-67 {
                fill: url(#linear-gradient-48);
            }
            
            .cls-68 {
                fill: url(#linear-gradient-49);
            }
            
            .cls-69 {
                fill: url(#linear-gradient-50);
            }
            
            .cls-70 {
                fill: url(#linear-gradient-51);
            }
            
            .cls-71 {
                fill: url(#linear-gradient-52);
            }
            
            .cls-72 {
                fill: url(#linear-gradient-53);
            }
            
            .cls-73 {
                fill: url(#linear-gradient-54);
            }
            
            .cls-74 {
                fill: url(#linear-gradient-55);
            }
            
            .cls-75 {
                fill: #daf0ff;
            }
            
            .cls-76 {
                fill: #5660f4;
            }
            
            .cls-77 {
                fill: #3034ee;
            }
            
            .cls-78 {
                fill: url(#linear-gradient-56);
            }
            
            .cls-79 {
                fill: url(#linear-gradient-57);
            }
            
            .cls-80 {
                fill: url(#linear-gradient-58);
            }
            
            .cls-81 {
                fill: url(#linear-gradient-59);
            }
            
            .cls-82 {
                fill: url(#linear-gradient-60);
            }
            
            .cls-83 {
                fill: url(#linear-gradient-61);
            }
            
            .cls-84 {
                fill: url(#linear-gradient-62);
            }
            
            .cls-85 {
                fill: url(#linear-gradient-63);
            }
            
            .cls-86 {
                fill: url(#linear-gradient-64);
            }
            
            .cls-87 {
                fill: url(#linear-gradient-65);
            }
            
            .cls-88 {
                fill: url(#linear-gradient-66);
            }
            
            .cls-89 {
                fill: #09ebaf;
            }
			@keyframes myanimation{
				from{
					stroke-dashoffset: 20;
				}
				to{
					stroke-dashoffset: 0;
				}
			}
			@keyframes myanimation-reverse{
				from{
					stroke-dashoffset: 0;
				}
				to{
					stroke-dashoffset: 20;
				}
			}
        </style>
        <linearGradient id="linear-gradient" x1="64.28" y1="112.84" x2="141.67" y2="155.11" gradientUnits="userSpaceOnUse">
            <stop offset="0" stop-color="#5a7ffc" />
            <stop offset="0.43" stop-color="#6083fd" />
            <stop offset="0.99" stop-color="#708eff" />
            <stop offset="1" stop-color="#708eff" />
        </linearGradient>
        <linearGradient id="linear-gradient-2" x1="202.85" y1="110.71" x2="63.2" y2="109.32" gradientUnits="userSpaceOnUse">
            <stop offset="0" stop-color="#708eff" />
            <stop offset="1" stop-color="#b6d0fd" />
        </linearGradient>
        <linearGradient id="linear-gradient-3" x1="127.6" y1="154.36" x2="198.7" y2="114.87" xlink:href="#linear-gradient-2" />
        <clipPath id="clip-path">
            <polygon class="cls-1" points="131.2 126.63 96.64 107.23 129.5 89.87 164.06 109.26 131.2 126.63" />
        </clipPath>
        <linearGradient id="linear-gradient-4" x1="320.26" y1="198.35" x2="550.45" y2="198.35" xlink:href="#linear-gradient" />
        <linearGradient id="linear-gradient-5" x1="400.99" y1="96.42" x2="552.92" y2="96.42" xlink:href="#linear-gradient" />
        <linearGradient id="linear-gradient-6" x1="412.6" y1="262.78" x2="5.98" y2="258.72" xlink:href="#linear-gradient-2" />
        <linearGradient id="linear-gradient-7" x1="9.07" y1="269.07" x2="234.51" y2="392.19" xlink:href="#linear-gradient" />
        <linearGradient id="linear-gradient-8" x1="193.44" y1="390.03" x2="400.55" y2="274.97" xlink:href="#linear-gradient-2" />
        <linearGradient id="linear-gradient-9" x1="100.57" y1="266.39" x2="141.35" y2="256.51" gradientUnits="userSpaceOnUse">
            <stop offset="0" stop-color="#5a7ffc" />
            <stop offset="1" stop-color="#8aa7ff" />
        </linearGradient>
        <linearGradient id="linear-gradient-10" x1="150.89" y1="251.81" x2="76.49" y2="250.69" xlink:href="#linear-gradient-2" />
        <linearGradient id="linear-gradient-11" x1="100.57" y1="244.06" x2="141.35" y2="234.18" xlink:href="#linear-gradient-9" />
        <linearGradient id="linear-gradient-12" x1="150.89" y1="229.48" x2="76.49" y2="228.36" xlink:href="#linear-gradient-2" />
        <linearGradient id="linear-gradient-13" x1="100.57" y1="221.73" x2="141.35" y2="211.85" xlink:href="#linear-gradient-9" />
        <linearGradient id="linear-gradient-14" x1="150.89" y1="207.15" x2="76.49" y2="206.03" xlink:href="#linear-gradient-2" />
        <linearGradient id="linear-gradient-15" x1="100.57" y1="199.4" x2="141.35" y2="189.52" xlink:href="#linear-gradient-9" />
        <linearGradient id="linear-gradient-16" x1="150.89" y1="184.82" x2="76.49" y2="183.71" xlink:href="#linear-gradient-2" />
        <linearGradient id="linear-gradient-17" x1="77.19" y1="184.25" x2="148.56" y2="184.25" xlink:href="#linear-gradient-2" />
        <linearGradient id="linear-gradient-18" x1="93.56" y1="186.67" x2="76.19" y2="186.99" gradientUnits="userSpaceOnUse">
            <stop offset="0" stop-color="#5a7ffc" />
            <stop offset="1" stop-color="#5a7ffc" stop-opacity="0" />
        </linearGradient>
        <linearGradient id="linear-gradient-19" x1="106.68" y1="187.85" x2="127.2" y2="182.88" xlink:href="#linear-gradient-9" />
        <linearGradient id="linear-gradient-20" x1="99.29" y1="179.73" x2="126.46" y2="179.73" xlink:href="#linear-gradient-9" />
        <linearGradient id="linear-gradient-21" x1="173.71" y1="195.75" x2="211.57" y2="216.43" xlink:href="#linear-gradient" />
        <linearGradient id="linear-gradient-22" x1="237.73" y1="192.27" x2="174.42" y2="191.64" xlink:href="#linear-gradient-2" />
        <linearGradient id="linear-gradient-23" x1="202.06" y1="216.09" x2="236.97" y2="196.69" xlink:href="#linear-gradient-2" />
        <linearGradient id="linear-gradient-24" x1="173.71" y1="177.93" x2="211.57" y2="198.61" xlink:href="#linear-gradient" />
        <linearGradient id="linear-gradient-25" x1="237.73" y1="174.46" x2="174.42" y2="173.83" xlink:href="#linear-gradient-2" />
        <linearGradient id="linear-gradient-26" x1="202.06" y1="198.27" x2="236.97" y2="178.88" xlink:href="#linear-gradient-2" />
        <linearGradient id="linear-gradient-27" x1="173.71" y1="160.12" x2="211.57" y2="180.8" xlink:href="#linear-gradient" />
        <linearGradient id="linear-gradient-28" x1="237.73" y1="156.64" x2="174.42" y2="156.01" xlink:href="#linear-gradient-2" />
        <linearGradient id="linear-gradient-29" x1="202.06" y1="180.46" x2="236.97" y2="161.06" xlink:href="#linear-gradient-2" />
        <linearGradient id="linear-gradient-30" x1="173.71" y1="142.3" x2="211.57" y2="162.98" xlink:href="#linear-gradient" />
        <linearGradient id="linear-gradient-31" x1="237.73" y1="138.83" x2="174.42" y2="138.2" xlink:href="#linear-gradient-2" />
        <linearGradient id="linear-gradient-32" x1="202.06" y1="162.64" x2="236.97" y2="143.25" xlink:href="#linear-gradient-2" />
        <linearGradient id="linear-gradient-33" x1="173.71" y1="124.49" x2="211.57" y2="145.16" xlink:href="#linear-gradient" />
        <linearGradient id="linear-gradient-34" x1="237.73" y1="121.01" x2="174.42" y2="120.38" xlink:href="#linear-gradient-2" />
        <linearGradient id="linear-gradient-35" x1="202.06" y1="144.83" x2="236.97" y2="125.43" xlink:href="#linear-gradient-2" />
        <linearGradient id="linear-gradient-36" x1="264.33" y1="240.16" x2="308.96" y2="264.53" xlink:href="#linear-gradient" />
        <linearGradient id="linear-gradient-37" x1="339.8" y1="236.06" x2="265.16" y2="235.32" xlink:href="#linear-gradient-2" />
        <linearGradient id="linear-gradient-38" x1="297.75" y1="264.14" x2="338.91" y2="241.27" xlink:href="#linear-gradient-2" />
        <linearGradient id="linear-gradient-39" x1="264.33" y1="219.16" x2="308.96" y2="243.53" xlink:href="#linear-gradient" />
        <linearGradient id="linear-gradient-40" x1="339.8" y1="215.06" x2="265.16" y2="214.32" xlink:href="#linear-gradient-2" />
        <linearGradient id="linear-gradient-41" x1="297.75" y1="243.14" x2="338.91" y2="220.27" xlink:href="#linear-gradient-2" />
        <linearGradient id="linear-gradient-42" x1="264.33" y1="198.16" x2="308.96" y2="222.53" xlink:href="#linear-gradient" />
        <linearGradient id="linear-gradient-43" x1="339.8" y1="194.06" x2="265.16" y2="193.32" xlink:href="#linear-gradient-2" />
        <linearGradient id="linear-gradient-44" x1="297.75" y1="222.14" x2="338.91" y2="199.27" xlink:href="#linear-gradient-2" />
        <linearGradient id="linear-gradient-45" x1="264.33" y1="177.15" x2="308.96" y2="201.53" xlink:href="#linear-gradient" />
        <linearGradient id="linear-gradient-46" x1="339.8" y1="173.06" x2="265.16" y2="172.32" xlink:href="#linear-gradient-2" />
        <linearGradient id="linear-gradient-47" x1="297.75" y1="201.13" x2="338.91" y2="178.27" xlink:href="#linear-gradient-2" />
        <linearGradient id="linear-gradient-48" x1="264.33" y1="156.15" x2="308.96" y2="180.53" xlink:href="#linear-gradient" />
        <linearGradient id="linear-gradient-49" x1="339.8" y1="152.06" x2="265.16" y2="151.31" xlink:href="#linear-gradient-2" />
        <linearGradient id="linear-gradient-50" x1="297.75" y1="180.13" x2="338.91" y2="157.27" xlink:href="#linear-gradient-2" />
        <linearGradient id="linear-gradient-51" x1="149.75" y1="310.5" x2="216.97" y2="347.21" xlink:href="#linear-gradient" />
        <linearGradient id="linear-gradient-52" x1="270.12" y1="308.65" x2="148.81" y2="307.44" xlink:href="#linear-gradient-2" />
        <linearGradient id="linear-gradient-53" x1="204.76" y1="346.57" x2="266.51" y2="312.26" xlink:href="#linear-gradient-2" />
        <linearGradient id="linear-gradient-54" x1="253.32" y1="187.44" x2="165.33" y2="186.56" xlink:href="#linear-gradient-2" />
        <linearGradient id="linear-gradient-55" x1="232.83" y1="299.91" x2="231.01" y2="204.57" xlink:href="#linear-gradient-2" />
        <linearGradient id="linear-gradient-56" x1="179.09" y1="183.4" x2="214.31" y2="202.63" xlink:href="#linear-gradient" />
        <linearGradient id="linear-gradient-57" x1="238.64" y1="180.17" x2="179.75" y2="179.58" xlink:href="#linear-gradient-2" />
        <linearGradient id="linear-gradient-58" x1="205.46" y1="202.32" x2="237.94" y2="184.27" xlink:href="#linear-gradient-2" />
        <linearGradient id="linear-gradient-59" x1="394.69" y1="363.17" x2="461.92" y2="399.88" xlink:href="#linear-gradient" />
        <linearGradient id="linear-gradient-60" x1="515.06" y1="361.32" x2="393.76" y2="360.11" xlink:href="#linear-gradient-2" />
        <linearGradient id="linear-gradient-61" x1="449.7" y1="399.23" x2="511.45" y2="364.93" xlink:href="#linear-gradient-2" />
        <linearGradient id="linear-gradient-62" x1="498.26" y1="261.36" x2="410.27" y2="260.48" xlink:href="#linear-gradient-2" />
        <linearGradient id="linear-gradient-63" x1="477.61" y1="354.9" x2="476.1" y2="275.64" xlink:href="#linear-gradient-2" />
        <linearGradient id="linear-gradient-64" x1="419.32" y1="257.27" x2="460.1" y2="279.54" xlink:href="#linear-gradient" />
        <linearGradient id="linear-gradient-65" x1="488.27" y1="253.53" x2="420.08" y2="252.85" xlink:href="#linear-gradient-2" />
        <linearGradient id="linear-gradient-66" x1="449.85" y1="279.18" x2="487.46" y2="258.29" xlink:href="#linear-gradient-2" />
    </defs>
    <title>isometric</title>
    <g id="Layer_28" data-name="Layer 28">
        <polygon class="cls-3" points="134 148.39 134 152.47 61.15 113.67 61.15 109.59 134 148.39" />
        <polygon class="cls-4" points="203.69 110.43 134 148.39 61.15 109.59 130.83 71.63 203.69 110.43" />
        <polygon class="cls-5" points="195.15 110.38 133.81 143.79 69.68 109.64 131.02 76.23 195.15 110.38" />
        <polygon class="cls-6" points="188.66 110.34 133.67 140.29 76.18 109.68 131.16 79.72 188.66 110.34" />
        <polygon class="cls-7" points="203.69 110.43 203.69 114.52 134 152.47 134 148.39 203.69 110.43" />
        <g class="cls-8">
            <g class="cls-9">
                <path class="cls-10" d="M114.55,114.94a2,2,0,0,1-.91.19,1.88,1.88,0,0,1-.91-.21l-.09-.06h0c-6.71-4.74-6.16-11.47,1.67-15.61S134.51,95,143,98.8l.12,0a.52.52,0,0,1,0,1h0a1.82,1.82,0,0,1-.28.11,26.69,26.69,0,0,1-3.65.62,13.41,13.41,0,0,0-4.45,1.41l0,0-.06,0a5.75,5.75,0,0,0-3,2.92,4.86,4.86,0,0,1-2.6,2.54,12.42,12.42,0,0,1-4.74,1.34,14.75,14.75,0,0,0-5.45,1.54l-.07,0,0,0a6.15,6.15,0,0,0-2.73,2.38,6.58,6.58,0,0,1-1.24,2,1,1,0,0,1-.21.15m-1.48-16.39c-8.45,4.47-9.06,11.74-1.8,16.87h0l.24.15a4.65,4.65,0,0,0,2.16.51,4.49,4.49,0,0,0,2.11-.45,2.11,2.11,0,0,0,.5-.35,7.37,7.37,0,0,0,1.4-2.15,5,5,0,0,1,2.34-2,12.1,12.1,0,0,1,4.73-1.34,14.94,14.94,0,0,0,5.45-1.54l.06,0,.07,0a5.78,5.78,0,0,0,3-2.92,4.81,4.81,0,0,1,2.61-2.54,10.73,10.73,0,0,1,3.78-1.21,28.83,28.83,0,0,0,4-.7,3.23,3.23,0,0,0,.67-.26,1.21,1.21,0,0,0,0-2.33l-.26-.13c-9.2-4.1-22.55-4-31,.48" />
                <path class="cls-10" d="M134.6,110c-.33.18-.33.48,0,.66l8.13,4.51a2.87,2.87,0,0,1,1.54,1.85,1.78,1.78,0,0,1-.93,1.84,3.16,3.16,0,0,1-.45.28,7.93,7.93,0,0,1-3.78.78,8.16,8.16,0,0,1-3.79-.91,1.41,1.41,0,0,0-1.22,0c-.34.18-.34.47,0,.66a11.65,11.65,0,0,0,10,.18,5.61,5.61,0,0,0,.6-.37,2.48,2.48,0,0,0,1.29-2.5,3.79,3.79,0,0,0-2-2.42l0,0L135.83,110a1.43,1.43,0,0,0-1.23,0" />
            </g>
        </g>
    </g>
    <g id="line-3-under">
        <path class="cls-11" d="M126.58,192.91l-60.48-32A7,7,0,0,1,66,148.62l31.1-17.56" />
    </g>
    <g id="line-3-up">
        <path class="cls-12" d="M97.09,131.06,66,148.62a7,7,0,0,0,.11,12.25l60.48,32"
		stroke-dasharray="10"
        stroke-dashoffset="3"
		style="animation: myanimation-reverse 1s infinite linear"
		/>
    </g>
    <g id="Layer_25" data-name="Layer 25">
        <polygon class="cls-6" points="550.45 192.82 469.42 239.64 320.26 154.18 400.98 108.46 550.45 192.82" />
        <polygon class="cls-13" points="550.45 192.82 550.45 197.8 469.42 242.53 320.26 157.06 320.26 154.18 469.42 239.64 550.45 192.82" />
        <polygon class="cls-5" points="379.02 182.83 400.48 170.57 442.43 194.5 420.98 207.35 379.02 182.83" />
        <polygon class="cls-5" points="353.13 140.99 400.77 113.77 539.67 193.95 492.84 221.14 353.13 140.99" />
        <polygon class="cls-14" points="499.77 212.07 494.22 215.29 487.13 211.2 492.72 208 499.77 212.07" />
        <polygon class="cls-14" points="383.19 144.56 377.59 147.76 363.7 139.94 369.29 136.75 383.19 144.56" />
        <polygon class="cls-14" points="391.96 149.63 386.37 152.82 378.91 148.51 384.5 145.32 391.96 149.63" />
        <polygon class="cls-14" points="400.73 154.69 395.14 157.88 387.68 153.58 393.27 150.38 400.73 154.69" />
        <polygon class="cls-14" points="409.49 159.75 403.9 162.95 396.45 158.64 402.04 155.44 409.49 159.75" />
        <polygon class="cls-14" points="418.26 164.81 412.68 168.01 405.22 163.7 410.81 160.51 418.26 164.81" />
        <polygon class="cls-14" points="427.04 169.87 421.44 173.07 413.99 168.77 419.58 165.57 427.04 169.87" />
        <polygon class="cls-14" points="435.81 174.94 430.22 178.13 422.76 173.83 428.35 170.63 435.81 174.94" />
        <polygon class="cls-14" points="444.57 180 438.98 183.19 431.53 178.89 437.12 175.69 444.57 180" />
        <polygon class="cls-14" points="453.35 185.06 447.75 188.26 440.3 183.95 445.89 180.76 453.35 185.06" />
        <polygon class="cls-14" points="462.12 190.13 456.53 193.32 449.07 189.02 454.66 185.82 454.66 185.82 462.12 190.13" />
        <polygon class="cls-14" points="470.89 195.19 465.29 198.38 457.84 194.08 463.43 190.88 470.89 195.19" />
        <polygon class="cls-14" points="482.71 202.2 477.11 205.4 466.61 199.15 472.2 195.94 482.71 202.2" />
        <polygon class="cls-14" points="491.41 207.24 485.82 210.44 478.37 206.14 483.96 202.94 491.41 207.24" />
        <polygon class="cls-14" points="521.87 198.98 516.32 202.2 509.23 198.11 514.82 194.91 521.87 198.98" />
        <polygon class="cls-14" points="399.5 128.34 393.91 131.54 385.8 126.85 391.39 123.66 399.5 128.34" />
        <polygon class="cls-14" points="408.27 133.41 402.68 136.6 395.22 132.29 400.81 129.1 408.27 133.41" />
        <polygon class="cls-14" points="417.04 138.47 411.45 141.66 404 137.36 409.59 134.16 417.04 138.47" />
        <polygon class="cls-14" points="425.81 143.53 420.22 146.73 412.77 142.42 418.35 139.22 425.81 143.53" />
        <polygon class="cls-14" points="434.58 148.59 428.99 151.79 421.54 147.48 427.12 144.29 434.58 148.59" />
        <polygon class="cls-14" points="443.35 153.65 437.76 156.85 430.3 152.55 435.89 149.35 443.35 153.65" />
        <polygon class="cls-14" points="452.12 158.72 446.53 161.91 439.07 157.61 444.66 154.41 452.12 158.72" />
        <polygon class="cls-14" points="460.89 163.78 455.3 166.97 447.84 162.67 453.44 159.47 460.89 163.78" />
        <polygon class="cls-14" points="469.66 168.84 464.07 172.04 456.61 167.73 462.2 164.54 469.66 168.84" />
        <polygon class="cls-14" points="478.43 173.9 472.84 177.1 465.38 172.8 470.97 169.6 470.98 169.6 478.43 173.9" />
        <polygon class="cls-14" points="487.2 178.97 481.61 182.16 474.15 177.86 479.75 174.66 487.2 178.97" />
        <polygon class="cls-14" points="495.98 184.03 490.38 187.23 482.92 182.92 488.51 179.72 495.98 184.03" />
        <polygon class="cls-14" points="504.74 189.09 499.15 192.29 499.15 192.29 491.69 187.98 497.28 184.79 504.74 189.09" />
        <polygon class="cls-14" points="513.51 194.16 507.92 197.35 500.46 193.05 506.06 189.85 513.51 194.16" />
        <polygon class="cls-14" points="384.68 136.91 379.08 140.11 370.97 135.43 376.56 132.23 384.68 136.91" />
        <polygon class="cls-14" points="393.44 141.98 387.86 145.18 380.39 140.86 385.99 137.67 393.44 141.98" />
        <polygon class="cls-14" points="402.21 147.04 396.62 150.24 389.17 145.93 394.76 142.73 402.21 147.04" />
        <polygon class="cls-14" points="410.98 152.11 405.39 155.3 397.94 150.99 403.52 147.79 410.98 152.11" />
        <polygon class="cls-14" points="419.75 157.17 414.17 160.36 406.71 156.06 412.3 152.86 419.75 157.17" />
        <polygon class="cls-14" points="428.52 162.23 422.93 165.43 415.48 161.12 421.06 157.92 428.52 162.23" />
        <polygon class="cls-14" points="437.29 167.29 431.7 170.49 424.24 166.18 429.83 162.99 437.29 167.29" />
        <polygon class="cls-14" points="446.06 172.35 440.47 175.55 433.01 171.25 438.61 168.04 446.06 172.35" />
        <polygon class="cls-14" points="454.83 177.42 449.24 180.61 441.78 176.31 447.38 173.11 454.83 177.42" />
        <polygon class="cls-14" points="463.6 182.48 458.01 185.68 450.56 181.37 456.14 178.17 456.15 178.17 463.6 182.48" />
        <polygon class="cls-14" points="472.37 187.54 466.78 190.74 459.32 186.43 464.92 183.24 472.37 187.54" />
        <polygon class="cls-14" points="481.15 192.6 475.55 195.8 468.09 191.5 473.69 188.3 481.15 192.6" />
        <polygon class="cls-14" points="502.5 204.8 496.9 208 489.45 203.7 495.05 200.5 502.5 204.8" />
        <polygon class="cls-14" points="529.1 194.94 523.55 198.16 511.98 191.44 517.57 188.25 529.1 194.94" />
        <polygon class="cls-14" points="411.09 126.66 405.5 129.86 393.04 122.81 398.62 119.62 411.09 126.66" />
        <polygon class="cls-14" points="419.86 131.73 414.27 134.92 406.81 130.61 412.4 127.42 419.86 131.73" />
        <polygon class="cls-14" points="428.63 136.79 423.04 139.98 415.58 135.68 421.17 132.48 428.63 136.79" />
        <polygon class="cls-14" points="437.4 141.85 431.81 145.05 424.35 140.74 429.94 137.54 437.4 141.85" />
        <polygon class="cls-14" points="446.16 146.91 440.58 150.11 433.12 145.8 438.71 142.61 446.16 146.91" />
        <polygon class="cls-14" points="454.94 151.97 449.34 155.17 441.89 150.87 447.48 147.67 454.94 151.97" />
        <polygon class="cls-14" points="463.71 157.04 458.12 160.23 450.66 155.93 456.25 152.73 463.71 157.04" />
        <polygon class="cls-14" points="472.48 162.1 466.88 165.29 459.43 160.99 465.02 157.79 472.48 162.1" />
        <polygon class="cls-14" points="481.25 167.16 475.66 170.36 468.2 166.05 473.79 162.86 481.25 167.16" />
        <polygon class="cls-14" points="490.02 172.22 484.43 175.42 476.97 171.12 482.56 167.92 482.56 167.92 490.02 172.22" />
        <polygon class="cls-14" points="498.79 177.29 493.19 180.48 485.74 176.18 491.33 172.98 498.79 177.29" />
        <polygon class="cls-14" points="507.56 182.35 501.97 185.55 494.51 181.24 500.1 178.04 507.56 182.35" />
        <polygon class="cls-14" points="516.33 187.41 510.74 190.61 510.74 190.61 503.28 186.3 508.87 183.11 516.33 187.41" />
        <polygon class="cls-14" points="514.5 203.27 508.95 206.49 497.38 199.78 502.97 196.58 514.5 203.27" />
        <polygon class="cls-14" points="396.49 134.99 390.9 138.19 378.44 131.15 384.03 127.95 396.49 134.99" />
        <polygon class="cls-14" points="405.26 140.06 399.67 143.25 392.21 138.94 397.8 135.75 405.26 140.06" />
        <polygon class="cls-14" points="414.03 145.12 408.44 148.31 400.99 144.01 406.57 140.81 414.03 145.12" />
        <polygon class="cls-14" points="422.8 150.18 417.21 153.38 409.75 149.07 415.34 145.87 422.8 150.18" />
        <polygon class="cls-14" points="431.57 155.24 425.98 158.44 418.52 154.13 424.11 150.94 431.57 155.24" />
        <polygon class="cls-14" points="440.34 160.3 434.75 163.5 427.29 159.2 432.88 156 440.34 160.3" />
        <polygon class="cls-14" points="449.11 165.37 443.52 168.56 436.06 164.26 441.65 161.06 449.11 165.37" />
        <polygon class="cls-14" points="457.88 170.43 452.28 173.62 444.83 169.32 450.42 166.12 457.88 170.43" />
        <polygon class="cls-14" points="466.65 175.49 461.06 178.69 453.6 174.38 459.19 171.19 466.65 175.49" />
        <polygon class="cls-14" points="475.42 180.56 469.83 183.75 462.37 179.45 467.96 176.25 467.97 176.25 475.42 180.56" />
        <polygon class="cls-14" points="484.19 185.62 478.6 188.81 471.14 184.51 476.74 181.31 484.19 185.62" />
        <polygon class="cls-14" points="492.96 190.68 487.37 193.88 479.91 189.57 485.5 186.37 492.96 190.68" />
        <polygon class="cls-14" points="501.73 195.75 496.14 198.94 496.14 198.94 488.68 194.63 494.27 191.44 501.73 195.75" />
        <polygon class="cls-15" points="550.45 85.3 550.45 192.84 411.29 114.29 400.98 108.47 400.99 1.38 510.56 62.91 550.45 85.3" />
        <polygon class="cls-16" points="552.92 83.92 552.92 191.45 550.45 192.84 550.45 85.3 400.99 1.38 403.46 0 552.92 83.92" />
        <polygon class="cls-17" points="503.83 66.67 418.02 110.53 407.23 104.42 407.24 12.25 503.83 66.67" />
        <polygon class="cls-18" points="544.19 89.41 544.19 181.96 418.02 110.53 503.83 66.67 544.19 89.41" />
        <polygon class="cls-19" points="550.45 85.3 550.45 192.84 411.29 114.29 418.02 110.53 544.19 181.96 544.19 89.41 503.83 66.67 510.56 62.91 550.45 85.3" />
        <path class="cls-6" d="M512.82,139.65l-8.29,4.5a7.5,7.5,0,0,0,.88-.74c5.83-5.84,3.24-19.45-8.69-31.38,0,0,.1-18.77-19.78-22.69,0,0-3-15-14.13-20.41A13.15,13.15,0,0,0,456,67.5a12.88,12.88,0,0,1,3.51-2.65,10.78,10.78,0,0,1,3.9-1.11,13.05,13.05,0,0,1,6.8,1.43c11.17,5.38,14.13,20.42,14.13,20.42,19.88,3.91,19.78,22.68,19.78,22.68C516.06,120.2,518.65,133.81,512.82,139.65Z" />
        <line class="cls-1" x1="504.53" y1="144.15" x2="504.52" y2="144.16" />
        <path class="cls-6" d="M452.11,68.61A12.49,12.49,0,0,0,447,73.33,23.38,23.38,0,0,0,437.25,71a8.93,8.93,0,0,1,7.41-3.76A20.9,20.9,0,0,1,452.11,68.61Z" />
        <path class="cls-20" d="M489.14,74.18,481.74,78c-2.1-4.55-5.7-10-11.52-12.79a13.05,13.05,0,0,0-6.8-1.43c2.29-2.44,7.1-5.75,14.22-2.33C483.45,64.21,487,69.63,489.14,74.18Z" />
        <path class="cls-17" d="M520.24,135.88l-7.42,3.77c5.84-5.84,3.24-19.45-8.68-31.38,0,0,.1-18.76-19.78-22.68A37.33,37.33,0,0,0,481.74,78l7.4-3.78a37.93,37.93,0,0,1,2.63,7.65c19.87,3.91,19.78,22.68,19.78,22.68C523.48,116.44,526.07,130.05,520.24,135.88Z" />
        <path class="cls-20" d="M459.52,64.85A12.88,12.88,0,0,0,456,67.5h0a10.47,10.47,0,0,0-3.89,1.1h0a20.9,20.9,0,0,0-7.45-1.33C448.42,61.84,455.76,63.52,459.52,64.85Z" />
        <path class="cls-5" d="M500.16,143.3c-3.93,0-8.76-3-10.29-4.2l-.08-.06-.09-.06c-1-.64-25.25-15.83-33.79-20.66-20.35-11.52-26.87-26-26.18-35.79.59-8.37,4.86-9.33,8-9.33a21.65,21.65,0,0,1,8.32,2.07l2.23,1.11L449,74.2c.37-.6,3.07-4.57,7.88-4.57a11.54,11.54,0,0,1,5,1.25C472,75.73,474.8,89.62,474.82,89.76l.29,1.42,1.42.28c17.82,3.52,18,19.87,18,20.57v.89l.64.64c5.32,5.32,9,11.35,10.43,17,1.23,4.88.59,9-1.75,11.35a5,5,0,0,1-3.72,1.42Z" />
    </g>
    <g id="line-2-under">
        <line class="cls-11" x1="376.71" y1="253.11" x2="433.58" y2="221.56" />
    </g>
    <g id="line-2-up">
        <line class="cls-12" x1="376.71" y1="253.11" x2="433.58" y2="221.56" 
		stroke-dasharray="10"
        stroke-dashoffset="3"
		style="animation: myanimation 1s infinite linear"
		/>
    </g>
    <g id="Layer_21" data-name="Layer 21">
        <polygon class="cls-21" points="415.04 261.96 212.14 372.48 0 259.5 202.9 148.98 415.04 261.96" />
    </g>
    <g id="Layer_20" data-name="Layer 20">
        <polygon class="cls-5" points="404.15 261.9 211.9 366.61 10.9 259.56 203.14 154.85 404.15 261.9" />
    </g>
    <g id="Layer_19" data-name="Layer 19">
        <polygon class="cls-6" points="255.55 209.9 206.9 236.4 156.05 209.31 204.69 182.81 255.55 209.9" />
        <polygon class="cls-22" points="239.33 209.81 206.54 227.66 172.27 209.41 205.05 191.55 239.33 209.81" />
    </g>
    <g id="green-line-2">
        <polygon class="cls-23" points="370.97 261.14 303.69 297.79 233.34 260.32 300.62 223.67 370.97 261.14" />
    </g>
    <g id="Layer_17" data-name="Layer 17">
        <polygon class="cls-24" points="212.14 372.48 212.14 384.59 0 271.61 0 259.5 212.14 372.48" />
        <polygon class="cls-25" points="415.04 261.96 415.04 274.07 212.14 384.59 212.14 372.48 415.04 261.96" />
    </g>
    <g id="green-line-1">
        <ellipse class="cls-23" cx="112.87" cy="260.72" rx="52.57" ry="30.18" />
    </g>
    <g id="Layer_15" data-name="Layer 15">
        <path class="cls-26" d="M74.16,260.82c0,12.28,17.33,22.23,38.71,22.23s38.71-9.95,38.71-22.23v-9.58H74.16Z" />
        <ellipse class="cls-27" cx="112.87" cy="251.24" rx="38.71" ry="22.22" />
        <ellipse class="cls-5" cx="112.87" cy="251.24" rx="34.73" ry="19.5" />
        <ellipse class="cls-6" cx="112.87" cy="251.24" rx="31.7" ry="17.2" />
        <path class="cls-28" d="M74.16,238.49c0,12.28,17.33,22.23,38.71,22.23s38.71-10,38.71-22.23v-9.58H74.16Z" />
        <ellipse class="cls-29" cx="112.87" cy="228.91" rx="38.71" ry="22.22" />
        <ellipse class="cls-5" cx="112.87" cy="228.91" rx="34.73" ry="19.5" />
        <ellipse class="cls-6" cx="112.87" cy="228.91" rx="31.7" ry="17.2" />
        <path class="cls-30" d="M74.16,216.16c0,12.28,17.33,22.23,38.71,22.23s38.71-9.95,38.71-22.23v-9.58H74.16Z" />
        <ellipse class="cls-31" cx="112.87" cy="206.58" rx="38.71" ry="22.22" />
        <ellipse class="cls-5" cx="112.87" cy="206.58" rx="34.73" ry="19.5" />
        <ellipse class="cls-6" cx="112.87" cy="206.58" rx="31.7" ry="17.2" />
        <path class="cls-32" d="M74.16,193.84c0,12.27,17.33,22.22,38.71,22.22s38.71-9.95,38.71-22.22v-9.59H74.16Z" />
        <path class="cls-33" d="M151.58,184.25c0,12.27-17.33,22.22-38.71,22.22-13.34,0-25.11-3.87-32.07-9.77-4.19-3.55-6.64-7.84-6.64-12.45a14.18,14.18,0,0,1,2.36-7.66C82,168.09,96.18,162,112.87,162,134.25,162,151.58,172,151.58,184.25Z" />
        <ellipse class="cls-34" cx="112.87" cy="184.25" rx="35.68" ry="20.03" />
        <path class="cls-35" d="M112.87,196.7H80.8c-4.19-3.55-6.64-7.84-6.64-12.45a14.18,14.18,0,0,1,2.36-7.66h34.92Z" />
        <path class="cls-36" d="M93.52,185.59c0,6.13,8.66,11.11,19.35,11.11s19.36-5,19.36-11.11v-5.86H93.52Z" />
        <ellipse class="cls-37" cx="112.87" cy="179.73" rx="19.36" ry="11.11" />
        <path class="cls-38" d="M126.46,179.73a4.87,4.87,0,0,1-.62,2.33c-1.73,3.17-6.88,5.47-13,5.47s-11.24-2.3-13-5.47a4.87,4.87,0,0,1-.62-2.33c0-4.31,6.08-7.79,13.58-7.79S126.46,175.42,126.46,179.73Z" />
        <path class="cls-39" d="M125.84,182.06c-1.73,3.17-6.88,5.47-13,5.47s-11.24-2.3-13-5.47c1.72-3.17,6.87-5.47,13-5.47S124.12,178.89,125.84,182.06Z" />
    </g>
    <g id="Layer_14" data-name="Layer 14">
        <polygon class="cls-40" points="206.52 209.36 206.52 217.53 173.48 199.93 173.48 191.76 206.52 209.36" />
        <polygon class="cls-41" points="238.11 192.15 206.52 209.36 173.48 191.76 205.08 174.56 238.11 192.15" />
        <polygon class="cls-5" points="234.24 192.13 206.43 207.27 177.35 191.79 205.16 176.64 234.24 192.13" />
        <polygon class="cls-6" points="231.29 192.11 206.36 205.69 180.3 191.8 205.23 178.22 231.29 192.11" />
        <polygon class="cls-42" points="238.11 192.15 238.11 200.32 206.52 217.53 206.52 209.36 238.11 192.15" />
        <line class="cls-23" x1="205.87" y1="189.61" x2="201.56" y2="191.96" />
        <line class="cls-23" x1="208" y1="190.74" x2="203.69" y2="193.08" />
        <line class="cls-23" x1="210.03" y1="191.96" x2="205.72" y2="194.3" />
        <polygon class="cls-43" points="206.52 191.54 206.52 199.71 173.48 182.12 173.48 173.95 206.52 191.54" />
        <polygon class="cls-44" points="238.11 174.33 206.52 191.54 173.48 173.95 205.08 156.74 238.11 174.33" />
        <polygon class="cls-5" points="234.24 174.31 206.43 189.46 177.35 173.97 205.16 158.82 234.24 174.31" />
        <polygon class="cls-6" points="231.29 174.29 206.36 187.87 180.3 173.99 205.23 160.41 231.29 174.29" />
        <polygon class="cls-45" points="238.11 174.33 238.11 182.5 206.52 199.71 206.52 191.54 238.11 174.33" />
        <line class="cls-23" x1="205.87" y1="171.79" x2="201.56" y2="174.14" />
        <line class="cls-23" x1="208" y1="172.92" x2="203.69" y2="175.27" />
        <line class="cls-23" x1="210.03" y1="174.14" x2="205.72" y2="176.49" />
        <polygon class="cls-46" points="206.52 173.72 206.52 181.9 173.48 164.3 173.48 156.13 206.52 173.72" />
        <polygon class="cls-47" points="238.11 156.52 206.52 173.72 173.48 156.13 205.08 138.93 238.11 156.52" />
        <polygon class="cls-5" points="234.24 156.49 206.43 171.64 177.35 156.16 205.16 141.01 234.24 156.49" />
        <polygon class="cls-6" points="231.29 156.48 206.36 170.06 180.3 156.17 205.23 142.59 231.29 156.48" />
        <polygon class="cls-48" points="238.11 156.52 238.11 164.69 206.52 181.9 206.52 173.72 238.11 156.52" />
        <line class="cls-23" x1="205.87" y1="153.98" x2="201.56" y2="156.33" />
        <line class="cls-23" x1="208" y1="155.1" x2="203.69" y2="157.45" />
        <line class="cls-23" x1="210.03" y1="156.33" x2="205.72" y2="158.67" />
        <polygon class="cls-49" points="206.52 155.91 206.52 164.08 173.48 146.49 173.48 138.32 206.52 155.91" />
        <polygon class="cls-50" points="238.11 138.7 206.52 155.91 173.48 138.32 205.08 121.11 238.11 138.7" />
        <polygon class="cls-5" points="234.24 138.68 206.43 153.83 177.35 138.34 205.16 123.19 234.24 138.68" />
        <polygon class="cls-6" points="231.29 138.66 206.36 152.24 180.3 138.36 205.23 124.78 231.29 138.66" />
        <polygon class="cls-51" points="238.11 138.7 238.11 146.87 206.52 164.08 206.52 155.91 238.11 138.7" />
        <line class="cls-23" x1="205.87" y1="136.16" x2="201.56" y2="138.51" />
        <line class="cls-23" x1="208" y1="137.29" x2="203.69" y2="139.64" />
        <line class="cls-23" x1="210.03" y1="138.51" x2="205.72" y2="140.86" />
        <polygon class="cls-52" points="206.52 138.09 206.52 146.26 173.48 128.67 173.48 120.5 206.52 138.09" />
        <polygon class="cls-53" points="238.11 120.89 206.52 138.09 173.48 120.5 205.08 103.29 238.11 120.89" />
        <polygon class="cls-5" points="234.24 120.86 206.43 136.01 177.35 120.53 205.16 105.38 234.24 120.86" />
        <polygon class="cls-6" points="231.29 120.85 206.36 134.43 180.3 120.54 205.23 106.96 231.29 120.85" />
        <polygon class="cls-54" points="238.11 120.89 238.11 129.06 206.52 146.26 206.52 138.09 238.11 120.89" />
        <line class="cls-23" x1="205.87" y1="118.35" x2="201.56" y2="120.69" />
        <line class="cls-23" x1="208" y1="119.47" x2="203.69" y2="121.82" />
        <line class="cls-23" x1="210.03" y1="120.69" x2="205.72" y2="123.04" />
    </g>
    <g id="Layer_13" data-name="Layer 13">
        <polygon class="cls-6" points="351.9 261.03 303.26 287.52 252.41 260.44 301.05 233.94 351.9 261.03" />
        <polygon class="cls-22" points="335.69 258.11 302.9 275.97 268.62 257.71 301.41 239.85 335.69 258.11" />
    </g>
    <g id="Layer_12" data-name="Layer 12">
        <polygon class="cls-55" points="303 256.2 303 265.83 264.06 245.09 264.06 235.46 303 256.2" />
        <polygon class="cls-56" points="340.25 235.91 303 256.2 264.06 235.46 301.31 215.18 340.25 235.91" />
        <polygon class="cls-5" points="335.69 235.89 302.9 253.74 268.62 235.49 301.41 217.63 335.69 235.89" />
        <polygon class="cls-6" points="332.21 235.87 302.82 251.87 272.1 235.51 301.49 219.5 332.21 235.87" />
        <polygon class="cls-57" points="340.25 235.91 340.25 245.54 303 265.83 303 256.2 340.25 235.91" />
        <line class="cls-23" x1="302.24" y1="232.92" x2="297.16" y2="235.69" />
        <line class="cls-23" x1="304.75" y1="234.25" x2="299.67" y2="237.02" />
        <line class="cls-23" x1="307.15" y1="235.69" x2="302.07" y2="238.45" />
        <polygon class="cls-58" points="303 235.2 303 244.83 264.06 224.09 264.06 214.46 303 235.2" />
        <polygon class="cls-59" points="340.25 214.91 303 235.2 264.06 214.46 301.31 194.18 340.25 214.91" />
        <polygon class="cls-5" points="335.69 214.89 302.9 232.74 268.62 214.49 301.41 196.63 335.69 214.89" />
        <polygon class="cls-6" points="332.21 214.87 302.82 230.87 272.1 214.51 301.49 198.5 332.21 214.87" />
        <polygon class="cls-60" points="340.25 214.91 340.25 224.54 303 244.83 303 235.2 340.25 214.91" />
        <line class="cls-23" x1="302.24" y1="211.92" x2="297.16" y2="214.69" />
        <line class="cls-23" x1="304.75" y1="213.25" x2="299.67" y2="216.01" />
        <line class="cls-23" x1="307.15" y1="214.69" x2="302.07" y2="217.45" />
        <polygon class="cls-61" points="303 214.2 303 223.83 264.06 203.09 264.06 193.46 303 214.2" />
        <polygon class="cls-62" points="340.25 193.91 303 214.2 264.06 193.46 301.31 173.17 340.25 193.91" />
        <polygon class="cls-5" points="335.69 193.88 302.9 211.74 268.62 193.49 301.41 175.63 335.69 193.88" />
        <polygon class="cls-6" points="332.21 193.86 302.82 209.87 272.1 193.51 301.49 177.5 332.21 193.86" />
        <polygon class="cls-63" points="340.25 193.91 340.25 203.54 303 223.83 303 214.2 340.25 193.91" />
        <line class="cls-23" x1="302.24" y1="190.92" x2="297.16" y2="193.69" />
        <line class="cls-23" x1="304.75" y1="192.25" x2="299.67" y2="195.01" />
        <line class="cls-23" x1="307.15" y1="193.69" x2="302.07" y2="196.45" />
        <polygon class="cls-64" points="303 193.2 303 202.83 264.06 182.09 264.06 172.46 303 193.2" />
        <polygon class="cls-65" points="340.25 172.91 303 193.2 264.06 172.46 301.31 152.17 340.25 172.91" />
        <polygon class="cls-5" points="335.69 172.88 302.9 190.74 268.62 172.49 301.41 154.63 335.69 172.88" />
        <polygon class="cls-6" points="332.21 172.86 302.82 188.87 272.1 172.51 301.49 156.5 332.21 172.86" />
        <polygon class="cls-66" points="340.25 172.91 340.25 182.54 303 202.83 303 193.2 340.25 172.91" />
        <line class="cls-23" x1="302.24" y1="169.92" x2="297.16" y2="172.68" />
        <line class="cls-23" x1="304.75" y1="171.25" x2="299.67" y2="174.01" />
        <line class="cls-23" x1="307.15" y1="172.68" x2="302.07" y2="175.45" />
        <polygon class="cls-67" points="303 172.2 303 181.83 264.06 161.09 264.06 151.46 303 172.2" />
        <polygon class="cls-68" points="340.25 151.91 303 172.2 264.06 151.46 301.31 131.17 340.25 151.91" />
        <polygon class="cls-5" points="335.69 151.88 302.9 169.74 268.62 151.49 301.41 133.63 335.69 151.88" />
        <polygon class="cls-6" points="332.21 151.86 302.82 167.87 272.1 151.5 301.49 135.5 332.21 151.86" />
        <polygon class="cls-69" points="340.25 151.91 340.25 161.54 303 181.83 303 172.2 340.25 151.91" />
        <line class="cls-23" x1="302.24" y1="148.92" x2="297.16" y2="151.68" />
        <line class="cls-23" x1="304.75" y1="150.25" x2="299.67" y2="153.01" />
        <line class="cls-23" x1="307.15" y1="151.68" x2="302.07" y2="154.45" />
    </g>
    <g id="Layer_11" data-name="Layer 11">
        <polygon class="cls-70" points="210.32 341.38 210.32 344.92 147.03 311.22 147.03 307.67 210.32 341.38" />
        <polygon class="cls-71" points="270.85 308.4 210.32 341.38 147.03 307.67 207.56 274.7 270.85 308.4" />
        <polygon class="cls-5" points="263.44 308.36 210.15 337.38 154.44 307.71 207.72 278.69 263.44 308.36" />
        <polygon class="cls-6" points="257.79 308.33 210.03 334.34 160.09 307.75 207.85 281.73 257.79 308.33" />
        <polygon class="cls-22" points="241.69 308.23 209.67 325.68 176.19 307.84 208.21 290.4 241.69 308.23" />
        <polygon class="cls-72" points="270.85 308.4 270.85 311.95 210.32 344.92 210.32 341.38 270.85 308.4" />
        <line class="cls-23" x1="209.08" y1="303.54" x2="200.83" y2="308.04" />
        <line class="cls-23" x1="213.16" y1="305.7" x2="204.9" y2="310.19" />
        <line class="cls-23" x1="217.05" y1="308.04" x2="208.8" y2="312.53" />
    </g>
    <g id="Layer_10" data-name="Layer 10">
        <polygon class="cls-15" points="209.94 211.18 209.94 245.97 206.18 248.16 206.18 307.7 167.79 287.26 167.79 270.49 164.03 272.68 164.03 186.73 209.94 211.18" />
        <polygon class="cls-17" points="206.18 214.24 206.18 307.7 167.79 287.26 167.79 193.79 206.18 214.24" />
        <polygon class="cls-73" points="253.84 187.26 209.94 211.18 190.76 200.96 164.03 186.73 190.21 172.47 207.94 162.82 253.84 187.26" />
        <polygon class="cls-74" points="253.84 187.26 253.84 290.18 209.94 314.09 209.94 211.18 253.84 187.26" />
        <polygon class="cls-19" points="209.94 245.97 209.94 314.09 164.03 289.64 164.03 272.68 167.79 270.49 167.79 287.26 206.18 307.7 206.18 248.16 209.94 245.97" />
        <polygon class="cls-18" points="206.18 248.16 206.18 307.7 167.79 287.26 167.79 270.49 206.18 248.16" />
        <path class="cls-75" d="M170.14,193.79a2.34,2.34,0,0,1-2.12,2.34h-.23a2.34,2.34,0,0,1-1.54-4.11,2.29,2.29,0,0,1,1.54-.59A2.35,2.35,0,0,1,170.14,193.79Z" />
        <path class="cls-76" d="M168.82,194.36a2.33,2.33,0,0,1-.06.53,2.36,2.36,0,0,1-.74,1.24h-.23a2.34,2.34,0,0,1-1.54-4.11l.22,0a2.3,2.3,0,0,1,1.17.32h0A2.36,2.36,0,0,1,168.82,194.36Z" />
        <path class="cls-77" d="M168.82,194.36a2.33,2.33,0,0,1-.06.53,1.46,1.46,0,0,1-2.43-1.1,1.48,1.48,0,0,1,1.31-1.46h0A2.36,2.36,0,0,1,168.82,194.36Z" />
        <path class="cls-75" d="M208.53,214.32a2.34,2.34,0,0,1-2.13,2.34h-.22a2.34,2.34,0,0,1-1.54-4.11,2.29,2.29,0,0,1,1.54-.59A2.35,2.35,0,0,1,208.53,214.32Z" />
        <path class="cls-76" d="M207.21,214.89a2.33,2.33,0,0,1-.81,1.77h-.22a2.34,2.34,0,0,1-1.54-4.11h.22a2.3,2.3,0,0,1,1.17.31h0A2.36,2.36,0,0,1,207.21,214.89Z" />
        <path class="cls-77" d="M207.21,214.89a2.33,2.33,0,0,1-.06.53,1.46,1.46,0,0,1-2.43-1.1,1.48,1.48,0,0,1,1.31-1.46h0A2.36,2.36,0,0,1,207.21,214.89Z" />
        <path class="cls-75" d="M208.53,307.7A2.34,2.34,0,0,1,206.4,310h-.22a2.34,2.34,0,0,1-1.54-4.11,2.29,2.29,0,0,1,1.54-.59A2.35,2.35,0,0,1,208.53,307.7Z" />
        <path class="cls-76" d="M207.21,308.27a2.33,2.33,0,0,1-.81,1.77h-.22a2.34,2.34,0,0,1-1.54-4.11l.22,0a2.3,2.3,0,0,1,1.17.32h0A2.36,2.36,0,0,1,207.21,308.27Z" />
        <path class="cls-77" d="M207.21,308.27a2.33,2.33,0,0,1-.06.53,1.46,1.46,0,0,1-2.43-1.1,1.48,1.48,0,0,1,1.31-1.46h0A2.36,2.36,0,0,1,207.21,308.27Z" />
        <path class="cls-75" d="M170.14,287.13a2.34,2.34,0,0,1-2.12,2.34h-.23a2.35,2.35,0,1,1,2.35-2.35Z" />
        <path class="cls-76" d="M168.82,287.7a2.33,2.33,0,0,1-.06.53,2.4,2.4,0,0,1-.74,1.24h-.23a2.35,2.35,0,0,1-1.54-4.12h.22a2.21,2.21,0,0,1,1.17.32h0A2.33,2.33,0,0,1,168.82,287.7Z" />
        <path class="cls-77" d="M168.82,287.7a2.33,2.33,0,0,1-.06.53,1.46,1.46,0,0,1-2.43-1.1,1.48,1.48,0,0,1,1.31-1.46h0A2.33,2.33,0,0,1,168.82,287.7Z" />
        <polygon class="cls-78" points="209.61 196.06 209.61 203.65 178.88 187.29 178.88 179.69 209.61 196.06" />
        <polygon class="cls-79" points="239 180.05 209.61 196.06 178.88 179.69 208.27 163.68 239 180.05" />
        <polygon class="cls-5" points="235.4 180.03 209.53 194.12 182.48 179.71 208.35 165.62 235.4 180.03" />
        <polygon class="cls-6" points="232.66 180.01 209.47 192.64 185.22 179.73 208.41 167.1 232.66 180.01" />
        <polygon class="cls-80" points="239 180.05 239 187.65 209.61 203.65 209.61 196.06 239 180.05" />
        <line class="cls-23" x1="209.01" y1="177.69" x2="205" y2="179.87" />
        <line class="cls-23" x1="210.99" y1="178.73" x2="206.98" y2="180.92" />
        <line class="cls-23" x1="212.88" y1="179.87" x2="208.87" y2="182.05" />
    </g>
    <g id="line-1-under">
        <line class="cls-11" x1="354.21" y1="302.81" x2="429.01" y2="343.34" />
    </g>
    <g id="line-1-up">
        <line class="cls-12" x1="354.21" y1="302.81" x2="429.01" y2="343.34" 
		stroke-dasharray="10"
        stroke-dashoffset="3"
	    style="animation: myanimation 1s infinite linear"
		 />
    </g>
    <g id="api-under">
        <polygon class="cls-81" points="455.26 394.04 455.26 397.59 391.97 363.88 391.97 360.34 455.26 394.04" />
        <polygon class="cls-82" points="515.79 361.07 455.26 394.04 391.97 360.34 452.5 327.37 515.79 361.07" />
        <polygon class="cls-5" points="508.38 361.03 455.09 390.05 399.38 360.38 452.67 331.36 508.38 361.03" />
        <polygon class="cls-6" points="502.73 361 454.97 387.01 405.03 360.42 452.79 334.4 502.73 361" />
        <polygon class="cls-22" points="486.63 360.9 454.61 378.34 421.13 360.51 453.15 343.07 486.63 360.9" />
        <polygon class="cls-83" points="515.79 361.07 515.79 364.62 455.26 397.59 455.26 394.04 515.79 361.07" />
        <line class="cls-23" x1="454.02" y1="356.21" x2="445.77" y2="360.71" />
        <line class="cls-23" x1="458.1" y1="358.37" x2="449.85" y2="362.86" />
        <line class="cls-23" x1="461.99" y1="360.71" x2="453.74" y2="365.2" />
    </g>
    <g id="api-box">
        <polygon class="cls-15" points="454.88 285.1 454.88 298.64 451.12 300.82 451.12 360.37 412.73 339.93 412.73 323.16 408.97 325.35 408.97 260.65 454.88 285.1" />
        <polygon class="cls-17" points="451.12 288.16 451.12 360.37 412.73 339.93 412.73 267.71 451.12 288.16" />
        <polygon class="cls-84" points="498.79 261.18 454.88 285.1 435.7 274.88 408.97 260.65 435.15 246.39 452.88 236.73 498.79 261.18" />
        <polygon class="cls-85" points="498.79 261.18 498.79 342.85 454.88 366.76 454.88 285.1 498.79 261.18" />
        <polygon class="cls-19" points="454.88 298.64 454.88 366.76 408.97 342.31 408.97 325.35 412.73 323.16 412.73 339.93 451.12 360.37 451.12 300.82 454.88 298.64" />
        <polygon class="cls-18" points="451.12 300.82 451.12 360.37 412.73 339.93 412.73 323.16 451.12 300.82" />
        <path class="cls-75" d="M415.08,267.71a2.34,2.34,0,0,1-2.12,2.34h-.23a2.35,2.35,0,0,1-2.35-2.35,2.38,2.38,0,0,1,.81-1.77,2.33,2.33,0,0,1,1.54-.58A2.35,2.35,0,0,1,415.08,267.71Z" />
        <path class="cls-76" d="M413.76,268.28a2.33,2.33,0,0,1-.06.53,2.4,2.4,0,0,1-.74,1.24h-.23a2.35,2.35,0,0,1-2.35-2.35,2.38,2.38,0,0,1,.81-1.77h.22a2.3,2.3,0,0,1,1.17.32h0A2.34,2.34,0,0,1,413.76,268.28Z" />
        <path class="cls-77" d="M413.76,268.28a2.33,2.33,0,0,1-.06.53,1.46,1.46,0,0,1-2.43-1.1,1.48,1.48,0,0,1,1.31-1.46h0A2.34,2.34,0,0,1,413.76,268.28Z" />
        <path class="cls-75" d="M453.47,288.24a2.34,2.34,0,0,1-2.12,2.34h-.23a2.35,2.35,0,0,1-2.35-2.35,2.38,2.38,0,0,1,.81-1.77,2.33,2.33,0,0,1,1.54-.58A2.35,2.35,0,0,1,453.47,288.24Z" />
        <path class="cls-76" d="M452.15,288.81a2.33,2.33,0,0,1-.06.53,2.4,2.4,0,0,1-.74,1.24h-.23a2.35,2.35,0,0,1-2.35-2.35,2.38,2.38,0,0,1,.81-1.77h.22a2.3,2.3,0,0,1,1.17.32h0A2.36,2.36,0,0,1,452.15,288.81Z" />
        <path class="cls-77" d="M452.15,288.81a2.33,2.33,0,0,1-.06.53,1.46,1.46,0,0,1-2.43-1.1,1.48,1.48,0,0,1,1.31-1.46h0A2.36,2.36,0,0,1,452.15,288.81Z" />
        <path class="cls-75" d="M453.47,360.37a2.34,2.34,0,0,1-2.12,2.34h-.23a2.35,2.35,0,0,1-2.35-2.35,2.38,2.38,0,0,1,.81-1.77,2.33,2.33,0,0,1,1.54-.58A2.35,2.35,0,0,1,453.47,360.37Z" />
        <path class="cls-76" d="M452.15,360.94a2.33,2.33,0,0,1-.06.53,2.4,2.4,0,0,1-.74,1.24h-.23a2.35,2.35,0,0,1-2.35-2.35,2.38,2.38,0,0,1,.81-1.77h.22a2.3,2.3,0,0,1,1.17.32h0A2.34,2.34,0,0,1,452.15,360.94Z" />
        <path class="cls-77" d="M452.15,360.94a2.33,2.33,0,0,1-.06.53,1.46,1.46,0,0,1-2.43-1.1,1.48,1.48,0,0,1,1.31-1.46h0A2.34,2.34,0,0,1,452.15,360.94Z" />
        <path class="cls-75" d="M415.08,339.8a2.35,2.35,0,0,1-2.12,2.34h-.23a2.35,2.35,0,0,1-1.54-4.12,2.33,2.33,0,0,1,1.54-.58A2.35,2.35,0,0,1,415.08,339.8Z" />
        <path class="cls-76" d="M413.76,340.37a2.33,2.33,0,0,1-.06.53,2.4,2.4,0,0,1-.74,1.24h-.23a2.35,2.35,0,0,1-1.54-4.12h.22a2.21,2.21,0,0,1,1.17.32h0A2.33,2.33,0,0,1,413.76,340.37Z" />
        <path class="cls-77" d="M413.76,340.37a2.33,2.33,0,0,1-.06.53,1.5,1.5,0,0,1-1,.36,1.46,1.46,0,0,1-.15-2.92h0A2.33,2.33,0,0,1,413.76,340.37Z" />
    </g>
    <g id="white-lable-text">
        <path class="cls-10" d="M455.23,89.65c.11,1,.21,1.71.36,2.52l.53,2.89,1.79,1,2-6.28-1.89-1-.57,2.63c-.17.76-.3,1.53-.41,2.3h0c-.1-.9-.25-1.8-.41-2.74l-.57-3.27-1.51-.84-.72,2.66c-.14.65-.35,1.39-.48,2.15l0,0c-.09-.9-.2-1.78-.29-2.6l-.45-3.29-2-1.08,1.67,8.33,1.8,1,.67-2.24a14.37,14.37,0,0,0,.43-2.06Z" />
        <path class="cls-10" d="M463.75,93.57a2.26,2.26,0,0,1,1,2.18l-.08,4,1.92,1.06.08-4.27a4.69,4.69,0,0,0-2.1-4.42,1.82,1.82,0,0,0-1-.27,1.13,1.13,0,0,0-.77.35h0l.08-4.22-1.92-1.06L460.7,97.6l1.92,1.06.09-4.35a1.56,1.56,0,0,1,.06-.46A.63.63,0,0,1,463.75,93.57Z" />
        <path class="cls-10" d="M469.27,91.72c-.62-.34-1-.07-1,.57a2,2,0,0,0,1,1.7h0c.63.34,1,.06,1.05-.58A2,2,0,0,0,469.27,91.72Z" />
        <polygon class="cls-10" points="468.1 101.7 470.02 102.76 470.16 95.43 468.24 94.37 468.1 101.7" />
        <path class="cls-10" d="M473.88,95.47,472,95.05l0,1.38-.82-.46,0,1.68.82.46-.06,3a4.88,4.88,0,0,0,.49,2.48A3.87,3.87,0,0,0,473.8,105a4.22,4.22,0,0,0,1.24.49l0-1.73a2.89,2.89,0,0,1-.57-.26c-.57-.31-.75-.82-.73-1.7l.05-2.66,1.38.76,0-1.68-1.37-.76Z" />
        <path class="cls-10" d="M479,100.18c-2.13-1.18-3.15.33-3.19,2.19a6.16,6.16,0,0,0,3.22,5.56,5.52,5.52,0,0,0,2.25.77l-.23-1.69a4.75,4.75,0,0,1-1.71-.63,3.07,3.07,0,0,1-1.71-2.35l4,2.2a5.81,5.81,0,0,0,.08-.86A5.7,5.7,0,0,0,479,100.18Zm-1.36,2.28c.07-.57.41-1.28,1.23-.82a2.34,2.34,0,0,1,1.05,2.08Z" />
        <polygon class="cls-10" points="450.81 108.41 452.73 109.47 452.93 98.8 451.02 97.74 450.81 108.41" />
        <path class="cls-10" d="M460.46,112l.05-2.57a4.93,4.93,0,0,0-2.64-4.66,4.2,4.2,0,0,0-2.41-.66l.33,1.64a3,3,0,0,1,1.71.41,1.77,1.77,0,0,1,1.1,1.57v.09c-2.18-1.21-3.64-1.12-3.67.79a4,4,0,0,0,1.95,3.36c.73.4,1.36.44,1.78.08l0,0,.1.8,1.73,1A12.51,12.51,0,0,1,460.46,112ZM458.62,110a1.35,1.35,0,0,1,0,.37c-.14.39-.55.54-1,.28a1.42,1.42,0,0,1-.73-1.29c0-.87.8-.71,1.81-.15Z" />
        <path class="cls-10" d="M466.92,109.76c-.86-.48-1.51-.43-1.89,0l0,0,.08-4.2-1.92-1.06L463,113c0,.83-.06,1.7-.1,2.17l1.63.9.1-1h0a4.15,4.15,0,0,0,1.84,2.22c1.4.78,2.84.24,2.89-2.4A5.72,5.72,0,0,0,466.92,109.76Zm-.85,5.46a2.58,2.58,0,0,1-1.1-1.7,3,3,0,0,1,0-.43l0-1.08a2.3,2.3,0,0,1,.05-.4.72.72,0,0,1,1.14-.5,3,3,0,0,1,1.29,2.77C467.41,115.2,466.89,115.67,466.07,115.22Z" />
        <polygon class="cls-10" points="471.52 119.89 473.44 120.95 473.65 110.29 471.73 109.22 471.52 119.89" />
        <path class="cls-10" d="M478.91,116.41c-2.13-1.18-3.16.32-3.2,2.18a6.17,6.17,0,0,0,3.23,5.56,5.43,5.43,0,0,0,2.24.77l-.22-1.68a4.88,4.88,0,0,1-1.71-.63,3.08,3.08,0,0,1-1.71-2.36l4,2.2a6.09,6.09,0,0,0-2.6-6Zm-1.36,2.27c.07-.57.41-1.27,1.23-.82a2.34,2.34,0,0,1,1,2.08Z" />
    </g>
    <g id="api-bg">
        <polygon class="cls-86" points="454.65 271.93 454.65 280.73 419.08 261.78 419.08 252.98 454.65 271.93" />
        <polygon class="cls-87" points="488.68 253.39 454.65 271.93 419.08 252.98 453.11 234.45 488.68 253.39" />
        <polygon class="cls-5" points="484.52 253.37 454.56 269.69 423.24 253.01 453.2 236.69 484.52 253.37" />
        <polygon class="cls-6" points="481.34 253.35 454.49 267.98 426.42 253.03 453.27 238.4 481.34 253.35" />
        <polygon class="cls-88" points="488.68 253.39 488.68 262.19 454.65 280.73 454.65 271.93 488.68 253.39" />
    </g>
    <g id="white-lable-frame">
        <path class="cls-89" d="M456.91,69.47a11.62,11.62,0,0,1,5,1.27c10.1,4.86,13,18.85,13,19l.26,1.32,1.32.26c18,3.54,18.16,20,18.16,20.71v.84l.59.59c5.34,5.34,9.06,11.39,10.48,17,1.23,4.93.58,9.13-1.79,11.5a5.07,5.07,0,0,1-.61.52h0a5.31,5.31,0,0,1-3.2.93c-4.77,0-10.34-4.19-10.39-4.24l-.07-.05-.08,0c-.25-.16-25.25-15.83-33.79-20.66-20.41-11.56-26.95-26.15-26.26-35.94.44-6.21,3-9.31,7.75-9.47h.43a21.78,21.78,0,0,1,8.39,2.09l2.07,1,.67-2a10.91,10.91,0,0,1,3.94-3.63l.2-.1a8.43,8.43,0,0,1,3.15-.9l.24,0h.5m0-2q-.45,0-.9,0h0a10.47,10.47,0,0,0-3.89,1.1h0A12.49,12.49,0,0,0,447,73.33a23.72,23.72,0,0,0-9.29-2.3h-.5c-4.53.15-9.06,2.58-9.67,11.32-.7,9.81,5.46,25.48,27.27,37.83,8.59,4.87,33.71,20.61,33.71,20.61s6.08,4.65,11.6,4.65a7.32,7.32,0,0,0,4.36-1.3h0a7.5,7.5,0,0,0,.88-.74c5.83-5.84,3.24-19.45-8.69-31.38,0,0,.1-18.77-19.78-22.69,0,0-3-15-14.13-20.41a13.53,13.53,0,0,0-5.9-1.46Z"
		stroke-dasharray="10"
        stroke-dashoffset="3"
	    style="animation: myanimation 1s infinite linear"
		/>
    </g>
    <g id="api-text">
        <path class="cls-10" d="M439.8,254.5l8,6.71L450.2,260l-2.13-1.68,3-1.53,3.66.9,2.54-1.29-14.4-3.44Zm3.35.11c.8.22,1.83.51,2.66.72l3,.75-2.3,1.17-1.73-1.4c-.49-.37-1.17-.84-1.69-1.22Z" />
        <path class="cls-10" d="M457.85,252.26c1.4-.7,2.21-1.48,2.21-2.26,0-.6-.57-1.19-1.68-1.7a7.82,7.82,0,0,0-3.68-.6,10.14,10.14,0,0,0-4.09,1.21,22.17,22.17,0,0,0-2.95,1.72l11,5,2.33-1.19-4-1.83A5.16,5.16,0,0,0,457.85,252.26Zm-2-.87a5.48,5.48,0,0,1-.85.37l-3.29-1.51a5.08,5.08,0,0,1,.87-.52,4,4,0,0,1,3.5-.2C457.25,250.05,457.15,250.75,455.9,251.39Z" />
        <polygon class="cls-10" points="458.85 244.79 456.5 245.99 467.65 251.08 470 249.88 458.85 244.79" />
    </g>
</svg>