<svg xmlns="http://www.w3.org/2000/svg" viewBox="0 0 66.17 36"><defs><style>.cls-1{fill:#f23857;}.cls-2{opacity:0.6;}.cls-3{fill:#fff;}</style></defs><title>label_1</title><g id="Layer_2" data-name="Layer 2"><g id="Layer_1-2" data-name="Layer 1"><path class="cls-1" d="M0,36H62.16a4,4,0,0,0,3.16-6.46l-7.07-9.09a4,4,0,0,1,0-4.91l7.07-9.09A4,4,0,0,0,62.16,0H0Z"/><g class="cls-2"><path class="cls-3" d="M.87,2a.36.36,0,0,1-.37.37H0V1.62H.5A.37.37,0,0,1,.87,2Z"/><path class="cls-3" d="M60.61,33.62h-1a.38.38,0,0,0-.37.38.37.37,0,0,0,.37.37h1A.37.37,0,0,0,61,34,.38.38,0,0,0,60.61,33.62Zm-3,0h-1a.37.37,0,0,0-.37.38.36.36,0,0,0,.37.37h1A.37.37,0,0,0,58,34,.38.38,0,0,0,57.6,33.62Zm-3,0h-1a.38.38,0,0,0-.38.38.37.37,0,0,0,.38.37h1A.36.36,0,0,0,55,34,.37.37,0,0,0,54.6,33.62Zm-3,0h-1a.38.38,0,0,0-.37.38.37.37,0,0,0,.37.37h1A.37.37,0,0,0,52,34,.38.38,0,0,0,51.59,33.62Zm-3,0h-1a.37.37,0,0,0-.37.38.36.36,0,0,0,.37.37h1A.37.37,0,0,0,49,34,.38.38,0,0,0,48.59,33.62Zm-3,0h-1a.38.38,0,0,0-.38.38.37.37,0,0,0,.38.37h1A.37.37,0,0,0,46,34,.38.38,0,0,0,45.59,33.62Zm-3,0h-1a.38.38,0,0,0-.37.38.37.37,0,0,0,.37.37h1A.37.37,0,0,0,43,34,.38.38,0,0,0,42.58,33.62Zm-3,0h-1a.37.37,0,0,0-.37.38.36.36,0,0,0,.37.37h1A.37.37,0,0,0,40,34,.38.38,0,0,0,39.58,33.62Zm-3,0h-1a.38.38,0,0,0-.38.38.37.37,0,0,0,.38.37h1A.36.36,0,0,0,37,34,.37.37,0,0,0,36.58,33.62Zm-3,0h-1a.38.38,0,0,0-.37.38.37.37,0,0,0,.37.37h1A.37.37,0,0,0,34,34,.38.38,0,0,0,33.58,33.62Zm-3,0h-1a.37.37,0,0,0-.37.38.36.36,0,0,0,.37.37h1A.37.37,0,0,0,31,34,.38.38,0,0,0,30.57,33.62Zm-3,0h-1a.38.38,0,0,0-.38.38.37.37,0,0,0,.38.37h1a.36.36,0,0,0,.37-.37A.37.37,0,0,0,27.57,33.62Zm-3,0h-1a.38.38,0,0,0-.37.38.37.37,0,0,0,.37.37h1a.37.37,0,0,0,.38-.37A.38.38,0,0,0,24.56,33.62Zm-3,0h-1a.37.37,0,0,0-.37.38.36.36,0,0,0,.37.37h1a.37.37,0,0,0,.38-.37A.38.38,0,0,0,21.56,33.62Zm-3,0h-1a.38.38,0,0,0-.38.38.37.37,0,0,0,.38.37h1a.37.37,0,0,0,.37-.37A.38.38,0,0,0,18.56,33.62Zm-3,0h-1a.38.38,0,0,0-.37.38.37.37,0,0,0,.37.37h1a.37.37,0,0,0,.38-.37A.38.38,0,0,0,15.55,33.62Zm-3,0h-1a.38.38,0,0,0-.38.38.37.37,0,0,0,.38.37h1a.37.37,0,0,0,.38-.37A.38.38,0,0,0,12.55,33.62Zm-3,0h-1a.38.38,0,0,0-.38.38.37.37,0,0,0,.38.37h1A.37.37,0,0,0,9.92,34,.38.38,0,0,0,9.55,33.62Zm-3,0h-1a.38.38,0,0,0-.37.38.37.37,0,0,0,.37.37h1A.37.37,0,0,0,6.92,34,.38.38,0,0,0,6.54,33.62Zm-3,0h-1a.37.37,0,0,0-.37.38.36.36,0,0,0,.37.37h1A.37.37,0,0,0,3.92,34,.38.38,0,0,0,3.54,33.62Zm60.22-.45a.37.37,0,0,0-.53,0,2,2,0,0,1-.74.39.38.38,0,0,0,.11.74l.1,0a2.64,2.64,0,0,0,1-.54A.39.39,0,0,0,63.76,33.17Zm.65-1.65a2.41,2.41,0,0,0-.52-1.05.39.39,0,0,0-.53,0,.38.38,0,0,0,0,.53,1.73,1.73,0,0,1,.36.73A.36.36,0,0,0,64,32h.09A.37.37,0,0,0,64.41,31.52ZM62.58,29l-.65-.75a.37.37,0,0,0-.53,0,.38.38,0,0,0,0,.52l.66.76a.35.35,0,0,0,.28.13.36.36,0,0,0,.24-.09A.37.37,0,0,0,62.58,29Zm-2-2.27L60,25.92a.38.38,0,0,0-.53-.05.37.37,0,0,0,0,.53l.65.76a.35.35,0,0,0,.28.13.34.34,0,0,0,.25-.09A.37.37,0,0,0,60.63,26.68Zm-2-2.28L58,23.64a.37.37,0,0,0-.53,0,.38.38,0,0,0,0,.52l.65.76a.38.38,0,0,0,.29.14.36.36,0,0,0,.24-.09A.37.37,0,0,0,58.67,24.4Zm-1.95-2.28-.63-.73-.31.21.28-.25a.34.34,0,0,0-.49,0,.42.42,0,0,0,0,.57l.58.68a.39.39,0,0,0,.28.13.38.38,0,0,0,.25-.09A.39.39,0,0,0,56.72,22.12Zm-1.65-2.34a5.63,5.63,0,0,1-.26-.89.37.37,0,0,0-.44-.3.38.38,0,0,0-.3.44,5.52,5.52,0,0,0,.31,1,.36.36,0,0,0,.34.23.32.32,0,0,0,.14,0A.37.37,0,0,0,55.07,19.78Zm-.18-4.12a.4.4,0,0,0-.49.21,6,6,0,0,0-.31,1,.37.37,0,0,0,.29.44h.08a.36.36,0,0,0,.36-.3,4.51,4.51,0,0,1,.28-.88A.38.38,0,0,0,54.89,15.66Zm1.84-2.36a.37.37,0,0,0-.53,0l-.65.75.59.47.63-.74A.37.37,0,0,0,56.73,13.3Zm2-2.28a.37.37,0,0,0-.53,0l-.66.76a.38.38,0,0,0,0,.52.36.36,0,0,0,.53,0l.66-.76A.38.38,0,0,0,58.69,11Zm2-2.28a.37.37,0,0,0-.53,0l-.65.76a.38.38,0,0,0,0,.53.38.38,0,0,0,.25.09A.39.39,0,0,0,60,10l.65-.76A.37.37,0,0,0,60.64,8.74Zm2-2.28a.37.37,0,0,0-.53,0l-.65.76a.37.37,0,0,0,0,.53.38.38,0,0,0,.24.09A.41.41,0,0,0,62,7.75L62.64,7A.37.37,0,0,0,62.6,6.46ZM64.21,4a.37.37,0,0,0-.45.29,1.44,1.44,0,0,1-.38.69.37.37,0,0,0,0,.53.35.35,0,0,0,.25.1.4.4,0,0,0,.28-.12,2.36,2.36,0,0,0,.56-1A.38.38,0,0,0,64.21,4Zm-.53-1.7a3.05,3.05,0,0,0-1-.51A.36.36,0,0,0,62.2,2a.36.36,0,0,0,.25.46,2.27,2.27,0,0,1,.76.39.4.4,0,0,0,.23.08.41.41,0,0,0,.3-.14A.38.38,0,0,0,63.68,2.29Zm-3.11-.67h-1a.38.38,0,0,0-.37.38.37.37,0,0,0,.37.37h1A.37.37,0,0,0,60.94,2,.38.38,0,0,0,60.57,1.62Zm-3,0h-1a.37.37,0,0,0-.37.38.36.36,0,0,0,.37.37h1A.37.37,0,0,0,57.94,2,.38.38,0,0,0,57.56,1.62Zm-3,0h-1a.38.38,0,0,0-.38.38.37.37,0,0,0,.38.37h1A.36.36,0,0,0,54.93,2,.37.37,0,0,0,54.56,1.62Zm-3,0h-1a.38.38,0,0,0-.37.38.37.37,0,0,0,.37.37h1A.37.37,0,0,0,51.93,2,.38.38,0,0,0,51.55,1.62Zm-3,0h-1a.37.37,0,0,0-.37.38.36.36,0,0,0,.37.37h1A.37.37,0,0,0,48.93,2,.38.38,0,0,0,48.55,1.62Zm-3,0h-1a.38.38,0,0,0-.38.38.37.37,0,0,0,.38.37h1A.36.36,0,0,0,45.92,2,.37.37,0,0,0,45.55,1.62Zm-3,0h-1a.38.38,0,0,0-.37.38.37.37,0,0,0,.37.37h1A.37.37,0,0,0,42.92,2,.38.38,0,0,0,42.54,1.62Zm-3,0h-1a.37.37,0,0,0-.37.38.36.36,0,0,0,.37.37h1A.37.37,0,0,0,39.92,2,.38.38,0,0,0,39.54,1.62Zm-3,0h-1a.38.38,0,0,0-.38.38.37.37,0,0,0,.38.37h1A.36.36,0,0,0,36.91,2,.37.37,0,0,0,36.54,1.62Zm-3,0h-1a.38.38,0,0,0-.37.38.37.37,0,0,0,.37.37h1A.37.37,0,0,0,33.91,2,.38.38,0,0,0,33.54,1.62Zm-3,0h-1a.37.37,0,0,0-.37.38.36.36,0,0,0,.37.37h1A.37.37,0,0,0,30.91,2,.38.38,0,0,0,30.53,1.62Zm-3,0h-1a.38.38,0,0,0-.38.38.37.37,0,0,0,.38.37h1A.36.36,0,0,0,27.9,2,.37.37,0,0,0,27.53,1.62Zm-3,0h-1a.38.38,0,0,0-.37.38.37.37,0,0,0,.37.37h1A.37.37,0,0,0,24.9,2,.38.38,0,0,0,24.52,1.62Zm-3,0h-1a.37.37,0,0,0-.37.38.36.36,0,0,0,.37.37h1A.37.37,0,0,0,21.9,2,.38.38,0,0,0,21.52,1.62Zm-3,0h-1a.38.38,0,0,0-.38.38.37.37,0,0,0,.38.37h1A.37.37,0,0,0,18.89,2,.38.38,0,0,0,18.52,1.62Zm-3,0h-1a.38.38,0,0,0-.37.38.37.37,0,0,0,.37.37h1A.37.37,0,0,0,15.89,2,.38.38,0,0,0,15.51,1.62Zm-3,0h-1a.38.38,0,0,0-.38.38.37.37,0,0,0,.38.37h1A.37.37,0,0,0,12.89,2,.38.38,0,0,0,12.51,1.62Zm-3,0h-1A.38.38,0,0,0,8.13,2a.37.37,0,0,0,.38.37h1A.37.37,0,0,0,9.88,2,.38.38,0,0,0,9.51,1.62Zm-3,0h-1A.38.38,0,0,0,5.13,2a.37.37,0,0,0,.37.37h1A.37.37,0,0,0,6.88,2,.38.38,0,0,0,6.5,1.62Zm-3,0h-1A.38.38,0,0,0,2.12,2a.37.37,0,0,0,.38.37h1A.37.37,0,0,0,3.88,2,.38.38,0,0,0,3.5,1.62Z"/><path class="cls-3" d="M.87,34a.36.36,0,0,1-.37.37H0v-.75H.5A.37.37,0,0,1,.87,34Z"/></g></g></g></svg>