<svg _ngcontent-serverApp-c12="" xmlns:xlink="http://www.w3.org/1999/xlink" class="advantage-wheel" data-name="Layer 1" id="Layer_1" viewBox="0 0 290 283.23" xmlns="http://www.w3.org/2000/svg"><defs _ngcontent-serverApp-c12=""><style _ngcontent-serverApp-c12=""> #Layer_1 .cls-1 { fill: url(#linear-gradientt); } #Layer_1 .cls-2, .cls-4 { fill: none; stroke: #fff; } #Layer_1 .cls-2 { stroke-linecap: round; stroke-linejoin: round; stroke-dasharray: 2.98 4.97; } #Layer_1 .cls-3 { fill: #fff; } #Layer_1 .cls-4 { stroke-miterlimit: 10; } #Layer_1 .cls-5 { fill: #616161; } #Layer_1 #ellipse { transform-origin: center; animation: ellipse 28s linear infinite; -webkit-animation: ellipse 28s linear infinite; -moz-animation: ellipse 28s linear infinite; -o-animation: ellipse 28s linear infinite; } @keyframes ellipse { 0% { transform: rotate(0deg); } 100% { transform: rotate(-359deg); } } @-webkit-keyframes ellipse { 0% { transform: rotate(0deg); } 100% { transform: rotate(-359deg); } } #Layer_1 #ellipse-2 { transform-origin: center; animation: ellipse-2 75s linear infinite; -webkit-animation: ellipse-2 75s linear infinite; -moz-animation: ellipse-2 75s linear infinite; -o-animation: ellipse-2 75s linear infinite; } @keyframes ellipse-2 { 0% { transform: rotate(0deg); } 100% { transform: rotate(359deg); } } @-webkit-keyframes ellipse-2 { 0% { transform: rotate(0deg); } 100% { transform: rotate(359deg); } } #Layer_1 #ellipse .numbers { transform-origin: center; animation: ellipse-numbers 28s linear infinite; -webkit-animation: ellipse-numbers 28s linear infinite; -moz-animation: ellipse-numbers 28s linear infinite; -o-animation: ellipse-numbers 28s linear infinite; } @keyframes ellipse-numbers { 0% { transform: rotate(0deg); } 100% { transform: rotate(359deg); } } @-webkit-keyframes ellipse-numbers { 0% { transform: rotate(0deg); } 100% { transform: rotate(359deg); } } </style><script _ngcontent-serverApp-c12=""> setInterval(function () { Array.prototype.forEach.call(document.getElementsByClassName('numbers'), function (element, i) { element.setAttribute('style', "transform-origin: " + (element.getBBox().x + 10) + "px " + (element.getBBox().y + 10) + "px"); }); }, 150); </script><linearGradient _ngcontent-serverApp-c12="" gradientUnits="userSpaceOnUse" id="linear-gradientt" x1="153.42" x2="132.11" y1="205.83" y2="43.24"><stop _ngcontent-serverApp-c12="" offset="0" stop-color="#ff9912"></stop><stop _ngcontent-serverApp-c12="" offset="0.26" stop-color="#ffa630"></stop><stop _ngcontent-serverApp-c12="" offset="0.54" stop-color="#ffb148"></stop><stop _ngcontent-serverApp-c12="" offset="0.79" stop-color="#ffb757"></stop><stop _ngcontent-serverApp-c12="" offset="1" stop-color="#ffb95c"></stop></linearGradient></defs><title _ngcontent-serverApp-c12=""></title><g _ngcontent-serverApp-c12=""><circle _ngcontent-serverApp-c12="" class="cls-1" cx="145" cy="141.61" id="ellipse-3" r="67.5"></circle><g _ngcontent-serverApp-c12="" id="ellipse-2"><circle _ngcontent-serverApp-c12="" class="cls-2" cx="145" cy="141.61" r="95"></circle><circle _ngcontent-serverApp-c12="" class="cls-3" cx="240" cy="141.61" r="4"></circle><circle _ngcontent-serverApp-c12="" class="cls-3" cx="212.18" cy="74.44" r="4"></circle><circle _ngcontent-serverApp-c12="" class="cls-3" cx="145" cy="46.61" r="4"></circle><circle _ngcontent-serverApp-c12="" class="cls-3" cx="77.82" cy="74.44" r="4"></circle><circle _ngcontent-serverApp-c12="" class="cls-3" cx="50" cy="141.61" r="4"></circle><circle _ngcontent-serverApp-c12="" class="cls-3" cx="77.82" cy="208.79" r="4"></circle><circle _ngcontent-serverApp-c12="" class="cls-3" cx="145" cy="236.61" r="4"></circle><circle _ngcontent-serverApp-c12="" class="cls-3" cx="212.18" cy="208.79" r="4"></circle></g><g _ngcontent-serverApp-c12="" id="ellipse"><circle _ngcontent-serverApp-c12="" class="cls-4" cx="145" cy="141.61" r="135"></circle><g _ngcontent-serverApp-c12="" class="numbers" style="transform-origin: 60.83000183105469px 247.16000366210938px"><circle _ngcontent-serverApp-c12="" class="cls-3" cx="60.83" cy="247.16" r="10"></circle><g _ngcontent-serverApp-c12=""><path _ngcontent-serverApp-c12="" class="cls-5" d="M57.47,250.8c0-.68,0-1.35,0-2a19.31,19.31,0,0,0-.16-1.93,11,11,0,0,0-.36-1.73,5.4,5.4,0,0,0-.62-1.42l.87-.55a7,7,0,0,1,.71,1.58,12,12,0,0,1,.43,2c.05.33.08.66.11,1l.06,1c0,.35,0,.69,0,1s0,.66,0,1Z"></path><path _ngcontent-serverApp-c12="" class="cls-5" d="M63.59,246.93a3.08,3.08,0,0,1-.61-.06,3.63,3.63,0,0,1-.55-.15l-.32-.17a1.69,1.69,0,0,1-.29-.22l0,.36c0,.33.08.67.1,1s.05.69.07,1,0,.69,0,1,0,.65,0,1H61c0-.67,0-1.35,0-2s-.08-1.31-.17-1.93a12.15,12.15,0,0,0-.35-1.72,5.27,5.27,0,0,0-.63-1.42l.87-.55a8.88,8.88,0,0,1,.63,1.29,1.68,1.68,0,0,1,.15-.34,1.24,1.24,0,0,1,.23-.32h0a2.22,2.22,0,0,1,.72-.56,2.09,2.09,0,0,1,.88-.23,2.22,2.22,0,0,1,.75.1,2.91,2.91,0,0,1,.76.36,2.53,2.53,0,0,1,.37.28l.21.18.06.06-.75.72-.2-.18-.22-.17a1.87,1.87,0,0,0-.28-.16,1.66,1.66,0,0,0-.31-.12,1.27,1.27,0,0,0-.34,0h0a1.32,1.32,0,0,0-.48.13,1.24,1.24,0,0,0-.39.29,2,2,0,0,0-.16.3.84.84,0,0,0-.05.43,1.08,1.08,0,0,0,.17.41.82.82,0,0,0,.36.27l.35.09a2.83,2.83,0,0,0,.41,0h.23l.24,0a2.76,2.76,0,0,0,.63-.16,2.14,2.14,0,0,0,.39-.21l.46.85a3.18,3.18,0,0,1-.57.34,2.92,2.92,0,0,1-.75.2l-.32,0Z"></path></g></g><g _ngcontent-serverApp-c12="" class="numbers" data-name="13" id="_13" style="transform-origin: 114.95999908447266px 273.2300109863281px"><circle _ngcontent-serverApp-c12="" class="cls-3" cx="114.96" cy="273.23" r="10"></circle><g _ngcontent-serverApp-c12=""><path _ngcontent-serverApp-c12="" class="cls-5" d="M111.1,276.87c0-.68,0-1.36,0-2a19.11,19.11,0,0,0-.16-1.92,10.78,10.78,0,0,0-.36-1.73,5.26,5.26,0,0,0-.62-1.42l.87-.55a7,7,0,0,1,.71,1.58,12,12,0,0,1,.43,2c0,.32.08.66.11,1l.06,1,0,1c0,.33,0,.65,0,1Z"></path><path _ngcontent-serverApp-c12="" class="cls-5" d="M119.85,269c.06.3.1.58.13.84a5.89,5.89,0,0,1,0,.69,2.32,2.32,0,0,1-.43,1.52,1.51,1.51,0,0,1-.47.36,1.48,1.48,0,0,1-.61.12l-.27,0a1.18,1.18,0,0,1-.3-.1,1.25,1.25,0,0,1-.3-.19,1.63,1.63,0,0,1-.27-.31l-.11.15a1.93,1.93,0,0,1-.54.43,1.54,1.54,0,0,1-.7.15,1.72,1.72,0,0,1-.34,0,1.29,1.29,0,0,1-.31-.08.69.69,0,0,1,0,.13s0,.08,0,.12c0,.33.08.67.11,1l.06,1c0,.34,0,.68,0,1s0,.66,0,1h-1c0-.14,0-.29,0-.45v-.44c0-.5,0-1,0-1.48s-.09-.94-.16-1.39a12.28,12.28,0,0,0-.25-1.29,10.36,10.36,0,0,0-.37-1.15.34.34,0,0,1,0-.08l0,0a3.39,3.39,0,0,0-.18-.39,3.72,3.72,0,0,0-.21-.39l.94-.55.09.15.1.19c0,.07.07.14.1.22l.11.21c.08.17.16.34.24.53s.18.4.25.54a1.89,1.89,0,0,0,.22.36.7.7,0,0,0,.27.19,1,1,0,0,0,.38.06.5.5,0,0,0,.27-.05.86.86,0,0,0,.18-.16,1.19,1.19,0,0,0,.23-.48,3.15,3.15,0,0,0,.1-.74,1.82,1.82,0,0,0,0-.2c0-.09,0-.19,0-.3s0-.2,0-.29a.9.9,0,0,0,0-.16l1-.13v.1a1.52,1.52,0,0,1,0,.19c0,.08,0,.18,0,.3s0,.43.09.67a4.34,4.34,0,0,0,.13.63,2,2,0,0,0,.14.29.75.75,0,0,0,.13.16l.11.06h.08a.49.49,0,0,0,.2,0,.35.35,0,0,0,.09-.07l0-.09a.59.59,0,0,0,.07-.16c0-.07,0-.15,0-.25a3.53,3.53,0,0,0,0-.36,4.18,4.18,0,0,0,0-.56,7.4,7.4,0,0,0-.12-.77Z"></path></g></g><g _ngcontent-serverApp-c12="" class="numbers" data-name="12" id="_12" style="transform-origin: 175.0399932861328px 273.2300109863281px"><circle _ngcontent-serverApp-c12="" class="cls-3" cx="175.04" cy="273.23" r="10"></circle><g _ngcontent-serverApp-c12=""><path _ngcontent-serverApp-c12="" class="cls-5" d="M172.05,276.87c0-.68,0-1.36,0-2a16.56,16.56,0,0,0-.16-1.92,10.78,10.78,0,0,0-.36-1.73,5.26,5.26,0,0,0-.62-1.42l.87-.55a7,7,0,0,1,.71,1.58,13,13,0,0,1,.44,2c0,.32.07.66.1,1l.06,1c0,.35,0,.69,0,1s0,.65,0,1Z"></path><path _ngcontent-serverApp-c12="" class="cls-5" d="M179.14,269.1a.75.75,0,0,0,0,.11q0,.09,0,.24c0,.09,0,.21,0,.33a2.67,2.67,0,0,1,0,.4,2.85,2.85,0,0,1-.56,1.85h0a1.61,1.61,0,0,1-.63.48,2,2,0,0,1-.82.17,3.14,3.14,0,0,1-.45,0,2,2,0,0,1-.4-.11c0,.05,0,.1,0,.14l0,.15c0,.32.08.66.1,1s0,.69.07,1l0,1v.95h-1c0-.55,0-1.1,0-1.65s0-1.08-.08-1.59-.11-1-.2-1.49a7.93,7.93,0,0,0-.37-1.3c-.08-.18-.15-.36-.24-.53a5.48,5.48,0,0,0-.28-.53l.87-.55c.06.09.11.18.16.27a2.59,2.59,0,0,1,.14.29c.05.09.09.2.14.31l.16.36c.08.19.16.35.24.5a1.61,1.61,0,0,0,.27.38,1,1,0,0,0,.36.25,1.16,1.16,0,0,0,.49.09.89.89,0,0,0,.38-.07.73.73,0,0,0,.27-.2.81.81,0,0,0,.16-.27,1.73,1.73,0,0,0,.11-.32c0-.12,0-.24,0-.36s0-.24,0-.35a3.15,3.15,0,0,0,0-.44,2.49,2.49,0,0,0,0-.34Z"></path></g></g><g _ngcontent-serverApp-c12="" class="numbers" data-name="11" id="_11" style="transform-origin: 229.1699981689453px 247.16000366210938px"><circle _ngcontent-serverApp-c12="" class="cls-3" cx="229.17" cy="247.16" r="10"></circle><g _ngcontent-serverApp-c12=""><path _ngcontent-serverApp-c12="" class="cls-5" d="M227.2,250.8c0-.68,0-1.35,0-2s-.08-1.32-.16-1.93a13.87,13.87,0,0,0-.36-1.73,5.41,5.41,0,0,0-.63-1.42l.87-.55a6.57,6.57,0,0,1,.71,1.58,11.92,11.92,0,0,1,.44,2c0,.33.07.66.1,1s.05.7.06,1,0,.69,0,1,0,.66,0,1Z"></path><path _ngcontent-serverApp-c12="" class="cls-5" d="M231,250.8c0-.68,0-1.35,0-2a16.74,16.74,0,0,0-.16-1.93,12.3,12.3,0,0,0-.35-1.73,5.76,5.76,0,0,0-.63-1.42l.87-.55a7,7,0,0,1,.71,1.58,13,13,0,0,1,.44,2c0,.33.07.66.1,1l.06,1q0,.52,0,1c0,.34,0,.66,0,1Z"></path></g></g><g _ngcontent-serverApp-c12="" class="numbers" data-name="10" id="_10" style="transform-origin: 266.6300048828125px 200.19000244140625px"><circle _ngcontent-serverApp-c12="" class="cls-3" cx="266.63" cy="200.19" r="10"></circle><g _ngcontent-serverApp-c12=""><path _ngcontent-serverApp-c12="" class="cls-5" d="M264,203.82c0-.67,0-1.35,0-2a19.11,19.11,0,0,0-.16-1.92,13.5,13.5,0,0,0-.36-1.73,5.26,5.26,0,0,0-.62-1.42l.86-.55a6.4,6.4,0,0,1,.72,1.58,13,13,0,0,1,.43,2c0,.32.08.66.1,1s.05.69.07,1l0,1v.95Z"></path><path _ngcontent-serverApp-c12="" class="cls-5" d="M266.85,200.76a1.74,1.74,0,0,1,.14-.69,1.79,1.79,0,0,1,.38-.56,1.71,1.71,0,0,1,.56-.39,1.75,1.75,0,0,1,1.94.39,1.79,1.79,0,0,1,.38.56,1.58,1.58,0,0,1,.14.69,1.64,1.64,0,0,1-.14.69,1.79,1.79,0,0,1-.38.56,1.9,1.9,0,0,1-.57.38,1.75,1.75,0,0,1-1.37,0,1.85,1.85,0,0,1-.56-.38,1.79,1.79,0,0,1-.38-.56A1.81,1.81,0,0,1,266.85,200.76Zm.85,0a.84.84,0,0,0,.07.35,1,1,0,0,0,.2.29.84.84,0,0,0,.29.2.89.89,0,0,0,.36.07.92.92,0,0,0,.36-.07.84.84,0,0,0,.29-.2,1,1,0,0,0,.2-.29.84.84,0,0,0,.07-.35.86.86,0,0,0-.07-.36,1.21,1.21,0,0,0-.2-.3,1,1,0,0,0-.29-.19.94.94,0,0,0-.36-.08.9.9,0,0,0-.36.08,1,1,0,0,0-.29.19,1.21,1.21,0,0,0-.2.3A.86.86,0,0,0,267.7,200.76Z"></path></g></g><g _ngcontent-serverApp-c12="" class="numbers" data-name="9" id="_9" style="transform-origin: 280px 141.61000061035156px"><circle _ngcontent-serverApp-c12="" class="cls-3" cx="280" cy="141.61" r="10"></circle><path _ngcontent-serverApp-c12="" class="cls-5" d="M280.8,143.67a10.16,10.16,0,0,1-.35-2.56,2.74,2.74,0,0,1-1.95-.3,1.57,1.57,0,0,1-.77-1.69,3,3,0,0,1,.34-1.07,2.23,2.23,0,0,1,.73-.84,1.45,1.45,0,0,1,1-.23,1.51,1.51,0,0,1,.9.46,2.78,2.78,0,0,1,.65,1.66,9,9,0,0,1,.07,1V141a10.08,10.08,0,0,0,.27,2,4.75,4.75,0,0,0,.51,1.56l-.29.38-.34.43A4.26,4.26,0,0,1,280.8,143.67Zm-1.95-5.21a2,2,0,0,0-.27.81c-.05.5.27.79,1,.86a2.83,2.83,0,0,0,.9-.07,6.52,6.52,0,0,0-.13-1.1,2.64,2.64,0,0,0-.1-.3,1.91,1.91,0,0,0-.16-.32.64.64,0,0,0-.54-.34A.77.77,0,0,0,278.85,138.46Z"></path></g><g _ngcontent-serverApp-c12="" class="numbers" data-name="8" id="_8" style="transform-origin: 266.6300048828125px 83.04000091552734px"><circle _ngcontent-serverApp-c12="" class="cls-3" cx="266.63" cy="83.04" r="10"></circle><path _ngcontent-serverApp-c12="" class="cls-5" d="M267.22,79a9.76,9.76,0,0,0,.22,2.14A11.72,11.72,0,0,0,268,83a13,13,0,0,0,.8,1.68c.3.52.6,1,.9,1.48l-.87.53c-.21-.33-.41-.65-.59-.95s-.35-.61-.5-.91-.29-.58-.42-.86-.24-.57-.34-.85l-.1-.27c0-.08-.06-.16-.08-.23s-.05-.16-.07-.24-.05-.17-.08-.27c-.14.45-.3.91-.47,1.36s-.35.88-.53,1.28-.35.78-.52,1.11a9.11,9.11,0,0,1-.47.83l-.86-.53.51-1c.17-.34.35-.69.52-1.06s.34-.75.49-1.15a12.22,12.22,0,0,0,.42-1.25c.12-.43.22-.88.3-1.34a10.87,10.87,0,0,0,.12-1.42Z"></path></g><g _ngcontent-serverApp-c12="" class="numbers" data-name="7" id="_7" style="transform-origin: 229.1699981689453px 36.06999969482422px"><circle _ngcontent-serverApp-c12="" class="cls-3" cx="229.17" cy="36.07" r="10"></circle><path _ngcontent-serverApp-c12="" class="cls-5" d="M228.69,39.69a10.13,10.13,0,0,0-.22-2.18,12.29,12.29,0,0,0-.58-1.92,12.52,12.52,0,0,0-.8-1.69c-.3-.52-.6-1-.9-1.49l.87-.54c.21.34.41.66.59,1s.35.61.5.91.29.59.42.87.24.57.34.86l.1.27c0,.08.06.16.08.23a2.17,2.17,0,0,1,.07.24c0,.08.05.17.08.27.14-.45.3-.91.47-1.36s.35-.9.53-1.3.35-.79.52-1.12a9.45,9.45,0,0,1,.47-.84l.86.54-.51,1c-.17.35-.35.7-.52,1.08s-.34.76-.49,1.16-.3.83-.42,1.26-.22.89-.3,1.35a11.34,11.34,0,0,0-.12,1.45Z"></path></g><g _ngcontent-serverApp-c12="" class="numbers" data-name="6" id="_6" style="transform-origin: 175.0399932861328px 10px"><circle _ngcontent-serverApp-c12="" class="cls-3" cx="175.04" cy="10" r="10"></circle><path _ngcontent-serverApp-c12="" class="cls-5" d="M172.52,13.26v0a.06.06,0,0,1,0,0h0s0-.12.09-.24.12-.29.2-.48.2-.41.32-.65.28-.49.44-.75.37-.53.57-.78a6.73,6.73,0,0,1,.62-.67,2.39,2.39,0,0,1-.6-.14,2,2,0,0,1-.51-.25,1.91,1.91,0,0,1-.38-.37,1.22,1.22,0,0,1-.22-.44,2.12,2.12,0,0,1-.08-.57,1.94,1.94,0,0,1,.23-.9,2.21,2.21,0,0,1,.62-.74,2.33,2.33,0,0,1,.66-.36,2.54,2.54,0,0,1,.75-.17h.18a2.85,2.85,0,0,1,.76.11,3.12,3.12,0,0,1,.75.33l-.52.9a2.18,2.18,0,0,0-.52-.24,2,2,0,0,0-.47-.06,1.6,1.6,0,0,0-.53.09,1.9,1.9,0,0,0-.43.22,1,1,0,0,0-.33.39.89.89,0,0,0-.12.45,1.6,1.6,0,0,0,0,.27.42.42,0,0,0,.12.16.71.71,0,0,0,.22.15,1.1,1.1,0,0,0,.29.12,2,2,0,0,0,.35,0l.5,0L176,8.5l.45-.11.36-.1.11,0h0l.15,0,.14-.05.3,1-.17.06-.21.07h0a4.68,4.68,0,0,0-.89.46,6.5,6.5,0,0,0-.75.62,6,6,0,0,0-.63.7c-.19.24-.36.49-.51.72s-.28.47-.39.69-.2.4-.27.57a4.1,4.1,0,0,0-.16.39,1,1,0,0,1-.07.16Z"></path></g><g _ngcontent-serverApp-c12="" class="numbers" data-name="5" id="_5" style="transform-origin: 114.95999908447266px 10px"><circle _ngcontent-serverApp-c12="" class="cls-3" cx="114.96" cy="10" r="10"></circle><path _ngcontent-serverApp-c12="" class="cls-5" d="M116.18,13.66a1.37,1.37,0,0,1-.69-.18,1.74,1.74,0,0,1-.54-.54l-.06-.1H115l-.09.14-.09.11h0a1.38,1.38,0,0,1-.52.42,1.44,1.44,0,0,1-.65.15,1.4,1.4,0,0,1-.65-.17,1.81,1.81,0,0,1-.55-.44,1.86,1.86,0,0,1-.29-.49A2.38,2.38,0,0,1,112,12h0l0-.26v-.28a5.78,5.78,0,0,1,.12-1.12,6.9,6.9,0,0,1,.24-.86,9.18,9.18,0,0,1,.37-.91c.14-.31.31-.65.51-1s.42-.72.68-1.13l-.2-.19.73-.73.12.12.13.12a.46.46,0,0,1,.07.07l.08.07.75.71a9,9,0,0,1,.84.95,9,9,0,0,1,.88,1.33,7.65,7.65,0,0,1,.6,1.42,3.58,3.58,0,0,1,.15,1v.18a.91.91,0,0,1,0,.17,3.47,3.47,0,0,1-.16.71,2.12,2.12,0,0,1-.31.6,1.77,1.77,0,0,1-.59.5,1.56,1.56,0,0,1-.76.19Zm-.76-2.94c0,.1,0,.21,0,.34s0,.25.06.39.06.28.1.41a1.79,1.79,0,0,0,.15.37,1,1,0,0,0,.19.28.45.45,0,0,0,.26.12.66.66,0,0,0,.53-.27,1.49,1.49,0,0,0,.2-.46,2.32,2.32,0,0,0,.07-.59,2.4,2.4,0,0,0,0-.37,1.55,1.55,0,0,0-.08-.36,7.11,7.11,0,0,0-.45-1.09,9.37,9.37,0,0,0-.57-.94,8.68,8.68,0,0,0-.62-.79c-.21-.24-.42-.46-.61-.65-.22.36-.42.69-.58,1s-.31.6-.44.88a7.15,7.15,0,0,0-.31.79,7.67,7.67,0,0,0-.22.74c0,.16,0,.32-.07.49a3.59,3.59,0,0,0,0,.43,1.91,1.91,0,0,0,.07.56,1,1,0,0,0,.18.41.82.82,0,0,0,.22.16.42.42,0,0,0,.18.06c.3,0,.53-.28.7-.84,0-.13.07-.26.1-.39s.06-.24.08-.34,0-.23.07-.34Z"></path></g><g _ngcontent-serverApp-c12="" class="numbers" data-name="4" id="_4" style="transform-origin: 60.83000183105469px 36.06999969482422px"><circle _ngcontent-serverApp-c12="" class="cls-3" cx="60.83" cy="36.07" r="10"></circle><path _ngcontent-serverApp-c12="" class="cls-5" d="M61.7,35.83a4.18,4.18,0,0,1-.61,0,3,3,0,0,1-.55-.16,2,2,0,0,1-.32-.17,1.69,1.69,0,0,1-.29-.22l0,.36c0,.34.08.67.11,1l.06,1c0,.34,0,.68,0,1s0,.66,0,1h-1c0-.68,0-1.35,0-2S59,36.29,59,35.67a13.87,13.87,0,0,0-.36-1.73A5.41,5.41,0,0,0,58,32.52l.87-.54c.12.19.24.4.35.62s.2.44.28.66a3.23,3.23,0,0,1,.15-.34,2.35,2.35,0,0,1,.23-.32h0a2.19,2.19,0,0,1,.72-.56,2.27,2.27,0,0,1,.88-.24,2.5,2.5,0,0,1,.75.1,3.27,3.27,0,0,1,.76.36,3.51,3.51,0,0,1,.37.28l.21.18.06.06-.75.73-.2-.19a1.4,1.4,0,0,0-.22-.16,1.89,1.89,0,0,0-.28-.17l-.31-.11a1,1,0,0,0-.34,0h0A1.15,1.15,0,0,0,61,33a1.05,1.05,0,0,0-.55.58.88.88,0,0,0-.05.44,1.15,1.15,0,0,0,.17.41.8.8,0,0,0,.36.26,1.62,1.62,0,0,0,.35.09,1.9,1.9,0,0,0,.41,0h.23l.25,0a2.35,2.35,0,0,0,.62-.16,1.71,1.71,0,0,0,.39-.2l.46.84a2.69,2.69,0,0,1-.57.34,2.9,2.9,0,0,1-.75.21l-.32,0Z"></path></g><g _ngcontent-serverApp-c12="" class="numbers" data-name="3" id="_3" style="transform-origin: 23.3700008392334px 83.04000091552734px"><circle _ngcontent-serverApp-c12="" class="cls-3" cx="23.37" cy="83.04" r="10"></circle><path _ngcontent-serverApp-c12="" class="cls-5" d="M26.38,78.85q.07.45.12.84a5.89,5.89,0,0,1,.05.69,2.32,2.32,0,0,1-.43,1.52,1.51,1.51,0,0,1-.47.36,1.48,1.48,0,0,1-.61.12l-.27,0a1.18,1.18,0,0,1-.3-.1,1.25,1.25,0,0,1-.3-.19,1.67,1.67,0,0,1-.27-.31l-.11.15a1.8,1.8,0,0,1-.54.43,1.52,1.52,0,0,1-.69.15,1.75,1.75,0,0,1-.35,0,1.29,1.29,0,0,1-.31-.08.69.69,0,0,1,0,.13s0,.08,0,.12c0,.33.08.67.11,1l.06,1,0,1v1h-1c0-.14,0-.29,0-.45v-.44c0-.5,0-1-.05-1.47s-.09-1-.15-1.4-.16-.88-.26-1.29a10.36,10.36,0,0,0-.37-1.15.34.34,0,0,1,0-.08l0,0a3.39,3.39,0,0,0-.18-.39,3.72,3.72,0,0,0-.21-.39l.94-.55.09.15c0,.06.07.12.1.19s.07.14.1.22l.11.21.24.53c.1.22.18.4.25.54a1.89,1.89,0,0,0,.22.36.7.7,0,0,0,.27.19,1.07,1.07,0,0,0,.39.06.48.48,0,0,0,.26,0,.65.65,0,0,0,.18-.16,1.19,1.19,0,0,0,.23-.48,3.08,3.08,0,0,0,.1-.74,1.92,1.92,0,0,0,0-.2c0-.09,0-.19,0-.3s0-.2,0-.29a1.36,1.36,0,0,1,0-.16l1-.13V79a1.52,1.52,0,0,1,0,.19c0,.08,0,.18,0,.3s.05.43.09.67a4.34,4.34,0,0,0,.13.63,2.68,2.68,0,0,0,.14.29l.13.16.11.06H25a.49.49,0,0,0,.2,0,.35.35,0,0,0,.09-.07l.06-.09a1.38,1.38,0,0,0,.06-.16c0-.07,0-.15.05-.25a3.53,3.53,0,0,0,0-.36,4.18,4.18,0,0,0,0-.56c0-.21-.06-.47-.12-.77Z"></path></g><g _ngcontent-serverApp-c12="" class="numbers" data-name="2" id="_2" style="transform-origin: 10px 141.61000061035156px"><circle _ngcontent-serverApp-c12="" class="cls-3" cx="10" cy="141.61" r="10"></circle><path _ngcontent-serverApp-c12="" class="cls-5" d="M12.21,137.49a.67.67,0,0,0,0,.1q0,.09,0,.24c0,.1,0,.21,0,.34s0,.26,0,.4a2.88,2.88,0,0,1-.57,1.84h0a1.83,1.83,0,0,1-.63.48,2,2,0,0,1-.82.16,3.19,3.19,0,0,1-.45,0,2,2,0,0,1-.4-.12s0,.1,0,.15l0,.14c0,.33.08.66.1,1s0,.69.07,1,0,.69,0,1,0,.66,0,1h-1c0-.55,0-1.1,0-1.65s0-1.08-.08-1.6-.11-1-.2-1.48a6.83,6.83,0,0,0-.37-1.3c-.07-.19-.15-.37-.23-.54s-.18-.35-.29-.53l.88-.55.15.27c0,.1.1.19.14.29s.09.21.14.32l.17.36c.08.18.15.35.23.5a2.16,2.16,0,0,0,.27.38,1.11,1.11,0,0,0,.36.25,1.4,1.4,0,0,0,.49.08,1.08,1.08,0,0,0,.38-.06.68.68,0,0,0,.27-.2.92.92,0,0,0,.16-.27,1.6,1.6,0,0,0,.11-.33c0-.11,0-.23.05-.35s0-.24,0-.36a3,3,0,0,0,0-.43,2.66,2.66,0,0,0-.05-.35Z"></path></g><g _ngcontent-serverApp-c12="" class="numbers" data-name="1" id="_1" style="transform-origin: 23.3700008392334px 200.19000244140625px"><circle _ngcontent-serverApp-c12="" class="cls-3" cx="23.37" cy="200.19" r="10"></circle><path _ngcontent-serverApp-c12="" class="cls-5" d="M23.29,204.33c0-.68,0-1.36,0-2a16.56,16.56,0,0,0-.16-1.92,10.78,10.78,0,0,0-.36-1.73,5.26,5.26,0,0,0-.62-1.42l.87-.55a7,7,0,0,1,.71,1.58,13,13,0,0,1,.44,2c0,.32.07.66.1,1l.06,1q0,.53,0,1c0,.33,0,.65,0,1Z"></path></g></g></g></svg>