<svg id="Layer_1" data-name="Layer 1" xmlns="http://www.w3.org/2000/svg" viewBox="32 32 32 96">
  <defs>
    <style>
      .cls-1 {
        fill: #1dd8cf;
      }

      .cls-2 {
        fill: none;
        stroke: #212121;
        stroke-linecap: round;
        stroke-linejoin: round;
      }
    </style>
  </defs>
  <g>
    <path class="cls-1" d="M28.08,91l-5.73-5.63,2-2.35a10,10,0,0,0,1.47-10.38,9.24,9.24,0,0,0-1.16-1.79c-.37-.45-.66-.74-.66-.74a9.62,9.62,0,0,0-13.59,0A10.08,10.08,0,0,0,8.6,72.68a9.56,9.56,0,0,0,1.47,10.38l2,2.36L6.36,91a1.31,1.31,0,0,0,1.13,2H26.94A1.32,1.32,0,0,0,28.08,91ZM16.33,80.62a3.57,3.57,0,1,1,3.57-3.57A3.57,3.57,0,0,1,16.33,80.62Z"/>
    <g>
      <path class="cls-2" d="M21.1,86.15l3.12,3A1.23,1.23,0,0,1,23.16,91H5a1.23,1.23,0,0,1-1.06-1.84l3.13-3"/>
      <path class="cls-2" d="M22.12,72a8.93,8.93,0,0,1-1.37,9.7l-4.82,5.62a2.45,2.45,0,0,1-3.72,0L7.39,81.69A8.92,8.92,0,0,1,6,72a9.3,9.3,0,0,1,1.7-2.37h0a9,9,0,0,1,12.71,0h0"/>
      <circle class="cls-2" cx="14.07" cy="76.03" r="3.15"/>
    </g>
  </g>
</svg>
