<svg xmlns="http://www.w3.org/2000/svg" viewBox="0 0 25.28 33"><defs><style>.cls-1,.cls-2,.cls-3{fill:none;stroke-linecap:round;stroke-linejoin:round;}.cls-1{stroke:#3b8bff;}.cls-2{stroke:#1f2b7e;}.cls-3{stroke:#ff364e;}</style></defs><title>manager-info</title><g id="Layer_2" data-name="Layer 2"><g id="Layer_1-2" data-name="Layer 1"><path class="cls-1" d="M17.05,20l-4.42,3.84,2,1.93a1,1,0,0,0,1.56-.15l2.82-4-1.2-1.52A.5.5,0,0,0,17.05,20Z"/><path class="cls-1" d="M8.22,20l4.42,3.84-2,1.93a1,1,0,0,1-1.56-.15l-2.82-4,1.2-1.52A.5.5,0,0,1,8.22,20Z"/><path class="cls-2" d="M20.88,32.5h1.7a2,2,0,0,0,2-1.89l.18-4.12a3.88,3.88,0,0,0-2.39-3.77l-.86-.36"/><path class="cls-2" d="M3.49,22.48l-.59.25A3.88,3.88,0,0,0,.5,26.49l.18,4.12a2,2,0,0,0,2,1.89h15"/><path class="cls-2" d="M18.76,10.2c.63-.8,2.39-.42,2.06,1.55s-1.89,1.51-1.89,1.51c-1.3,5.49-4.74,5.71-6.3,5.71-1.75,0-5.31-.39-6.44-5.74a1.65,1.65,0,0,1-1.73-1.35c-.19-1.42.49-2,.95-2"/><path class="cls-2" d="M8.86,5.85a7.8,7.8,0,0,0,8,2.19l.52.55"/><path class="cls-2" d="M12.45.5h.43c8.43.24,7,9.34,7,9.34"/><path class="cls-2" d="M8.61,8.76a4,4,0,0,1-1.54,1.79s-.75-.95-1.66-.71c0,0-.89-6.66,3.89-8.74"/><line class="cls-3" x1="12.47" y1="29.39" x2="13.3" y2="29.39"/><line class="cls-3" x1="4.3" y1="29.39" x2="9.1" y2="29.39"/></g></g></svg>