<svg xmlns="http://www.w3.org/2000/svg" xmlns:xlink="http://www.w3.org/1999/xlink" viewBox="0 0 1156.97 874.69"><defs><style>.cls-1{fill:url(#linear-gradient);}.cls-2{fill:#f1f95a;opacity:0.31;}.cls-3,.cls-8{fill:#fff;}.cls-4,.cls-9{fill:none;}.cls-4{stroke:#fff;stroke-width:3px;}.cls-4,.cls-8,.cls-9{stroke-miterlimit:10;}.cls-5{fill:#29abe2;}.cls-6{fill:#078282;}.cls-7{fill:#95dbe5;}.cls-8,.cls-9{stroke:#505050;stroke-width:0.5px;}.cls-9{stroke-linecap:round;}.cls-10{fill:#a8c6f5;}</style><linearGradient id="linear-gradient" x1="3924.42" y1="786.22" x2="5373.1" y2="786.22" gradientTransform="matrix(-0.8, 0, 0, 1.3, 4290.1, -590.72)" gradientUnits="userSpaceOnUse"><stop offset="0.15" stop-color="#339e66" stop-opacity="0.8"/><stop offset="0.52" stop-color="#70c4b5" stop-opacity="0.92"/><stop offset="0.74" stop-color="#95dbe5"/></linearGradient></defs><title>middle-footerAsset 40</title><g id="Layer_2" data-name="Layer 2"><g id="Layer_1-2" data-name="Layer 1"><path class="cls-1" d="M1.58,0,.11,765.43A1368.47,1368.47,0,0,0,264.65,845.6c122.61,24.2,205.92,31.7,314.23,28.33,12.36-.39,59.73-1.7,71.81-2.34A1805,1805,0,0,0,952,829.72C1077.67,801.32,1156.3,770,1156.3,770L1157,4.29Z"/><path class="cls-2" d="M.59,203.25a20.34,20.34,0,0,1,18.08,1.36,62.93,62.93,0,0,1,7.64,5s8,5.85,12.64,6.41,11.35,1.51,21.26,13.76c9.43,11.68,29.31,36.39,65.52,43.76a19.59,19.59,0,0,0,9.19-.42c6.85-1.87,21.35-2.5,27.84,22.28,8.65,33,6.71,47.5,35.38,61.33s2.27,49.35,2.27,49.35-11.61,16-14.49,33.09a75.19,75.19,0,0,1-7.5,21.66,47.28,47.28,0,0,1-7.78,10.84c-3.17,3.34-9.19,11.72-16.73,32-11.32,30.4-26.92-1.62-54.75,12.95s-43.11,21.44-65.11,16.65c-18.2-4-19-5.59-34,1.21"/><path class="cls-3" d="M87.3,254.16A3.87,3.87,0,1,0,90.84,258,3.71,3.71,0,0,0,87.3,254.16Zm0,6.65A2.8,2.8,0,1,1,89.87,258,2.69,2.69,0,0,1,87.3,260.81Z"/><path class="cls-3" d="M47.47,278.68A3.34,3.34,0,1,0,50.52,282,3.2,3.2,0,0,0,47.47,278.68Zm0,5.74A2.42,2.42,0,1,1,49.69,282,2.33,2.33,0,0,1,47.47,284.42Z"/><ellipse class="cls-3" cx="56.1" cy="236.36" rx="2.52" ry="2.75"/><ellipse class="cls-3" cx="76.96" cy="305.17" rx="1.15" ry="1.26"/><path class="cls-3" d="M48.56,247.59h-2.8v-3a1.26,1.26,0,1,0-2.5,0v3h-2.8a1.38,1.38,0,0,0,0,2.74h2.8v3a1.26,1.26,0,1,0,2.5,0v-3h2.8a1.38,1.38,0,0,0,0-2.74Z"/><path class="cls-4" d="M227.08,284.27v0a70.63,70.63,0,0,0,1.13-12.66c0-34.45-24.23-63.44-57.23-72.16"/><path class="cls-4" d="M129.5,199.44c-33,8.71-57.22,37.7-57.22,72.15a70.63,70.63,0,0,0,1.13,12.66l0,0c47.43-35.07,51.92,0,76.85,0,27.68.55,30.37-33.23,76.84,0"/><path class="cls-4" d="M96.41,248.28s6.21-17.64,23.65-23.6"/><path class="cls-4" d="M111.34,343.66c0,11.75,8.71,21.28,19.45,21.28s19.45-9.53,19.45-21.28v-39"/><path class="cls-3" d="M150.24,183.6c3.09,0,5.61,2.88,5.61,6.42s-2.52,6.41-5.61,6.41-5.61-2.87-5.61-6.41,2.52-6.42,5.61-6.42m0-3c-4.76,0-8.61,4.21-8.61,9.42s3.85,9.41,8.61,9.41,8.61-4.21,8.61-9.41-3.86-9.42-8.61-9.42Z"/><path class="cls-5" d="M167.2,529c36.93-1.23,96.52-.93,147.72-5.17,49.38-4.09,59.25,10.33,59.25,10.33s7.55,8.14,0,15.72c-11.16,11.2-33,3-68.66,3.23s-81.73,1.64-140.68,1.41C76.16,554.18,51.47,543.2,51.47,543.2s-22.71-8,11.46-11.63C99.86,527.69,133.05,530.12,167.2,529Z"/><path class="cls-6" d="M246.74,381.92s.49-27.47-19.52-34.7c0,0,3.25,4.23,2.63,9.29,0,0-18.72-11.1-34.09-1.24a9.34,9.34,0,0,1,5.31,6.15s-9.85,5-8.1,20.5Z"/><rect class="cls-7" x="134.63" y="381.92" width="170.24" height="126.74" rx="4.25"/><path class="cls-8" d="M237.24,420h-35a7.32,7.32,0,0,0-7,6.21l-21.56,113.2h92.08l-21.55-113.2A7.34,7.34,0,0,0,237.24,420Z"/><path class="cls-9" d="M219,460.06v115.4c0,13,9.66,23.52,21.58,23.52H357.38c11.91,0,21.57,10.53,21.57,23.53v11.26c0,13-9.66,23.52-21.57,23.52H239.5"/><path class="cls-9" d="M265.79,539.44h64.27"/><path class="cls-9" d="M109.44,539.44h64.27"/><ellipse class="cls-6" cx="219.04" cy="447.92" rx="11.13" ry="12.14"/><line class="cls-9" x1="281.25" y1="480.23" x2="281.25" y2="498.04"/><line class="cls-9" x1="288.74" y1="484.41" x2="288.74" y2="493.86"/><line class="cls-9" x1="273.75" y1="484.41" x2="273.75" y2="493.86"/><path class="cls-9" d="M179.25,393.08c36.38-.62,75-.62,110.4,0"/><path class="cls-9" d="M149.85,393.08h17.83"/><path class="cls-6" d="M192.67,381.92a34,34,0,0,1,54.18,0"/><ellipse class="cls-10" cx="256.75" cy="368.44" rx="1.15" ry="1.26"/><ellipse class="cls-10" cx="189.87" cy="337.26" rx="1.15" ry="1.26"/><rect class="cls-6" x="224.18" y="645.72" width="21.22" height="23.14" rx="1.25"/></g></g></svg>