<svg xmlns="http://www.w3.org/2000/svg" xmlns:xlink="http://www.w3.org/1999/xlink" viewBox="0 0 578.84 873.81"><defs><style>.cls-1{fill:url(#linear-gradient);}.cls-2{fill:#f1f95a;opacity:0.31;}.cls-3{fill:none;stroke:#fff;stroke-miterlimit:10;stroke-width:3px;}.cls-4{fill:#fff;}</style><linearGradient id="linear-gradient" x1="2537.22" y1="1031.89" x2="3985.91" y2="1031.89" gradientTransform="matrix(-0.4, 0, 0, 1.3, 1592.07, -912.33)" gradientUnits="userSpaceOnUse"><stop offset="0.15" stop-color="#339e66" stop-opacity="0.8"/><stop offset="0.52" stop-color="#70c4b5" stop-opacity="0.92"/><stop offset="0.74" stop-color="#95dbe5"/></linearGradient></defs><title>mobileAsset 37</title><g id="Layer_2" data-name="Layer 2"><g id="Layer_1-2" data-name="Layer 1"><path class="cls-1" d="M2,0,0,765.43c44.25,37.06,88.69,62.77,131.94,79.73,61.18,24,102.76,31.36,156.84,27.81,6.17-.41,29.82-1.8,35.86-2.46,57.94-6.29,109.41-23.66,150.47-42.36,62.82-28.61,102.13-60.07,102.13-60.07l1.6-765.7Z"/><path class="cls-2" d="M1,250.67A20.36,20.36,0,0,1,19.09,252a62.76,62.76,0,0,1,7.65,5s8,5.82,12.66,6.36S50.76,264.82,60.7,277c9.48,11.65,29.44,36.3,65.67,43.55a19.6,19.6,0,0,0,9.19-.45c6.84-1.88,21.34-2.57,27.91,22.19,8.76,33,6.87,47.49,35.57,61.22s2.44,49.34,2.44,49.34-11.57,16-14.39,33.14a74.91,74.91,0,0,1-7.43,21.68,47.09,47.09,0,0,1-7.74,10.87c-3.16,3.34-9.16,11.75-16.63,32-11.22,30.43-26.93-1.54-54.7,13.11s-43.05,21.59-65.07,16.87c-18.21-3.9-19-5.53-34,1.32"/><path class="cls-3" d="M155.12,371.91h0a31.22,31.22,0,0,0,.5-5.58c0-15.16-10.7-27.92-25.27-31.76"/><path class="cls-3" d="M112,334.57c-14.58,3.84-25.28,16.6-25.28,31.76a31.22,31.22,0,0,0,.5,5.58h0c21-15.43,22.94,0,34,0,12.23.25,13.41-14.62,33.94,0"/><path class="cls-3" d="M97.4,356.07s2.74-7.76,10.45-10.39"/><path class="cls-3" d="M104,398.06c0,5.17,3.85,9.36,8.6,9.36s8.59-4.19,8.59-9.36V380.91"/><path class="cls-4" d="M121.18,329.28c.38,0,.8.47.8,1.14s-.42,1.15-.8,1.15-.81-.47-.81-1.15.43-1.14.81-1.14m0-3a4.16,4.16,0,1,0,3.8,4.14,4,4,0,0,0-3.8-4.14Z"/></g></g></svg>