<svg xmlns="http://www.w3.org/2000/svg" viewBox="0 0 36.06 36.06"><defs><style>.cls-1{fill:#ffa64d;}.cls-2{fill:#424242;}</style></defs><title>note</title><g id="Layer_2" data-name="Layer 2"><g id="Layer_2-2" data-name="Layer 2"><path class="cls-1" d="M12.21,33.73H6.4a.58.58,0,0,1-.58-.58V27.33a.58.58,0,0,1,.58-.58h5.82a.58.58,0,0,1,.58.58v5.82A.58.58,0,0,1,12.21,33.73Z"/><path class="cls-1" d="M12.21,25.59H6.4A.58.58,0,0,1,5.82,25V19.19a.58.58,0,0,1,.58-.58h5.82a.58.58,0,0,1,.58.58V25A.58.58,0,0,1,12.21,25.59Z"/><path class="cls-1" d="M12.21,17.45H6.4a.58.58,0,0,1-.58-.58V11.05a.58.58,0,0,1,.58-.58h5.82a.58.58,0,0,1,.58.58v5.82A.58.58,0,0,1,12.21,17.45Z"/><path class="cls-2" d="M33.15,27.33h-.69a1.73,1.73,0,0,0,.11-.58A1.75,1.75,0,0,0,30.82,25H26.75V7.56a2.91,2.91,0,0,0-2.91-2.91H19.94l-.29-1.16H16.28V2.91a2.91,2.91,0,0,0-5.82,0v.58H7.11L6.82,4.65H2.91A2.91,2.91,0,0,0,0,7.56V33.15a2.91,2.91,0,0,0,2.91,2.91H23.84a2.91,2.91,0,0,0,2.91-2.91h6.4a2.91,2.91,0,1,0,0-5.82Zm-1.74-.58a.58.58,0,0,1-.58.58H20.36a.58.58,0,1,1,0-1.16H30.82A.58.58,0,0,1,31.41,26.75ZM13.38,32a1.74,1.74,0,1,1,0-3.49h15.7V32Zm-2.86-1.32L9.43,30.4a.16.16,0,0,1,0-.32l1.08-.27a2.13,2.13,0,0,0,0,.86ZM11.63,2.91a1.74,1.74,0,1,1,3.49,0v.58H11.63ZM8,4.65H18.74l.87,3.49H7.14ZM21.1,9.31l-.29-1.16h2.45V22.68h1.16V7H20.52l-.29-1.16h3.62a1.75,1.75,0,0,1,1.74,1.74V25H24.43V23.84H23.26V25H20.36a1.75,1.75,0,0,0-1.74,1.74,1.73,1.73,0,0,0,.11.58H13.38a2.89,2.89,0,0,0-2.31,1.16h0L9.15,29a1.33,1.33,0,0,0,0,2.57l1.76.44h.14a2.9,2.9,0,0,0,2.32,1.18h9.89v1.74H3.49V8.14H5.94L5.65,9.31ZM1.16,33.15V7.56A1.75,1.75,0,0,1,2.91,5.82H6.52L6.23,7H2.33V34.79A1.74,1.74,0,0,1,1.16,33.15Zm23.26,1.64V33.15h1.16A1.74,1.74,0,0,1,24.43,34.79ZM33.15,32H30.24V28.5h2.91a1.74,1.74,0,1,1,0,3.49Z"/><polygon class="cls-2" points="14.31 20.24 13.61 19.31 9.36 22.5 8.55 21.69 7.73 22.51 9.25 24.03 14.31 20.24"/><polygon class="cls-2" points="14.31 12.1 13.61 11.17 9.36 14.35 8.55 13.55 7.73 14.37 9.25 15.89 14.31 12.1"/><rect class="cls-2" x="16.28" y="11.05" width="4.65" height="1.16"/><rect class="cls-2" x="16.28" y="13.38" width="4.65" height="1.16"/><rect class="cls-2" x="16.28" y="15.7" width="4.65" height="1.16"/><rect class="cls-2" x="16.28" y="19.19" width="4.65" height="1.16"/><rect class="cls-2" x="16.28" y="21.52" width="4.65" height="1.16"/><rect class="cls-2" x="16.28" y="23.84" width="1.16" height="1.16"/><rect class="cls-2" x="9.31" y="5.82" width="1.16" height="1.16"/><rect class="cls-2" x="16.28" y="5.82" width="1.16" height="1.16"/></g></g></svg>