<svg xmlns="http://www.w3.org/2000/svg" viewBox="0 0 26.6 33"><defs><style>.cls-1,.cls-2,.cls-3{fill:none;stroke-linecap:round;stroke-linejoin:round;}.cls-1{stroke:#1f2b7e;}.cls-2{stroke:#3b8bff;}.cls-3{stroke:#ff364e;}</style></defs><title>office-info</title><g id="Layer_2" data-name="Layer 2"><g id="Layer_1-2" data-name="Layer 1"><path class="cls-1" d="M.5,24.09v2a6.4,6.4,0,0,0,6.4,6.4H19.7a6.4,6.4,0,0,0,6.4-6.4V8.5l-8-8H6.9A6.4,6.4,0,0,0,.5,6.9V21.48"/><path class="cls-1" d="M26.1,8.51H19.69a1.6,1.6,0,0,1-1.6-1.6V.5"/><line class="cls-2" x1="5.65" y1="15.05" x2="20.95" y2="15.05"/><line class="cls-3" x1="19.22" y1="20" x2="20.95" y2="20"/><line class="cls-2" x1="5.65" y1="20" x2="15.64" y2="20"/><line class="cls-2" x1="5.65" y1="24.94" x2="20.95" y2="24.94"/><rect class="cls-3" x="5.65" y="5.02" width="7.65" height="5.09" rx="1.91" ry="1.91"/></g></g></svg>