<svg xmlns="http://www.w3.org/2000/svg" xmlns:xlink="http://www.w3.org/1999/xlink" width="298.34" height="138.88" viewBox="0 0 298.34 138.88"><defs><style>.cls-1{fill:url(#linear-gradient);}.cls-2{fill:url(#linear-gradient-2);}.cls-3{fill:#fff;opacity:0.1;}</style><linearGradient id="linear-gradient" x1="24.25" y1="15.87" x2="212.96" y2="91.82" gradientUnits="userSpaceOnUse"><stop offset="0" stop-color="#d1cdf2"/><stop offset="0.25" stop-color="#cecaee"/><stop offset="0.48" stop-color="#c6c2e4"/><stop offset="0.69" stop-color="#b7b4d1"/><stop offset="0.9" stop-color="#a3a0b8"/><stop offset="1" stop-color="#9694a8"/></linearGradient><linearGradient id="linear-gradient-2" x1="12.08" y1="-22.25" x2="319.46" y2="95.24" gradientUnits="userSpaceOnUse"><stop offset="0" stop-color="#d1cdf2"/><stop offset="0.2" stop-color="#cbc8eb"/><stop offset="0.5" stop-color="#bcb9d8"/><stop offset="0.85" stop-color="#a3a0b8"/><stop offset="1" stop-color="#9694a8"/></linearGradient></defs><title>silver</title><g id="Layer_2" data-name="Layer 2"><g id="Layer_1-2" data-name="Layer 1"><path class="cls-1" d="M298.34,4V113.38s-60.74,49.06-157.27,11.08C42.85,85.81,0,131,0,131V4A4,4,0,0,1,4,0H294.34A4,4,0,0,1,298.34,4Z"/><path class="cls-2" d="M298.34,94.54s-64,38.89-149.17-14.39C89.09,42.59,52.37,38,0,59.06V4A4,4,0,0,1,4,0H294.34a4,4,0,0,1,4,4Z"/><path class="cls-3" d="M71,0A55.67,55.67,0,0,1,18.58,36.92,55.23,55.23,0,0,1,0,33.73V4A4,4,0,0,1,4,0Z"/></g></g></svg>