<svg id="Layer_1" data-name="Layer 1" xmlns="http://www.w3.org/2000/svg" viewBox="0 70 64 192">
  <defs>
    <style>
      .cls-1 {
        fill: #212121;
      }

      .cls-2 {
        fill: #3b8bff;
      }

      .cls-3 {
        fill: #fff;
      }
    </style>
  </defs>
  <title>Artboard 4</title>
  <g>
    <path class="cls-2" d="M45.16,160A13.16,13.16,0,1,1,32,146.84,13.16,13.16,0,0,1,45.16,160Zm0,0"/>
    <path class="cls-1" d="M21.16,157.68a13.16,13.16,0,1,0,13.16,13.16,13.17,13.17,0,0,0-13.16-13.16Zm0,24.77a11.61,11.61,0,1,1,11.61-11.61,11.63,11.63,0,0,1-11.61,11.61Zm0,0"/>
    <path class="cls-1" d="M22.32,163.1h-.38v-2.33H20.39v2.33H20a4.26,4.26,0,1,0,0,8.51h2.32a2.71,2.71,0,1,1,0,5.42H20a2.71,2.71,0,0,1-2.71-2.71v-1.16H15.74v1.16A4.26,4.26,0,0,0,20,178.58h.39v2.32h1.55v-2.32h.38a4.26,4.26,0,0,0,0-8.52H20a2.71,2.71,0,1,1,0-5.41h2.32a2.7,2.7,0,0,1,2.71,2.7v1.17h1.55v-1.17a4.26,4.26,0,0,0-4.26-4.25Zm0,0"/>
    <path class="cls-1" d="M56,140.65H51.66A2.49,2.49,0,0,0,50.41,136a4.76,4.76,0,0,0-2.94,1l-2.31,1.85L42.85,137a4.74,4.74,0,0,0-2.94-1,2.49,2.49,0,0,0-1.25,4.65H34.32v6.19h2.33V160h17V146.84H56Zm-10.06,1.54v3.1H44.39v-3.1h.69l.08,0,.09,0Zm2.5-3.95a3.15,3.15,0,0,1,2-.69.94.94,0,0,1,.94.94.93.93,0,0,1-.73.92l-5,1.13Zm-8.53-.69a3.11,3.11,0,0,1,2,.69l2.87,2.3-5-1.13a.92.92,0,0,1-.74-.92.94.94,0,0,1,.94-.94Zm-4,7.74v-3.1h7v3.1Zm2.32,13.16V146.84h4.65v11.61Zm6.2,0V146.84h1.55v11.61Zm7.74,0H47.48V146.84h4.65Zm2.32-13.16h-7v-3.1h7Zm0,0"/>
    <path class="cls-1" d="M28.3,143.38,28,141.86A18.64,18.64,0,0,0,13.86,156l1.52.34A17,17,0,0,1,28.3,143.38Zm0,0"/>
    <path class="cls-1" d="M35.7,176.62l.34,1.52A18.64,18.64,0,0,0,50.14,164l-1.52-.34A17,17,0,0,1,35.7,176.62Zm0,0"/>
  </g>
</svg>
