<svg xmlns="http://www.w3.org/2000/svg" xmlns:xlink="http://www.w3.org/1999/xlink" width="298.34" height="138.88" viewBox="0 0 298.34 138.88"><defs><style>.cls-1{fill:url(#linear-gradient);}.cls-2{fill:url(#linear-gradient-2);}.cls-3{fill:#fff;opacity:0.2;}</style><linearGradient id="linear-gradient" x1="-38.01" y1="-7.4" x2="205.69" y2="88.34" gradientUnits="userSpaceOnUse"><stop offset="0" stop-color="#fdea46"/><stop offset="0.41" stop-color="#f8d634"/><stop offset="1" stop-color="#f0b213"/></linearGradient><linearGradient id="linear-gradient-2" x1="11.61" y1="-19.12" x2="328.62" y2="94.36" gradientUnits="userSpaceOnUse"><stop offset="0" stop-color="#fdea46"/><stop offset="0.14" stop-color="#fbe13e"/><stop offset="0.7" stop-color="#f3bf1f"/><stop offset="1" stop-color="#f0b213"/></linearGradient></defs><title>gold</title><g id="Layer_2" data-name="Layer 2"><g id="Layer_1-2" data-name="Layer 1"><path class="cls-1" d="M298.34,4V113.38s-60.74,49.06-157.27,11.08C42.85,85.81,0,131,0,131V4A4,4,0,0,1,4,0H294.34A4,4,0,0,1,298.34,4Z"/><path class="cls-2" d="M298.34,94.54s-64,38.89-149.17-14.39C89.09,42.59,52.37,38,0,59.06V4A4,4,0,0,1,4,0H294.34a4,4,0,0,1,4,4Z"/><path class="cls-3" d="M71,0A55.67,55.67,0,0,1,18.58,36.92,55.23,55.23,0,0,1,0,33.73V4A4,4,0,0,1,4,0Z"/></g></g></svg>