<svg xmlns="http://www.w3.org/2000/svg" xmlns:xlink="http://www.w3.org/1999/xlink" viewBox="0 0 298.34 138.88">
  <defs>
    <style>
      .cls-1 {
        fill: url(#linear-gradient);
      }

      .cls-2 {
        fill: url(#linear-gradient-2);
      }

      .cls-3 {
        fill: #fff;
        opacity: 0.1;
      }
    </style>
    <linearGradient id="linear-gradient" x1="2.73" y1="34.67" x2="292.31" y2="96.39" gradientUnits="userSpaceOnUse">
      <stop offset="0" stop-color="#3b8bff"/>
      <stop offset="1" stop-color="#1763cc"/>
    </linearGradient>
    <linearGradient id="linear-gradient-2" x1="7.03" y1="-16.52" x2="413.46" y2="116.72" gradientUnits="userSpaceOnUse">
      <stop offset="0" stop-color="#3b8bff"/>
      <stop offset="0.29" stop-color="#3888fb"/>
      <stop offset="0.56" stop-color="#307ff0"/>
      <stop offset="0.83" stop-color="#2370dc"/>
      <stop offset="1" stop-color="#1763cc"/>
    </linearGradient>
  </defs>
  <title>Asset 25</title>
  <g id="Layer_2" data-name="Layer 2">
    <g id="Layer_1-2" data-name="Layer 1">
      <path class="cls-1" d="M298.34,4V113.38s-60.74,49.06-157.27,11.08C42.85,85.81,0,131,0,131V4A4,4,0,0,1,4,0H294.34A4,4,0,0,1,298.34,4Z"/>
      <path class="cls-2" d="M298.34,4V94.54s-64,38.89-149.17-14.39C89.09,42.59,52.37,38,0,59.06V4A4,4,0,0,1,4,0H294.34A4,4,0,0,1,298.34,4Z"/>
      <path class="cls-3" d="M71,0A55.67,55.67,0,0,1,18.58,36.92,55.23,55.23,0,0,1,0,33.73V4A4,4,0,0,1,4,0Z"/>
    </g>
  </g>
</svg>
