<svg xmlns="http://www.w3.org/2000/svg" xmlns:xlink="http://www.w3.org/1999/xlink" viewBox="0 0 298.34 138.88"><defs><style>.cls-1{fill:url(#linear-gradient);}.cls-2{fill:url(#linear-gradient-2);}.cls-3{fill:#fff;opacity:0.1;}</style><linearGradient id="linear-gradient" x1="-16.54" y1="39.73" x2="287.14" y2="87.48" gradientUnits="userSpaceOnUse"><stop offset="0" stop-color="#e69b4a"/><stop offset="0.29" stop-color="#e29848"/><stop offset="0.54" stop-color="#d88e41"/><stop offset="0.79" stop-color="#c57e35"/><stop offset="1" stop-color="#af6a27"/></linearGradient><linearGradient id="linear-gradient-2" x1="6.29" y1="-14.72" x2="357.01" y2="95.2" xlink:href="#linear-gradient"/></defs><title>bronze</title><g id="Layer_2" data-name="Layer 2"><g id="Layer_1-2" data-name="Layer 1"><path class="cls-1" d="M298.34,4V113.38s-60.74,49.06-157.27,11.08C42.85,85.81,0,131,0,131V4A4,4,0,0,1,4,0H294.34A4,4,0,0,1,298.34,4Z"/><path class="cls-2" d="M298.34,94.54s-64,38.89-149.17-14.39C89.09,42.59,52.37,38,0,59.06V4A4,4,0,0,1,4,0H294.34a4,4,0,0,1,4,4Z"/><path class="cls-3" d="M71,0A55.67,55.67,0,0,1,18.58,36.92,55.23,55.23,0,0,1,0,33.73V4A4,4,0,0,1,4,0Z"/></g></g></svg>