<svg id="Layer_1" data-name="Layer 1" xmlns="http://www.w3.org/2000/svg" viewBox="0 0 32 96">
  <defs>
    <style>
      .cls-1 {
        fill: #1dd8cf;
      }

      .cls-2 {
        fill: none;
        stroke: #212121;
        stroke-linecap: round;
        stroke-linejoin: round;
      }
    </style>
  </defs>
  <title>Artboard 5</title>
  <g>
    <path class="cls-1" d="M27.84,42.5H24.4v-1a1,1,0,0,0-1-1H19.76a1,1,0,0,0-1,1v1H9.09A1.48,1.48,0,0,0,7.63,44V56.25a1.48,1.48,0,0,0,1.46,1.5H27.84a1.48,1.48,0,0,0,1.46-1.5V44A1.48,1.48,0,0,0,27.84,42.5Z"/>
    <g>
      <path class="cls-2" d="M24.78,39.27a1.92,1.92,0,0,1,1.92,1.92V54.81a1.93,1.93,0,0,1-1.92,1.93"/>
      <path class="cls-2" d="M14.71,56.74H4.62A1.93,1.93,0,0,1,2.7,54.81V41.19a1.92,1.92,0,0,1,1.92-1.92h10"/>
      <path class="cls-2" d="M17.86,51.3V44.7a1.17,1.17,0,0,0-.55-1,1.22,1.22,0,0,1-.62-1.06v-4a1.22,1.22,0,0,1,1.22-1.22h4a1.23,1.23,0,0,1,1.23,1.22v4a1.22,1.22,0,0,1-.62,1.06,1.15,1.15,0,0,0-.55,1v6.6a1.14,1.14,0,0,0,.55,1,1.24,1.24,0,0,1,.62,1.07v4a1.23,1.23,0,0,1-1.23,1.22h-4a1.22,1.22,0,0,1-1.22-1.22v-4a1.24,1.24,0,0,1,.62-1.07A1.14,1.14,0,0,0,17.86,51.3Z"/>
      <path class="cls-2" d="M9.55,42.5h2.76a1.5,1.5,0,0,1,1.5,1.5v8a1.5,1.5,0,0,1-1.5,1.5H7.23A1.5,1.5,0,0,1,5.73,52V44a1.5,1.5,0,0,1,1.5-1.5"/>
    </g>
  </g>
</svg>
