<svg xmlns="http://www.w3.org/2000/svg" viewBox="0 0 538.34 403.78"><defs><style>.cls-1{fill:#2f3061;}.cls-2{fill:#e5273a;}.cls-3{fill:#3b8bff;}.cls-4{fill:#ff9912;}.cls-5{fill:#fff;}</style></defs><title>Pyramid</title><g id="Layer_2" data-name="Layer 2"><g id="Layer_1-2" data-name="Layer 1"><path class="cls-1" d="M414.4,113.49a40.21,40.21,0,0,1-11.6-34.92c.07-.43.12-.87.18-1.31.1-.67.2-1.34.28-2,.06-.47.11-.94.15-1.42.08-.8.14-1.61.19-2.42,0-.41.06-.82.07-1.23,0-.23,0-.45,0-.67,0-.61,0-1.22,0-1.83s0-1,0-1.42c0-1-.06-2-.12-3,0-.28,0-.56,0-.84,0,0,0-.08,0-.12s0-.25,0-.38c-.08-1-.18-2-.3-3,0-.31-.09-.61-.13-.92-.11-.78-.22-1.57-.36-2.34-.08-.47-.18-.93-.27-1.4s-.23-1.15-.35-1.72-.3-1.25-.46-1.87c-.09-.36-.18-.72-.28-1.08-.22-.8-.45-1.6-.7-2.39a2.81,2.81,0,0,0-.1-.31A67.3,67.3,0,0,0,343.64.38c-.66-.07-1.32-.15-2-.2L340.43.11c-.58,0-1.16-.08-1.75-.1h-4.46c-.58,0-1.16.07-1.75.1l-1.22.07c-.67.05-1.32.13-2,.2A67.32,67.32,0,0,0,272.32,46.9c0,.1-.06.2-.1.31-.24.79-.48,1.59-.7,2.39-.1.36-.19.72-.28,1.08-.16.62-.31,1.24-.45,1.87s-.24,1.15-.36,1.73l-.27,1.38c-.13.78-.25,1.57-.35,2.35-.05.31-.1.61-.14.92-.12,1-.22,2-.29,3,0,.14,0,.27,0,.4s0,.08,0,.12c0,.27,0,.55,0,.82-.05,1-.1,2-.11,3,0,.47,0,1,0,1.42s0,1.22,0,1.83c0,.22,0,.44,0,.67,0,.41,0,.82.07,1.23.05.81.11,1.62.19,2.42l.15,1.42c.08.68.18,1.35.28,2,.07.44.11.88.18,1.31,2.17,12.77-2.44,25.77-11.59,34.92l-5.21,5.21L285,150.43l5.21-5.21c9.16-9.16,22.15-13.76,34.92-11.6h0c1.23.21,2.46.38,3.71.52l.78.07c.65.07,1.3.14,2,.19.25,0,.5,0,.75,0,.68,0,1.36.06,2,.08s1.36,0,2,0,1.35,0,2,0,1.37,0,2-.08c.26,0,.51,0,.76,0,.66-.05,1.3-.12,2-.19l.78-.07c1.25-.14,2.49-.31,3.72-.52h0a40.22,40.22,0,0,1,34.93,11.6l5.2,5.21,31.73-31.73Z"/><path class="cls-2" d="M475.87,134.74a67.91,67.91,0,0,0-16.13.77c-12.77,2.16-25.76-2.44-34.92-11.6l-5.21-5.21-31.73,31.73,5.21,5.21c9.16,9.15,13.77,22.15,11.6,34.92a67.89,67.89,0,0,0-.77,16.13c2.37,34.07,30.75,61.33,64.89,62.43a67.3,67.3,0,0,0,69.49-69.5C537.19,165.49,509.94,137.11,475.87,134.74Z"/><path class="cls-3" d="M341.28,269.07a67.91,67.91,0,0,0-16.13.78c-12.77,2.16-25.76-2.44-34.92-11.6L285,253,253.3,284.76l5.21,5.21c9.16,9.16,13.76,22.15,11.59,34.92a67.91,67.91,0,0,0-.77,16.13c2.38,34.07,30.75,61.33,64.89,62.43A67.3,67.3,0,0,0,403.71,334C402.6,299.82,375.35,271.45,341.28,269.07Z"/><path class="cls-3" d="M62.47,269.37a67.91,67.91,0,0,1,16.13.77,40.19,40.19,0,0,0,34.91-11.6l5.22-5.21,31.72,31.72-5.21,5.22a40.21,40.21,0,0,0-11.6,34.92,67.88,67.88,0,0,1,.78,16.13c-2.38,34.07-30.76,61.33-64.9,62.43A67.29,67.29,0,0,1,0,334.25C1.14,300.12,28.4,271.74,62.47,269.37Z"/><path class="cls-4" d="M268.21,213.18a.28.28,0,0,0,0-.09c.13-.72.22-1.45.32-2.18l.09-.6c0-.28.07-.56.1-.84s0-.6.08-.9l0-.34c0-.4.09-.8.12-1.2l0-.34c0-.25,0-.49,0-.73,0-.4.05-.79.06-1.19,0-.22,0-.44,0-.66s0-.57,0-.86c0-.46,0-.92,0-1.38s0-.68,0-1,0-1-.05-1.47,0-1.07-.07-1.6c0-.25,0-.49,0-.73,0,0,0-.07,0-.11l0-.35c0-.48-.09-1-.14-1.43,0-.3-.05-.59-.08-.89l-.09-.73c0-.31-.09-.61-.13-.91-.09-.66-.17-1.33-.29-2a.25.25,0,0,0,0-.08,40.21,40.21,0,0,1,11.6-34.92l5.21-5.22L253.3,118.7l-5.22,5.21a40.19,40.19,0,0,1-34.91,11.6c-.69-.11-1.39-.19-2.08-.29l-1-.13c-.76-.09-1.53-.17-2.3-.24l-.75-.07-.65,0-2.07-.11h-.67l-1,0c-.72,0-1.44,0-2.16,0h-.87l-.83,0c-.59,0-1.18,0-1.77.08a65.27,65.27,0,0,0-10.34,1.56l-.66.16c-.78.19-1.56.4-2.34.61l-1.29.38-1.51.48c-.65.22-1.31.44-2,.68l-.54.2a67.45,67.45,0,0,0-40.67,42.69c0,.1-.06.21-.1.31-.24.8-.48,1.6-.7,2.4-.09.36-.19.72-.28,1.08-.16.62-.31,1.24-.45,1.87s-.24,1.14-.36,1.72-.18.93-.26,1.39c-.14.78-.25,1.57-.36,2.35-.05.31-.1.61-.13.92-.08.65-.14,1.3-.2,2,0,.4-.09.8-.12,1.2a2,2,0,0,1,0,.25s0,.07,0,.11c0,.26,0,.52,0,.78,0,.6-.08,1.19-.1,1.79,0,.15,0,.3,0,.45s0,.52,0,.79,0,.81,0,1.22,0,1.06,0,1.59c0,.15,0,.29,0,.44s0,.44,0,.66c0,.41.05.81.07,1.21l.06,1.06c0,.47.09.93.14,1.39s.08.9.13,1.35c.09.76.2,1.51.32,2.26.06.38.09.76.16,1.14,2.16,12.77-2.44,25.76-11.6,34.92l-5.21,5.21L150.43,285l5.21-5.21c9.16-9.16,22.15-13.76,34.92-11.6h0c1.23.21,2.46.37,3.71.51l.79.08c.65.06,1.29.14,1.95.18.25,0,.5,0,.76,0,.67,0,1.35.06,2,.08l.32,0h1.71l1.83,0h.4l.26,0,1.58-.07.76,0c.65,0,1.3-.12,1.95-.18l.79-.08c1.24-.14,2.48-.3,3.7-.51h0a40.19,40.19,0,0,1,34.91,11.6L253.3,285,285,253.31l-5.21-5.21C270.65,238.94,266.05,226,268.21,213.18Z"/><circle class="cls-5" cx="336.45" cy="67.27" r="50.47"/><circle class="cls-5" cx="201.86" cy="200.47" r="50.47"/><circle class="cls-5" cx="471.04" cy="200.47" r="50.47"/><circle class="cls-5" cx="67.29" cy="336.91" r="50.47"/><circle class="cls-5" cx="336.45" cy="336.91" r="50.47"/><path class="cls-2" d="M449.2,186.5a3.1,3.1,0,0,1,.53-.1,4.58,4.58,0,0,1,1.76.14,7.24,7.24,0,0,1,1.26.51l-1,2.57a6.42,6.42,0,0,0-.8-.28,2.64,2.64,0,0,0-.71-.1,2.52,2.52,0,0,0-.52,0,2.06,2.06,0,0,0-.6.16,3.73,3.73,0,0,0-.65.35,4.59,4.59,0,0,0-.62.49,4.09,4.09,0,0,0-.53.58,3.27,3.27,0,0,0-.38.64,1.74,1.74,0,0,0-.17.64.48.48,0,0,0,.14.39,1.27,1.27,0,0,0,.42.27,4.24,4.24,0,0,0,.6.19l.68.19.25.06c.38.09.75.19,1.12.3a3.74,3.74,0,0,1,1,.47,2.22,2.22,0,0,1,.72.8,2.49,2.49,0,0,1,.28,1.27c0,.1,0,.21,0,.33s0,.23-.05.35a3.54,3.54,0,0,1-.32.93,4.28,4.28,0,0,1-.57.86,6.51,6.51,0,0,1-.8.77,7.22,7.22,0,0,1-1,.63,9.5,9.5,0,0,1-2.31.78,13.77,13.77,0,0,1-2.8.28,9,9,0,0,1-3.16-.52,5.77,5.77,0,0,1-2.27-1.53,5.23,5.23,0,0,1-1-1.79,6.6,6.6,0,0,1-.32-2c0-.15,0-.3,0-.46l0-.43a10.23,10.23,0,0,1,.14-1.24c.07-.41.15-.79.24-1.15s.19-.69.3-1,.2-.58.29-.81.16-.42.22-.55l.11-.25,2.21.92c-.15.34-.29.68-.42,1s-.25.67-.35,1-.19.72-.26,1.1a9.62,9.62,0,0,0-.12,1.27,1.25,1.25,0,0,0,0,.21,1.48,1.48,0,0,0,0,.2,3.7,3.7,0,0,0,.17,1.09,2.59,2.59,0,0,0,.57,1,2.22,2.22,0,0,0,.62.48,5.3,5.3,0,0,0,.86.35,7.62,7.62,0,0,0,1,.22,8.32,8.32,0,0,0,1.12.07,13.7,13.7,0,0,0,2.09-.15,9.77,9.77,0,0,0,1.71-.41,4.55,4.55,0,0,0,1.19-.57,1.21,1.21,0,0,0,.52-.68h-.1l-.23-.05-.31-.07-.35-.09-.48-.1a14.12,14.12,0,0,1-1.47-.45,4.06,4.06,0,0,1-1.2-.65,3.07,3.07,0,0,1-.82-1,3.63,3.63,0,0,1-.3-1.57,6.15,6.15,0,0,1,.42-2,6.52,6.52,0,0,1,1-1.75,6.61,6.61,0,0,1,1.5-1.34,5.24,5.24,0,0,1,1.86-.77Z"/><path class="cls-2" d="M458.22,194.84a5.6,5.6,0,0,1-1.85-.27,3.47,3.47,0,0,1-1.34-.82,2.86,2.86,0,0,1-.54-.74,2.89,2.89,0,0,1-.27-.76,3.58,3.58,0,0,1-.1-.7c0-.22,0-.42,0-.57v-.14c0-.21,0-.52,0-.93s0-.89,0-1.44,0-1.15,0-1.82,0-1.32,0-2-.07-1.29-.12-1.9a14.09,14.09,0,0,0-.21-1.59l2.63-.8a13,13,0,0,1,.19,1.37c0,.52.08,1.07.11,1.64s.06,1.16.07,1.74,0,1.11,0,1.61,0,.87-.05,1.29-.07.83-.09,1.23a7.62,7.62,0,0,0,0,1.17,4.16,4.16,0,0,0,.24,1.1.79.79,0,0,0,.2.31.69.69,0,0,0,.28.15,1.72,1.72,0,0,0,.34.06h.5a1.36,1.36,0,0,1,.53.11,1.77,1.77,0,0,1,.45.3,1.54,1.54,0,0,1,.3.45,1.24,1.24,0,0,1,.12.53,1.26,1.26,0,0,1-.12.55,1.4,1.4,0,0,1-.75.74A1.35,1.35,0,0,1,458.22,194.84Z"/><path class="cls-2" d="M456.8,193.45a1.41,1.41,0,0,1,.11-.54,1.35,1.35,0,0,1,.29-.44,1.51,1.51,0,0,1,.45-.29,1.24,1.24,0,0,1,.54-.11h.46a7.64,7.64,0,0,1,.18-1.26,9.08,9.08,0,0,1,.42-1.38,9.44,9.44,0,0,1,.62-1.33,7.19,7.19,0,0,1,.8-1.16,4.28,4.28,0,0,1,.94-.83,2.22,2.22,0,0,1,1.06-.35,2,2,0,0,1,1.1.33,3.15,3.15,0,0,1,.87.84,4,4,0,0,1,.58,1.17,4.41,4.41,0,0,1,.21,1.34,3.54,3.54,0,0,1-.35,1.55,5.57,5.57,0,0,1-.91,1.41,7.57,7.57,0,0,1-1.28,1.18,8.45,8.45,0,0,1-1.46.86,2.19,2.19,0,0,0,.26.5,5.86,5.86,0,0,0,.45.6l.51.56.43.42a3.16,3.16,0,0,1,.15-1,4.2,4.2,0,0,1,.44-1,5.48,5.48,0,0,1,.67-.93,5.34,5.34,0,0,1,.83-.76,4.24,4.24,0,0,1,.92-.52,2.65,2.65,0,0,1,.94-.18,1.24,1.24,0,0,1,.54.11,1.51,1.51,0,0,1,.45.29,1.55,1.55,0,0,1,.3.44,1.41,1.41,0,0,1,0,1.09,1.55,1.55,0,0,1-.3.44,1.37,1.37,0,0,1-.45.3,1.4,1.4,0,0,1-.54.1h0a2.12,2.12,0,0,0-.74.26,2.66,2.66,0,0,0-.64.52,2.79,2.79,0,0,0-.44.69,2,2,0,0,0-.17.78,1.69,1.69,0,0,0,0,.33,1.81,1.81,0,0,0,.09.31,2.37,2.37,0,0,0,.19.34,3,3,0,0,0,.31.37l-1.61,2a15.9,15.9,0,0,1-1.86-1.31,11.13,11.13,0,0,1-1.38-1.36,8.82,8.82,0,0,1-1-1.42,8.72,8.72,0,0,1-.66-1.47h-.94a1.4,1.4,0,0,1-.54-.1,1.37,1.37,0,0,1-.45-.3,1.35,1.35,0,0,1-.29-.44A1.42,1.42,0,0,1,456.8,193.45Zm6.4-3.62a4.68,4.68,0,0,0,0-.53,4.51,4.51,0,0,0-.09-.53,2.56,2.56,0,0,0-.18-.47.89.89,0,0,0-.28-.32,1.33,1.33,0,0,0-.37.33,6.93,6.93,0,0,0-.4.6c-.13.24-.26.49-.39.77s-.24.56-.34.85a7.72,7.72,0,0,0-.24.84,4.23,4.23,0,0,0-.1.73,3.14,3.14,0,0,0,.79-.28,3.91,3.91,0,0,0,.75-.53,3.48,3.48,0,0,0,.59-.69A1.76,1.76,0,0,0,463.2,189.83Z"/><path class="cls-2" d="M465.58,193.45a1.41,1.41,0,0,1,.11-.54,1.21,1.21,0,0,1,.29-.44,1.32,1.32,0,0,1,.44-.3,1.45,1.45,0,0,1,.55-.1h.67a11.81,11.81,0,0,0,1.21-.06,3.9,3.9,0,0,0,1-.22,2,2,0,0,0,.72-.48,1.3,1.3,0,0,0,.29-.83c0-.13,0-.24,0-.33a1.33,1.33,0,0,0-.05-.3c0-.12-.07-.28-.13-.48l-.23-.83,2.56-.72a6.73,6.73,0,0,1,.3,1.12,12.6,12.6,0,0,1,.22,1.52,5.24,5.24,0,0,0,.06.54,2.09,2.09,0,0,0,.14.52,1,1,0,0,0,.28.39.69.69,0,0,0,.45.16,1.42,1.42,0,0,1,.55.1,1.43,1.43,0,0,1,.74.74,1.24,1.24,0,0,1,.11.54,1.26,1.26,0,0,1-.11.55,1.23,1.23,0,0,1-.3.44,1.43,1.43,0,0,1-.44.3,1.4,1.4,0,0,1-.54.1,3.5,3.5,0,0,1-1.44-.26,3.22,3.22,0,0,1-1-.67,4,4,0,0,1-.91.44,8.83,8.83,0,0,1-1.1.29,11,11,0,0,1-1.19.15c-.41,0-.82.05-1.21.05H467a1.45,1.45,0,0,1-.55-.1,1.32,1.32,0,0,1-.44-.3,1.21,1.21,0,0,1-.29-.44A1.42,1.42,0,0,1,465.58,193.45ZM474.3,185l-1.68,1.69L471,185l-1.65,1.65L467.59,185l1.69-1.7,1.67,1.67,1.65-1.65Z"/><path class="cls-2" d="M473.1,193.46a1.42,1.42,0,0,1,.11-.55,1.23,1.23,0,0,1,.3-.44,1.41,1.41,0,0,1,.46-.3,1.66,1.66,0,0,1,.61-.1h.92l1,0c.39,0,.75,0,1.11-.08a4.9,4.9,0,0,0,1-.23,1.27,1.27,0,0,0,.62-.41,1.63,1.63,0,0,0,.27-.92,2.19,2.19,0,0,0,0-.36c0-.12,0-.24-.08-.37a2.16,2.16,0,0,0-.26-.54c-.13-.2-.3-.43-.5-.68s-.44-.51-.71-.79-.54-.56-.84-.85-.61-.58-.94-.87-.65-.56-1-.83l.27-2.39,7.38-3.29,1.06,2.36L478,184.5a10.22,10.22,0,0,1,.89.71,12.5,12.5,0,0,1,.88.9,10.33,10.33,0,0,1,.81,1,9,9,0,0,1,.66,1.11,6,6,0,0,1,.44,1.15,4.18,4.18,0,0,1,.16,1.14,4.72,4.72,0,0,1-.18,1.22,5.29,5.29,0,0,1-.41,1,4,4,0,0,1-3,2h0l-.44.06-.42,0h-2.83a1.64,1.64,0,0,1-.6-.1,1.35,1.35,0,0,1-.47-.3,1.23,1.23,0,0,1-.3-.44A1.33,1.33,0,0,1,473.1,193.46Z"/><path class="cls-2" d="M490.16,194.84l-.54,0a2.6,2.6,0,0,1-.76-.2,6.88,6.88,0,0,1-.72,2.07,9.71,9.71,0,0,1-1.32,1.84A11.29,11.29,0,0,1,485,200.1a16.92,16.92,0,0,1-2.14,1.3l-1.6-2.23c.41-.21.83-.44,1.25-.69s.83-.51,1.21-.79a13.48,13.48,0,0,0,1.07-.87,7.51,7.51,0,0,0,.87-.93,4.57,4.57,0,0,0,.58-1,2.66,2.66,0,0,0,.21-1,.25.25,0,0,0,0-.08v-.19s0,0,0,0h0c0-.34-.1-.66-.17-1s-.18-.62-.29-.94-.25-.66-.4-1-.32-.74-.51-1.16l2.54-1.11c.23.7.45,1.29.66,1.76a6,6,0,0,0,.6,1.12,1.93,1.93,0,0,0,.59.59,1.21,1.21,0,0,0,.64.18h0a1.24,1.24,0,0,1,.54.11,1.38,1.38,0,0,1,.75.75,1.4,1.4,0,0,1,.11.53,1.42,1.42,0,0,1-.11.55,1.71,1.71,0,0,1-.3.44,1.51,1.51,0,0,1-.45.29A1.42,1.42,0,0,1,490.16,194.84Z"/><path class="cls-2" d="M488.76,193.46a1.34,1.34,0,0,1,.1-.52,1.52,1.52,0,0,1,.28-.43,1.43,1.43,0,0,1,.42-.31,1.28,1.28,0,0,1,.51-.13,1.72,1.72,0,0,0,1.11-.36,2.91,2.91,0,0,0,.78-.94,6.72,6.72,0,0,0,.56-1.32c.15-.49.29-1,.43-1.51l2.33.42c0,.2-.1.44-.17.71s-.13.56-.18.85-.1.58-.14.86a3.69,3.69,0,0,0,0,.73,1,1,0,0,0,.16.5.4.4,0,0,0,.4.14,1.16,1.16,0,0,0,.64-.25,2.81,2.81,0,0,0,.52-.56,4.74,4.74,0,0,0,.4-.78,6.51,6.51,0,0,0,.3-.88,7.92,7.92,0,0,0,.21-.91c.06-.3.11-.57.14-.82l2.23.38a4.34,4.34,0,0,1-.06.65c0,.26-.07.53-.1.81a8.25,8.25,0,0,0,0,.86,2.54,2.54,0,0,0,.1.76,1.12,1.12,0,0,0,.32.55.89.89,0,0,0,.63.21,1.8,1.8,0,0,0,.5-.08,1.61,1.61,0,0,0,.45-.24,1.13,1.13,0,0,0,.33-.36A.86.86,0,0,0,502,191a3.79,3.79,0,0,0-.15-1,10.69,10.69,0,0,0-.36-1.09c-.14-.36-.29-.7-.44-1s-.29-.59-.39-.81l2.17-1.23.19.4.3.69c.11.27.22.58.34.91s.23.69.33,1.05a10.66,10.66,0,0,1,.25,1.12,7.15,7.15,0,0,1,.1,1.11,4.64,4.64,0,0,1-.25,1.58,3.12,3.12,0,0,1-.72,1.19,3.48,3.48,0,0,1-1.23.77,5.14,5.14,0,0,1-1.71.28,3.22,3.22,0,0,1-.86-.1,2.89,2.89,0,0,1-.7-.25,3.15,3.15,0,0,1-.55-.38.44.44,0,1,0-.88,0,2.41,2.41,0,0,1-.55.37,3.38,3.38,0,0,1-.7.24,4.54,4.54,0,0,1-.88.1,3.09,3.09,0,0,1-.77-.08,2.23,2.23,0,0,1-.64-.24,2.17,2.17,0,0,1-.52-.38,4.25,4.25,0,0,1-.44-.5,2.83,2.83,0,0,1-.42.43,2.55,2.55,0,0,1-.56.35,4.29,4.29,0,0,1-.76.23,4.88,4.88,0,0,1-1,.09h-.16a1.48,1.48,0,0,1-.51-.13,1.6,1.6,0,0,1-.42-.3,1.39,1.39,0,0,1-.28-.43A1.32,1.32,0,0,1,488.76,193.46Zm12.91-9.31-1.69,1.7-1.67-1.67-1.65,1.65-1.7-1.7,1.68-1.69,1.67,1.67,1.66-1.65Zm-4.92-2.55,1.56-1.56,1.58,1.57-1.57,1.57Z"/><path class="cls-2" d="M458.86,223.43a6.17,6.17,0,0,1-2.14-.33,3.54,3.54,0,0,1-1.43-1,2.65,2.65,0,0,1-.44-.85,3.22,3.22,0,0,1-.14-.89,2.67,2.67,0,0,1,.07-.66,3.63,3.63,0,0,1,.14-.51,5.27,5.27,0,0,1,.87-1.3,8.67,8.67,0,0,1,1.07-1,7.37,7.37,0,0,1,1.11-.68c.36-.18.69-.33,1-.45l0-.41,0-.4-.05-.56,2.74-.58c0,.05,0,.17,0,.36s.05.43.07.69.06.55.09.86.06.58.09.84.05.5.07.69,0,.31,0,.35c.09.72.16,1.31.22,1.77s.12.83.16,1.11.08.47.11.59a1.54,1.54,0,0,0,.07.24.8.8,0,0,0,.4.39,2,2,0,0,0,.72.11,1.39,1.39,0,0,1,.53.1,1.37,1.37,0,0,1,.45.3,1.55,1.55,0,0,1,.3.44,1.41,1.41,0,0,1,0,1.09,1.55,1.55,0,0,1-.3.44,1.51,1.51,0,0,1-.45.29,1.23,1.23,0,0,1-.53.11h-.42l-.47-.05-.52-.12a3.35,3.35,0,0,1-.53-.19,3.13,3.13,0,0,1-.65-.4,3.27,3.27,0,0,1-.53-.57l-.87.09C459.39,223.43,459.12,223.43,458.86,223.43Zm-.05-2.75.38,0,.38,0c0-.2-.06-.42-.09-.67s-.06-.51-.09-.79l-.09-.8c-.22.11-.47.24-.75.4a6.71,6.71,0,0,0-.77.49,4.24,4.24,0,0,0-.62.52.79.79,0,0,0-.24.5c0,.08.06.14.2.19a2.39,2.39,0,0,0,.48.12,5.87,5.87,0,0,0,.62.07Z"/><path class="cls-2" d="M475.35,223.28a1.35,1.35,0,0,1-.4,1,1.38,1.38,0,0,1-1,.41h0a2.33,2.33,0,0,1-1.79-.75,2.49,2.49,0,0,1-1.84.72,9,9,0,0,1-3.75-1.3,1.91,1.91,0,0,1-.6.68,3.38,3.38,0,0,1-.91.46,4.59,4.59,0,0,1-1.44.21,1.32,1.32,0,0,1-1-.4,1.35,1.35,0,0,1-.41-1,1.4,1.4,0,0,1,1.39-1.38,2.39,2.39,0,0,0,1.92-1.08,9.37,9.37,0,0,0,.61-1c.07-.13.15-.31.27-.53l.12-.26.12-.25c.79-1.57,1.78-2.35,3-2.35a3.39,3.39,0,0,1,2.29.86,3.82,3.82,0,0,1,1.27,2.68V220a.37.37,0,0,1,0,.12,4.34,4.34,0,0,0,.12.87,2.15,2.15,0,0,0,.23.6.48.48,0,0,0,.4.27,1.34,1.34,0,0,1,1,.4A1.35,1.35,0,0,1,475.35,223.28Zm-4.44-1.13c.19-.05.3-.29.34-.73a2.14,2.14,0,0,0-.26-1.23,2.5,2.5,0,0,0-.82-.87c-.37-.24-.65-.33-.84-.25s-.63.75-1.14,2C469.66,221.86,470.57,222.24,470.91,222.15Z"/><path class="cls-2" d="M472.59,223.28a1.42,1.42,0,0,1,.11-.55,1.21,1.21,0,0,1,.29-.44,1.32,1.32,0,0,1,.44-.3,1.45,1.45,0,0,1,.55-.1h.67c.42,0,.82,0,1.21,0a3.89,3.89,0,0,0,1-.23,1.76,1.76,0,0,0,.72-.48,1.3,1.3,0,0,0,.29-.83c0-.13,0-.24,0-.32a1.32,1.32,0,0,0-.05-.31c0-.12-.07-.28-.13-.47s-.13-.48-.23-.83l2.56-.73a7,7,0,0,1,.3,1.12,10.93,10.93,0,0,1,.21,1.52c0,.18,0,.36.07.55a2,2,0,0,0,.14.51,1,1,0,0,0,.28.39.64.64,0,0,0,.45.16,1.42,1.42,0,0,1,.55.1,1.43,1.43,0,0,1,.74.74,1.26,1.26,0,0,1,.11.55,1.24,1.24,0,0,1-.11.54,1.23,1.23,0,0,1-.3.44,1.43,1.43,0,0,1-.44.3,1.4,1.4,0,0,1-.54.1,3.5,3.5,0,0,1-1.44-.26,3.22,3.22,0,0,1-1-.67,3.66,3.66,0,0,1-.91.44,8.83,8.83,0,0,1-1.1.29c-.38.07-.78.12-1.19.16s-.82,0-1.21,0H474a1.45,1.45,0,0,1-.55-.1,1.32,1.32,0,0,1-.44-.3,1.21,1.21,0,0,1-.29-.44A1.41,1.41,0,0,1,472.59,223.28Zm8.41,4.54-1.69,1.69-1.67-1.67L476,229.5l-1.7-1.7,1.68-1.7,1.67,1.67,1.65-1.65Z"/><path class="cls-2" d="M480.15,223.28a1.26,1.26,0,0,1,.11-.55,1.35,1.35,0,0,1,.29-.44,1.23,1.23,0,0,1,.44-.3,1.4,1.4,0,0,1,.54-.1h1.3l.68,0a4.49,4.49,0,0,0,.67-.1,2.84,2.84,0,0,0,.56-.22.83.83,0,0,0,.34-.38,1.18,1.18,0,0,0,.07-.48,2.54,2.54,0,0,0-.12-.63c-.08-.28-.19-.59-.32-.93s-.29-.71-.46-1.08-.34-.73-.52-1.06l2.51-1.25c.17.37.33.76.49,1.18s.31.83.43,1.26a12.6,12.6,0,0,1,.32,1.28,6.54,6.54,0,0,1,.12,1.22,4.07,4.07,0,0,1-.32,1.62,3.8,3.8,0,0,1-1,1.37,4.09,4.09,0,0,1-1.54.79,4.78,4.78,0,0,1-1,.18l-.9,0h-1.29a1.4,1.4,0,0,1-.54-.1,1.23,1.23,0,0,1-.44-.3,1.35,1.35,0,0,1-.29-.44A1.24,1.24,0,0,1,480.15,223.28Zm4,2.18,1.95,1.95-1.95,2-1.95-2Z"/><path class="cls-4" d="M175.78,187.53c-.41,0-.82,0-1.25-.06a6.93,6.93,0,0,1-1.26-.22,5.76,5.76,0,0,1-1.2-.44,4.56,4.56,0,0,1-1.08-.73,4.69,4.69,0,0,1-.87-1,5.82,5.82,0,0,1-.6-1.13,6.54,6.54,0,0,1-.36-1.24,7.39,7.39,0,0,1-.11-1.33,9.6,9.6,0,0,1,.46-2.91,11.2,11.2,0,0,1,1.36-2.84l2,1.43a4.08,4.08,0,0,0-.41.71,10.31,10.31,0,0,0-.46,1.08,9.3,9.3,0,0,0-.37,1.29,6.06,6.06,0,0,0-.15,1.31,2.69,2.69,0,0,0,.33,1.32,3.26,3.26,0,0,0,.88,1,4.44,4.44,0,0,0,1.26.66,5.35,5.35,0,0,0,1.49.25,6.15,6.15,0,0,0,1.22-.1,5.73,5.73,0,0,0,1.11-.34,4.46,4.46,0,0,0,1-.53,3.91,3.91,0,0,0,.75-.71,2.63,2.63,0,0,0,.47-.85,2.36,2.36,0,0,0,.14-1,4.28,4.28,0,0,0-.14-.85c-.08-.31-.18-.64-.29-1s-.24-.66-.38-1l-.39-.89c-.12-.27-.22-.51-.31-.7s-.14-.32-.17-.39l2.39-1.33a3.12,3.12,0,0,1,.16.31l.3.73c.12.3.25.63.39,1s.26.78.38,1.2.22.84.31,1.26a9.53,9.53,0,0,1,.17,1.23s0,.1,0,.17v.17a6.77,6.77,0,0,1-.18,1.55,6.39,6.39,0,0,1-.54,1.48,6.15,6.15,0,0,1-.91,1.31,5.86,5.86,0,0,1-1.3,1.05,6.87,6.87,0,0,1-1.7.69A8,8,0,0,1,175.78,187.53Zm0-14.5,1.95,1.95-1.95,2-2-2Z"/><path class="cls-4" d="M183.92,181.51q0-.72.09-1.5c0-.51.05-1,.07-1.53s0-1,0-1.46,0-.91,0-1.31c0-.83-.07-1.56-.1-2.19s-.06-1.19-.09-1.68-.07-.91-.1-1.28-.07-.7-.1-1-.08-.59-.12-.86-.08-.54-.13-.83l2.72-.89c.12.78.23,1.57.31,2.37s.14,1.56.18,2.29.07,1.4.08,2,0,1.16,0,1.61v1.31c0,.46,0,.95,0,1.45s0,1,0,1.53,0,1-.08,1.51Z"/><path class="cls-4" d="M192.48,175c.23.63.42,1.25.58,1.85l.21.82c.08.29.14.57.19.86s.1.56.14.83a7.07,7.07,0,0,1,.05.76,5.79,5.79,0,0,1-.22,1.61,7.26,7.26,0,0,1-.63,1.53,10,10,0,0,1-1,1.42,10.61,10.61,0,0,1-1.24,1.27,15,15,0,0,1-1.47,1.12,14.37,14.37,0,0,1-1.62.92l-1.59-2.22c.42-.21.84-.45,1.27-.72a13.56,13.56,0,0,0,1.24-.85,13.21,13.21,0,0,0,1.11-1,7.56,7.56,0,0,0,.89-1,4.69,4.69,0,0,0,.61-1,2.82,2.82,0,0,0,.22-1,3.41,3.41,0,0,0-.11-.8,6.72,6.72,0,0,0-.27-.93c-.11-.33-.25-.68-.41-1.05s-.32-.77-.51-1.19Z"/><path class="cls-4" d="M194.93,181.51c0-.48,0-1,.08-1.5s.06-1,.08-1.53,0-1,0-1.46,0-.91,0-1.31c0-.83-.07-1.56-.1-2.19s-.07-1.19-.1-1.68-.06-.91-.09-1.28-.07-.7-.11-1-.07-.59-.11-.86-.08-.54-.13-.83l2.71-.89c.13.78.24,1.57.32,2.37s.13,1.56.18,2.29.06,1.4.08,2,0,1.16,0,1.61v1.31c0,.46,0,.95,0,1.45s0,1,0,1.53,0,1-.08,1.51Z"/><path class="cls-4" d="M205.77,181.48l-.55,0a2.3,2.3,0,0,1-.75-.19,6.64,6.64,0,0,1-.73,2.07,9.17,9.17,0,0,1-1.31,1.83,10.94,10.94,0,0,1-1.79,1.58,15.07,15.07,0,0,1-2.13,1.29l-1.61-2.22q.63-.31,1.26-.69c.42-.25.82-.51,1.21-.79a13.48,13.48,0,0,0,1.07-.87,6.26,6.26,0,0,0,.86-.94,4.35,4.35,0,0,0,.58-1,2.67,2.67,0,0,0,.21-1v-.18s0-.06,0-.08h0a7.4,7.4,0,0,0-.18-1c-.08-.31-.17-.62-.29-.95s-.24-.66-.39-1-.33-.74-.51-1.17l2.53-1.1c.24.7.46,1.29.66,1.75a6.7,6.7,0,0,0,.61,1.13,1.83,1.83,0,0,0,.59.59,1.19,1.19,0,0,0,.63.17h0a1.26,1.26,0,0,1,.55.12,1.23,1.23,0,0,1,.44.3,1.32,1.32,0,0,1,.3.44,1.38,1.38,0,0,1,0,1.08,1.23,1.23,0,0,1-.3.44,1.21,1.21,0,0,1-.44.29A1.42,1.42,0,0,1,205.77,181.48Zm-3.9-11.71,1.95,1.95-1.95,1.95-2-1.95Z"/><path class="cls-4" d="M204.28,180.1a1.42,1.42,0,0,1,.11-.55,1.37,1.37,0,0,1,.3-.45,1.56,1.56,0,0,1,.46-.29,1.66,1.66,0,0,1,.61-.11h2a9.78,9.78,0,0,0,1.11-.09,4.92,4.92,0,0,0,.95-.22,1.27,1.27,0,0,0,.62-.41,1.64,1.64,0,0,0,.27-.93,2.16,2.16,0,0,0,0-.35c0-.12,0-.25-.08-.38a2.29,2.29,0,0,0-.26-.53,7.24,7.24,0,0,0-.5-.68c-.21-.25-.44-.52-.7-.79s-.55-.57-.85-.86-.61-.57-.94-.86-.65-.57-1-.84l.27-2.39,7.38-3.28,1.06,2.35-5.83,2.71a10.22,10.22,0,0,1,.89.71,12.5,12.5,0,0,1,.88.9,11.46,11.46,0,0,1,.81,1,9.93,9.93,0,0,1,.66,1.12,5.78,5.78,0,0,1,.44,1.15,4.11,4.11,0,0,1,.16,1.13,4.8,4.8,0,0,1-.18,1.23,5.19,5.19,0,0,1-.41,1,4,4,0,0,1-3,2h0l-.45.06-.42,0h-2.83a1.64,1.64,0,0,1-.6-.11,1.3,1.3,0,0,1-.77-.73A1.41,1.41,0,0,1,204.28,180.1Zm9.35-14.93-7.28,3.07.07-1.32,6.72-2.8Z"/><path class="cls-4" d="M219.15,175c.23.63.42,1.25.58,1.85l.21.82c.08.29.14.57.19.86s.1.56.14.83a7.07,7.07,0,0,1,0,.76,5.79,5.79,0,0,1-.22,1.61,7.26,7.26,0,0,1-.63,1.53,10,10,0,0,1-1,1.42,10.61,10.61,0,0,1-1.24,1.27,15,15,0,0,1-1.47,1.12,14.37,14.37,0,0,1-1.62.92l-1.59-2.22c.42-.21.84-.45,1.27-.72a13.56,13.56,0,0,0,1.24-.85,13.21,13.21,0,0,0,1.11-1,8.43,8.43,0,0,0,.9-1,5.06,5.06,0,0,0,.6-1,2.82,2.82,0,0,0,.22-1,4,4,0,0,0-.1-.8,8.64,8.64,0,0,0-.28-.93c-.11-.33-.25-.68-.41-1.05s-.32-.77-.51-1.19Z"/><path class="cls-4" d="M226,181.48a5.7,5.7,0,0,1-1.86-.27,3.5,3.5,0,0,1-1.33-.82,2.64,2.64,0,0,1-.54-.74,3,3,0,0,1-.27-.76,3.67,3.67,0,0,1-.1-.71c0-.22,0-.41,0-.57v-.13c0-.21,0-.53,0-.93s0-.89,0-1.44,0-1.16,0-1.82,0-1.32-.05-2-.06-1.29-.11-1.9a14.09,14.09,0,0,0-.21-1.59l2.63-.8a13,13,0,0,1,.19,1.37c0,.52.08,1.07.11,1.64s.06,1.15.07,1.73,0,1.12,0,1.62,0,.87,0,1.29-.07.83-.1,1.23a9.1,9.1,0,0,0,0,1.17,3.88,3.88,0,0,0,.24,1.1.87.87,0,0,0,.2.31.89.89,0,0,0,.27.15,2,2,0,0,0,.35.06h.5a1.21,1.21,0,0,1,.53.12,1.38,1.38,0,0,1,.75.75,1.2,1.2,0,0,1,.11.53,1.29,1.29,0,0,1-.11.55,1.71,1.71,0,0,1-.3.44,1.34,1.34,0,0,1-.45.29A1.36,1.36,0,0,1,226,181.48Z"/><path class="cls-4" d="M224.4,180.1a1.42,1.42,0,0,1,.1-.55,1.39,1.39,0,0,1,.31-.45,1.44,1.44,0,0,1,.46-.29,1.64,1.64,0,0,1,.6-.11h2a9.6,9.6,0,0,0,1.1-.09,4.85,4.85,0,0,0,1-.22,1.27,1.27,0,0,0,.62-.41,1.64,1.64,0,0,0,.27-.93,2.21,2.21,0,0,0,0-.35c0-.12,0-.25-.07-.38a2.29,2.29,0,0,0-.26-.53,7.24,7.24,0,0,0-.5-.68c-.21-.25-.44-.52-.71-.79s-.54-.57-.84-.86-.61-.57-.94-.86l-1-.84.27-2.39,7.38-3.28,1.06,2.35-5.83,2.71a10.16,10.16,0,0,1,.88.71,12.62,12.62,0,0,1,.89.9,11.46,11.46,0,0,1,.81,1,9.93,9.93,0,0,1,.66,1.12,6.47,6.47,0,0,1,.44,1.15,4.11,4.11,0,0,1,.16,1.13,4.8,4.8,0,0,1-.18,1.23,5.19,5.19,0,0,1-.41,1,4,4,0,0,1-3,2h0a3.71,3.71,0,0,1-.45.06l-.41,0h-2.84a1.63,1.63,0,0,1-.59-.11,1.3,1.3,0,0,1-.77-.73A1.41,1.41,0,0,1,224.4,180.1Z"/><path class="cls-4" d="M164.33,213.23c-.41,0-.82,0-1.24-.06a7.55,7.55,0,0,1-1.26-.22,6.48,6.48,0,0,1-1.21-.44,4.56,4.56,0,0,1-1.08-.73,5.25,5.25,0,0,1-.86-1,5.62,5.62,0,0,1-.61-1.13,7.2,7.2,0,0,1-.47-2.57,9.6,9.6,0,0,1,.46-2.91,11.08,11.08,0,0,1,1.37-2.84l2,1.42a6.27,6.27,0,0,0-.41.72,9.47,9.47,0,0,0-.46,1.08,11.32,11.32,0,0,0-.37,1.28,6.14,6.14,0,0,0-.15,1.32,2.74,2.74,0,0,0,.33,1.31,3.28,3.28,0,0,0,.88,1,3.93,3.93,0,0,0,1.27.66,5,5,0,0,0,1.49.26,6.05,6.05,0,0,0,1.21-.11,5.35,5.35,0,0,0,1.12-.33,5,5,0,0,0,1-.54,3.54,3.54,0,0,0,.74-.7,3,3,0,0,0,.48-.85,2.4,2.4,0,0,0,.13-1,3.57,3.57,0,0,0-.14-.85c-.08-.32-.18-.64-.29-1s-.24-.66-.38-1-.27-.62-.38-.89-.23-.51-.32-.7-.14-.33-.16-.4l2.39-1.32.15.31c.08.19.19.43.31.73s.24.63.38,1,.26.78.38,1.2a12.87,12.87,0,0,1,.31,1.26,8.1,8.1,0,0,1,.17,1.22.91.91,0,0,1,0,.17v.18a6.77,6.77,0,0,1-.18,1.55,5.59,5.59,0,0,1-.54,1.48,5.76,5.76,0,0,1-2.21,2.36,6.79,6.79,0,0,1-1.69.69A8.06,8.06,0,0,1,164.33,213.23Zm0-14.5,1.95,2-1.95,1.95-2-1.95Z"/><path class="cls-4" d="M176.86,207.18a5.64,5.64,0,0,1-1.85-.27,3.5,3.5,0,0,1-1.33-.82,2.59,2.59,0,0,1-.54-.74,3.52,3.52,0,0,1-.28-.76,4.6,4.6,0,0,1-.09-.71c0-.22,0-.41,0-.57v-.13c0-.22,0-.53,0-.94s0-.88,0-1.43,0-1.16,0-1.82,0-1.32-.05-2-.06-1.29-.11-1.9a14.09,14.09,0,0,0-.21-1.59l2.63-.8c.07.38.13.84.18,1.36s.09,1.08.12,1.65.06,1.15.07,1.73,0,1.12,0,1.62a10.7,10.7,0,0,1-.05,1.28q-.06.63-.09,1.23a9.09,9.09,0,0,0,0,1.17,3.56,3.56,0,0,0,.24,1.11.86.86,0,0,0,.19.3,1,1,0,0,0,.28.16,1.29,1.29,0,0,0,.35,0h.49a1.25,1.25,0,0,1,.54.12,1.23,1.23,0,0,1,.44.3,1.52,1.52,0,0,1,.31.44,1.38,1.38,0,0,1,0,1.08,1.57,1.57,0,0,1-.31.45,1.35,1.35,0,0,1-.44.29A1.41,1.41,0,0,1,176.86,207.18Z"/><path class="cls-4" d="M175.41,205.8a1.47,1.47,0,0,1,.1-.56,1.32,1.32,0,0,1,.3-.44,1.42,1.42,0,0,1,.47-.29,1.64,1.64,0,0,1,.6-.11h2a9.6,9.6,0,0,0,1.1-.09,4.85,4.85,0,0,0,1-.22,1.26,1.26,0,0,0,.62-.42,1.68,1.68,0,0,0,.26-.92,2.19,2.19,0,0,0,0-.36c0-.11,0-.24-.07-.37a2.29,2.29,0,0,0-.26-.53,6,6,0,0,0-.51-.69c-.2-.24-.44-.51-.7-.79l-.84-.85c-.3-.29-.62-.58-.94-.86s-.66-.57-1-.84l.28-2.39,7.37-3.28,1.07,2.35-5.84,2.71a7.67,7.67,0,0,1,.89.71,9.47,9.47,0,0,1,.89.9,10.2,10.2,0,0,1,.81,1,9.12,9.12,0,0,1,.66,1.12,7.34,7.34,0,0,1,.44,1.15,3.7,3.7,0,0,1,.15,1.13,4.4,4.4,0,0,1-.17,1.23,4.86,4.86,0,0,1-.42,1,4,4,0,0,1-3,2h0l-.45.06-.41,0h-2.84a1.68,1.68,0,0,1-.6-.11,1.44,1.44,0,0,1-.46-.29,1.32,1.32,0,0,1-.3-.44A1.24,1.24,0,0,1,175.41,205.8Zm9.34-14.94-7.27,3.08.07-1.32,6.72-2.8Z"/><path class="cls-4" d="M190.89,207.18a6.14,6.14,0,0,1-2.26-.44,6,6,0,0,1-2-1.42l1.59-2.24a5.57,5.57,0,0,0,.83.65,4.05,4.05,0,0,0,.78.39,3.34,3.34,0,0,0,.7.19,3.4,3.4,0,0,0,.61.06h.3l.34,0,.32-.06a1.23,1.23,0,0,0,.29-.09,3.32,3.32,0,0,0,.72-.39c-.22-.53-.46-1.1-.72-1.68l-.79-1.75-.78-1.76c-.26-.58-.5-1.13-.72-1.67l2.56-1.07.79,1.9.9,2.21c.35.85.76,1.82,1.21,2.89l.29.68a1.91,1.91,0,0,0,.32.48,1,1,0,0,0,.43.29,1.89,1.89,0,0,0,.64.09,1.41,1.41,0,0,1,.54.11,1.21,1.21,0,0,1,.44.29,1.32,1.32,0,0,1,.3.44,1.3,1.3,0,0,1,.12.55,1.25,1.25,0,0,1-.12.54,1.37,1.37,0,0,1-.3.45,1.35,1.35,0,0,1-.44.29,1.41,1.41,0,0,1-.54.11,6.34,6.34,0,0,1-.94-.07,4,4,0,0,1-.73-.2,2.56,2.56,0,0,1-.57-.31,3,3,0,0,1-.47-.4c-.16.11-.33.21-.5.31s-.38.19-.61.28a5,5,0,0,1-1.14.29A8,8,0,0,1,190.89,207.18Z"/><path class="cls-4" d="M195.81,205.79a1.42,1.42,0,0,1,.4-1,1.51,1.51,0,0,1,.45-.29,1.41,1.41,0,0,1,.54-.11h.15a3.5,3.5,0,0,0,1.84-.39,1.31,1.31,0,0,0,.63-1.19v-.28a1.26,1.26,0,0,0,0-.32,4.46,4.46,0,0,0-.12-.52c-.05-.21-.14-.51-.25-.88l2.51-.61a10,10,0,0,1,.32,1.18,7.08,7.08,0,0,1,.14,1.43,3.27,3.27,0,0,0,0,.53,1.61,1.61,0,0,0,.16.51,1,1,0,0,0,.3.39.73.73,0,0,0,.48.15,1.4,1.4,0,0,1,.53.11,1.35,1.35,0,0,1,.44.29,1.52,1.52,0,0,1,.31.44,1.46,1.46,0,0,1,.11.55,1.24,1.24,0,0,1-.11.54,1.37,1.37,0,0,1-.3.45,1.6,1.6,0,0,1-.44.29,1.41,1.41,0,0,1-.54.11,3.67,3.67,0,0,1-1.44-.25,3.21,3.21,0,0,1-1-.64,4.43,4.43,0,0,1-1.51.67,8.37,8.37,0,0,1-2.07.22h-.15a1.41,1.41,0,0,1-.54-.11,1.27,1.27,0,0,1-.74-.74A1.41,1.41,0,0,1,195.81,205.79Zm4.81-10.92,1.95,1.95-1.95,2-2-2Z"/><path class="cls-4" d="M201.57,205.79a1.29,1.29,0,0,1,.11-.55,1.46,1.46,0,0,1,.29-.44,1.21,1.21,0,0,1,.44-.29,1.42,1.42,0,0,1,.55-.11h1.39l.87,0c.32,0,.62-.07.91-.12a4.23,4.23,0,0,0,.8-.21,1.16,1.16,0,0,0,.52-.35.69.69,0,0,0,.1-.41,2.75,2.75,0,0,0-.18-.89,10.25,10.25,0,0,0-.43-1.06c-.16-.35-.33-.69-.5-1l-.42-.82,2.5-1.23a7.85,7.85,0,0,1,.53,1.12c.17.43.32.87.46,1.33s.24.9.32,1.33a5.76,5.76,0,0,1,.13,1.14,4.07,4.07,0,0,1-.32,1.62,3.71,3.71,0,0,1-1,1.37,4.11,4.11,0,0,1-1.54.8,5.61,5.61,0,0,1-.66.11l-.8.07-.76,0H203a1.42,1.42,0,0,1-.55-.11,1.35,1.35,0,0,1-.44-.29,1.51,1.51,0,0,1-.29-.45A1.24,1.24,0,0,1,201.57,205.79Zm8.49,4.28-1.68,1.69-1.67-1.67-1.66,1.66-1.7-1.7,1.69-1.7,1.67,1.67,1.65-1.65Z"/><path class="cls-4" d="M215.91,207.18a5.6,5.6,0,0,1-1.85-.27,3.54,3.54,0,0,1-1.34-.82,3,3,0,0,1-.54-.74,4.08,4.08,0,0,1-.27-.76,4.66,4.66,0,0,1-.1-.71c0-.22,0-.41,0-.57v-.13c0-.22,0-.53,0-.94s0-.88,0-1.43,0-1.16,0-1.82,0-1.32-.05-2-.07-1.29-.11-1.9a14.09,14.09,0,0,0-.21-1.59l2.63-.8c.07.38.13.84.18,1.36s.09,1.08.12,1.65.05,1.15.07,1.73,0,1.12,0,1.62a10.7,10.7,0,0,1-.05,1.28q-.06.63-.09,1.23a11.41,11.41,0,0,0,0,1.17,3.88,3.88,0,0,0,.25,1.11.74.74,0,0,0,.19.3.85.85,0,0,0,.28.16,1.23,1.23,0,0,0,.35,0h.49a1.25,1.25,0,0,1,.54.12,1.23,1.23,0,0,1,.44.3,1.52,1.52,0,0,1,.31.44,1.38,1.38,0,0,1,0,1.08,1.57,1.57,0,0,1-.31.45,1.35,1.35,0,0,1-.44.29A1.41,1.41,0,0,1,215.91,207.18Z"/><path class="cls-4" d="M227.59,205.79a1.32,1.32,0,0,1-.41,1,1.4,1.4,0,0,1-1,.42h0a2.29,2.29,0,0,1-1.79-.76,2.49,2.49,0,0,1-1.84.72,9,9,0,0,1-3.75-1.3,2,2,0,0,1-.6.68,3.12,3.12,0,0,1-.91.46,4.64,4.64,0,0,1-1.44.21,1.32,1.32,0,0,1-1-.4,1.38,1.38,0,0,1,0-2,1.32,1.32,0,0,1,1-.4,2.37,2.37,0,0,0,1.91-1.09,8,8,0,0,0,.62-1l.26-.53.13-.26.12-.25c.79-1.57,1.78-2.35,3-2.35a3.39,3.39,0,0,1,2.28.86,3.83,3.83,0,0,1,1.28,2.68v.08a.41.41,0,0,1,0,.12,5.23,5.23,0,0,0,.13.87,2.15,2.15,0,0,0,.23.6.48.48,0,0,0,.4.27,1.34,1.34,0,0,1,1,.4A1.32,1.32,0,0,1,227.59,205.79Zm-4.44-1.13c.19,0,.3-.29.34-.72a2.11,2.11,0,0,0-.26-1.23,2.37,2.37,0,0,0-.83-.87c-.36-.25-.64-.34-.83-.26s-.63.76-1.14,1.95C221.9,204.37,222.81,204.75,223.15,204.66Z"/><path class="cls-4" d="M224.83,205.79a1.42,1.42,0,0,1,.4-1,1.3,1.3,0,0,1,.44-.29,1.42,1.42,0,0,1,.55-.11h1.3l.68,0a3.61,3.61,0,0,0,.67-.1,2.26,2.26,0,0,0,.55-.22.8.8,0,0,0,.35-.38,1.33,1.33,0,0,0,.07-.47,2.84,2.84,0,0,0-.13-.64c-.08-.28-.19-.59-.32-.93s-.29-.7-.46-1.08-.34-.73-.52-1.06l2.52-1.25c.16.37.32.76.48,1.18s.31.84.44,1.26a12.51,12.51,0,0,1,.31,1.28,6.63,6.63,0,0,1,.12,1.22,4.07,4.07,0,0,1-.32,1.62,3.6,3.6,0,0,1-1,1.37,4.11,4.11,0,0,1-1.54.8,4.67,4.67,0,0,1-1,.18l-.9,0h-1.28a1.42,1.42,0,0,1-.55-.11,1.46,1.46,0,0,1-.44-.29,1.51,1.51,0,0,1-.29-.45A1.41,1.41,0,0,1,224.83,205.79Zm4.35-12.51,1.95,1.95-1.95,2-2-2Z"/><path class="cls-4" d="M237.56,210.66a14.79,14.79,0,0,0,2.26-.62,9.51,9.51,0,0,0,1.78-.83,6.14,6.14,0,0,0,1.28-1,3.31,3.31,0,0,0,.71-1l-.8,0c-.28,0-.51,0-.69,0a6,6,0,0,1-1.86-.45,3.44,3.44,0,0,1-1.35-1,3,3,0,0,1-.52-1,4.34,4.34,0,0,1-.15-1.16,6.22,6.22,0,0,1,.08-1,7.06,7.06,0,0,1,.25-.93,6.6,6.6,0,0,1,.37-.85,7.25,7.25,0,0,1,.46-.74,4,4,0,0,1,1.16-1,2.82,2.82,0,0,1,1.32-.34,3.59,3.59,0,0,1,2.68,1.3,7,7,0,0,1,.76,1.06,7.92,7.92,0,0,1,.56,1.26,7.65,7.65,0,0,1,.36,1.39,8.93,8.93,0,0,1,.12,1.47c0,.15,0,.3,0,.45s0,.3,0,.43a7.46,7.46,0,0,1-.46,1.93,7.06,7.06,0,0,1-.92,1.66,7.66,7.66,0,0,1-1.29,1.38A9.48,9.48,0,0,1,242,212.1a10.74,10.74,0,0,1-1.83.79,11.89,11.89,0,0,1-2,.47Zm4.3-9.19a.54.54,0,0,0-.41.12,1.84,1.84,0,0,0-.44.44,2.84,2.84,0,0,0-.35.61,1.74,1.74,0,0,0-.13.64.72.72,0,0,0,.16.49,1.35,1.35,0,0,0,.43.31,2,2,0,0,0,.57.19l.6.09h0l.53,0h1a10.53,10.53,0,0,0-.32-1,5.66,5.66,0,0,0-.41-.89,2.71,2.71,0,0,0-.54-.65A1.29,1.29,0,0,0,241.86,201.47Z"/><path class="cls-4" d="M189.69,231.65a6.22,6.22,0,0,1-2.15-.34,3.43,3.43,0,0,1-1.42-1,2.68,2.68,0,0,1-.45-.85,3.14,3.14,0,0,1-.13-.89,3.37,3.37,0,0,1,.06-.66,2.6,2.6,0,0,1,.15-.51,4.72,4.72,0,0,1,.87-1.29,7.45,7.45,0,0,1,1.07-1,7.82,7.82,0,0,1,1.1-.68c.37-.18.7-.33,1-.44l0-.42,0-.4,0-.56,2.74-.58c0,.05,0,.17,0,.37s0,.42.07.69,0,.55.09.85.06.58.08.84.05.5.07.69a2.9,2.9,0,0,1,0,.35c.09.72.17,1.31.23,1.78s.11.83.16,1.1.08.47.11.59a1.54,1.54,0,0,0,.07.24.7.7,0,0,0,.4.39,1.92,1.92,0,0,0,.71.11,1.4,1.4,0,0,1,.54.1,1.37,1.37,0,0,1,.44.3,1.23,1.23,0,0,1,.3.44,1.3,1.3,0,0,1,0,1.09,1.23,1.23,0,0,1-.3.44,1.55,1.55,0,0,1-.44.3,1.41,1.41,0,0,1-.54.11l-.41,0a4.35,4.35,0,0,1-.48-.05c-.17,0-.34-.06-.52-.11a3.82,3.82,0,0,1-.53-.2,3.41,3.41,0,0,1-.65-.4,3.27,3.27,0,0,1-.53-.57l-.86.09Zm-.06-2.76.38,0a2.47,2.47,0,0,0,.39,0c0-.2-.06-.42-.1-.66s-.06-.51-.09-.8l-.09-.8c-.22.11-.47.24-.74.4a7.41,7.41,0,0,0-.78.49,3.63,3.63,0,0,0-.61.53.77.77,0,0,0-.25.49c0,.08.07.14.2.19a2.51,2.51,0,0,0,.49.12,3.92,3.92,0,0,0,.61.07Z"/><path class="cls-4" d="M206.17,231.49a1.31,1.31,0,0,1-.4,1,1.41,1.41,0,0,1-1,.42h0a2.3,2.3,0,0,1-1.79-.76,2.5,2.5,0,0,1-1.84.72,9,9,0,0,1-3.75-1.3,2.07,2.07,0,0,1-.61.68,2.94,2.94,0,0,1-.9.46,4.64,4.64,0,0,1-1.44.21,1.37,1.37,0,0,1-1.39-1.38,1.32,1.32,0,0,1,.4-1,1.34,1.34,0,0,1,1-.4,2.37,2.37,0,0,0,1.91-1.09,9.26,9.26,0,0,0,.62-1l.26-.53.12-.26.13-.25c.79-1.57,1.77-2.35,3-2.35a3.34,3.34,0,0,1,2.28.86,3.78,3.78,0,0,1,1.27,2.68v.08a.37.37,0,0,1,0,.12,4.34,4.34,0,0,0,.12.87,2.51,2.51,0,0,0,.23.6.49.49,0,0,0,.41.27,1.38,1.38,0,0,1,1.38,1.39Zm-4.43-1.13c.19,0,.3-.29.33-.73a2.14,2.14,0,0,0-.25-1.23,2.53,2.53,0,0,0-.83-.87c-.37-.24-.65-.33-.83-.25s-.64.76-1.15,1.95C200.48,230.07,201.39,230.45,201.74,230.36Z"/><path class="cls-4" d="M203.42,231.49a1.42,1.42,0,0,1,.1-.55,1.23,1.23,0,0,1,.3-.44,1.37,1.37,0,0,1,.44-.3,1.4,1.4,0,0,1,.54-.1h.67c.42,0,.83,0,1.22,0a3.81,3.81,0,0,0,1-.23,1.69,1.69,0,0,0,.72-.48,1.23,1.23,0,0,0,.3-.83,1.69,1.69,0,0,0,0-.32,2,2,0,0,0,0-.31c0-.12-.08-.28-.13-.47s-.13-.48-.23-.83l2.55-.72a6.48,6.48,0,0,1,.31,1.11,15.09,15.09,0,0,1,.21,1.52,5.43,5.43,0,0,0,.06.55,2,2,0,0,0,.15.51,1.13,1.13,0,0,0,.27.4.69.69,0,0,0,.46.15,1.4,1.4,0,0,1,.54.1,1.4,1.4,0,0,1,.75.74,1.41,1.41,0,0,1,0,1.09,1.57,1.57,0,0,1-.31.45,1.46,1.46,0,0,1-.44.29,1.36,1.36,0,0,1-.53.11,3.72,3.72,0,0,1-1.45-.26,3.55,3.55,0,0,1-1-.68,3.5,3.5,0,0,1-.91.44,7.25,7.25,0,0,1-1.09.29c-.39.07-.79.12-1.2.16s-.81,0-1.21,0h-.67a1.41,1.41,0,0,1-.54-.11,1.35,1.35,0,0,1-.44-.29,1.37,1.37,0,0,1-.3-.45A1.4,1.4,0,0,1,203.42,231.49Zm8.4,4.54-1.68,1.69-1.67-1.66-1.65,1.65-1.71-1.7,1.69-1.69,1.67,1.67,1.65-1.66Z"/><path class="cls-4" d="M211,231.49a1.42,1.42,0,0,1,.11-.55,1.35,1.35,0,0,1,.29-.44,1.49,1.49,0,0,1,.44-.3,1.45,1.45,0,0,1,.55-.1h1.3l.68,0a3.48,3.48,0,0,0,.67-.1,2.11,2.11,0,0,0,.55-.22.85.85,0,0,0,.35-.38,1.16,1.16,0,0,0,.07-.47,2.6,2.6,0,0,0-.12-.64q-.13-.42-.33-.93c-.13-.34-.29-.7-.46-1.08s-.34-.73-.51-1.06l2.51-1.25c.16.37.32.76.49,1.18s.3.84.43,1.26a12.51,12.51,0,0,1,.31,1.28,6.63,6.63,0,0,1,.12,1.22,4.07,4.07,0,0,1-.32,1.62,3.68,3.68,0,0,1-1,1.37,4,4,0,0,1-1.53.79,4.9,4.9,0,0,1-1,.18c-.33,0-.63,0-.91,0h-1.28a1.42,1.42,0,0,1-1-.4,1.51,1.51,0,0,1-.29-.45A1.41,1.41,0,0,1,211,231.49Zm4,2.18,1.95,2-1.95,2-2-2Z"/><path class="cls-3" d="M299.12,334.94c-.4,0-.81,0-1.24-.06a6.93,6.93,0,0,1-1.26-.22,5.56,5.56,0,0,1-1.2-.44,4.56,4.56,0,0,1-1.08-.73,5,5,0,0,1-.87-1,5.82,5.82,0,0,1-.6-1.13,6.43,6.43,0,0,1-.36-1.25,7.2,7.2,0,0,1-.12-1.32,9.62,9.62,0,0,1,.47-2.91,11.2,11.2,0,0,1,1.36-2.84l2,1.43a3.72,3.72,0,0,0-.41.71,10.34,10.34,0,0,0-.83,2.36,6.22,6.22,0,0,0-.15,1.32,2.69,2.69,0,0,0,.33,1.32,3.26,3.26,0,0,0,.88,1,4.07,4.07,0,0,0,1.26.65,5,5,0,0,0,1.49.26A6,6,0,0,0,300,332a5,5,0,0,0,1.12-.33,5,5,0,0,0,1-.54,3.87,3.87,0,0,0,.75-.7,3,3,0,0,0,.47-.85,2.36,2.36,0,0,0,.14-1,4.28,4.28,0,0,0-.14-.85,9.75,9.75,0,0,0-.3-1c-.11-.33-.23-.66-.37-1l-.39-.89c-.12-.27-.22-.51-.31-.7a3.4,3.4,0,0,1-.17-.4l2.39-1.32a2.18,2.18,0,0,1,.15.31c.09.19.19.43.31.73s.25.63.38,1,.27.78.39,1.2.22.84.31,1.26a9.63,9.63,0,0,1,.17,1.22v.35a6.76,6.76,0,0,1-.17,1.55,6.39,6.39,0,0,1-.54,1.48,5.85,5.85,0,0,1-.92,1.31,5.59,5.59,0,0,1-1.29,1.05,6.87,6.87,0,0,1-1.7.69A8.06,8.06,0,0,1,299.12,334.94Zm0-14.5,1.95,1.95-1.95,1.95-1.95-1.95Z"/><path class="cls-3" d="M307.27,328.91c0-.48.06-1,.09-1.49s.05-1,.07-1.53,0-1,0-1.47,0-.91,0-1.3c0-.84-.07-1.57-.1-2.2s-.06-1.18-.1-1.67-.06-.91-.09-1.28-.07-.7-.1-1-.08-.59-.12-.86-.08-.54-.13-.83l2.72-.9c.12.79.23,1.58.31,2.38s.14,1.55.18,2.28.07,1.41.08,2,0,1.16,0,1.61V324c0,.46,0,.95,0,1.45s0,1,0,1.53,0,1-.08,1.51Z"/><path class="cls-3" d="M315.83,322.45c.23.63.42,1.25.58,1.85l.21.82c.07.29.14.57.19.86s.1.56.14.83a7.07,7.07,0,0,1,.05.76,5.79,5.79,0,0,1-.22,1.61,7,7,0,0,1-.64,1.53,9.17,9.17,0,0,1-1,1.42,11.41,11.41,0,0,1-1.24,1.27,13.47,13.47,0,0,1-1.47,1.11,13,13,0,0,1-1.62.93l-1.6-2.22a13.75,13.75,0,0,0,1.28-.72,13.56,13.56,0,0,0,1.24-.85,13.21,13.21,0,0,0,1.11-1,8.22,8.22,0,0,0,.89-1,5.18,5.18,0,0,0,.61-1.05,2.82,2.82,0,0,0,.22-1,3.41,3.41,0,0,0-.11-.8,6.72,6.72,0,0,0-.27-.93c-.11-.33-.25-.68-.41-1.05s-.32-.77-.51-1.19Z"/><path class="cls-3" d="M318.27,328.91c0-.48.06-1,.09-1.49s.06-1,.08-1.53,0-1,0-1.47,0-.91,0-1.3c0-.84-.07-1.57-.1-2.2s-.07-1.18-.1-1.67-.06-.91-.09-1.28-.07-.7-.11-1-.07-.59-.11-.86-.09-.54-.13-.83l2.71-.9c.13.79.24,1.58.31,2.38s.14,1.55.18,2.28.07,1.41.09,2,0,1.16,0,1.61V324c0,.46,0,.95,0,1.45s0,1,0,1.53-.05,1-.08,1.51Z"/><path class="cls-3" d="M326.57,328.89a6.14,6.14,0,0,1-2.26-.44,5.9,5.9,0,0,1-2-1.42l1.59-2.24a5.62,5.62,0,0,0,.84.65,4,4,0,0,0,.77.39,3.51,3.51,0,0,0,.7.19,3.42,3.42,0,0,0,.62.06h.3l.33,0,.33-.06a1.15,1.15,0,0,0,.28-.09,4.37,4.37,0,0,0,.73-.38c-.23-.54-.47-1.1-.73-1.69s-.52-1.17-.79-1.75l-.78-1.76c-.26-.58-.5-1.13-.72-1.67l2.57-1.07.78,1.9.9,2.21c.36.85.76,1.82,1.22,2.89.1.26.2.49.29.68a1.53,1.53,0,0,0,.31.48,1.06,1.06,0,0,0,.43.29,1.93,1.93,0,0,0,.64.09,1.41,1.41,0,0,1,.54.11,1.35,1.35,0,0,1,.44.29,1.57,1.57,0,0,1,.31.45,1.38,1.38,0,0,1,0,1.08,1.57,1.57,0,0,1-.31.45,1.35,1.35,0,0,1-.44.29,1.41,1.41,0,0,1-.54.11,6.45,6.45,0,0,1-.94-.07,4.26,4.26,0,0,1-.73-.2,3.09,3.09,0,0,1-.57-.31,3.55,3.55,0,0,1-.47-.4c-.16.11-.33.21-.5.31s-.38.19-.61.28a5.67,5.67,0,0,1-1.13.3A9.4,9.4,0,0,1,326.57,328.89Zm.67-16.21,1.95,1.95-1.95,1.95-1.95-1.95Z"/><path class="cls-3" d="M331.39,327.51a1.38,1.38,0,0,1,.11-.55,1.37,1.37,0,0,1,.3-.45,1.56,1.56,0,0,1,.46-.29,1.66,1.66,0,0,1,.61-.11h2a10,10,0,0,0,1.11-.09,4.92,4.92,0,0,0,.95-.22,1.22,1.22,0,0,0,.62-.42,1.61,1.61,0,0,0,.27-.92,2.07,2.07,0,0,0,0-.35c0-.12-.05-.25-.08-.38a2.29,2.29,0,0,0-.26-.53,6.13,6.13,0,0,0-.5-.68c-.21-.25-.44-.52-.71-.79s-.54-.57-.84-.86-.61-.58-.94-.86-.65-.57-1-.84l.27-2.39,7.38-3.28,1.06,2.35-5.83,2.71a9.84,9.84,0,0,1,.89.71,12.5,12.5,0,0,1,.88.9,11.46,11.46,0,0,1,.81,1,9.93,9.93,0,0,1,.66,1.12,6.47,6.47,0,0,1,.44,1.15,4.11,4.11,0,0,1,.16,1.13,4.8,4.8,0,0,1-.18,1.23,5.19,5.19,0,0,1-.41,1,4,4,0,0,1-3,2h0l-.44.06-.42,0h-2.83a1.64,1.64,0,0,1-.6-.11,1.49,1.49,0,0,1-.47-.29,1.32,1.32,0,0,1-.3-.44A1.41,1.41,0,0,1,331.39,327.51Zm9.35-14.94-7.28,3.08.07-1.32,6.72-2.8Z"/><path class="cls-3" d="M351.79,327.66a6,6,0,0,1-2.15-.34,3.48,3.48,0,0,1-1.42-.95,2.7,2.7,0,0,1-.44-.86,3.16,3.16,0,0,1-.14-.88,3.4,3.4,0,0,1,.06-.67,2.6,2.6,0,0,1,.15-.51,5.41,5.41,0,0,1,.87-1.29,7.31,7.31,0,0,1,1.07-1,6.63,6.63,0,0,1,1.11-.68,8.88,8.88,0,0,1,1-.45,2.83,2.83,0,0,1,0-.41c0-.15,0-.28,0-.41l0-.55,2.74-.59c0,.05,0,.17,0,.37s.05.42.07.69.06.55.09.85.06.58.09.85.05.49.07.68,0,.31,0,.35c.08.72.16,1.32.22,1.78s.11.83.16,1.1.08.47.11.59a1.54,1.54,0,0,0,.07.24.73.73,0,0,0,.4.39,2,2,0,0,0,.71.11,1.41,1.41,0,0,1,.54.11,1.35,1.35,0,0,1,.44.29,1.57,1.57,0,0,1,.31.45,1.38,1.38,0,0,1,0,1.08,1.4,1.4,0,0,1-.31.44,1.37,1.37,0,0,1-.44.3,1.41,1.41,0,0,1-.54.11l-.41,0a2.8,2.8,0,0,1-.48-.05,3.73,3.73,0,0,1-.52-.11,4.36,4.36,0,0,1-.53-.2,3.32,3.32,0,0,1-.64-.4,2.93,2.93,0,0,1-.53-.57l-.87.09Zm-.05-2.76h.38l.38,0c0-.2-.06-.43-.09-.67s-.07-.51-.09-.79l-.09-.81c-.23.11-.47.24-.75.4s-.53.32-.78.49a4.07,4.07,0,0,0-.61.53.77.77,0,0,0-.24.49c0,.08.06.14.19.19a3.8,3.8,0,0,0,.49.13,5.92,5.92,0,0,0,.62.06Z"/><path class="cls-3" d="M368.28,327.5a1.34,1.34,0,0,1-.41,1,1.43,1.43,0,0,1-1,.41h0a2.29,2.29,0,0,1-1.79-.76,2.49,2.49,0,0,1-1.84.72,9,9,0,0,1-3.75-1.3,1.93,1.93,0,0,1-.6.68,3.12,3.12,0,0,1-.91.46,4.35,4.35,0,0,1-1.44.22,1.33,1.33,0,0,1-1-.41,1.38,1.38,0,0,1,0-2,1.32,1.32,0,0,1,1-.4,2.34,2.34,0,0,0,1.91-1.09,7.32,7.32,0,0,0,.62-1l.26-.53.13-.26.12-.25c.79-1.57,1.78-2.35,3-2.35a3.39,3.39,0,0,1,2.28.86,3.83,3.83,0,0,1,1.28,2.68v.08a.45.45,0,0,1,0,.12,5.23,5.23,0,0,0,.13.87,2.54,2.54,0,0,0,.22.6.51.51,0,0,0,.41.27,1.42,1.42,0,0,1,1.39,1.39Zm-4.44-1.12c.19-.05.3-.29.33-.73a2,2,0,0,0-.25-1.23,2.37,2.37,0,0,0-.83-.87c-.36-.25-.64-.33-.83-.26s-.63.76-1.14,1.95C362.59,326.09,363.5,326.46,363.84,326.38Z"/><path class="cls-3" d="M365.52,327.5a1.36,1.36,0,0,1,.4-1,1.35,1.35,0,0,1,.44-.29,1.42,1.42,0,0,1,.55-.11h.66c.43,0,.83,0,1.22-.05a4.24,4.24,0,0,0,1-.22,1.92,1.92,0,0,0,.73-.49,1.28,1.28,0,0,0,.29-.83c0-.13,0-.23,0-.32a2.43,2.43,0,0,0-.05-.31c0-.12-.07-.27-.13-.47s-.13-.47-.23-.83l2.55-.72a5.68,5.68,0,0,1,.31,1.11,11.15,11.15,0,0,1,.21,1.52,5.43,5.43,0,0,0,.06.55,2.1,2.1,0,0,0,.15.52,1,1,0,0,0,.28.39.66.66,0,0,0,.45.15,1.42,1.42,0,0,1,.55.11,1.35,1.35,0,0,1,.44.29,1.41,1.41,0,0,1,0,2,1.51,1.51,0,0,1-.45.29,1.32,1.32,0,0,1-.53.11,3.67,3.67,0,0,1-1.44-.26,3.58,3.58,0,0,1-1-.67,4.05,4.05,0,0,1-.91.44,8.25,8.25,0,0,1-1.09.28,11.37,11.37,0,0,1-1.19.16c-.41,0-.82.05-1.22.05h-.66a1.42,1.42,0,0,1-.55-.11,1.35,1.35,0,0,1-.44-.29,1.36,1.36,0,0,1-.4-1Zm8.41,4.54-1.69,1.7-1.67-1.67-1.65,1.65-1.71-1.7,1.69-1.69,1.67,1.67,1.65-1.65Z"/><path class="cls-3" d="M373.07,327.5a1.37,1.37,0,0,1,.11-.54,1.54,1.54,0,0,1,.3-.45,1.35,1.35,0,0,1,.44-.29,1.41,1.41,0,0,1,.54-.11h1.3l.68,0a4.46,4.46,0,0,0,.67-.11,2.11,2.11,0,0,0,.55-.22.8.8,0,0,0,.35-.38,1.13,1.13,0,0,0,.07-.47,2.54,2.54,0,0,0-.12-.63,9,9,0,0,0-.33-.94q-.19-.51-.45-1.08c-.17-.37-.35-.72-.52-1.06l2.51-1.25c.16.37.33.77.49,1.18s.3.84.43,1.27a9.78,9.78,0,0,1,.31,1.27,6.63,6.63,0,0,1,.12,1.22,4.15,4.15,0,0,1-.31,1.63,3.87,3.87,0,0,1-1,1.36,4.11,4.11,0,0,1-1.54.8,4.78,4.78,0,0,1-1,.18l-.91,0h-1.28a1.41,1.41,0,0,1-.54-.11,1.35,1.35,0,0,1-.44-.29,1.54,1.54,0,0,1-.3-.45A1.37,1.37,0,0,1,373.07,327.5Zm4,2.19,1.95,1.95-1.95,1.95-1.95-1.95Z"/><path class="cls-3" d="M312.21,364.44a16.34,16.34,0,0,1-1.68-.09,9.17,9.17,0,0,1-1.67-.35,6.09,6.09,0,0,1-1.5-.72,3.81,3.81,0,0,1-1.16-1.2,5.81,5.81,0,0,1-.7-1.56,7,7,0,0,1-.24-1.91q0-.76.06-1.47a13.15,13.15,0,0,1,.21-1.38,12.37,12.37,0,0,1,.36-1.39c.15-.47.33-1,.54-1.49l2.26.94c-.17.42-.31.8-.43,1.14s-.23.65-.31.93-.14.53-.19.76-.08.46-.11.68,0,.42,0,.63,0,.43,0,.65a2.91,2.91,0,0,0,.21,1.15,2.37,2.37,0,0,0,.57.81,2.93,2.93,0,0,0,.83.55,5.65,5.65,0,0,0,1,.33,7.34,7.34,0,0,0,1,.16c.35,0,.68,0,1,0l.68,0c.3,0,.62-.05,1-.1s.72-.12,1.09-.2a6.35,6.35,0,0,0,1-.3,2.43,2.43,0,0,0,.75-.43A.73.73,0,0,0,317,360s-.05-.07-.15-.13l-.39-.2-.58-.27-.71-.29h0a7.54,7.54,0,0,0-.88-.22c-.31-.07-.61-.12-.91-.17l-.18,0-.23,0-.22-.05-.18,0,.36-2.68H320a1.4,1.4,0,0,1,.53.11,1.51,1.51,0,0,1,.45.29,1.77,1.77,0,0,1,.3.45,1.24,1.24,0,0,1,.11.54,1.26,1.26,0,0,1-.11.55,1.71,1.71,0,0,1-.3.44,1.54,1.54,0,0,1-.45.3,1.61,1.61,0,0,1-.53.1h-1a3.24,3.24,0,0,1,.27.71,2.5,2.5,0,0,1,.09.61,3.23,3.23,0,0,1-.42,1.47,4.17,4.17,0,0,1-1,1.14,6.36,6.36,0,0,1-1.33.83,9.7,9.7,0,0,1-1.53.56,11.05,11.05,0,0,1-1.54.31A10.2,10.2,0,0,1,312.21,364.44Z"/><path class="cls-3" d="M318.68,357.32a1.41,1.41,0,0,1,.11-.54,1.51,1.51,0,0,1,.29-.45,1.46,1.46,0,0,1,.44-.29,1.42,1.42,0,0,1,.55-.11h1.3c.21,0,.44,0,.68,0a3.61,3.61,0,0,0,.67-.11,1.92,1.92,0,0,0,.55-.22.8.8,0,0,0,.35-.38,1.33,1.33,0,0,0,.07-.47,2.68,2.68,0,0,0-.13-.63c-.08-.28-.19-.59-.32-.94s-.29-.7-.46-1.07-.34-.73-.52-1.07l2.52-1.24c.16.36.32.76.48,1.17s.31.84.44,1.27a11.91,11.91,0,0,1,.31,1.28,6.52,6.52,0,0,1,.12,1.21,4.12,4.12,0,0,1-.32,1.63,3.65,3.65,0,0,1-1,1.36,4.11,4.11,0,0,1-1.54.8,4.67,4.67,0,0,1-1,.18l-.9,0h-1.28a1.63,1.63,0,0,1-.55-.1,1.49,1.49,0,0,1-.44-.3,1.46,1.46,0,0,1-.29-.44A1.42,1.42,0,0,1,318.68,357.32ZM323,344.81l2,1.95-2,1.95-1.95-1.95Z"/><path class="cls-3" d="M331.83,358.71a5.6,5.6,0,0,1-1.85-.27,3.54,3.54,0,0,1-1.34-.82,2.86,2.86,0,0,1-.54-.74,2.89,2.89,0,0,1-.27-.76,3.69,3.69,0,0,1-.1-.7c0-.23,0-.42,0-.58v-.13c0-.21,0-.53,0-.93s0-.89,0-1.44,0-1.16,0-1.82,0-1.32,0-2-.07-1.29-.12-1.9-.12-1.14-.2-1.59l2.62-.8a13,13,0,0,1,.19,1.37c0,.52.08,1.07.11,1.64s.06,1.15.08,1.73,0,1.12,0,1.62,0,.87-.05,1.29-.07.83-.09,1.23a7.62,7.62,0,0,0,0,1.17,4.25,4.25,0,0,0,.24,1.1.79.79,0,0,0,.2.31.69.69,0,0,0,.28.15,1.72,1.72,0,0,0,.34.06h.5a1.17,1.17,0,0,1,.53.11,1.61,1.61,0,0,1,.45.3,1.37,1.37,0,0,1,.3.45,1.21,1.21,0,0,1,.12.53,1.26,1.26,0,0,1-.12.55,1.32,1.32,0,0,1-.3.44,1.42,1.42,0,0,1-.45.3A1.51,1.51,0,0,1,331.83,358.71Z"/><path class="cls-3" d="M330.43,357.32a1.32,1.32,0,0,1,.11-.53,1.17,1.17,0,0,1,.29-.43,1.28,1.28,0,0,1,.43-.3,1.94,1.94,0,0,1,.54-.13,2.23,2.23,0,0,0,1-.22,3,3,0,0,0,.76-.6,4.19,4.19,0,0,0,.6-.83c.18-.3.34-.61.5-.91h0c.15-.32.32-.63.49-.94a5.83,5.83,0,0,1,.57-.86,3.44,3.44,0,0,1,1.06-.86,2.72,2.72,0,0,1,1.26-.3,3.23,3.23,0,0,1,1.43.32,4.11,4.11,0,0,1,1.18.93,4.35,4.35,0,0,1,.64,1.09,5.08,5.08,0,0,1,.32,1.29h0a4.65,4.65,0,0,1,.05.78,4.8,4.8,0,0,1-.08.93,5.57,5.57,0,0,1-.23.85,3.38,3.38,0,0,1-.83,1.24,3,3,0,0,1-1.18.68,2.12,2.12,0,0,1-.41.08l-.44,0a4.3,4.3,0,0,1-.84-.09,7.25,7.25,0,0,1-.87-.27l-.4-.19-.46-.24-.48-.27-.44-.27c-.23.21-.46.41-.7.59a4.25,4.25,0,0,1-.74.44,3.62,3.62,0,0,1-.82.29,4.1,4.1,0,0,1-1,.1,1.41,1.41,0,0,1-.54-.11,1.31,1.31,0,0,1-.73-.73A1.42,1.42,0,0,1,330.43,357.32Zm6.23-2.31a4.34,4.34,0,0,0,.65.34,6.74,6.74,0,0,0,.74.3c.24.09.47.16.68.22a2.27,2.27,0,0,0,.47.08h.07l.09,0c.07,0,.14-.1.2-.26a1.78,1.78,0,0,0-.08-1.29,3.09,3.09,0,0,0-.41-.63,2.3,2.3,0,0,0-.59-.49,1.3,1.3,0,0,0-.67-.2c-.08,0-.19.12-.32.35s-.31.59-.56,1h0Z"/><path class="cls-3" d="M346.77,352.27c.22.63.42,1.25.58,1.85.07.27.14.54.21.83s.14.56.19.85.1.56.14.83a7.07,7.07,0,0,1,.05.76,5.79,5.79,0,0,1-.22,1.61,6.8,6.8,0,0,1-.64,1.53,9.17,9.17,0,0,1-1,1.42,11.49,11.49,0,0,1-1.24,1.28,16.62,16.62,0,0,1-1.47,1.11,14.37,14.37,0,0,1-1.62.92l-1.6-2.22a13.75,13.75,0,0,0,1.28-.72c.43-.26.84-.55,1.24-.85a13,13,0,0,0,1.11-1,7.56,7.56,0,0,0,.89-1,4.69,4.69,0,0,0,.61-1.05,2.82,2.82,0,0,0,.22-1,3.48,3.48,0,0,0-.11-.8,6.61,6.61,0,0,0-.27-.92c-.11-.34-.25-.69-.41-1.06l-.51-1.19Zm-1.51-5.34,1.95,1.95-1.95,1.95-1.95-1.95Z"/><path class="cls-3" d="M353.65,358.71a5.6,5.6,0,0,1-1.85-.27,3.54,3.54,0,0,1-1.34-.82,2.86,2.86,0,0,1-.54-.74,3.3,3.3,0,0,1-.27-.76,3.69,3.69,0,0,1-.1-.7c0-.23,0-.42,0-.58v-.13c0-.21,0-.53,0-.93s0-.89,0-1.44v-1.82c0-.66,0-1.32-.05-2s-.07-1.29-.12-1.9-.12-1.14-.2-1.59l2.62-.8a13,13,0,0,1,.19,1.37c0,.52.08,1.07.12,1.64s.05,1.15.07,1.73,0,1.12,0,1.62,0,.87-.05,1.29-.07.83-.09,1.23a7.62,7.62,0,0,0,0,1.17,4.25,4.25,0,0,0,.24,1.1.92.92,0,0,0,.2.31.69.69,0,0,0,.28.15,1.72,1.72,0,0,0,.34.06h.5a1.24,1.24,0,0,1,.54.11,1.71,1.71,0,0,1,.44.3,1.37,1.37,0,0,1,.3.45,1.21,1.21,0,0,1,.12.53,1.26,1.26,0,0,1-.12.55,1.32,1.32,0,0,1-.3.44,1.49,1.49,0,0,1-.44.3A1.62,1.62,0,0,1,353.65,358.71Z"/><path class="cls-3" d="M352.3,357.33a1.34,1.34,0,0,1,.1-.52,1.6,1.6,0,0,1,.28-.43,1.43,1.43,0,0,1,.42-.31,1.48,1.48,0,0,1,.52-.14,1.71,1.71,0,0,0,1.11-.35,3,3,0,0,0,.77-.94,6.17,6.17,0,0,0,.56-1.32c.15-.49.29-1,.43-1.51l2.33.42c0,.2-.1.44-.17.71l-.18.85c-.06.29-.1.58-.14.86a3.69,3.69,0,0,0,0,.73,1.09,1.09,0,0,0,.16.5.39.39,0,0,0,.41.13,1.14,1.14,0,0,0,.63-.24,2.2,2.2,0,0,0,.52-.57,3.71,3.71,0,0,0,.4-.77,7.76,7.76,0,0,0,.31-.89q.12-.45.21-.9c.05-.3.1-.57.13-.82l2.23.38a4.34,4.34,0,0,1-.06.65q0,.39-.09.81a8.27,8.27,0,0,0-.05.86,2.59,2.59,0,0,0,.1.76,1.12,1.12,0,0,0,.32.55.89.89,0,0,0,.63.21,1.8,1.8,0,0,0,.5-.08,1.61,1.61,0,0,0,.45-.24,1.06,1.06,0,0,0,.33-.37.83.83,0,0,0,.13-.47,3.92,3.92,0,0,0-.15-1c-.1-.36-.22-.73-.36-1.09s-.29-.7-.44-1-.29-.59-.39-.82l2.18-1.22c0,.08.09.21.18.4s.19.42.3.69.23.58.35.91.23.69.33,1a10.62,10.62,0,0,1,.24,1.12,6.08,6.08,0,0,1,.1,1.1,4.92,4.92,0,0,1-.24,1.59,3.22,3.22,0,0,1-.73,1.19,3.29,3.29,0,0,1-1.22.76,5,5,0,0,1-1.72.29,3.28,3.28,0,0,1-.86-.1,2.89,2.89,0,0,1-.7-.25,3.06,3.06,0,0,1-.54-.38,2.69,2.69,0,0,1-.43-.47,3.54,3.54,0,0,1-.45.49,2.47,2.47,0,0,1-.56.37,3.29,3.29,0,0,1-.69.24,4.63,4.63,0,0,1-.88.1,3.12,3.12,0,0,1-.78-.08,2.35,2.35,0,0,1-.64-.24,2.48,2.48,0,0,1-.52-.38,4.25,4.25,0,0,1-.44-.5,2.83,2.83,0,0,1-.42.43,2.53,2.53,0,0,1-.56.34,3.67,3.67,0,0,1-.75.24,5.05,5.05,0,0,1-1,.09h-.15a1.47,1.47,0,0,1-.52-.13,1.39,1.39,0,0,1-.7-.73A1.35,1.35,0,0,1,352.3,357.33Z"/><path class="cls-3" d="M30,334.94c-.4,0-.81,0-1.24-.06a6.93,6.93,0,0,1-1.26-.22,5.76,5.76,0,0,1-1.2-.44,4.56,4.56,0,0,1-1.08-.73,5,5,0,0,1-.87-1,5.82,5.82,0,0,1-.6-1.13,6.43,6.43,0,0,1-.36-1.25,7.2,7.2,0,0,1-.11-1.32,9.6,9.6,0,0,1,.46-2.91,11.2,11.2,0,0,1,1.36-2.84l2,1.43a3.72,3.72,0,0,0-.41.71,10.34,10.34,0,0,0-.83,2.36,6.22,6.22,0,0,0-.15,1.32,2.69,2.69,0,0,0,.33,1.32,3.26,3.26,0,0,0,.88,1,4.18,4.18,0,0,0,1.26.65,5,5,0,0,0,1.49.26,6.15,6.15,0,0,0,1.22-.11,5.09,5.09,0,0,0,1.11-.33,5,5,0,0,0,1-.54,3.87,3.87,0,0,0,.75-.7,2.74,2.74,0,0,0,.47-.85,2.36,2.36,0,0,0,.14-1,4.28,4.28,0,0,0-.14-.85c-.08-.32-.18-.64-.29-1s-.24-.66-.38-1l-.39-.89c-.12-.27-.22-.51-.31-.7s-.14-.33-.17-.4L35,322.53a3.12,3.12,0,0,1,.16.31l.3.73c.12.29.25.63.39,1s.26.78.38,1.2.22.84.31,1.26a9.63,9.63,0,0,1,.17,1.22c0,.05,0,.11,0,.18v.17a6.77,6.77,0,0,1-.18,1.55,6.39,6.39,0,0,1-.54,1.48,6.15,6.15,0,0,1-.91,1.31,5.86,5.86,0,0,1-1.3,1.05,6.87,6.87,0,0,1-1.7.69A8.06,8.06,0,0,1,30,334.94Zm0-14.5,1.95,1.95L30,324.34,28,322.39Z"/><path class="cls-3" d="M38.11,328.91c0-.48.06-1,.09-1.49s0-1,.07-1.53,0-1,0-1.47,0-.91,0-1.3c0-.84-.07-1.57-.1-2.2s-.06-1.18-.09-1.67S38,318.34,38,318s-.07-.7-.1-1-.08-.59-.12-.86-.08-.54-.13-.83l2.72-.9c.12.79.23,1.58.31,2.38s.14,1.55.18,2.28.07,1.41.08,2,0,1.16,0,1.61V324c0,.46,0,.95,0,1.45s0,1,0,1.53,0,1-.08,1.51Z"/><path class="cls-3" d="M46.67,322.45c.23.63.42,1.25.58,1.85l.21.82c.07.29.14.57.19.86s.1.56.14.83a7.07,7.07,0,0,1,.05.76,5.79,5.79,0,0,1-.22,1.61,7.48,7.48,0,0,1-.63,1.53,10,10,0,0,1-1,1.42,11.41,11.41,0,0,1-1.24,1.27,13.47,13.47,0,0,1-1.47,1.11,13,13,0,0,1-1.62.93l-1.6-2.22a13.75,13.75,0,0,0,1.28-.72,13.56,13.56,0,0,0,1.24-.85,13.21,13.21,0,0,0,1.11-1,8.22,8.22,0,0,0,.89-1,5.18,5.18,0,0,0,.61-1.05,2.82,2.82,0,0,0,.22-1,3.41,3.41,0,0,0-.11-.8,6.72,6.72,0,0,0-.27-.93c-.11-.33-.25-.68-.41-1.05s-.32-.77-.51-1.19Z"/><path class="cls-3" d="M49.12,328.91c0-.48.05-1,.08-1.49s.06-1,.08-1.53,0-1,0-1.47,0-.91,0-1.3c0-.84-.07-1.57-.1-2.2s-.07-1.18-.1-1.67S49,318.34,49,318s-.07-.7-.11-1-.07-.59-.11-.86-.08-.54-.13-.83l2.71-.9c.13.79.24,1.58.32,2.38s.13,1.55.18,2.28.06,1.41.08,2,0,1.16,0,1.61V324c0,.46,0,.95,0,1.45s0,1,0,1.53,0,1-.08,1.51Z"/><path class="cls-3" d="M57.41,328.89a6.14,6.14,0,0,1-2.26-.44,5.9,5.9,0,0,1-2-1.42l1.59-2.24a5.62,5.62,0,0,0,.84.65,4,4,0,0,0,.77.39,3.51,3.51,0,0,0,.7.19,3.42,3.42,0,0,0,.62.06h.3l.33,0,.33-.06a1.4,1.4,0,0,0,.29-.09,4.64,4.64,0,0,0,.72-.38c-.23-.54-.47-1.1-.73-1.69s-.52-1.17-.79-1.75l-.78-1.76c-.26-.58-.5-1.13-.72-1.67l2.57-1.07.78,1.9.9,2.21c.36.85.76,1.82,1.22,2.89.1.26.2.49.29.68a1.53,1.53,0,0,0,.31.48,1.06,1.06,0,0,0,.43.29,1.93,1.93,0,0,0,.64.09,1.41,1.41,0,0,1,.54.11,1.35,1.35,0,0,1,.44.29A1.57,1.57,0,0,1,65,327,1.38,1.38,0,0,1,65,328a1.57,1.57,0,0,1-.31.45,1.35,1.35,0,0,1-.44.29,1.41,1.41,0,0,1-.54.11,6.45,6.45,0,0,1-.94-.07,4.53,4.53,0,0,1-.73-.2,3.09,3.09,0,0,1-.57-.31,3.55,3.55,0,0,1-.47-.4c-.16.11-.33.21-.5.31s-.38.19-.61.28a5.67,5.67,0,0,1-1.13.3A9.4,9.4,0,0,1,57.41,328.89Zm.67-16.21,2,1.95-2,1.95-1.95-1.95Z"/><path class="cls-3" d="M62.23,327.51a1.38,1.38,0,0,1,.11-.55,1.37,1.37,0,0,1,.3-.45,1.56,1.56,0,0,1,.46-.29,1.66,1.66,0,0,1,.61-.11h2a9.78,9.78,0,0,0,1.11-.09,4.92,4.92,0,0,0,1-.22,1.18,1.18,0,0,0,.62-.42,1.61,1.61,0,0,0,.27-.92,2.07,2.07,0,0,0,0-.35c0-.12,0-.25-.08-.38a2.29,2.29,0,0,0-.26-.53,6.13,6.13,0,0,0-.5-.68c-.21-.25-.44-.52-.7-.79s-.55-.57-.85-.86-.61-.58-.94-.86-.65-.57-1-.84l.27-2.39,7.38-3.28L73,315.84l-5.83,2.71a8.62,8.62,0,0,1,.89.71,12.5,12.5,0,0,1,.88.9,11.46,11.46,0,0,1,.81,1,9.93,9.93,0,0,1,.66,1.12,5.78,5.78,0,0,1,.44,1.15,4.11,4.11,0,0,1,.16,1.13,4.8,4.8,0,0,1-.18,1.23,5.19,5.19,0,0,1-.41,1,4,4,0,0,1-3,2h0l-.45.06-.42,0H63.71a1.64,1.64,0,0,1-.6-.11,1.49,1.49,0,0,1-.47-.29,1.32,1.32,0,0,1-.3-.44A1.41,1.41,0,0,1,62.23,327.51Zm9.35-14.94-7.28,3.08.07-1.32,6.72-2.8Z"/><path class="cls-3" d="M82.63,327.66a5.93,5.93,0,0,1-2.14-.34,3.45,3.45,0,0,1-1.43-.95,2.7,2.7,0,0,1-.44-.86,3.16,3.16,0,0,1-.14-.88,3.4,3.4,0,0,1,.06-.67,2.6,2.6,0,0,1,.15-.51,5.41,5.41,0,0,1,.87-1.29,7.31,7.31,0,0,1,1.07-1,6.63,6.63,0,0,1,1.11-.68,8.88,8.88,0,0,1,1-.45,2.83,2.83,0,0,1,0-.41c0-.15,0-.28,0-.41l0-.55,2.74-.59c0,.05,0,.17,0,.37s0,.42.07.69.06.55.09.85.06.58.09.85,0,.49.07.68,0,.31,0,.35c.09.72.16,1.32.22,1.78s.12.83.16,1.1.08.47.11.59a1.54,1.54,0,0,0,.07.24.73.73,0,0,0,.4.39,2,2,0,0,0,.72.11,1.4,1.4,0,0,1,.53.11,1.35,1.35,0,0,1,.44.29,1.57,1.57,0,0,1,.31.45,1.38,1.38,0,0,1,0,1.08,1.4,1.4,0,0,1-.31.44,1.37,1.37,0,0,1-.44.3,1.4,1.4,0,0,1-.53.11l-.42,0a2.8,2.8,0,0,1-.48-.05,3.34,3.34,0,0,1-.51-.11,3.93,3.93,0,0,1-.54-.2,3.32,3.32,0,0,1-.64-.4,2.93,2.93,0,0,1-.53-.57l-.87.09Zm0-2.76H83l.38,0c0-.2-.06-.43-.09-.67s-.06-.51-.09-.79l-.09-.81c-.22.11-.47.24-.75.4s-.53.32-.78.49a4.07,4.07,0,0,0-.61.53.77.77,0,0,0-.24.49c0,.08.06.14.19.19a3.8,3.8,0,0,0,.49.13,5.92,5.92,0,0,0,.62.06Z"/><path class="cls-3" d="M99.12,327.5a1.34,1.34,0,0,1-.41,1,1.43,1.43,0,0,1-1,.41h0a2.29,2.29,0,0,1-1.79-.76,2.49,2.49,0,0,1-1.84.72,9,9,0,0,1-3.75-1.3,1.93,1.93,0,0,1-.6.68,3.12,3.12,0,0,1-.91.46,4.35,4.35,0,0,1-1.44.22,1.33,1.33,0,0,1-1-.41,1.38,1.38,0,0,1,0-2,1.32,1.32,0,0,1,1-.4,2.37,2.37,0,0,0,1.92-1.09,8.5,8.5,0,0,0,.61-1c.07-.13.15-.3.26-.53l.13-.26.12-.25c.79-1.57,1.78-2.35,3-2.35a3.39,3.39,0,0,1,2.28.86A3.83,3.83,0,0,1,97,324.17v.08a.45.45,0,0,1,0,.12,5.23,5.23,0,0,0,.13.87,2.15,2.15,0,0,0,.23.6.48.48,0,0,0,.4.27,1.34,1.34,0,0,1,1,.41A1.33,1.33,0,0,1,99.12,327.5Zm-4.44-1.12c.19-.05.3-.29.34-.73a2.11,2.11,0,0,0-.26-1.23,2.37,2.37,0,0,0-.83-.87c-.36-.25-.64-.33-.83-.26s-.63.76-1.14,1.95C93.43,326.09,94.34,326.46,94.68,326.38Z"/><path class="cls-3" d="M96.36,327.5a1.36,1.36,0,0,1,.4-1,1.35,1.35,0,0,1,.44-.29,1.42,1.42,0,0,1,.55-.11h.67c.42,0,.82,0,1.21-.05a4.14,4.14,0,0,0,1-.22,1.92,1.92,0,0,0,.73-.49,1.28,1.28,0,0,0,.29-.83c0-.13,0-.23,0-.32a2.43,2.43,0,0,0,0-.31c0-.12-.07-.27-.13-.47s-.13-.47-.23-.83l2.56-.72a6.58,6.58,0,0,1,.3,1.11,11.15,11.15,0,0,1,.21,1.52l.06.55a2.1,2.1,0,0,0,.15.52,1,1,0,0,0,.28.39.66.66,0,0,0,.45.15,1.42,1.42,0,0,1,.55.11,1.35,1.35,0,0,1,.44.29,1.41,1.41,0,0,1,0,2,1.51,1.51,0,0,1-.45.29,1.32,1.32,0,0,1-.53.11,3.67,3.67,0,0,1-1.44-.26,3.58,3.58,0,0,1-1-.67,4.19,4.19,0,0,1-.9.44,8.84,8.84,0,0,1-1.1.28,11,11,0,0,1-1.19.16c-.41,0-.82.05-1.21.05h-.67a1.42,1.42,0,0,1-.55-.11,1.35,1.35,0,0,1-.44-.29,1.36,1.36,0,0,1-.4-1Zm8.41,4.54-1.69,1.7-1.67-1.67-1.65,1.65-1.7-1.7,1.68-1.69,1.67,1.67,1.65-1.65Z"/><path class="cls-3" d="M103.91,327.5A1.37,1.37,0,0,1,104,327a1.77,1.77,0,0,1,.3-.45,1.35,1.35,0,0,1,.44-.29,1.41,1.41,0,0,1,.54-.11h1.3l.68,0A4.46,4.46,0,0,0,108,326a2.11,2.11,0,0,0,.55-.22.76.76,0,0,0,.35-.38,1.13,1.13,0,0,0,.07-.47,2.54,2.54,0,0,0-.12-.63,9,9,0,0,0-.33-.94q-.19-.51-.45-1.08c-.17-.37-.35-.72-.52-1.06L110,320c.16.37.33.77.49,1.18s.3.84.43,1.27a11.8,11.8,0,0,1,.32,1.27,7.57,7.57,0,0,1,.11,1.22,4.15,4.15,0,0,1-.31,1.63,3.76,3.76,0,0,1-1,1.36,4.11,4.11,0,0,1-1.54.8,4.78,4.78,0,0,1-1,.18l-.9,0H105.3a1.41,1.41,0,0,1-.54-.11,1.35,1.35,0,0,1-.44-.29,1.77,1.77,0,0,1-.3-.45A1.37,1.37,0,0,1,103.91,327.5Zm4,2.19,1.95,1.95-1.95,1.95-2-1.95Z"/><path class="cls-3" d="M46.77,364.44a16.19,16.19,0,0,1-1.68-.09,9,9,0,0,1-1.67-.35,5.77,5.77,0,0,1-1.5-.72,4,4,0,0,1-1.17-1.2,5.79,5.79,0,0,1-.69-1.56,6.65,6.65,0,0,1-.25-1.91,13.93,13.93,0,0,1,.07-1.47,13.11,13.11,0,0,1,.2-1.38c.1-.46.22-.92.37-1.39s.33-1,.54-1.49l2.26.94c-.17.42-.32.8-.44,1.14s-.22.65-.3.93a7,7,0,0,0-.19.76,6,6,0,0,0-.11.68c0,.21,0,.42,0,.63s0,.43,0,.65a2.91,2.91,0,0,0,.21,1.15,2.37,2.37,0,0,0,.57.81,2.93,2.93,0,0,0,.83.55,5.38,5.38,0,0,0,1,.33,7.12,7.12,0,0,0,1,.16c.35,0,.68,0,1,0l.68,0c.3,0,.62-.05,1-.1s.71-.12,1.08-.2a6.18,6.18,0,0,0,1-.3,2.69,2.69,0,0,0,.75-.43.73.73,0,0,0,.29-.56s0-.07-.15-.13l-.39-.2-.58-.27-.71-.29h0a8.08,8.08,0,0,0-.88-.22c-.31-.07-.62-.12-.91-.17l-.18,0-.23,0-.22-.05-.18,0,.36-2.68h7a1.41,1.41,0,0,1,.54.11,1.35,1.35,0,0,1,.44.29,1.57,1.57,0,0,1,.31.45,1.41,1.41,0,0,1,0,1.09,1.52,1.52,0,0,1-.31.44,1.37,1.37,0,0,1-.44.3,1.62,1.62,0,0,1-.54.1h-1a3.24,3.24,0,0,1,.27.71,4.09,4.09,0,0,1,.09.61,3.23,3.23,0,0,1-.42,1.47,4.35,4.35,0,0,1-1,1.14,6.18,6.18,0,0,1-1.34.83,9.24,9.24,0,0,1-1.52.56,11.19,11.19,0,0,1-1.55.31A10,10,0,0,1,46.77,364.44Z"/><path class="cls-3" d="M53.48,357.32a1.42,1.42,0,0,1,.11-.55,1.35,1.35,0,0,1,.29-.44,1.51,1.51,0,0,1,.45-.29,1.37,1.37,0,0,1,.54-.11h1.64l.13,0a3.47,3.47,0,0,1-.3-.4,3.36,3.36,0,0,1-.26-.5,3.49,3.49,0,0,1-.2-.57,4.08,4.08,0,0,1-.1-.64,5,5,0,0,1,.28-1.59,4.93,4.93,0,0,1,.78-1.4,4.15,4.15,0,0,1,1.27-1.07,2.75,2.75,0,0,1,1.49-.35,3.22,3.22,0,0,1,1.43.39,4,4,0,0,1,1.14.93,4.51,4.51,0,0,1,.75,1.3,4,4,0,0,1,.28,1.49,3.76,3.76,0,0,1-.2,1.19,7,7,0,0,1-.51,1.11l.88.07.81,0a1.51,1.51,0,0,1,.56.11,1.6,1.6,0,0,1,.44.29,1.35,1.35,0,0,1,.29.44,1.43,1.43,0,0,1,0,1.1,1.46,1.46,0,0,1-.29.44,1.63,1.63,0,0,1-.44.3,1.74,1.74,0,0,1-.56.1h-.69l-.67,0-.65-.05-.58-.07c-.32,0-.64-.11-1-.18a5.05,5.05,0,0,1-1-.37,3.47,3.47,0,0,1-.86.32,11.86,11.86,0,0,1-1.18.22c-.43,0-.87.1-1.33.13s-.89,0-1.3,0h-.07a1.57,1.57,0,0,1-.54-.1,1.54,1.54,0,0,1-.45-.3,1.46,1.46,0,0,1-.29-.44A1.42,1.42,0,0,1,53.48,357.32Zm9.32-10.94-1.68,1.7-1.67-1.67-1.65,1.65-1.71-1.69,1.69-1.7,1.67,1.67,1.65-1.65Zm-1.93,7.35a1.14,1.14,0,0,0-.14-.54,1.87,1.87,0,0,0-.33-.45,1.74,1.74,0,0,0-.43-.34,1.62,1.62,0,0,0-.41-.19,2.31,2.31,0,0,0-.46.16,1.65,1.65,0,0,0-.49.32,1.61,1.61,0,0,0-.39.5,1.39,1.39,0,0,0-.16.7.79.79,0,0,0,.13.36,3.53,3.53,0,0,0,.36.48,2.6,2.6,0,0,0,.49.44,1.8,1.8,0,0,0,.56.3,2.22,2.22,0,0,0,.45-.34,3.55,3.55,0,0,0,.41-.46,2.8,2.8,0,0,0,.3-.49A1.22,1.22,0,0,0,60.87,353.73Z"/><path class="cls-3" d="M62.87,357.32a1.41,1.41,0,0,1,.11-.54,1.27,1.27,0,0,1,.74-.74,1.41,1.41,0,0,1,.54-.11h.67a11.87,11.87,0,0,0,1.21-.05,3.9,3.9,0,0,0,1-.22,1.81,1.81,0,0,0,.72-.49,1.27,1.27,0,0,0,.3-.83V354a1.33,1.33,0,0,0,0-.3c0-.12-.07-.28-.13-.48l-.23-.83,2.56-.72a7.37,7.37,0,0,1,.31,1.12,15.09,15.09,0,0,1,.21,1.52q0,.26.06.54a2.63,2.63,0,0,0,.14.52,1,1,0,0,0,.28.39.69.69,0,0,0,.46.15,1.41,1.41,0,0,1,.54.11,1.35,1.35,0,0,1,.44.29,1.37,1.37,0,0,1,.3.45,1.24,1.24,0,0,1,.11.54,1.26,1.26,0,0,1-.11.55,1.32,1.32,0,0,1-.3.44,1.63,1.63,0,0,1-.44.3,1.61,1.61,0,0,1-.53.1,3.69,3.69,0,0,1-1.45-.26,3.4,3.4,0,0,1-1-.67,4.52,4.52,0,0,1-.91.44,7.24,7.24,0,0,1-1.09.28,9.37,9.37,0,0,1-1.2.16c-.41,0-.81,0-1.21,0h-.67a1.62,1.62,0,0,1-.54-.1,1.54,1.54,0,0,1-.45-.3,1.46,1.46,0,0,1-.29-.44A1.42,1.42,0,0,1,62.87,357.32Zm8.41,4.54-1.69,1.7-1.67-1.67-1.65,1.65-1.7-1.69,1.68-1.7,1.67,1.67,1.66-1.65Z"/><path class="cls-3" d="M70.67,357.32a1.42,1.42,0,0,1,.11-.55,1.35,1.35,0,0,1,.29-.44,1.51,1.51,0,0,1,.45-.29,1.41,1.41,0,0,1,.54-.11H73.7l.14,0a2.64,2.64,0,0,1-.31-.4,4.66,4.66,0,0,1-.26-.5,3.49,3.49,0,0,1-.2-.57,3.19,3.19,0,0,1-.09-.64,4.51,4.51,0,0,1,.28-1.59,4.9,4.9,0,0,1,.77-1.4,4.15,4.15,0,0,1,1.27-1.07,2.77,2.77,0,0,1,1.5-.35,3.18,3.18,0,0,1,1.42.39,4,4,0,0,1,1.14.93,4.29,4.29,0,0,1,.75,1.3,4,4,0,0,1,.28,1.49,3.76,3.76,0,0,1-.2,1.19,7,7,0,0,1-.51,1.11l.88.07.81,0a1.42,1.42,0,0,1,1,.4,1.37,1.37,0,0,1,.3.44,1.56,1.56,0,0,1,0,1.1,1.43,1.43,0,0,1-.74.74,1.69,1.69,0,0,1-.56.1h-.69l-.67,0-.65-.05-.58-.07c-.31,0-.63-.11-1-.18a5,5,0,0,1-1-.37,3.72,3.72,0,0,1-.87.32,11.34,11.34,0,0,1-1.18.22c-.43,0-.87.1-1.33.13s-.89,0-1.3,0h-.07a1.62,1.62,0,0,1-.54-.1,1.54,1.54,0,0,1-.45-.3,1.46,1.46,0,0,1-.29-.44A1.42,1.42,0,0,1,70.67,357.32ZM80,346.38l-1.68,1.7-1.67-1.67L75,348.06l-1.71-1.69,1.69-1.7,1.67,1.67,1.65-1.65Zm-1.93,7.35a1.13,1.13,0,0,0-.13-.54,2.22,2.22,0,0,0-.34-.45,1.9,1.9,0,0,0-.42-.34,1.67,1.67,0,0,0-.42-.19,2.31,2.31,0,0,0-.46.16,1.65,1.65,0,0,0-.49.32,1.61,1.61,0,0,0-.39.5,1.39,1.39,0,0,0-.16.7.83.83,0,0,0,.14.36,2.76,2.76,0,0,0,.35.48,3,3,0,0,0,.49.44,1.74,1.74,0,0,0,.57.3,2.49,2.49,0,0,0,.44-.34,2.94,2.94,0,0,0,.41-.46,2.8,2.8,0,0,0,.3-.49A1.22,1.22,0,0,0,78.06,353.73Z"/><path class="cls-3" d="M80.1,357.32a1.41,1.41,0,0,1,.11-.54,1.37,1.37,0,0,1,.3-.45A1.29,1.29,0,0,1,81,356a1.42,1.42,0,0,1,.55-.11h1.68a17.74,17.74,0,0,0,2.62-.17A15.81,15.81,0,0,0,88,355.3a18.2,18.2,0,0,0,2-.67c.61-.26,1.22-.52,1.82-.8a9.45,9.45,0,0,1-1.2-.41l-1.2-.47a10.43,10.43,0,0,0-1.2-.39,4.5,4.5,0,0,0-1.19-.17,1.65,1.65,0,0,0-.79.22,4.62,4.62,0,0,0-.7.5,4.47,4.47,0,0,0-.53.55,2,2,0,0,0-.27.37l-2-1.31a7.6,7.6,0,0,1,.79-1.15,6.3,6.3,0,0,1,1-1,5.31,5.31,0,0,1,1.19-.7,3.59,3.59,0,0,1,1.34-.26,5.25,5.25,0,0,1,1,.11,9.85,9.85,0,0,1,1,.28c.34.12.68.26,1,.4l1,.46.94.43a10.38,10.38,0,0,0,1,.4,7.27,7.27,0,0,0,1,.29,5.15,5.15,0,0,0,1.13.12L95,354.8l-1.25.6c-.51.24-1,.5-1.52.76s-1,.51-1.54.75-1.06.48-1.61.7a15.58,15.58,0,0,1-1.75.57,17.79,17.79,0,0,1-1.93.39,16.65,16.65,0,0,1-2.18.14H81.51a1.42,1.42,0,0,1-.55-.11,1.29,1.29,0,0,1-.45-.29,1.32,1.32,0,0,1-.3-.44A1.42,1.42,0,0,1,80.1,357.32Z"/><path class="cls-1" d="M332.34,44.09A6.66,6.66,0,0,0,328,47.31a.71.71,0,0,0,.32,1,.68.68,0,0,0,.24.08.72.72,0,0,0,.72-.38,5.27,5.27,0,0,1,3.37-2.47.72.72,0,0,0,.56-.85A.7.7,0,0,0,332.34,44.09Z"/><path class="cls-1" d="M336.45,41.37a1.67,1.67,0,1,0,0-3.34,1.67,1.67,0,1,0,0,3.34Z"/><path class="cls-1" d="M336.45,56.72a.79.79,0,0,0-.8.8v5.59a2.46,2.46,0,0,1-4.91,0,.8.8,0,0,0-.8-.8.81.81,0,0,0-.8.8,4.06,4.06,0,0,0,8.11,0V57.52A.8.8,0,0,0,336.45,56.72Z"/><path class="cls-1" d="M340.1,40.3a.78.78,0,0,0-1,.58.8.8,0,0,0,.59,1c5.27,1.27,9,5.49,9,10.25,0,.2,0,.41,0,.61-4.72-2.76-6.8-1.63-8.82-.53a6.52,6.52,0,0,1-3.4,1.06,5.74,5.74,0,0,1-3-1.07c-2-1.17-4.26-2.49-9.22.51a5.52,5.52,0,0,1,0-.58c0-4.76,3.68-9,8.95-10.25a.81.81,0,0,0,.6-1,.81.81,0,0,0-1-.58c-6,1.44-10.17,6.3-10.17,11.8a10.65,10.65,0,0,0,.19,2,.72.72,0,0,0,.13.36.81.81,0,0,0,1.11.21c4.89-3.31,6.61-2.31,8.6-1.15a7.31,7.31,0,0,0,3.78,1.28h.13a8,8,0,0,0,4.05-1.26c1.91-1,3.57-1.93,8.25,1.13a.81.81,0,0,0,1.06-.17.85.85,0,0,0,.17-.39,10.79,10.79,0,0,0,.19-2C350.28,46.6,346.1,41.74,340.1,40.3Z"/><path class="cls-1" d="M346.31,32.2H326.59a10.53,10.53,0,0,0-10.54,10.54V62.45A10.54,10.54,0,0,0,326.59,73h19.72a10.55,10.55,0,0,0,10.55-10.55V42.74A10.54,10.54,0,0,0,346.31,32.2Zm8.82,30.25a8.83,8.83,0,0,1-8.82,8.83H326.59a8.84,8.84,0,0,1-8.82-8.83V42.74a8.84,8.84,0,0,1,8.82-8.83h19.72a8.83,8.83,0,0,1,8.82,8.83Z"/><path class="cls-1" d="M372.35,78.83a.76.76,0,0,0-.76.76v9.57a.76.76,0,0,0,.76.76.77.77,0,0,0,.77-.76V79.59A.77.77,0,0,0,372.35,78.83Z"/><path class="cls-1" d="M368.55,82.69a.76.76,0,0,0-.76.76v2.66a2.3,2.3,0,0,1-2.29,2.29H364a2.29,2.29,0,0,1-2.28-2.29v-.76a.76.76,0,0,0-1.52,0v4.18a3.06,3.06,0,0,1-3.05,3,.76.76,0,1,0,0,1.52,4.58,4.58,0,0,0,4.57-4.57v-.38a3.8,3.8,0,0,0,2.28.77h1.5a3.82,3.82,0,0,0,3.81-3.81V83.45A.76.76,0,0,0,368.55,82.69Z"/><path class="cls-1" d="M340.89,82.69a.76.76,0,0,0-.76.76v2.66a2.28,2.28,0,0,1-2.28,2.28h-1.14a2.66,2.66,0,0,1-2.66-2.66V83.45a.77.77,0,0,0-.77-.76.76.76,0,0,0-.76.76v2.66a2.28,2.28,0,0,1-2.28,2.28H329.1a2.66,2.66,0,0,1-2.66-2.66,4.19,4.19,0,1,0-8.38,0,2.66,2.66,0,0,1-2.67,2.66h-4.56a2.67,2.67,0,0,1-2.67-2.64v0a4.18,4.18,0,1,0-.76,2.41,4.2,4.2,0,0,0,3.43,1.78h4.56a4.19,4.19,0,0,0,3.43-1.79,4.17,4.17,0,0,0,6.85,0,4.19,4.19,0,0,0,3.43,1.79h1.14a3.82,3.82,0,0,0,3.14-1.66,4.19,4.19,0,0,0,3.33,1.66h1.14a3.82,3.82,0,0,0,3.81-3.81V83.45A.77.77,0,0,0,340.89,82.69Zm-34.25,3.06A2.67,2.67,0,1,1,304,83.07a2.66,2.66,0,0,1,2.66,2.68Zm15.6,2.64a2.66,2.66,0,1,1,2.67-2.66A2.67,2.67,0,0,1,322.24,88.39Z"/><path class="cls-1" d="M364,91.81a1,1,0,1,0,.95,1A1,1,0,0,0,364,91.81Z"/><path class="cls-1" d="M366.28,91.81a1,1,0,1,0,1,1A1,1,0,0,0,366.28,91.81Z"/><path class="cls-1" d="M328.34,91.81a1,1,0,1,0,1,1A1,1,0,0,0,328.34,91.81Z"/><path class="cls-1" d="M330.62,91.81a1,1,0,1,0,.95,1A1,1,0,0,0,330.62,91.81Z"/><path class="cls-1" d="M337.09,91.81a1,1,0,1,0,1,1A1,1,0,0,0,337.09,91.81Z"/><path class="cls-1" d="M361,83.06a.95.95,0,0,0,0-1.9.95.95,0,1,0,0,1.9Z"/><path class="cls-1" d="M357.91,87.61a3.46,3.46,0,0,0-3.45-3.45h-2.2a1.91,1.91,0,1,1,0-3.81h1.14a.76.76,0,1,0,0-1.52h-1.14a3.43,3.43,0,1,0,0,6.85h2.2a1.93,1.93,0,1,1,0,3.86h-5.95a3.06,3.06,0,0,1-3.05-3.05v-1.9a.76.76,0,0,0-1.52,0v1.9a4.58,4.58,0,0,0,4.57,4.57h5.95A3.46,3.46,0,0,0,357.91,87.61Z"/></g></g></svg>