<svg xmlns="http://www.w3.org/2000/svg" viewBox="0 0 30.89 33"><defs><style>.cls-1{fill:none;stroke:#fff;stroke-linecap:round;stroke-linejoin:round;}</style></defs><title>register-center</title><g id="Layer_2" data-name="Layer 2"><g id="Layer_1-2" data-name="Layer 1"><path class="cls-1" d="M23.59,24.35l-6.77,6.77a4.72,4.72,0,0,1-6.68,0L1.88,22.85a4.72,4.72,0,0,1,0-6.68L16.27,1.78"/><line class="cls-1" x1="29.72" y1="18.22" x2="26.21" y2="21.73"/><path class="cls-1" d="M19.93,5.21,29.72,15a2.27,2.27,0,0,1,0,3.21h0a2.27,2.27,0,0,1-3.21,0L16.27,8a4.38,4.38,0,0,1,0-6.2h0a4.38,4.38,0,0,1,6.2,0L29.59,8.9a1.29,1.29,0,0,1,0,1.82L27.51,12.8"/><path class="cls-1" d="M8.28,9.78h0a4.38,4.38,0,0,0,0,6.2l7.42,7.42a1.29,1.29,0,0,0,1.82,0l2.6-2.6a1.29,1.29,0,0,0,0-1.82L12.7,11.55a4.38,4.38,0,0,1,0-6.2h0"/><path class="cls-1" d="M9.11,23.48,4.94,19.31a4.38,4.38,0,0,1,0-6.2h0"/><line class="cls-1" x1="13.27" y1="27.64" x2="11.57" y2="25.94"/></g></g></svg>