<svg xmlns="http://www.w3.org/2000/svg" viewBox="0 0 14.98 125.92"><defs><style>
.cls-1,.cls-2{fill:#fff;}.cls-2{fill-opacity:0.2;stroke:#fff;stroke-miterlimit:10;}
#jumping{
    position: relative;
    animation: mymove 2s linear 2s infinite alternate;
}
@keyframes mymove {
    from {transform: translateY(0px);}
    to {transform: translateY(33px);}
}
@media (max-width: 768px) {
    path{
        display: none;
    }
}</style></defs><title>scroll_1</title><g id="Layer_2" data-name="Layer 2"><g id="Layer_1-2" data-name="Layer 1"><path class="cls-1" d="M10.43,64a3.15,3.15,0,0,1-.34,1.43,4.66,4.66,0,0,1-.95,1.26l-1.26-.89a4.46,4.46,0,0,0,.74-1,2.13,2.13,0,0,0,.23-.92c0-.07,0-.15,0-.23s0-.17,0-.26,0-.17-.05-.26a2,2,0,0,0-.07-.22l-.09-.23-.1-.23-.1-.19-.09-.14L3.62,64,3,62.56l1.23-.5,1.47-.61,2-.82.24-.1.38-.16a1,1,0,0,0,.3-.22.91.91,0,0,0,.2-.33,1.66,1.66,0,0,0,.07-.52.76.76,0,0,1,.06-.3.79.79,0,0,1,.41-.42.78.78,0,0,1,.62,0,.78.78,0,0,1,.25.17.81.81,0,0,1,.17.25.77.77,0,0,1,.06.3,3.74,3.74,0,0,1-.06.69,2.81,2.81,0,0,1-.16.54A2.06,2.06,0,0,1,10,61a2.38,2.38,0,0,1-.3.33,3,3,0,0,1,.25.45q.12.27.23.54a3.57,3.57,0,0,1,.21.79A6,6,0,0,1,10.43,64Z"/><path class="cls-1" d="M9.65,60.13a.78.78,0,0,1-.55-.23.76.76,0,0,1-.16-.25.77.77,0,0,1-.06-.31v-.46q0-.47,0-.91a2.78,2.78,0,0,0-.18-.77,1.32,1.32,0,0,0-.39-.54,1.11,1.11,0,0,0-.67-.22H7.27l-.34.06-.39.1L6,56.75l-.42-1.49.53-.13.46-.08L7.07,55l.51,0L8,54.9a1.57,1.57,0,0,0,.42-.12.84.84,0,0,0,.31-.24.65.65,0,0,0,.12-.41.77.77,0,0,1,.06-.31.79.79,0,0,1,.16-.25.77.77,0,0,1,.25-.17.78.78,0,0,1,.31-.06.75.75,0,0,1,.31.06.78.78,0,0,1,.25.17.82.82,0,0,1,.17.25.75.75,0,0,1,.06.3,2.35,2.35,0,0,1-.19,1,2.17,2.17,0,0,1-.51.69,2.44,2.44,0,0,1,.33.61,4.75,4.75,0,0,1,.22.76,7.41,7.41,0,0,1,.12.85c0,.29,0,.58,0,.86v.46a.79.79,0,0,1-.06.31.78.78,0,0,1-.17.25.75.75,0,0,1-.25.16A.78.78,0,0,1,9.65,60.13Zm2.91-2.87,1,1-1,1-1-1Zm0-2.3,1,1-1,1-1-1Z"/><path class="cls-1" d="M3.39,50.51l1.16,1.16L3.38,52.84,2.22,51.68Zm6.26,4.34a.76.76,0,0,1-.3-.06.82.82,0,0,1-.25-.16.74.74,0,0,1-.17-.25.77.77,0,0,1-.06-.31V54a2.56,2.56,0,0,0-.32-1.41,1.07,1.07,0,0,0-1-.48l-.32,0L7,52.17l-.37.11-.47.14-.42-1.5.9-.2a5,5,0,0,1,1-.09,2.93,2.93,0,0,0,.43,0,1.37,1.37,0,0,0,.41-.13.88.88,0,0,0,.31-.26.67.67,0,0,0,.12-.42.75.75,0,0,1,.06-.3.77.77,0,0,1,.17-.25.85.85,0,0,1,.25-.17.74.74,0,0,1,.3-.06.76.76,0,0,1,.31.06.78.78,0,0,1,.25.17.83.83,0,0,1,.17.25.75.75,0,0,1,.06.3,2.42,2.42,0,0,1-.19,1,2.1,2.1,0,0,1-.49.69,3.87,3.87,0,0,1,.68,2.5v.1a.79.79,0,0,1-.06.31.78.78,0,0,1-.17.25.75.75,0,0,1-.25.16A.78.78,0,0,1,9.65,54.85Z"/><path class="cls-1" d="M9.65,50.69a.8.8,0,0,1-.31-.06.72.72,0,0,1-.25-.17.8.8,0,0,1-.16-.26.93.93,0,0,1-.06-.34v-.64q0-.35,0-.72a5.28,5.28,0,0,0-.06-.72,2.51,2.51,0,0,0-.18-.62.94.94,0,0,0-.35-.42h0a1.3,1.3,0,0,0-.74-.21l-.27,0L7,46.59H7a2.58,2.58,0,0,0-.61.3,7.61,7.61,0,0,0-.81.59q-.44.36-.9.82a11.91,11.91,0,0,0-.87,1L2.34,49.1.18,44.25l1.45-.61,1.67,4,.51-.56q.28-.3.59-.58a7.93,7.93,0,0,1,.91-.71,6,6,0,0,1,.85-.47,4.24,4.24,0,0,1,.78-.26A3.19,3.19,0,0,1,7.63,45a2.72,2.72,0,0,1,.8.11,3.61,3.61,0,0,1,.66.27,2.65,2.65,0,0,1,1.3,2h0a1.84,1.84,0,0,1,0,.28c0,.09,0,.19,0,.28v2a.93.93,0,0,1-.06.34.85.85,0,0,1-.17.27.71.71,0,0,1-.24.17A.76.76,0,0,1,9.65,50.69Z"/><path class="cls-1" d="M8.32,37.87a3.12,3.12,0,0,0,.6.31,4.76,4.76,0,0,0,.76.22,5.11,5.11,0,0,0,1.07.1,1.93,1.93,0,0,0,.67-.11,1.9,1.9,0,0,0,.53-.29,2.08,2.08,0,0,0,.4-.42,2.73,2.73,0,0,0,.28-.48,2.85,2.85,0,0,0,.17-.49,2.49,2.49,0,0,0,.07-.44.75.75,0,0,0,0-.09V36.1a3.07,3.07,0,0,0-.14-.89,2.67,2.67,0,0,0-.45-.86,2.37,2.37,0,0,0-2-.91l-1.13,0-1.38,0-1.51.06-1.52.07-3.63.19-.3-1.59,3.79-.15L6.2,32,7.76,32l1.42,0h1.14a4.66,4.66,0,0,1,1.37.19,3.79,3.79,0,0,1,1.06.5,3.43,3.43,0,0,1,.77.73,4.3,4.3,0,0,1,.52.87,4.22,4.22,0,0,1,.29.93,4.83,4.83,0,0,1,.09.9v.12a1,1,0,0,1,0,.12,4.82,4.82,0,0,1-.14.8,4.26,4.26,0,0,1-.3.82,4,4,0,0,1-.48.76,3.09,3.09,0,0,1-.69.63,3.46,3.46,0,0,1-.91.43,3.71,3.71,0,0,1-1.15.16,7.54,7.54,0,0,1-1.38-.12,6.41,6.41,0,0,1-.94-.25,3.3,3.3,0,0,1-.71-.35Z"/><path class="cls-1" d="M13.17,30.71a8.79,8.79,0,0,0-.47-1.62A6.6,6.6,0,0,0,12,27.84a4,4,0,0,0-.78-.86,2.28,2.28,0,0,0-.83-.44v.32q0,.16,0,.33c0,.11,0,.21,0,.32s0,.19,0,.27A3.69,3.69,0,0,1,10.11,29a2.25,2.25,0,0,1-.65.87,1.84,1.84,0,0,1-.65.33,2.79,2.79,0,0,1-.75.1,3.49,3.49,0,0,1-.63-.06,4,4,0,0,1-.62-.16,4.37,4.37,0,0,1-.57-.25,3.63,3.63,0,0,1-.49-.3,2.34,2.34,0,0,1-.64-.73,1.75,1.75,0,0,1-.22-.84,2.32,2.32,0,0,1,.84-1.72,4,4,0,0,1,.7-.5,5,5,0,0,1,.84-.38,5.79,5.79,0,0,1,.93-.24,5.92,5.92,0,0,1,1-.08h.3l.29,0a4.88,4.88,0,0,1,1.87.57,5.3,5.3,0,0,1,1.45,1.18,6.34,6.34,0,0,1,1,1.63,7.67,7.67,0,0,1,.55,1.91Zm-6.7-2.76a.59.59,0,0,0,.13.34,1.54,1.54,0,0,0,.34.33,2.08,2.08,0,0,0,.47.25,1.36,1.36,0,0,0,.5.1.71.71,0,0,0,.42-.12.9.9,0,0,0,.27-.3,1.51,1.51,0,0,0,.16-.42,3.92,3.92,0,0,0,.08-.47v-.28q0-.15,0-.31v-.32c0-.11,0-.2,0-.3a3,3,0,0,0-.64.13,3.88,3.88,0,0,0-.57.23,3.2,3.2,0,0,0-.47.29l-.36.29h0a2,2,0,0,0-.22.25A.51.51,0,0,0,6.47,27.95Z"/><path class="cls-1" d="M10.43,19.69s0,.11,0,.19a1.79,1.79,0,0,1,0,.25,2.31,2.31,0,0,1-.08.29,1.37,1.37,0,0,1-.15.31,3.84,3.84,0,0,1,1.47.47,6.26,6.26,0,0,1,1.32,1,8.82,8.82,0,0,1,1.13,1.32A11.85,11.85,0,0,1,15,25l-1.41.68q-.22-.43-.47-.86a9.45,9.45,0,0,0-.54-.82,7.63,7.63,0,0,0-.61-.73,4.73,4.73,0,0,0-.67-.58,3.21,3.21,0,0,0-.71-.39,2,2,0,0,0-.75-.14h-.2a4.62,4.62,0,0,0-.69.14l-.68.22-.63.23L7.08,23l-.61-1.46q.71-.24,1.18-.45a3.58,3.58,0,0,0,.74-.42,1.27,1.27,0,0,0,.38-.43,1.12,1.12,0,0,0,.11-.49v0a.74.74,0,0,1,.06-.31.82.82,0,0,1,.17-.25A.79.79,0,0,1,9.35,19,.79.79,0,0,1,10,19a.78.78,0,0,1,.25.17.74.74,0,0,1,.17.25A.85.85,0,0,1,10.43,19.69Z"/><path class="cls-1" d="M9.65,20.51a.72.72,0,0,1-.3-.06.85.85,0,0,1-.25-.17.79.79,0,0,1-.23-.55V17.67a1.15,1.15,0,0,0-.08-.43,1.54,1.54,0,0,0-.22-.39,1.23,1.23,0,0,0-.32-.29.84.84,0,0,0-.37-.13,2,2,0,0,0-.69.07,3.76,3.76,0,0,0-.72.29,6.1,6.1,0,0,0-.72.44,8,8,0,0,0-.68.54q-.32.29-.6.59T4,19l-1.72-.15L0,13.48l1.39-.57,1.89,4.6a8.17,8.17,0,0,1,.81-.82,9.68,9.68,0,0,1,.81-.63q.41-.28.81-.5l.82-.44h0l.57-.3.58-.33h0a3.69,3.69,0,0,0,.49-.35,2.06,2.06,0,0,0,.37-.41,1.94,1.94,0,0,0,.24-.48,1.87,1.87,0,0,0,.09-.57h0v-.26a.77.77,0,0,1,.06-.31.74.74,0,0,1,.17-.25.85.85,0,0,1,.25-.16.76.76,0,0,1,.3-.06.77.77,0,0,1,.78.78v0a5,5,0,0,1-.06.8,4.68,4.68,0,0,1-.17.68,2.59,2.59,0,0,1-.4.74,4.49,4.49,0,0,1-.58.62,2.89,2.89,0,0,1,.5.43,2.23,2.23,0,0,1,.32.45,2.73,2.73,0,0,1,.21.49,3.52,3.52,0,0,1,.12.52,5.24,5.24,0,0,1,.05.53v2a.77.77,0,0,1-.06.3.81.81,0,0,1-.17.25.78.78,0,0,1-.25.17A.74.74,0,0,1,9.65,20.51Z"/><path class="cls-1" d="M9.65,13.36a.77.77,0,0,1-.29-.06.79.79,0,0,1-.24-.16.87.87,0,0,1-.17-.23.8.8,0,0,1-.08-.29A1.4,1.4,0,0,0,8.72,12a1.65,1.65,0,0,0-.39-.49,2.6,2.6,0,0,0-.55-.36,5.5,5.5,0,0,0-.64-.26l-.65-.19-.58-.15L6.25,9l.44.14.56.17a6,6,0,0,0,.6.14,2.14,2.14,0,0,0,.54,0,.72.72,0,0,0,.39-.13A.43.43,0,0,0,8.92,9a.83.83,0,0,0-.16-.49,1.61,1.61,0,0,0-.41-.39,3,3,0,0,0-.58-.3,6.3,6.3,0,0,0-.66-.23l-.66-.16-.58-.1.27-1.42.4.06L7,6l.46.07a3.91,3.91,0,0,0,.5,0,1.69,1.69,0,0,0,.38,0A.88.88,0,0,0,8.63,6a.68.68,0,0,0,.22-.25.86.86,0,0,0,.09-.38,1.1,1.1,0,0,0-.22-.71.81.81,0,0,0-.67-.27,3.2,3.2,0,0,0-.71.09q-.38.09-.75.21t-.69.27l-.53.24L4.64,3.85l.25-.12.44-.19.58-.22q.32-.11.68-.2T7.3,3A4.63,4.63,0,0,1,8,2.91a2.85,2.85,0,0,1,1,.17,2.08,2.08,0,0,1,.78.51,2.26,2.26,0,0,1,.5.83,3.3,3.3,0,0,1,.17,1.13,1.71,1.71,0,0,1-.07.56,1.68,1.68,0,0,1-.22.44,2,2,0,0,1-.31.35,3.4,3.4,0,0,1-.36.28,2.81,2.81,0,0,1,.38.3,1.78,1.78,0,0,1,.3.38,2,2,0,0,1,.2.49A2.46,2.46,0,0,1,10.5,9a1.7,1.7,0,0,1-.07.54,1.75,1.75,0,0,1-.21.44,1.89,1.89,0,0,1-.31.36,3.34,3.34,0,0,1-.37.29,2.65,2.65,0,0,1,.33.27,1.53,1.53,0,0,1,.28.37,2.15,2.15,0,0,1,.2.53,3.08,3.08,0,0,1,.08.73v.1a.74.74,0,0,1-.07.29.8.8,0,0,1-.17.23.84.84,0,0,1-.24.16A.76.76,0,0,1,9.65,13.36Z"/><path class="cls-1" d="M.71.32A34.8,34.8,0,0,1,5,0q3.23,0,5.14.09l.24,1.59A47,47,0,0,0,5.7,1.58q-2.48.1-4.48.3Z"/><rect class="cls-2" x="1.5" y="79.42" width="12" height="46" rx="6" ry="6"/><circle id="jumping" class="cls-1" cx="7.5" cy="85.92" r="2"/></g></g></svg>