<svg xmlns="http://www.w3.org/2000/svg" viewBox="0 0 93.21 96.75"><defs><style>.cls-1{fill:#3b8bff;opacity:0.3;}.cls-2{fill:#2e39bf;}.cls-3{fill:#fff;stroke:#0a0d35;stroke-linecap:round;stroke-linejoin:round;stroke-width:1.5px;}.cls-4{fill:none;stroke:#2e39bf;stroke-miterlimit:10;stroke-width:2px;}</style></defs><title>sec7</title><g id="Layer_2" data-name="Layer 2"><g id="Layer_1-2" data-name="Layer 1"><polygon class="cls-1" points="0.75 70.4 46.71 96.75 92.67 70.4 75.3 60.6 46.71 76.53 18.32 60.39 0.75 70.4"/><polygon class="cls-2" points="92.67 53.24 46.71 79.59 0.75 53.04 0.75 38.95 16.27 38.95 46.71 56.31 77.75 38.95 92.67 38.95 92.67 53.24"/><polygon class="cls-2" points="0.75 38.95 46.71 64.89 92.67 38.95 83.06 33.23 46.71 53.45 10.55 33.02 0.75 38.95"/><polygon class="cls-3" points="0.75 27.1 46.71 53.45 92.46 27.1 46.71 0.75 0.75 27.1"/><path class="cls-2" d="M42.83,21.79a3.69,3.69,0,0,0-2-2.86,11.31,11.31,0,0,0-5.72-1.43,15.3,15.3,0,0,0-3.06.41c-2,.81-3.47,2-3.47,3.67,0,1.84,2,3.48,5.11,4.09a12.38,12.38,0,0,0,7.14-1.23A3.26,3.26,0,0,0,42.83,21.79Z"/><path class="cls-2" d="M64.07,21.79a3.7,3.7,0,0,0-2-2.86,11.36,11.36,0,0,0-5.72-1.43,15.4,15.4,0,0,0-3.07.41c-2,.81-3.26,2-3.26,3.67,0,1.84,2,3.48,5.1,4.09a12.43,12.43,0,0,0,7.15-1.23A4.86,4.86,0,0,0,64.07,21.79Z"/><path class="cls-2" d="M56.31,35.06a3.69,3.69,0,0,0-2.05-2.85A11.12,11.12,0,0,0,48.55,31a19.59,19.59,0,0,0-3.27.41c-2,.82-3.27,2-3.27,3.67,0,1.84,2,3.48,5.11,4.09a12.3,12.3,0,0,0,7.14-1.23A3.69,3.69,0,0,0,56.31,35.06Z"/><polyline class="cls-4" points="37.92 21.38 57.12 21.38 49.57 34.86"/></g></g></svg>