<svg xmlns="http://www.w3.org/2000/svg" viewBox="0 0 58.17 56.19"><defs><style>.cls-1{fill:#3b8bff;opacity:0.3;}.cls-2{fill:#2e39bf;}.cls-3{fill:#fff;}.cls-3,.cls-4{stroke:#0a0d35;stroke-linecap:round;stroke-linejoin:round;}.cls-4{fill:none;}</style></defs><title>section6</title><g id="Layer_2" data-name="Layer 2"><g id="Layer_1-2" data-name="Layer 1"><polyline class="cls-1" points="11.76 34.16 27.47 37.99 29.08 38.37 30.32 37.87 46.16 34.16 58.17 40.72 29.08 56.19 0 40.47 11.76 34.16"/><path class="cls-2" d="M16.21,18.57a11.9,11.9,0,0,1,4.95-3.1c.5,0,1.36-.74,1.24-1.23-1.24-1.24-1.11-2-1.61-2.11-1-.12-2.6-.49-3.59-.49A15.38,15.38,0,0,0,2,26.49c0,.12.12,1.24.74,1.61l8,4.82a11.48,11.48,0,0,1,.49-6.31S13.74,21,16.21,18.57Z"/><path class="cls-2" d="M22.15,2.6l.37.38c-1.48,1.36-.86,1.36-2.1,3.83-1.24,3.71,1.11,5.94.87,6.19a7,7,0,0,1-9-.62,6.88,6.88,0,0,1,0-9.78A7,7,0,0,1,22.15,2.6Z"/><path class="cls-2" d="M47.15,32.8l8.17-4.7a1.77,1.77,0,0,0,1-1.24h0A15.35,15.35,0,0,0,41,11.51a16.84,16.84,0,0,0-4.45.62c-.62.62-.62,2.23-1.86,2.85,0,.12,2.48-.62,7.43,4.33,1.73,1.73,5.07,5.82,5,8.29Z"/><path class="cls-2" d="M46,2.23a6.92,6.92,0,0,1-9.53,10c-.13-.13,3.22-4.46-1-9,.25-.37.49-.62.74-1A6.88,6.88,0,0,1,46,2.23Z"/><path class="cls-3" d="M22.9,15A18.17,18.17,0,0,0,10.52,31.69a2.88,2.88,0,0,0,.87,2l14.85,8.16c1.23.75,4.82.62,6.31-.24l13.36-7.68a2.47,2.47,0,0,0,1.24-1.6h0A18.35,18.35,0,0,0,34.78,15"/><circle class="cls-4" cx="28.84" cy="8.79" r="8.29"/></g></g></svg>