<svg xmlns="http://www.w3.org/2000/svg" xmlns:xlink="http://www.w3.org/1999/xlink" viewBox="0 0 728.6 366.53"><defs><style>.cls-1,.cls-3,.cls-4,.cls-6,.cls-7,.cls-8,.cls-9{fill:none;}.cls-2{fill:#09ebaf;}.cls-3,.cls-4,.cls-5,.cls-8,.cls-9{stroke:#2e39bf;}.cls-14,.cls-3,.cls-6,.cls-8,.cls-9{stroke-linecap:round;}.cls-14,.cls-3,.cls-9{stroke-linejoin:round;}.cls-3{stroke-width:1.5px;}.cls-14,.cls-21,.cls-5{fill:#fff;}.cls-10,.cls-11,.cls-12,.cls-13,.cls-14,.cls-15,.cls-16,.cls-17,.cls-18,.cls-5{fill-rule:evenodd;}.cls-6,.cls-7{stroke:#98bffc;}.cls-14,.cls-6,.cls-7,.cls-8,.cls-9{stroke-width:2px;}.cls-10{fill:url(#linear-gradient);}.cls-11{fill:url(#linear-gradient-2);}.cls-12{fill:url(#linear-gradient-3);}.cls-13{fill:url(#linear-gradient-4);}.cls-14{stroke:#1a6ee2;}.cls-15,.cls-23{fill:#2e39bf;}.cls-16{fill:#252eb0;}.cls-17{fill:url(#linear-gradient-5);}.cls-18{fill:url(#linear-gradient-6);}.cls-19{isolation:isolate;}.cls-20{clip-path:url(#clip-path);}.cls-22{clip-path:url(#clip-path-2);}</style><linearGradient id="linear-gradient" x1="359.17" y1="1019.45" x2="441.03" y2="1019.45" gradientTransform="matrix(1, 0, 0, -1, 0, 1162.87)" gradientUnits="userSpaceOnUse"><stop offset="0" stop-color="#97befc"/><stop offset="1" stop-color="#abcaff"/></linearGradient><linearGradient id="linear-gradient-2" x1="359.17" y1="1015.71" x2="441.03" y2="1015.71" gradientTransform="matrix(1, 0, 0, -1, 0, 1162.87)" gradientUnits="userSpaceOnUse"><stop offset="0" stop-color="#afcdfd"/><stop offset="1" stop-color="#d7e6fe"/></linearGradient><linearGradient id="linear-gradient-3" x1="319.62" y1="939.94" x2="364.34" y2="939.94" xlink:href="#linear-gradient"/><linearGradient id="linear-gradient-4" x1="311.27" y1="938.11" x2="358.43" y2="938.11" xlink:href="#linear-gradient-2"/><linearGradient id="linear-gradient-5" x1="412.88" y1="229.21" x2="453.64" y2="229.21" gradientTransform="matrix(1, 0, 0, 1, 0, 0)" xlink:href="#linear-gradient"/><linearGradient id="linear-gradient-6" x1="412.93" y1="216.31" x2="453.58" y2="216.31" gradientTransform="matrix(1, 0, 0, 1, 0, 0)" xlink:href="#linear-gradient-2"/><clipPath id="clip-path"><polygon class="cls-1" points="525.21 154.24 482.87 130.48 523.12 109.21 565.46 132.97 525.21 154.24"/></clipPath><clipPath id="clip-path-2"><polygon class="cls-1" points="371.86 213.21 362.94 207.43 438.2 163.98 447.12 169.75 371.86 213.21"/></clipPath></defs><title>section-3-bg</title><g id="Layer_2" data-name="Layer 2"><g id="Layer_1-2" data-name="Layer 1"><path class="cls-2" d="M728.6,366.53S693,270.42,570.33,270.42,491,134.34,322.71,160.64C131.24,190.56,140-14.46,0,.81V366.53Z"/><path id="Kształt_1472" data-name="Kształt 1472" class="cls-3" d="M582.26,188.34l15.4-7.7c15.4-8,21.56-17.45,7.7-25.67C578.41,138.8,513,106.2,513,106.2"/><path id="Kształt_1559_kopia" data-name="Kształt 1559 kopia" class="cls-4" d="M402.56,187.28s-50.76,30-58.78,34.54-9.5,9.66-1.64,14.9C371.61,256,368,253.1,389.46,266.36c6.22,3.93,11.62,6.06,16.37,3.27,5.73-3.43,11.46-6.55,11.46-6.55"/><path id="Kształt_1538" data-name="Kształt 1538" class="cls-5" d="M561.54,192.84a2.27,2.27,0,0,1,0,4.26L435.8,270a8.67,8.67,0,0,1-7.54,0l-96.11-55.67,5.57-9.66,122-70.57,5.57,3.28Z"/><path id="Kształt_1538_kopia" data-name="Kształt 1538 kopia" class="cls-5" d="M464.61,26.16a2.36,2.36,0,0,0-1-2.29A2.93,2.93,0,0,0,461,24l-125.25,73a7.08,7.08,0,0,0-2.62,2.78,7,7,0,0,0-1,3.61V215.11l132.63-77.28Z"/><g id="charts"><path class="cls-6" d="M367.36,100.17c5.89-3.27,10.64-.65,10.64,5.9s-4.75,14.4-10.64,17.51-10.65.66-10.65-5.89S361.46,103.45,367.36,100.17Z"/><path class="cls-7" d="M398.46,82.16c5.9-3.27,10.65-.65,10.65,5.89s-4.75,14.41-10.65,17.52-10.64.66-10.64-5.89S392.57,85.44,398.46,82.16Zm29.48-16.37c5.89-3.28,10.64-.66,10.64,5.89s-4.75,14.41-10.64,17.52-10.65.66-10.65-5.89S422,69.06,427.94,65.79Z"/><path id="Elipsa_1549_kopia_4" data-name="Elipsa 1549 kopia 4" class="cls-8" d="M367.36,100.17c5.89-3.27,10.64-.65,10.64,5.9a22.14,22.14,0,0,1-5.73,13.59"/><path id="Elipsa_1549_kopia_5" data-name="Elipsa 1549 kopia 5" class="cls-9" d="M398.46,82.16c5.9-3.27,10.65-.65,10.65,5.89s-4.75,14.41-10.65,17.52c-2.94,1.64-5.56,1.81-7.53.66"/><path id="Elipsa_1549_kopia_6" data-name="Elipsa 1549 kopia 6" class="cls-9" d="M427.94,65.79c5.89-3.28,10.64-.66,10.64,5.89a21.87,21.87,0,0,1-7.37,15.23"/></g><path id="Kształt_1560_kopia" data-name="Kształt 1560 kopia" class="cls-10" d="M359.17,184V164.35s.16-27.67,8.19-27.83c6.71-.16,11.46,21.12,19.64,1.64,2.3-5.57,11.3,10.15,22.93,1.63,6.55-4.91,13.59-17.35,18.82-30.61,5.74-14.9,12.28,1.14,12.28,1.14v24.56Z"/><path id="Kształt_1560" data-name="Kształt 1560" class="cls-11" d="M359.17,184V164.35s1.8-8,9.82-8.18c6.72-.17,6.22,8.68,16.7,2.94,5.41-2.94,10.32-25.54,24.24-29.14,3.6-1,20.46,2.95,27.83-9.82a23.24,23.24,0,0,0,3.27-9.83v24.56Z"/><g id="Grupa_66" data-name="Grupa 66"><path id="Elipsa_1549_kopia_8" data-name="Elipsa 1549 kopia 8" class="cls-12" d="M341.4,195.08c-4.91-2.78-9.5-3.6-13.1-2.78-3.93,1.31-4.91,1.31-8.68,3.11l31.44,58.45s7.2-3.76,10-7.37a19.17,19.17,0,0,0,3.44-11.79C364.32,220,354,202.29,341.4,195.08Z"/><path id="Elipsa_1549_kopia_7" data-name="Elipsa 1549 kopia 7" class="cls-13" d="M334.85,197.7c-12.93-7.53-23.58-1.47-23.58,13.59s10.48,33.24,23.58,40.61,23.58,1.47,23.58-13.59S348,205.07,334.85,197.7Z"/><path id="Kształt_1570" data-name="Kształt 1570" class="cls-14" d="M335.67,233.72V217.35"/><path id="Kształt_1571" data-name="Kształt 1571" class="cls-14" d="M335.67,215.55l-6.55,3.27"/><path id="Kształt_1572" data-name="Kształt 1572" class="cls-14" d="M335.67,215.55l4.91,9.82"/></g><path id="Prostokąt_zaokrąglony_1402_kopia_3-2" data-name="Prostokąt zaokrąglony 1402 kopia 3-2" class="cls-15" d="M589.44,198.51a5.59,5.59,0,0,1-2.91,3.61l-59.85,34.29c-4.28,2.57-12,2.23-17-.68l-51.45-29c-3.08-1.72-4.46-4.12-4.11-6.35V171.94l135.29-3.43Z"/><path id="Prostokąt_zaokrąglony_1402_kopia_4-2" data-name="Prostokąt zaokrąglony 1402 kopia 4-2" class="cls-16" d="M457.23,167.82l59.68-32.92c4.29-2.4,11.83-2.23,17,.68l51.45,27.95c5,2.75,5.49,7.21,1.2,9.61l-59.68,32.92c-4.28,2.4-11.83,2.23-17-.69l-51.45-28.12C449.35,172.28,456.89,168,457.23,167.82Z"/><path id="Prostokąt_zaokrąglony_1402_kopia_16-2" data-name="Prostokąt zaokrąglony 1402 kopia 16-2" class="cls-15" d="M589.44,156.67a5.59,5.59,0,0,1-2.91,3.61l-59.85,33.26c-4.28,2.4-12,2.23-17-.68l-51.45-28.13c-3.08-1.71-4.46-4.11-4.11-6.17V131a4.88,4.88,0,0,1,2.91-3.43l59.85-33.44c4.29-2.4,12-2.22,17,.69l51.45,28.29c3.08,1.72,4.46,4.12,4.11,6.18Z"/><path id="Elipsa_1386" data-name="Elipsa 1386" class="cls-3" d="M415,218.35c10.09-6.65,26.39-6.65,36.47,0s10.08,17.59,0,24.24-26.38,6.65-36.47,0S404.94,225,415,218.35Z"/><path id="Prostokąt_1389" data-name="Prostokąt 1389" class="cls-17" d="M447.63,238.3a29.77,29.77,0,0,1-28.74,0,11.28,11.28,0,0,1-6-9V216.42h40.76v12.65C453.64,232.29,451.7,235.72,447.63,238.3Z"/><path id="Elipsa_1386_kopia_2" data-name="Elipsa 1386 kopia 2" class="cls-18" d="M418.89,207.2a29.72,29.72,0,0,1,28.74,0c7.94,4.93,7.94,13.08,0,18.23a29.77,29.77,0,0,1-28.74,0C411,220.49,411,212.34,418.89,207.2Z"/><g class="cls-19"><g class="cls-20"><path class="cls-21" d="M504.8,139.93a2.64,2.64,0,0,1-2.22,0l-.12-.07h0c-8.22-5.81-7.54-14,2.05-19.13s24.76-5.2,35.17-.54l.14.07a.71.71,0,0,1,.44.61.68.68,0,0,1-.43.58l0,0a2.52,2.52,0,0,1-.33.13,31.92,31.92,0,0,1-4.48.76,16.44,16.44,0,0,0-5.45,1.73l-.06,0-.08,0a7.07,7.07,0,0,0-3.66,3.58,6,6,0,0,1-3.19,3.12,15.18,15.18,0,0,1-5.8,1.64,17.79,17.79,0,0,0-6.67,1.88l-.09,0-.05,0a7.52,7.52,0,0,0-3.35,2.92,8.2,8.2,0,0,1-1.52,2.41,1.24,1.24,0,0,1-.26.19M503,119.85c-10.35,5.48-11.1,14.38-2.21,20.67h0l.29.19a5.74,5.74,0,0,0,2.64.62,5.52,5.52,0,0,0,2.59-.55,2.62,2.62,0,0,0,.62-.43,9.1,9.1,0,0,0,1.71-2.63,6.1,6.1,0,0,1,2.86-2.48,14.78,14.78,0,0,1,5.8-1.64A18.07,18.07,0,0,0,524,131.7l.09,0,.08,0a7,7,0,0,0,3.65-3.57,6,6,0,0,1,3.2-3.11,13.37,13.37,0,0,1,4.63-1.48,36.36,36.36,0,0,0,4.88-.86,3.51,3.51,0,0,0,.81-.32,1.48,1.48,0,0,0,0-2.85l-.33-.16c-11.27-5-27.61-4.89-38,.59"/><path class="cls-21" d="M529.37,133.82c-.41.23-.41.59,0,.82l10,5.51a3.61,3.61,0,0,1,1.89,2.27,2.22,2.22,0,0,1-1.14,2.26,5.93,5.93,0,0,1-.56.34,9.85,9.85,0,0,1-4.63,1,10.06,10.06,0,0,1-4.64-1.12,1.79,1.79,0,0,0-1.5,0c-.41.22-.41.59,0,.82a14.36,14.36,0,0,0,12.28.22c.27-.15.51-.3.74-.45a3,3,0,0,0,1.57-3.07,4.66,4.66,0,0,0-2.48-3h0l-10-5.53a1.77,1.77,0,0,0-1.51,0"/></g></g><g class="cls-19"><g class="cls-22"><polyline class="cls-23" points="369.17 203.99 363.06 207.51 371.75 213.13 377.89 209.58 376.69 208.8 372.18 211.41 369.5 209.68 373.36 207.45 372.17 206.68 368.31 208.91 365.91 207.36 370.38 204.78 369.17 203.99"/><path class="cls-23" d="M380.71,206.48,378,204.72l1.95-1.12a2.62,2.62,0,0,1,2.88,0c.42.27.6.57.55.88s-.33.63-.85.93l-1.81,1M376.89,204l-2.44-1.58,1.58-.92a3.62,3.62,0,0,1,1.52-.52,2.13,2.13,0,0,1,1.33.37c.39.25.55.53.47.83s-.35.6-.86.9l-1.6.92m-2.07-3.28-3.22,1.86,8.68,5.61,3.42-2c1.06-.61,1.65-1.22,1.78-1.83s-.22-1.18-1-1.71a3.87,3.87,0,0,0-1.69-.58,4.57,4.57,0,0,0-1.89.22,1.21,1.21,0,0,0,.27-1.07,1.49,1.49,0,0,0-.71-.89,4.1,4.1,0,0,0-2.6-.66,6.86,6.86,0,0,0-3,1"/><path class="cls-23" d="M387.46,193.28a3.51,3.51,0,0,0-1.53,1.5,1.91,1.91,0,0,0,.1,1.72,4.72,4.72,0,0,0,1.69,1.67l.81.52a8.17,8.17,0,0,0,2.59,1.09,7.59,7.59,0,0,0,2.72.14,6.75,6.75,0,0,0,2.47-.83c1.07-.62,1.67-1.28,1.79-2a2.14,2.14,0,0,0-1.06-2.05l-1.62.94c.53.45.77.86.72,1.21s-.41.73-1.05,1.1a3.66,3.66,0,0,1-2.34.44,6.5,6.5,0,0,1-2.69-1.08l-.77-.49c-.92-.61-1.43-1.17-1.53-1.71s.21-1,.93-1.4a3.47,3.47,0,0,1,1.8-.54,4.17,4.17,0,0,1,1.94.54l1.62-.94a6.55,6.55,0,0,0-3.31-.79,6.85,6.85,0,0,0-3.28.94"/><path class="cls-23" d="M404.16,193.14a2.88,2.88,0,0,1-1.8.36,4.75,4.75,0,0,1-2-.76q-1.11-.72-1.23-1.35c-.07-.41.15-.77.66-1.07a2.93,2.93,0,0,1,1.81-.34,4.53,4.53,0,0,1,2,.74c.74.48,1.15.92,1.23,1.34s-.13.78-.66,1.08m-5.54-3.57a3.05,3.05,0,0,0-1.29,1.25,1.53,1.53,0,0,0,0,1.41,3.49,3.49,0,0,0,1.3,1.34l.07,0a6.42,6.42,0,0,0,3.31,1.06,5.93,5.93,0,0,0,3.28-.78,3,3,0,0,0,1.29-1.25,1.54,1.54,0,0,0,0-1.4,3.6,3.6,0,0,0-1.31-1.34l-.35-.21a6.3,6.3,0,0,0-3.18-.9,6,6,0,0,0-3.13.78"/><path class="cls-23" d="M407.78,184.28c-.83.48-1.22,1.06-1.16,1.73l-.8-.46-1.48.86,6.46,4.17,1.57-.9-4.59-3c-.22-.53,0-1,.62-1.33a2.33,2.33,0,0,1,1.23-.36,2.37,2.37,0,0,1,1.2.43l4.18,2.7,1.57-.9-4.27-2.76a4.12,4.12,0,0,0-4.53-.21"/><path class="cls-23" d="M416.2,179.42c-.84.49-1.23,1.07-1.18,1.73l-.79-.45-1.47.85,6.45,4.18,1.57-.91-4.59-3c-.22-.52,0-1,.62-1.33a2.23,2.23,0,0,1,1.23-.35,2.45,2.45,0,0,1,1.19.42l4.19,2.71,1.57-.91-4.26-2.76a4.12,4.12,0,0,0-4.53-.21"/><path class="cls-23" d="M425.15,177.61a1.58,1.58,0,0,1-.65-1.05c0-.33.19-.62.62-.87a2.54,2.54,0,0,1,1.4-.35,3.35,3.35,0,0,1,1.51.47l.11.07-3,1.73M424,174.94a2.78,2.78,0,0,0-1.2,1.21,1.65,1.65,0,0,0,.05,1.42,3.61,3.61,0,0,0,1.33,1.35l.18.11a5.94,5.94,0,0,0,3.23,1,6.3,6.3,0,0,0,3.29-.83,3.47,3.47,0,0,0,1.25-1.12,1.5,1.5,0,0,0,.22-1.22h-1.59c.09.61-.23,1.12-1,1.54a3.36,3.36,0,0,1-1.74.43,3.74,3.74,0,0,1-1.84-.48l4.57-2.64-.59-.37a6.39,6.39,0,0,0-3.16-1.09,5.33,5.33,0,0,0-3.05.73"/><path class="cls-23" d="M432.11,170.24c-1,.57-1.47,1.2-1.44,1.91s.52,1.38,1.5,2l.15.09a6.46,6.46,0,0,0,3.28,1.08,5.9,5.9,0,0,0,3.2-.78,3.06,3.06,0,0,0,1.11-1,1.5,1.5,0,0,0,.2-1.13,1.69,1.69,0,0,0-.72-1l-1.47.85a.74.74,0,0,1,.36.75,1.13,1.13,0,0,1-.65.76,2.71,2.71,0,0,1-1.7.35,4.54,4.54,0,0,1-2-.77l-.23-.15c-.69-.45-1.07-.87-1.13-1.24s.16-.72.67-1a2.58,2.58,0,0,1,1.33-.34,2.63,2.63,0,0,1,1.32.36l1.48-.86a4.84,4.84,0,0,0-2.58-.66,5.39,5.39,0,0,0-2.7.74"/><path class="cls-23" d="M437.71,165.22l-1.56.91,1.57,1-1.15.66,1.07.7,1.15-.66,3.66,2.36a3.25,3.25,0,0,0,3.64.15,4.63,4.63,0,0,0,.9-.68l-1.12-.73a3.64,3.64,0,0,1-.49.36,1.39,1.39,0,0,1-.73.21,1.42,1.42,0,0,1-.69-.25l-3.6-2.33,1.23-.71-1.07-.7-1.24.72-1.57-1"/></g></g></g></g></svg>