<svg xmlns="http://www.w3.org/2000/svg" xmlns:xlink="http://www.w3.org/1999/xlink" viewBox="0 0 608.65 331.76"><defs><style>.cls-1,.cls-10,.cls-3{fill:none;}.cls-2{fill:#09ebaf;}.cls-10,.cls-3,.cls-7{stroke:#2e39bf;stroke-width:1.5px;}.cls-10,.cls-3,.cls-7,.cls-8{stroke-linecap:round;stroke-linejoin:round;}.cls-10,.cls-11,.cls-4,.cls-5,.cls-6,.cls-8,.cls-9{fill-rule:evenodd;}.cls-4{fill:url(#linear-gradient);}.cls-5{fill:url(#linear-gradient-2);}.cls-6{fill:url(#linear-gradient-3);}.cls-14,.cls-7{fill:#fff;}.cls-8,.cls-9{fill:#2e39bf;}.cls-8{stroke:#252eb0;stroke-width:2px;}.cls-11{fill:#252eb0;}.cls-12{isolation:isolate;}.cls-13{clip-path:url(#clip-path);}</style><linearGradient id="linear-gradient" x1="124.81" y1="-2252.14" x2="199.54" y2="-2209" gradientTransform="matrix(1, 0, 0, -1, 0, -2116.41)" gradientUnits="userSpaceOnUse"><stop offset="0" stop-color="#afcdfd"/><stop offset="1" stop-color="#d7e6fe"/></linearGradient><linearGradient id="linear-gradient-2" x1="130.74" y1="-2231.88" x2="227.74" y2="-2175.88" gradientTransform="matrix(1, 0, 0, -1, 0, -2116.41)" gradientUnits="userSpaceOnUse"><stop offset="0" stop-color="#97befc"/><stop offset="1" stop-color="#abcaff"/></linearGradient><linearGradient id="linear-gradient-3" x1="124.01" y1="-2206.05" x2="246.85" y2="-2135.13" xlink:href="#linear-gradient"/><clipPath id="clip-path"><polygon class="cls-1" points="289.1 125.2 263.23 113.38 314.44 87.29 340.31 99.11 289.1 125.2"/></clipPath></defs><title>section8</title><g id="Layer_2" data-name="Layer 2"><g id="Layer_1-2" data-name="Layer 1"><path class="cls-2" d="M0,51.15s57.25-63.06,129.18-.64c57.45,49.85,66.19,209.16,247.93,155,37.19-11.08,78.63-4,109.12,51.65,34.88,63.73,122.42,74.57,122.42,74.57H0Z"/><path id="Kształt_1472" data-name="Kształt 1472" class="cls-3" d="M139,133.59,128.16,139c-10.85,5.6-15.19,12.3-5.42,18.08,19,11.4,65.1,34.36,65.1,34.36"/><path class="cls-4" d="M187.84,99.05c0-4.88.36-9.22,5.25-12.12l2.35-1.44L114.6,86.57v29.66c0,2.35,1.08,4.7,4.34,6.51l54.25,29.66a21.72,21.72,0,0,0,14.65,2Z"/><path class="cls-5" d="M187.84,99.05c0-4.88.36-9.22,5.25-12.12l38-21.7L198.69,47.51c-5.24-3.08-13.2-3.26-17.9-.72L117.67,81.87c-4.52,2.71-4,7.23,1.27,10.13l54.25,29.66a21.64,21.64,0,0,0,14.65,2Z"/><path class="cls-6" d="M187.84,99.05c0-4.88.36-9.22,5.25-12.12l64.2-36.71V40.46c0-3.62-.18-6-4.34-8.32L198.69,2.48c-5.24-3.08-13.2-3.26-17.9-.73L117.67,36.66c-1.63.72-3.07,1.44-3.07,3.8V71.38c0,2.71,1.08,4.7,4.34,6.51l54.25,29.66a21.72,21.72,0,0,0,14.65,2Z"/><path id="Prostokąt_zaokrąglony_1356" data-name="Prostokąt zaokrąglony 1356" class="cls-7" d="M225.64,215.34,193.09,234c-4.89,2.9-5.25-.72-5.25-5.6V99.05c0-4.88.36-9.22,5.25-12.12L332.7,7.18c4.88-2.89,8.86-2.89,8.86,2V142.09c0,4.89-4,9.23-8.86,12.12"/><path id="Elipsa_1360" data-name="Elipsa 1360" class="cls-8" d="M200.14,96.52c1.27-.72,2.35-.18,2.35.9a4.07,4.07,0,0,1-2.35,3.26c-1.27.72-2.17.18-2.17-.91A3.56,3.56,0,0,1,200.14,96.52Z"/><path id="Elipsa_1360_kopia_2" data-name="Elipsa 1360 kopia 2" class="cls-8" d="M226.18,81.87c1.27-.72,2.17-.18,2.17.9A4.28,4.28,0,0,1,226.18,86c-1.26.72-2.17.18-2.17-.9A4.17,4.17,0,0,1,226.18,81.87Z"/><path id="Elipsa_1360_kopia" data-name="Elipsa 1360 kopia" class="cls-8" d="M213.16,89.1c1.27-.72,2.17-.18,2.17.91a4.26,4.26,0,0,1-2.17,3.25c-1.27.73-2.17.18-2.17-.9A4,4,0,0,1,213.16,89.1Z"/><path id="Elipsa_1543_kopia_3" data-name="Elipsa 1543 kopia 3" class="cls-9" d="M286.4,243a6.83,6.83,0,0,1-3.07-5.43,1.88,1.88,0,0,1,1.45-2.17,1.73,1.73,0,0,1,1.62.36,6.81,6.81,0,0,1,3.08,5.43A1.92,1.92,0,0,1,286.4,243Zm-23.51-12.66a6.83,6.83,0,0,1-3.07-5.43,1.88,1.88,0,0,1,1.45-2.17,1.73,1.73,0,0,1,1.62.36,6.81,6.81,0,0,1,3.08,5.43,1.92,1.92,0,0,1-3.08,1.81ZM243,219.5a6.8,6.8,0,0,1-3.07-5.43,1.88,1.88,0,0,1,1.44-2.17,1.74,1.74,0,0,1,1.63.36,6.8,6.8,0,0,1,3.07,5.43A1.91,1.91,0,0,1,243,219.5Zm-21.7-12.66a6.81,6.81,0,0,1-3.08-5.43,1.88,1.88,0,0,1,1.45-2.17,1.75,1.75,0,0,1,1.63.36,6.8,6.8,0,0,1,3.07,5.43,1.88,1.88,0,0,1-1.44,2.17A1.85,1.85,0,0,1,221.3,206.84Z"/><path id="Prostokąt_zaokrąglony_1402_kopia_17" data-name="Prostokąt zaokrąglony 1402 kopia 17" class="cls-7" d="M309,139l75.23,41.41c5.25,3.08,5.79,13,1.27,15.56l-91,53.35s5.79-10-2.71-15.19L215,191.46"/><path id="Kształt_1541" data-name="Kształt 1541" class="cls-10" d="M296.35,248.07s-3.62,3.8-10.85,0c-23.51-12.48-72.34-39.79-72.34-39.79"/><path id="Prostokąt_zaokrąglony_1402_kopia_4-2" data-name="Prostokąt zaokrąglony 1402 kopia 4-2" class="cls-11" d="M235.59,148.06l62.93-34.72c4.52-2.53,12.48-2.35,17.9.72l54.26,29.48c5.24,2.89,5.79,7.6,1.27,10.13L309,188.39c-4.52,2.53-12.48,2.35-17.9-.72L236.85,158C227.27,152.76,235.22,148.24,235.59,148.06Z"/><path id="Prostokąt_zaokrąglony_1402_kopia_16-2" data-name="Prostokąt zaokrąglony 1402 kopia 16-2" class="cls-9" d="M375,136.31A5.9,5.9,0,0,1,372,140.1l-63.12,35.09c-4.52,2.53-12.66,2.35-17.9-.73l-54.26-29.65c-3.25-1.81-4.7-4.34-4.34-6.51V109.18a5.14,5.14,0,0,1,3.07-3.62L298.52,70.3c4.52-2.54,12.66-2.35,17.9.72l54.26,29.84c3.25,1.81,4.7,4.34,4.34,6.51Z"/><g class="cls-12"><g class="cls-13"><path class="cls-14" d="M286.24,116.09l-4-3.23c-1.13-.86-2.68-2-3.88-2.81l.1,0c1.85.49,4.22,1.17,6.13,1.66l6.94,1.73-5.3,2.7m-8.41-10-7.08,3.61,18.35,15.47,5.62-2.87-4.92-3.87,6.91-3.51,8.44,2.06,5.84-3-33.16-7.92"/><path class="cls-14" d="M307.85,102.57a12.65,12.65,0,0,1-2,.86L298.31,100a9.91,9.91,0,0,1,2-1.21,9.25,9.25,0,0,1,8-.46c2.59,1.18,2.37,2.81-.51,4.27m-12.2-5.71a52.37,52.37,0,0,0-6.8,4l25.34,11.58,5.38-2.74-9.22-4.21a14.21,14.21,0,0,0,2-.87c3.21-1.64,5.08-3.43,5.09-5.21.06-1.39-1.33-2.75-3.88-3.92a17.84,17.84,0,0,0-8.48-1.39,23.58,23.58,0,0,0-9.42,2.78"/><polyline class="cls-14" points="314.64 87.37 309.22 90.13 334.9 101.87 340.31 99.11 314.64 87.37"/></g></g></g></g></svg>