<svg xmlns="http://www.w3.org/2000/svg" xmlns:xlink="http://www.w3.org/1999/xlink" viewBox="0 0 554.53 281.82"><defs><style>.cls-1,.cls-3{fill:none;}.cls-2{fill:#feb155;}.cls-3,.cls-9{stroke:#2e39bf;stroke-linecap:round;stroke-linejoin:round;}.cls-3{stroke-width:1.5px;}.cls-4{fill:#3b8bff;}.cls-10,.cls-11,.cls-12,.cls-13,.cls-4,.cls-5,.cls-6,.cls-7,.cls-8,.cls-9{fill-rule:evenodd;}.cls-5,.cls-9{fill:#2e39bf;}.cls-6{fill:url(#linear-gradient);}.cls-7{fill:url(#linear-gradient-2);}.cls-8{fill:url(#linear-gradient-3);}.cls-9{stroke-width:2px;}.cls-10{fill:url(#linear-gradient-4);}.cls-11{fill:url(#linear-gradient-5);}.cls-12{fill:url(#linear-gradient-6);}.cls-13{fill:url(#linear-gradient-7);}.cls-14{isolation:isolate;}.cls-15{clip-path:url(#clip-path);}.cls-16{fill:#fff;}</style><linearGradient id="linear-gradient" x1="251.67" y1="-411.36" x2="315.13" y2="-411.36" gradientTransform="matrix(1, 0, 0, -1, 0, -369.76)" gradientUnits="userSpaceOnUse"><stop offset="0" stop-color="#97befc"/><stop offset="1" stop-color="#abcaff"/></linearGradient><linearGradient id="linear-gradient-2" x1="322.7" y1="-384.32" x2="363.09" y2="-384.32" xlink:href="#linear-gradient"/><linearGradient id="linear-gradient-3" x1="227.49" y1="-479.95" x2="243.29" y2="-479.95" xlink:href="#linear-gradient"/><linearGradient id="linear-gradient-4" x1="351.41" y1="-432.43" x2="414.87" y2="-432.43" gradientTransform="matrix(1, 0, 0, -1, 0, -369.76)" gradientUnits="userSpaceOnUse"><stop offset="0" stop-color="#afcdfd"/><stop offset="1" stop-color="#d7e6fe"/></linearGradient><linearGradient id="linear-gradient-5" x1="272.83" y1="-476.26" x2="336.29" y2="-476.26" xlink:href="#linear-gradient-4"/><linearGradient id="linear-gradient-6" x1="185.18" y1="-508.7" x2="259.23" y2="-508.7" xlink:href="#linear-gradient-4"/><linearGradient id="linear-gradient-7" x1="185.18" y1="-478.78" x2="216.92" y2="-478.78" xlink:href="#linear-gradient"/><clipPath id="clip-path"><polygon class="cls-1" points="320.57 152.71 320.32 127.32 363.4 102.23 363.54 127.53 320.57 152.71"/></clipPath></defs><title>section-5-bg</title><g id="Layer_2" data-name="Layer 2"><g id="Layer_1-2" data-name="Layer 1"><path class="cls-2" d="M0,281.82s60.56-73.42,146-79.75,131,27.53,207.29-37.14c69.08-58.61,95.29-118.86,201.2-108.87V281.82Z"/><path id="Kształt_1554" data-name="Kształt 1554" class="cls-3" d="M386.17,176.77s6.5-4.08,9.07-6,3.62-7.11-4.54-12.09c-6.65-4.08-37.78-21.16-37.78-21.16"/><path id="Kształt_1473" data-name="Kształt 1473" class="cls-3" d="M362.44,192.34c-.15.15-4.53,3.32-16,10-9.68,5.74-16.48,4.23-23.58.45C294.14,187.35,277.51,178,277.51,178"/><path id="Elipsa_1386" data-name="Elipsa 1386" class="cls-3" d="M362,175.11c7.1-4.68,18.59-4.68,25.69,0s7.1,12.39,0,17.08-18.59,4.68-25.69,0S354.89,179.79,362,175.11Z"/><path id="Prostokąt_1389" data-name="Prostokąt 1389" class="cls-4" d="M385,189.16a20.94,20.94,0,0,1-20.25,0,7.93,7.93,0,0,1-4.23-6.34v-9.07h28.71v8.92C389.19,184.93,387.83,187.35,385,189.16Z"/><path id="Elipsa_1386_kopia_2" data-name="Elipsa 1386 kopia 2" class="cls-5" d="M364.71,167.25a21,21,0,0,1,20.25,0c5.59,3.48,5.59,9.22,0,12.85a21,21,0,0,1-20.25,0C359.12,176.62,359.12,170.88,364.71,167.25Z"/><path id="Prostokąt_zaokrąglony_1356_kopia_10" data-name="Prostokąt zaokrąglony 1356 kopia 10" class="cls-6" d="M251.67,69.63V51.34a7.63,7.63,0,0,1,3.63-5.59l56.07-31.58c2-1.21,3.62-.46,3.62,1.51V33.36Z"/><path id="Prostokąt_zaokrąglony_1356_kopia_13" data-name="Prostokąt zaokrąglony 1356 kopia 13" class="cls-7" d="M322.7,29.13V7.52s2.72-1.66,6.35-3.78c8.61-5,22.51-5,31,0a14.39,14.39,0,0,1,3,2.27Z"/><path id="Prostokąt_zaokrąglony_1356_kopia_16" data-name="Prostokąt zaokrąglony 1356 kopia 16" class="cls-8" d="M242.61,82.47v54.1l-11.49,6.5c-2,1.21-3.63.46-3.63-1.51V89.12a7.63,7.63,0,0,1,3.63-5.59l12.09-6.8A18,18,0,0,0,242.61,82.47Z"/><path id="Prostokąt_zaokrąglony_1356" data-name="Prostokąt zaokrąglony 1356" class="cls-3" d="M246.23,72.35,362.9,5.55c4.08-2.41,7.4-2.41,7.4,1.67V118.44c0,4.08-3.32,7.71-7.4,10.12l-116.67,66.8c-4.08,2.42-4.38-.6-4.38-4.68V82.47C241.85,78.39,242.15,74.77,246.23,72.35Z"/><path id="Elipsa_1360" data-name="Elipsa 1360" class="cls-9" d="M252.73,80.81c1.06-.6,2-.15,2,.76a3.43,3.43,0,0,1-2,2.72c-1.06.6-1.81.15-1.81-.76A3.57,3.57,0,0,1,252.73,80.81Z"/><path id="Elipsa_1360_kopia" data-name="Elipsa 1360 kopia" class="cls-9" d="M263.76,74.62c1.06-.61,1.82-.16,1.82.75a3.58,3.58,0,0,1-1.82,2.72c-1.06.61-1.81.15-1.81-.75A3.34,3.34,0,0,1,263.76,74.62Z"/><path id="Elipsa_1360_kopia_2" data-name="Elipsa 1360 kopia 2" class="cls-9" d="M274.64,68.57c1.06-.6,1.82-.15,1.82.76a3.59,3.59,0,0,1-1.82,2.72c-1.05.6-1.81.15-1.81-.76A3.16,3.16,0,0,1,274.64,68.57Z"/><path id="Prostokąt_zaokrąglony_1356_kopia_8" data-name="Prostokąt zaokrąglony 1356 kopia 8" class="cls-10" d="M355,48.77,411.1,17.19c2-1.21,3.63-.45,3.63,1.51V71a7.58,7.58,0,0,1-3.63,5.59L355,108.16c-2,1.21-3.63.46-3.63-1.51V54.37A7.33,7.33,0,0,1,355,48.77Z"/><path id="Prostokąt_zaokrąglony_1356_kopia_9" data-name="Prostokąt zaokrąglony 1356 kopia 9" class="cls-11" d="M276.46,92.6,332.52,61c2-1.2,3.63-.45,3.63,1.52v52.28a7.56,7.56,0,0,1-3.63,5.59L276.46,152c-2,1.21-3.63.45-3.63-1.51V98.19A7.31,7.31,0,0,1,276.46,92.6Z"/><g id="Grupa_62" data-name="Grupa 62"><path id="Prostokąt_zaokrąglony_1356_kopia_12" data-name="Prostokąt zaokrąglony 1356 kopia 12" class="cls-12" d="M255.6,165.74s-14.81,7.86-29.47,16a18.41,18.41,0,0,1-2.11,1.51c-8.92,5.29-23.27,5.29-32,0-3.78-2.27-5.89-5.14-6.5-8.16h-.15v-61.2a11.25,11.25,0,0,1,6-9.68c16.47-9.21,21.91-13,21.91-13,2.11-1.21,3.78-.45,3.78,1.51l-3,32.94a26,26,0,0,0,9.07-1.66c15.57-8.76,32.64-17.53,32.64-17.53,2-1.21,3.63-.45,3.63,1.51V160.3A7.48,7.48,0,0,1,255.6,165.74Z"/><path id="Prostokąt_zaokrąglony_1356_kopia_15" data-name="Prostokąt zaokrąglony 1356 kopia 15" class="cls-13" d="M216.92,125.69c-8.32,2.12-18.29,1.21-25.09-2.87-8.92-5.29-8.92-13.9,0-19.19,4.53-2.72,15.26-9.22,21-11.94,3.62-1.66,4.08,1.66,4.08,3.78Z"/></g><g id="wp"><path id="Prostokąt_zaokrąglony_1356_kopia_6" data-name="Prostokąt zaokrąglony 1356 kopia 6" class="cls-5" d="M312.73,113.6,368.79,82c2-1.21,3.63-.45,3.63,1.51v52.29a7.58,7.58,0,0,1-3.63,5.59L312.73,173c-2,1.06-3.63.46-3.63-1.51V119.35A7.87,7.87,0,0,1,312.73,113.6Z"/></g><g class="cls-14"><g class="cls-15"><polyline class="cls-16" points="340.85 115.43 335.91 118.31 336 128.24 341.09 125.27 341.07 123.43 337.79 125.34 337.77 122.99 340.72 121.27 340.7 119.44 337.75 121.16 337.74 119.11 340.86 117.28 340.85 115.43"/><path class="cls-16" d="M344.81,121.54l-.22.13-.18.1-.16.08-.14.06,0-2.79.62-.37a2.91,2.91,0,0,1,.63-.29,1.07,1.07,0,0,1,.52,0,.47.47,0,0,1,.35.23,1.05,1.05,0,0,1,.13.56,2.21,2.21,0,0,1-.12.74,2.24,2.24,0,0,1-.34.65,3.05,3.05,0,0,1-.49.53,3.43,3.43,0,0,1-.58.42m-.74-4v-2.3a.63.63,0,0,1,.12-.1l.17-.12.21-.14.27-.17a2.24,2.24,0,0,1,.55-.24.69.69,0,0,1,.4,0,.37.37,0,0,1,.25.21,1,1,0,0,1,.09.45,1.76,1.76,0,0,1-.09.55,2.16,2.16,0,0,1-.27.55,2.72,2.72,0,0,1-.46.51,3.41,3.41,0,0,1-.63.46l-.6.35m.53-4.33-.69.42-.65.43-.57.4-.43.34.07,9.73.35-.15.45-.21.53-.28c.2-.1.4-.22.63-.35q.58-.35,1.08-.69c.32-.23.61-.46.86-.68a7.26,7.26,0,0,0,.68-.68,5.09,5.09,0,0,0,.51-.69,4.42,4.42,0,0,0,.34-.6,5,5,0,0,0,.26-.64,5.28,5.28,0,0,0,.16-.66,4,4,0,0,0,.06-.68,2.64,2.64,0,0,0-.13-.81,1.15,1.15,0,0,0-.34-.52,1,1,0,0,0-.5-.24,1.59,1.59,0,0,0-.64,0v0a5.45,5.45,0,0,0,.58-.73,5.27,5.27,0,0,0,.4-.73,4.44,4.44,0,0,0,.24-.73,3.21,3.21,0,0,0,.07-.68,2.74,2.74,0,0,0-.07-.6,1.56,1.56,0,0,0-.2-.43,1,1,0,0,0-.31-.26.8.8,0,0,0-.38-.11,1.85,1.85,0,0,0-.47,0,2.39,2.39,0,0,0-.52.14,3.54,3.54,0,0,0-.62.27c-.23.11-.48.25-.75.4"/><path class="cls-16" d="M324.86,139.93a7.94,7.94,0,0,0-1.71,1.34,9.06,9.06,0,0,0-1.38,1.83,9.5,9.5,0,0,0-.93,2.19,9,9,0,0,0-.32,2.44,5.53,5.53,0,0,0,.29,1.81,2.2,2.2,0,0,0,.81,1.11,2,2,0,0,0,1.33.27,5,5,0,0,0,1.83-.69c.24-.14.47-.29.68-.44s.41-.3.59-.45.33-.28.46-.41a4.26,4.26,0,0,0,.31-.33l-.28-1.6a3,3,0,0,1-.31.31c-.12.11-.24.22-.37.32l-.41.31-.43.27a2.81,2.81,0,0,1-1.08.41,1.22,1.22,0,0,1-.81-.18,1.43,1.43,0,0,1-.51-.72,3.88,3.88,0,0,1-.19-1.23,6.06,6.06,0,0,1,.19-1.56,5.43,5.43,0,0,1,.53-1.34,5,5,0,0,1,1.8-1.87,3.5,3.5,0,0,1,.47-.24,2.66,2.66,0,0,1,.41-.16l.35-.09.3,0,.36-2-.31,0-.45.12c-.16.06-.35.13-.56.23a7.29,7.29,0,0,0-.66.35"/><path class="cls-16" d="M330.45,145.31a.81.81,0,0,1-.51.13.52.52,0,0,1-.37-.23,1.28,1.28,0,0,1-.24-.54,3.83,3.83,0,0,1-.08-.81,4.68,4.68,0,0,1,.05-.83,4.59,4.59,0,0,1,.21-.81,2.79,2.79,0,0,1,.36-.71,1.78,1.78,0,0,1,.55-.51.74.74,0,0,1,.53-.12.69.69,0,0,1,.36.28,2,2,0,0,1,.21.57,3.54,3.54,0,0,1,.07.75,5.45,5.45,0,0,1-.07.92,4.66,4.66,0,0,1-.22.82,2.68,2.68,0,0,1-.36.65,2,2,0,0,1-.48.44h0m0-5.95a6,6,0,0,0-1.28,1,6.5,6.5,0,0,0-1,1.34,6.67,6.67,0,0,0-.62,1.57,7,7,0,0,0-.21,1.71,4,4,0,0,0,.25,1.42,1.56,1.56,0,0,0,.64.79,1.49,1.49,0,0,0,1,.17,3.19,3.19,0,0,0,1.18-.44h0a5.68,5.68,0,0,0,1.12-.89,6.26,6.26,0,0,0,1-1.27,6.46,6.46,0,0,0,.68-1.59,7,7,0,0,0,.25-1.85,4,4,0,0,0-.23-1.37,1.65,1.65,0,0,0-.61-.82,1.4,1.4,0,0,0-.94-.21,2.86,2.86,0,0,0-1.21.43"/><path class="cls-16" d="M338,135a3.58,3.58,0,0,0-.66.5,4.69,4.69,0,0,0-.51.59,5.91,5.91,0,0,0-.38.6,4.68,4.68,0,0,0-.24.53h0l-.09-.95-1.57.91c0,.16,0,.33,0,.5s0,.35,0,.54,0,.38,0,.59,0,.42,0,.64l0,4.89,1.8-1,0-4.14V139a.76.76,0,0,1,0-.15s0-.1,0-.15a.74.74,0,0,1,0-.14,3.3,3.3,0,0,1,.12-.38,3.37,3.37,0,0,1,.19-.38,3,3,0,0,1,.26-.34,1.44,1.44,0,0,1,.34-.27.7.7,0,0,1,.42-.13.32.32,0,0,1,.28.15.88.88,0,0,1,.17.39,3.49,3.49,0,0,1,.06.61l0,4,1.8-1.06,0-4.24a4.86,4.86,0,0,0-.17-1.29,1.45,1.45,0,0,0-.45-.71.89.89,0,0,0-.66-.19,1.92,1.92,0,0,0-.82.3"/><path class="cls-16" d="M344.93,130.9a3.58,3.58,0,0,0-.66.5,5.51,5.51,0,0,0-.51.59,5.75,5.75,0,0,0-.37.6,5.57,5.57,0,0,0-.24.52l0,0-.08-1-1.57.91c0,.16,0,.33,0,.5s0,.35,0,.54,0,.38,0,.59,0,.42,0,.65l0,4.88,1.8-1.06,0-4.13v-.16a.76.76,0,0,0,0-.15.77.77,0,0,1,0-.15.68.68,0,0,1,0-.14c0-.12.08-.24.13-.37a3.49,3.49,0,0,1,.19-.39,2.24,2.24,0,0,1,.27-.34,1.4,1.4,0,0,1,.33-.27.74.74,0,0,1,.42-.13.35.35,0,0,1,.29.15.94.94,0,0,1,.16.39,3.49,3.49,0,0,1,.06.61l0,4,1.79-1.05,0-4.24a4.44,4.44,0,0,0-.16-1.28,1.49,1.49,0,0,0-.45-.72.93.93,0,0,0-.66-.18,2,2,0,0,0-.82.29"/><path class="cls-16" d="M349.84,131a3.92,3.92,0,0,1,.09-.53,2.94,2.94,0,0,1,.2-.59,2.84,2.84,0,0,1,.33-.56,1.87,1.87,0,0,1,.5-.43.78.78,0,0,1,.5-.14.45.45,0,0,1,.31.19,1.08,1.08,0,0,1,.15.38,1.67,1.67,0,0,1,.05.43L349.84,131m1.2-3.65a5.1,5.1,0,0,0-1.3,1.1,6.81,6.81,0,0,0-.9,1.42,7.68,7.68,0,0,0-.53,1.55,6.41,6.41,0,0,0-.16,1.47,3.91,3.91,0,0,0,.21,1.39,1.55,1.55,0,0,0,.61.8,1.43,1.43,0,0,0,1,.16,3.77,3.77,0,0,0,1.31-.51l.57-.36c.19-.13.37-.27.54-.41s.35-.28.51-.43.31-.31.46-.48l-.25-1.37c-.12.13-.24.24-.36.35l-.38.32c-.13.1-.26.2-.4.29s-.29.19-.44.28a3.4,3.4,0,0,1-.6.27,1.16,1.16,0,0,1-.51,0A.54.54,0,0,1,350,133a.92.92,0,0,1-.17-.5l3.72-2.18a.7.7,0,0,0,0-.16c0-.07,0-.14,0-.22a2.17,2.17,0,0,0,0-.26,2.53,2.53,0,0,0,0-.28,4.63,4.63,0,0,0-.15-1.22,2.13,2.13,0,0,0-.45-.89,1.12,1.12,0,0,0-.81-.35,2.35,2.35,0,0,0-1.19.39"/><path class="cls-16" d="M357.67,123.47a6,6,0,0,0-1.42,1.13,6.77,6.77,0,0,0-1,1.42,6.51,6.51,0,0,0-.83,3.18,3.89,3.89,0,0,0,.22,1.39,1.59,1.59,0,0,0,.62.79,1.42,1.42,0,0,0,1,.17,3.5,3.5,0,0,0,1.26-.48c.18-.1.34-.21.5-.32a3.88,3.88,0,0,0,.44-.33l.38-.32.29-.3-.22-1.52-.22.23-.24.21a3.16,3.16,0,0,1-.27.2,2.2,2.2,0,0,1-.3.19,1.58,1.58,0,0,1-.62.23.76.76,0,0,1-.5-.08.89.89,0,0,1-.34-.43,2.23,2.23,0,0,1-.13-.8,3.11,3.11,0,0,1,.1-.86,3.31,3.31,0,0,1,.31-.81,3,3,0,0,1,1.12-1.23l.33-.17.27-.11.23-.06.18,0,.27-1.83-.31.06-.34.12c-.12,0-.24.1-.36.15l-.36.2"/><path class="cls-16" d="M362.21,119l-1.76,1.62V122l-.77.45v1.64l.76-.44,0,2.93a4.7,4.7,0,0,0,0,.68,3.28,3.28,0,0,0,.09.52,2,2,0,0,0,.16.38.78.78,0,0,0,.22.25.67.67,0,0,0,.26.1,1.05,1.05,0,0,0,.31,0l.37-.09a3.9,3.9,0,0,0,.42-.2l.36-.23.32-.23.27-.21.2-.2,0-1.68-.12.1-.11.09-.13.08-.17.1a.67.67,0,0,1-.33.12.26.26,0,0,1-.22-.1.63.63,0,0,1-.12-.32,2.7,2.7,0,0,1,0-.54V122.6l1.27-.75V120.2l-1.28.75V119"/></g></g></g></g></svg>