<svg xmlns="http://www.w3.org/2000/svg" viewBox="0 0 1583 81.56"><defs><style>.cls-1{fill:#feb155;}</style></defs><title>sinos</title><g id="Layer_2" data-name="Layer 2"><g id="Layer_1-2" data-name="Layer 1"><path class="cls-1" d="M1583,76.78a431.82,431.82,0,0,1-51.21-2.19,299.12,299.12,0,0,1-50.4-9.84c-16.51-4.71-32.49-11.12-48.14-18-7.84-3.42-15.63-6.93-23.45-10.29s-15.68-6.57-23.65-9.49a289.62,289.62,0,0,0-48.92-13.3,354.38,354.38,0,0,0-50.49-5.16c-33.86-1-68,.62-100.88,8.21l-3.08.69-3.06.8-6.11,1.59-6,1.79-3,.9-3,1c-8,2.55-15.88,5.62-23.7,8.82-15.63,6.44-30.93,14-46.71,20.83-3.92,1.75-7.92,3.37-11.9,5s-8,3.19-12.12,4.63-8.19,2.82-12.3,4.18c-2.07.66-4.16,1.24-6.23,1.86s-4.16,1.23-6.27,1.75a321,321,0,0,1-51.13,9.06,438.1,438.1,0,0,1-51.72,1.79,394.79,394.79,0,0,1-51.66-4.2A296.37,296.37,0,0,1,837.24,65q-12.3-4.24-24.25-9.26c-8-3.35-15.78-6.87-23.56-10.4s-15.5-7-23.28-10.35-15.64-6.3-23.57-9.06a286.66,286.66,0,0,0-48.87-12,386.51,386.51,0,0,0-50.37-4.21,454.68,454.68,0,0,0-50.63,1.56A313.36,313.36,0,0,0,543,19.76c-2,.49-4.06,1.07-6.08,1.66s-4,1.13-6,1.75c-4,1.3-8,2.53-12,4s-7.9,2.92-11.84,4.42-7.83,3.17-11.72,4.87c-15.58,6.65-31,14.13-47,20.55-8,3.17-16.12,6.22-24.4,8.76l-3.09,1-3.12.89-6.25,1.77L405.17,71l-3.15.78-3.17.68a338.4,338.4,0,0,1-51.29,6.93,474.8,474.8,0,0,1-51.59.22,362.6,362.6,0,0,1-51.26-6.07,292.15,292.15,0,0,1-49.59-14.35c-8-3.12-15.89-6.53-23.69-10.06s-15.52-7.21-23.26-10.78C132.71,31.16,117,24.54,100.81,19.45A298.34,298.34,0,0,0,51,8.46,430.36,430.36,0,0,0,0,4.78,431.81,431.81,0,0,1,51.21,7a299.12,299.12,0,0,1,50.4,9.84c16.51,4.7,32.49,11.12,48.15,18,7.84,3.42,15.62,6.93,23.44,10.29s15.69,6.57,23.65,9.48a288.57,288.57,0,0,0,48.93,13.31A357,357,0,0,0,296.26,73c33.86,1,68-.63,100.87-8.21l3.09-.7,3-.79,6.11-1.59,6.06-1.8,3-.9,3-1c8-2.56,15.89-5.62,23.7-8.82,15.64-6.43,30.93-13.95,46.71-20.83,3.93-1.75,7.93-3.37,11.91-5s8-3.2,12.12-4.63,8.19-2.82,12.3-4.19c2.07-.65,4.15-1.23,6.23-1.85s4.16-1.24,6.27-1.75a322.18,322.18,0,0,1,51.13-9.07A442.42,442.42,0,0,1,643.55.1a394.79,394.79,0,0,1,51.66,4.2,296.37,296.37,0,0,1,50.55,12.26c8.2,2.83,16.31,5.9,24.25,9.26s15.79,6.87,23.56,10.41,15.5,7,23.28,10.35,15.64,6.3,23.57,9.06a286.43,286.43,0,0,0,48.87,12,384.78,384.78,0,0,0,50.37,4.21,454.68,454.68,0,0,0,50.63-1.55,313.17,313.17,0,0,0,49.7-8.45c2-.49,4.07-1.06,6.08-1.65s4-1.14,6-1.76c4-1.3,8-2.53,12-4s7.9-2.92,11.84-4.42,7.83-3.16,11.72-4.86c15.58-6.65,31-14.14,47-20.55,8-3.18,16.11-6.23,24.39-8.76l3.09-1,3.13-.89,6.24-1.77,6.3-1.57,3.15-.78,3.18-.67a338.12,338.12,0,0,1,51.28-6.94A472.28,472.28,0,0,1,1287,2a361.13,361.13,0,0,1,51.26,6.06,290.86,290.86,0,0,1,49.58,14.35c8,3.12,15.9,6.53,23.7,10.06s15.51,7.21,23.25,10.77a392.59,392.59,0,0,0,47.37,18.87,298.34,298.34,0,0,0,49.79,11A430.36,430.36,0,0,0,1583,76.78Z"/></g></g></svg>