<svg xmlns="http://www.w3.org/2000/svg" width="240" height="168.41" viewBox="0 0 240 168.41"><defs><style>.cls-1{fill:#fdbd7d;}.cls-2{fill:#d6daea;}.cls-3{fill:#0365ff;}.cls-4{fill:#fff;}.cls-5{fill:#acb0c4;}.cls-6{fill:#c1c5d7;}.cls-7{fill:#1b1b41;}.cls-8{fill:#303054;}.cls-9{fill:#ff8685;}.cls-10{fill:#ffe1da;}.cls-11{fill:#fce8e8;}.cls-12{fill:#ecf0f8;}.cls-13{fill:#3b47bc;}</style></defs><title>step-4</title><g id="Layer_2" data-name="Layer 2"><g id="Layer_1-2" data-name="Layer 1"><path class="cls-1" d="M182.73,168.41c-22.95,0-43.86,0-61.85-.07l-12.63,0-18.1-.05-10.09,0H77.92l-13.59-.06-5.65,0-5.11,0H53.2a63.15,63.15,0,0,1-20.44-3.34c-1.21-.42-2.4-.89-3.57-1.39-11.73-5.1-21.35-14.57-26.06-29.68-.12-.37-.23-.74-.34-1.12-.29-1-.56-2-.8-3-.09-.35-.16-.71-.24-1.07-2.27-10.36-2.45-23,.18-38.33.1-.61.21-1.23.33-1.85.06-.36.13-.72.2-1.08.1-.54.21-1.09.32-1.63C9.15,54,25.05,28.22,46,13.51c1.5-1.06,3-2,4.56-3A76.05,76.05,0,0,1,61.26,5.11C62.82,4.47,64.4,3.9,66,3.38c1-.32,1.93-.61,2.91-.88,1.3-.37,2.62-.69,3.94-1a69.29,69.29,0,0,1,33.13,1h0A81.54,81.54,0,0,1,117.52,6.7,88.78,88.78,0,0,1,133.44,16c17.81,12.82,34.16,32.15,60.44,53a322.48,322.48,0,0,0,26.85,19.2,41.87,41.87,0,0,1,12.79,12.84C249.91,127,236,168.41,182.73,168.41Z"/><rect class="cls-2" x="24.85" y="24.62" width="85.37" height="73.32" rx="4.51"/><rect class="cls-3" x="31.68" y="42.69" width="49.09" height="8.89" rx="4.45"/><rect class="cls-4" x="31.68" y="57.76" width="37.24" height="2.76" rx="1.38"/><rect class="cls-5" x="31.68" y="64.86" width="21.71" height="2.76" rx="1.38"/><rect class="cls-4" x="31.68" y="71.97" width="28.76" height="2.76" rx="1.38"/><rect class="cls-5" x="31.68" y="79.07" width="8.41" height="2.76" rx="1.38"/><circle class="cls-5" cx="45.56" cy="33.93" r="2.07"/><circle class="cls-3" cx="39.65" cy="33.93" r="2.07"/><circle class="cls-5" cx="33.75" cy="33.93" r="2.07"/><path class="cls-4" d="M77.49,77.78A12.85,12.85,0,0,1,97.52,62l-3.16,3.24a8.32,8.32,0,0,0-13,10.2Z"/><path class="cls-6" d="M88.56,84.09a12.94,12.94,0,0,1-11.07-6.31l3.9-2.3a8.32,8.32,0,0,0,15.49-4.23,8.24,8.24,0,0,0-2.52-6L97.52,62a12.85,12.85,0,0,1-9,22.05Z"/><path class="cls-7" d="M180.52,40.45c-4.21,4.47-4.82,4.13-5.43,1.95s-1,0-6.87,1.65a9.84,9.84,0,0,1-8.3-1.65c-1.58-1-2.76-2.19-3.43-2.61-1.56-.95-1.46,1.7-1.46,1.7-9.06-1.89-9.45-10-9.45-10a5.93,5.93,0,0,0,5,2.54s2,2.35,7.63-.52,16.89-10.43,19.62-1.31c2.22-.9,3.52.87,3.77,2.4C182.35,38.84,180.52,40.45,180.52,40.45Z"/><path class="cls-8" d="M177.85,32.23c-2.73-9.12-14-1.56-19.62,1.31s-7.63.52-7.63.52a7,7,0,0,1-.78-7.89c4.11,6.13,13.41-1.24,21.51-2.6C180.22,22.06,177.85,32.23,177.85,32.23Z"/><path class="cls-9" d="M159.1,48.14c-1.22-3.74.82-5.74.82-5.74-1.58-1-2.76-2.19-3.43-2.61-1.56-.95-1.46,1.7-1.46,1.7s-.58,7.76,1.24,12.84a19.05,19.05,0,0,0,3.41,6.33C162.69,54.72,160.16,51.36,159.1,48.14Z"/><path class="cls-9" d="M161.1,71.27a12.76,12.76,0,0,1-1.18-3.83,15.93,15.93,0,0,0,4.31-.78S164.58,71.37,161.1,71.27Z"/><path class="cls-7" d="M173.09,55.38s-.83,8.58-8.86,11.28a15.93,15.93,0,0,1-4.31.78l.14-6.4s2.34,2.55,6.71,0C172,58,173.09,55.38,173.09,55.38Z"/><path class="cls-10" d="M180.52,40.45c-4.21,4.47-4.82,4.13-5.43,1.95s-1,0-6.87,1.65a9.84,9.84,0,0,1-8.3-1.65s-2,2-.82,5.74c1.06,3.22,3.59,6.58.58,12.52a3.4,3.4,0,0,0,.38.38s2.34,2.55,6.71,0c5.19-3,6.32-5.66,6.32-5.66s-.83,8.58-8.86,11.28c0,0,.35,4.71-3.13,4.61a6.55,6.55,0,0,0,1,1.51c1.83,2,10.3,2.35,14.34-6.13V50.88S181.31,48.79,180.52,40.45Zm-9.86,13.08a2.61,2.61,0,1,1,2.61-2.61A2.61,2.61,0,0,1,170.66,53.53Zm7.27-6.43c-.69.89-2.14,2.2-1.79,1a7.12,7.12,0,0,1,1.73-3.42C179.16,43.51,179,45.73,177.93,47.1Z"/><path class="cls-9" d="M173.27,50.92a2.61,2.61,0,1,1-2.61-2.6A2.61,2.61,0,0,1,173.27,50.92Z"/><path class="cls-9" d="M177.93,47.1c-.69.89-2.14,2.2-1.79,1a7.12,7.12,0,0,1,1.73-3.42C179.16,43.51,179,45.73,177.93,47.1Z"/><path class="cls-7" d="M156.19,51.54a3.23,3.23,0,1,1,3.22-3.23A3.23,3.23,0,0,1,156.19,51.54Zm0-6.09a2.87,2.87,0,1,0,2.86,2.86A2.87,2.87,0,0,0,156.19,45.45Z"/><path class="cls-7" d="M164.58,51.54a3.23,3.23,0,1,1,3.22-3.23A3.23,3.23,0,0,1,164.58,51.54Zm0-6.09a2.87,2.87,0,1,0,2.86,2.86A2.87,2.87,0,0,0,164.58,45.45Z"/><path class="cls-7" d="M161.54,48.49a.16.16,0,0,1-.1,0,1.7,1.7,0,0,0-2.09,0,.18.18,0,0,1-.25,0,.19.19,0,0,1,0-.26,2.07,2.07,0,0,1,2.52,0,.18.18,0,0,1,.06.25A.18.18,0,0,1,161.54,48.49Z"/><path class="cls-7" d="M167.62,48.49a.17.17,0,0,1-.16-.09.19.19,0,0,1,.08-.25L176,43.79a.18.18,0,1,1,.17.32l-8.47,4.36A.11.11,0,0,1,167.62,48.49Z"/><path class="cls-7" d="M158,47.33a1.15,1.15,0,1,1-1.15-1.15A1.15,1.15,0,0,1,158,47.33Z"/><path class="cls-7" d="M166,47.32a1.17,1.17,0,0,1-1.16,1.16A1.15,1.15,0,1,1,166,47.32Z"/><path class="cls-7" d="M141.88,129.68s-26.37-12-42.26-13.76c-15.18-1.65-19.44,5.33-18.94,12s7.33,18,26.65,29.54c0,0,34.43-24.21,37.66-25.08S141.88,129.68,141.88,129.68Z"/><path class="cls-4" d="M116.44,144.21a.35.35,0,0,1-.32-.2c-2.22-4.44-3.56-5.89-5.49-7.74a.36.36,0,0,1,.5-.53,24.5,24.5,0,0,1,5.63,7.95.36.36,0,0,1-.16.49A.41.41,0,0,1,116.44,144.21Z"/><path class="cls-4" d="M197.79,83.38c-2.86-7.81-4.22-7.44-9.31-9.8a109.28,109.28,0,0,1-11.91-7c-12.42,8.31-16.64.87-16.64.87-9.06,7.32-22.83,7.07-25.69,13.78-2.35,5.52-9.19,23.45-10.3,28.42s-2.24,16.76,4.59,16.88c5.47.1,9.18-4.58,10.45-6.44a30.18,30.18,0,0,0-2.41,7.81s12.84,13.38,47.62,9.91h0c.82-1.94,1.42-3.43,1.6-3.89l.06-.15c5.7,1.3,11.48,1.16,15.32-.71l0,0a7.92,7.92,0,0,0,3.71-3.43C210.88,118,200.64,91.2,197.79,83.38Zm-36.57,27.54c.69-.33,10.39-4.7,26.76,1.64,0,0-3.8-6.71-2.11-14.28a.32.32,0,0,0,0,.07v.05c0,.1,0,.26.06.46s0,.18,0,.28,0,.21.05.33l0,.18c0,.12,0,.26.07.39s.08.44.13.68l0,.16s0,0,0,.05a.08.08,0,0,0,0,0l.06.25c0,.09,0,.17.06.27a39.09,39.09,0,0,0,3.07,8.56l.41.79q.18.36.39.72l.16.29c.13.23.26.46.4.68l.34.56c.09.15.19.3.29.45.5.79,1,1.57,1.65,2.35a6.65,6.65,0,0,0,.46.59l.38.48.58.69C180.6,108.72,164.41,109.94,161.22,110.92Z"/><path class="cls-11" d="M194.56,117.65c-14-8.93-30.15-7.71-33.35-6.73.7-.33,10.4-4.7,26.77,1.64,0,0-3.81-6.71-2.11-14.28A37.26,37.26,0,0,0,194.56,117.65Z"/><path class="cls-7" d="M193.3,135.28c-.54,0-1.1,0-1.7-.06-6.18-.38-16.91-3.11-32.95-13.93a.36.36,0,0,1,.41-.6c15.83,10.69,26.4,13.4,32.48,13.8,6.56.44,9.42-1.67,9.45-1.69a.36.36,0,0,1,.44.58C201.32,133.46,198.87,135.28,193.3,135.28Z"/><path class="cls-7" d="M189.88,111.44a.36.36,0,0,1-.32-.18,29.84,29.84,0,0,1-2.62-23.72.36.36,0,0,1,.45-.24.37.37,0,0,1,.23.46,29.15,29.15,0,0,0,2.58,23.15.37.37,0,0,1-.15.49A.33.33,0,0,1,189.88,111.44Z"/><path class="cls-11" d="M184.2,137.86c-1.69,3.92-4.35,9.66-6.52,12.3-3.47,4.22-42-16.34-42-16.34s.3-2.71.92-5.87c0,0,12.84,13.38,47.62,9.91Z"/><path class="cls-12" d="M88,92.48,102,129.39a2.51,2.51,0,0,0,2.35,1.62h56.1L144.29,89.93H89.79A1.89,1.89,0,0,0,88,92.48Z"/><path class="cls-6" d="M144.29,89.93,160.42,131h2.39L147,90.64a1.12,1.12,0,0,0-1-.71Z"/><ellipse class="cls-6" cx="123.75" cy="110.47" rx="3.63" ry="4.84" transform="translate(-32.61 55.06) rotate(-22.24)"/><path class="cls-7" d="M108.13,161.57a5.81,5.81,0,0,1-5.07,6.82l-.47,0H82.17a6,6,0,0,1-1.87-.31,19.54,19.54,0,0,1-7-4.24,1.76,1.76,0,0,1,.26-2.76c1.81-1.17,5.71-3.7,8.84-3.7,4.07,0,14.1-1.29,17.57-1.76a5.88,5.88,0,0,1,2.85.33C104.68,156.69,107.59,158.3,108.13,161.57Z"/><path class="cls-13" d="M174.63,159.3c-3.27,4.94-8.36,9-21.89,9H124.07a21.73,21.73,0,0,1-8.07-4.6c-4.17,1.25-7.16,2.08-8.75,2.51a2.47,2.47,0,0,1-2.35-.57,21.49,21.49,0,0,1-5.05-6.78,2.51,2.51,0,0,1,1.28-3.36c31.18-13.27,40.55-29.88,55-34.9,14.73-5.13,20.73,7.61,21.68,21.19C178.28,149.15,177.09,155.59,174.63,159.3Z"/><path class="cls-7" d="M122.11,162.17a.37.37,0,0,1-.35-.25.37.37,0,0,1,.24-.46c5.79-1.81,11.83-3.8,18-5.93,20.4-7.08,25.49-12.73,25.54-12.78a.36.36,0,0,1,.51,0,.35.35,0,0,1,0,.51c-.2.24-5.26,5.85-25.85,13-6.13,2.13-12.18,4.13-18,5.94Z"/><path class="cls-4" d="M107.33,155.82a.36.36,0,0,1-.12-.7c.11,0,11.57-4.23,28.2-17.26,3.71-2.91,7.18-5.48,10.29-7.65a.36.36,0,1,1,.41.59c-3.1,2.16-6.55,4.73-10.26,7.63-16.73,13.11-28.28,17.33-28.4,17.37Z"/><path class="cls-7" d="M112.13,159.49a1.86,1.86,0,0,1,.53-2.6,20.69,20.69,0,0,1,12.43-3.25c8.56.49,5.16,6.29,13.27,3.25,7.47-2.8,8.82-3.29,8.82-3.29V161s4,2.11,4.1,4.47-3.48,3-6.58,3H123.6A25.21,25.21,0,0,1,112.13,159.49Z"/><path class="cls-7" d="M165.5,74a10,10,0,0,1-2.35-.26A6.93,6.93,0,0,1,158.92,71a.36.36,0,0,1,.62-.38c.17.27,4.19,6.45,16.36-1a.36.36,0,0,1,.49.12.36.36,0,0,1-.12.5C172.2,72.72,168.58,74,165.5,74Z"/><path class="cls-4" d="M46.08,127.66H23.44a1.33,1.33,0,0,1-1.33-1.33v-9.57a1.33,1.33,0,0,1,1.33-1.33H37.51a.36.36,0,1,1,0,.72H23.44a.61.61,0,0,0-.61.61v9.57a.6.6,0,0,0,.61.6H46.08a.61.61,0,0,0,.61-.6v-9.57a.61.61,0,0,0-.61-.61H42.7a.36.36,0,0,1,0-.72h3.38a1.34,1.34,0,0,1,1.33,1.33v9.57A1.34,1.34,0,0,1,46.08,127.66Z"/><path class="cls-4" d="M40.77,124.53a3,3,0,1,1,3-3A3,3,0,0,1,40.77,124.53Zm0-5.25A2.27,2.27,0,1,0,43,121.54,2.26,2.26,0,0,0,40.77,119.28Z"/><path class="cls-4" d="M51.06,154.57a4.29,4.29,0,1,1,4.29-4.29A4.3,4.3,0,0,1,51.06,154.57Zm0-7.86a3.57,3.57,0,1,0,3.57,3.57A3.57,3.57,0,0,0,51.06,146.71Z"/><path class="cls-4" d="M32.74,124h-7.3a.37.37,0,0,1-.36-.37.36.36,0,0,1,.36-.36h7.3a.36.36,0,0,1,.36.36A.37.37,0,0,1,32.74,124Z"/><path class="cls-4" d="M32.74,121.9h-7.3a.36.36,0,0,1,0-.72h7.3a.36.36,0,1,1,0,.72Z"/><path class="cls-4" d="M32.74,119.77h-7.3a.36.36,0,0,1,0-.72h7.3a.36.36,0,0,1,0,.72Z"/><path class="cls-4" d="M46.31,149a.32.32,0,0,1-.14,0,31.84,31.84,0,0,1-3.61-1.76.37.37,0,0,1-.14-.49.38.38,0,0,1,.5-.14,32.15,32.15,0,0,0,3.53,1.72.36.36,0,0,1,.19.47A.37.37,0,0,1,46.31,149Zm-6.87-3.94a.35.35,0,0,1-.22-.08,22.77,22.77,0,0,1-2.94-2.76.36.36,0,0,1,.54-.48,21.9,21.9,0,0,0,2.84,2.67.36.36,0,0,1,.06.51A.35.35,0,0,1,39.44,145.08Zm-5.2-5.94a.38.38,0,0,1-.32-.18,19.32,19.32,0,0,1-1.62-3.7.37.37,0,0,1,.23-.46A.37.37,0,0,1,33,135a18.76,18.76,0,0,0,1.56,3.56.36.36,0,0,1-.13.49A.41.41,0,0,1,34.24,139.14Zm-2.4-7.52a.37.37,0,0,1-.36-.32q-.09-.93-.09-1.83a12.13,12.13,0,0,1,.17-2.24.35.35,0,0,1,.42-.29.38.38,0,0,1,.29.42,11.8,11.8,0,0,0-.15,2.11,17.4,17.4,0,0,0,.08,1.76.36.36,0,0,1-.32.39Z"/><path class="cls-4" d="M200.22,167.08a.37.37,0,0,1-.36-.29,18.82,18.82,0,0,1-.36-3.68,18.51,18.51,0,0,1,31.16-13.51.36.36,0,0,1-.5.52,17.79,17.79,0,0,0-29.94,13,18.06,18.06,0,0,0,.35,3.53.37.37,0,0,1-.28.43Z"/><path class="cls-4" d="M91.47,18.81a.35.35,0,0,1-.26-.1L74,1.5A.36.36,0,1,1,74.51,1l17,17L106.79,2.62a.36.36,0,0,1,.51.51L91.72,18.71A.35.35,0,0,1,91.47,18.81Z"/></g></g></svg>