<svg xmlns="http://www.w3.org/2000/svg" width="240" height="173.65" viewBox="0 0 240 173.65"><defs><style>.cls-1{fill:#fdbd7d;}.cls-15,.cls-2{fill:#303054;}.cls-3{fill:#1b1b41;}.cls-4{fill:#ff8685;}.cls-5{fill:#ffe1da;}.cls-6{fill:#a0616a;}.cls-7{fill:#575a89;}.cls-8{fill:#fce8e8;}.cls-9{fill:#3b47bc;}.cls-10{fill:#fff;}.cls-11{opacity:0.1;isolation:isolate;}.cls-12{fill:#d6daea;}.cls-13{fill:#0365ff;}.cls-14{fill:#acb0c4;}.cls-15{opacity:0.1;}</style></defs><title>step-2</title><g id="Layer_2" data-name="Layer 2"><g id="Layer_1-2" data-name="Layer 1"><path class="cls-1" d="M48.4,173.37h0c-29.61,0-56-19.2-46.39-75.36C12.85,34.81,72.64-7.5,127.33,34.81,169.14,67.15,150.26,70.5,207.46,98c55.39,26.65,29.3,75.64.77,75.64C139.1,173.65,48.4,173.37,48.4,173.37Z"/><path class="cls-2" d="M94.21,9c-7.88,6.09-18.15-3.58-23.44-4.48S65.33,10,65.33,10,63.38-.15,72,0,91.6,8.45,92.93.35C92.93.35,97.12,2.46,94.21,9Z"/><path class="cls-3" d="M98.82,5.84s.27,8.23-9,13l-.66-3.52A25,25,0,0,1,83.68,19a20.11,20.11,0,0,1-4.29,1.61,14.82,14.82,0,0,1-2.13.39,13.66,13.66,0,0,1-8.08-1.48s-.4,5.39-1.26,3.79C65.6,19,63.1,18.84,63.1,18.84s-1.83-4.37-1.34-7.35S65.33,10,65.33,10s.14-6.41,5.44-5.51S86.33,15.06,94.21,9A5.1,5.1,0,0,0,98.82,5.84Z"/><path class="cls-4" d="M85.39,39.08l-.79-8.21a.83.83,0,0,0-.9-.74L80,30.48a.69.69,0,0,1-.75-.62.69.69,0,0,1,.62-.76l3.73-.36a.79.79,0,0,0,.72-.75,2.54,2.54,0,0,1,1.75-2.3.8.8,0,0,0,.53-.83,12.64,12.64,0,0,0-.29-1.6,1.76,1.76,0,0,0,.61,0,1.68,1.68,0,1,0-1.61-2.54A5.11,5.11,0,0,0,83.68,19a25,25,0,0,0,5.45-3.68l.66,3.52S91.62,33.68,85.39,39.08Z"/><path class="cls-5" d="M86.35,23.26a9.21,9.21,0,0,0-1-2.49A5.11,5.11,0,0,0,83.68,19a20.11,20.11,0,0,1-4.29,1.61A1.7,1.7,0,0,1,80.23,22a1.69,1.69,0,0,1-3.36.33A1.71,1.71,0,0,1,77.26,21a13.66,13.66,0,0,1-8.08-1.48s-.4,5.39-1.26,3.79C65.6,19,63.1,18.84,63.1,18.84,61.56,28.27,67.26,30,67.26,30a106.48,106.48,0,0,0,1,18.41,8.53,8.53,0,0,0,7,2.31c10.24-1,10.87-4.62,10.87-4.62C74.69,43.78,72,35,72,35a15.76,15.76,0,0,0,13.42,4.08l-.79-8.21a.83.83,0,0,0-.9-.74L80,30.48a.69.69,0,0,1-.75-.62.69.69,0,0,1,.62-.76l3.73-.36a.79.79,0,0,0,.72-.75,2.54,2.54,0,0,1,1.75-2.3.8.8,0,0,0,.53-.83A12.64,12.64,0,0,0,86.35,23.26ZM66.74,26.9a6,6,0,0,1-2-4s1-.47,1.84,1.19A3.19,3.19,0,0,1,66.74,26.9Zm7.62,4.51a2.86,2.86,0,1,1,2.58-3.12A2.86,2.86,0,0,1,74.36,31.41Z"/><path class="cls-5" d="M80.23,22a1.69,1.69,0,0,1-3.36.33A1.71,1.71,0,0,1,77.26,21a14.82,14.82,0,0,0,2.13-.39A1.7,1.7,0,0,1,80.23,22Z"/><path class="cls-2" d="M79.85,22a1.3,1.3,0,0,1-1.46,1.42,1.28,1.28,0,0,1-.92-.57v0a1.09,1.09,0,0,1,.77-1.63l.4-.07a1,1,0,0,1,1.22.86Z"/><path class="cls-4" d="M85.39,39.08l.68,7C74.69,43.78,72,35,72,35A15.76,15.76,0,0,0,85.39,39.08Z"/><path class="cls-4" d="M88.47,21.47A1.69,1.69,0,0,1,87,23.32a1.79,1.79,0,0,1-.61-.06l0-.2a8.92,8.92,0,0,0-.76-1.95,3.72,3.72,0,0,0-.19-.34,1.68,1.68,0,0,1,3.12.7Z"/><path class="cls-2" d="M87.57,21.78a1.18,1.18,0,0,1-1,1.28.81.81,0,0,1-.22,0,8.92,8.92,0,0,0-.76-1.95,1.18,1.18,0,0,1,.76-.38A1.17,1.17,0,0,1,87.57,21.78Z"/><path class="cls-4" d="M76.94,28.29a2.86,2.86,0,1,1-3.13-2.58A2.86,2.86,0,0,1,76.94,28.29Z"/><path class="cls-4" d="M66.74,26.9a6,6,0,0,1-2-4s1-.47,1.84,1.19A3.19,3.19,0,0,1,66.74,26.9Z"/><path class="cls-6" d="M139,72.71s22.67,1.09,24,9-26.5.82-26.5.82Z"/><path class="cls-7" d="M103.17,47.58S107,48.67,110,55.22s9,12.57,9,12.57l24.32,4.64-4.1,12.3-23.22-3-14.48-8.19Z"/><path class="cls-8" d="M104.21,47.49S108,48.58,111,55.14s9,12.57,9,12.57l24.31,4.64-4.1,12.29-23.22-3-14.48-8.2Z"/><path class="cls-3" d="M107.68,173.37H80.9l-3-13.65s5.48-7.25,7.13-24.32c10.25-1,19-1.74,20.19-1.64C108.22,134,107.68,173.37,107.68,173.37Z"/><path class="cls-9" d="M85,135.4c-1.65,17.07-7.13,24.32-7.13,24.32l-3.83,13.65H48.4L49.21,139S69,136.92,85,135.4Z"/><path class="cls-10" d="M108.36,133.9S73.78,145.69,49,140.61a.74.74,0,0,1-.58-.87L52.68,116A67.11,67.11,0,0,0,54,105.14a66.54,66.54,0,0,0-1.28-15.6l-.35-1.71L45.25,52.77l22.49-8.64,3.85,2.31A9,9,0,0,0,83,44.63l2.65-3,4.09,1.07s16.39,4.09,17.21,7.1-3.28,27.59-3.28,27.59L99.89,97.57Z"/><polygon class="cls-11" points="119.42 67.93 115.08 83.56 122.43 68.44 119.42 67.93"/><rect class="cls-12" x="99.21" y="64.1" width="104.9" height="103.68" rx="5.54"/><rect class="cls-13" x="112.87" y="107.61" width="77.58" height="10.93" rx="5.46"/><rect class="cls-10" x="112.87" y="126.82" width="63.12" height="3.39" rx="1.7"/><rect class="cls-14" x="112.87" y="135.55" width="40.57" height="3.39" rx="1.7"/><rect class="cls-10" x="112.87" y="144.28" width="63.12" height="3.39" rx="1.7"/><rect class="cls-14" x="112.87" y="153.01" width="24.23" height="3.39" rx="1.7"/><path class="cls-4" d="M97,87.11c-1.92.23-3.14.35-3.14.35L91.7,77.9s1-.15,2.55-.34c6.24-.74,21.93-2.16,24.76,2S104.37,86.22,97,87.11Z"/><path class="cls-3" d="M97,87.11c-1.92.23-3.14.35-3.14.35L91.7,77.9s1-.15,2.55-.34Z"/><path class="cls-8" d="M95.79,89.1s-5.92.8-13.94,1.79h0c-8.65,1.06-19.72,2.33-28.42,3-6.3.51-11.35.73-13.37.36C32.69,92.92,36,74.89,37.88,65.6a23.06,23.06,0,0,1,6.49-12.37,2.82,2.82,0,0,1,1.89-.74h0A3.32,3.32,0,0,1,49,53.9c2.11,3,6.9,10.1,7.75,13.07,1.09,3.83.54,9.84.54,9.84l35-.28Z"/><path class="cls-3" d="M55.6,75.2h0a.36.36,0,0,1-.34-.36c.06-1.81-.06-3.34-.06-3.35a.11.11,0,0,1,0-.08s.31-3.27-5.5-12.38a.35.35,0,0,1,.11-.48.34.34,0,0,1,.48.1C56,67.6,55.92,71,55.88,71.46c0,.24.12,1.7.07,3.4A.35.35,0,0,1,55.6,75.2Z"/><path class="cls-3" d="M108.08,62.19h0a.34.34,0,0,1-.29-.39,63.34,63.34,0,0,0,.55-8.28.35.35,0,0,1,.34-.35.37.37,0,0,1,.36.34,63,63,0,0,1-.57,8.38A.34.34,0,0,1,108.08,62.19Z"/><path class="cls-3" d="M45.25,93a.33.33,0,0,1-.34-.32.34.34,0,0,1,.32-.37c.29,0,29.56-2.17,41.28-3.87a.35.35,0,0,1,.1.69C74.87,90.8,45.57,93,45.28,93Z"/><path class="cls-15" d="M54,105.14a67.81,67.81,0,0,0-.54-11.21c8.7-.71,19.77-2,28.42-3C69.84,99.53,54,105.14,54,105.14Z"/><path class="cls-3" d="M76.4,50.39a13.59,13.59,0,0,1-9.66-4.06.35.35,0,1,1,.52-.46,13.09,13.09,0,0,0,10,3.79c6.16-.41,8.94-6,9-6a.34.34,0,1,1,.62.3c0,.06-3,6-9.54,6.43Z"/><path class="cls-10" d="M51.41,171.9h0a.35.35,0,0,1-.34-.36l.77-26.31a.35.35,0,0,1,.35-.33h0a.35.35,0,0,1,.34.36l-.77,26.3A.35.35,0,0,1,51.41,171.9Z"/><path class="cls-3" d="M69.29,165.15a.33.33,0,0,1-.19-.06l-11-7.39a.34.34,0,0,1-.09-.48.35.35,0,0,1,.48-.1l11,7.4a.34.34,0,0,1,.1.48A.35.35,0,0,1,69.29,165.15Z"/><circle class="cls-14" cx="133.68" cy="96.36" r="3.1"/><circle class="cls-13" cx="124.82" cy="96.36" r="3.1"/><circle class="cls-14" cx="115.96" cy="96.36" r="3.1"/><path class="cls-10" d="M190.19,91.07a29.42,29.42,0,0,1-29.29-27h-.65a30,30,0,0,0,43.86,24.2v-.74A29.22,29.22,0,0,1,190.19,91.07Z"/><circle class="cls-10" cx="127.55" cy="49.28" r="7.31"/><circle class="cls-13" cx="151" cy="49.28" r="7.31"/><path class="cls-3" d="M173.9,56.94a7.66,7.66,0,1,1,7.66-7.66A7.66,7.66,0,0,1,173.9,56.94Zm0-14.62a7,7,0,1,0,7,7A7,7,0,0,0,173.9,42.32Z"/><path class="cls-3" d="M196.8,56.94a7.66,7.66,0,1,1,7.66-7.66A7.67,7.67,0,0,1,196.8,56.94Zm0-14.62a7,7,0,1,0,7,7A7,7,0,0,0,196.8,42.32Z"/><path class="cls-13" d="M126.34,52.89a1,1,0,0,1-.74-.31l-2.69-2.69a1,1,0,0,1,1.47-1.47l2,1.95L130.73,46a1,1,0,0,1,1.47,1.48l-5.13,5.12A1,1,0,0,1,126.34,52.89Z"/><rect class="cls-3" x="181.21" y="48.94" width="8.28" height="0.69"/><rect class="cls-3" x="158.31" y="48.94" width="8.28" height="0.69"/><rect class="cls-3" x="134.86" y="48.94" width="8.83" height="0.69"/><path class="cls-10" d="M11.05,70.89l-.69-.11c.1-.63.21-1.26.32-1.89l.68.13C11.25,69.64,11.14,70.27,11.05,70.89Z"/><path class="cls-10" d="M15.21,112.73c-.48-1.07-.94-2.18-1.36-3.3l.65-.24c.41,1.1.87,2.2,1.35,3.26Zm-2.54-6.66c-.36-1.13-.69-2.28-1-3.43l.67-.18c.3,1.14.63,2.28,1,3.39Zm-1.8-6.91c-.23-1.15-.44-2.33-.63-3.51l.69-.11c.18,1.17.39,2.34.62,3.48Zm-1.08-7c-.13-1.16-.23-2.36-.3-3.55l.7,0c.07,1.18.17,2.36.29,3.52ZM9.36,85c0-.41,0-.82,0-1.22,0-.77,0-1.56,0-2.34l.69,0c0,.77,0,1.55,0,2.32,0,.4,0,.81,0,1.21Zm.89-7.07-.69,0c.08-1.18.19-2.38.33-3.55l.69.07C10.45,75.56,10.34,76.74,10.25,77.92Z"/><path class="cls-10" d="M17.9,118l-.22-.39c-.31-.54-.61-1.11-.91-1.69l.61-.32q.35.66.69,1.29.55-.51,1.11-1l.45.52c-.46.41-.94.84-1.41,1.28Z"/><path class="cls-10" d="M33.05,131.07h0l-.68,0,.05-.7q.31,0,.63,0h0a7.8,7.8,0,0,0,2.82-.53l.25.65A8.52,8.52,0,0,1,33.05,131.07Zm-4.32-1A15.75,15.75,0,0,1,25.6,128l.44-.53a15,15,0,0,0,3,2Zm10.58-1.55-.47-.51a12.6,12.6,0,0,0,2.23-2.78l.59.35A12.72,12.72,0,0,1,39.31,128.48ZM23,125.36a32.69,32.69,0,0,1-2.27-2.93l.57-.4a31.35,31.35,0,0,0,2.22,2.87Zm20.21-3.25-.66-.2a14,14,0,0,0,.58-3.53l.7,0A14.55,14.55,0,0,1,43.16,122.11Zm-.43-7.28a10.19,10.19,0,0,0-1.33-3.27l.58-.38a10.66,10.66,0,0,1,1.42,3.49Zm-20.28-.69-.42-.55c1-.79,2-1.5,3-2.13l.38.58C24.46,112.66,23.46,113.37,22.45,114.14Zm6.14-3.88-.3-.63a21.68,21.68,0,0,1,3.47-1.35L32,109A20.7,20.7,0,0,0,28.59,110.26Zm10.27-1a7.59,7.59,0,0,0-3.39-.78v-.7a8.27,8.27,0,0,1,3.7.87Z"/><path class="cls-10" d="M18.65,119.3c-.26-.42-.51-.84-.75-1.27l-1.06,1-.48-.5c.46-.45.93-.89,1.39-1.32l.32-.3.22.38c.31.55.63,1.11.95,1.64Z"/><path class="cls-10" d="M5.61,132.09l-.56-.42c.88-1.18,1.77-2.33,2.65-3.43l.54.43C7.37,129.76,6.49,130.91,5.61,132.09ZM11,125.34l-.53-.45c1-1.13,1.93-2.22,2.88-3.24l.51.47C12.9,123.14,11.94,124.22,11,125.34Z"/><path class="cls-10" d="M2,137.14l-.57-.39c.37-.53.73-1.06,1.1-1.57l.56.4Z"/><path class="cls-10" d="M222.64,169.56a16.59,16.59,0,0,1,17.24-27l-.21.66a15.9,15.9,0,0,0-16.51,25.87Z"/><polygon class="cls-10" points="45.57 39.67 32.68 38.76 32.73 38.07 44.92 38.92 45.69 28.12 46.38 28.16 45.57 39.67"/></g></g></svg>