<svg xmlns="http://www.w3.org/2000/svg" width="240" height="190.58" viewBox="0 0 240 190.58"><defs><style>.cls-1{fill:#fdbd7d;}.cls-2{fill:#fff;}.cls-3{fill:#0365ff;}.cls-4{fill:#fce8e8;}.cls-5{fill:#1b1b41;}.cls-6{fill:#3b47bc;}.cls-7{fill:#ff8685;}.cls-8{fill:#303054;}.cls-9{fill:#ffe1da;}.cls-10{fill:#fafafa;}</style></defs><title>step-1</title><g id="Layer_2" data-name="Layer 2"><g id="Layer_1-2" data-name="Layer 1"><path class="cls-1" d="M182.73,190.22c-22.95,0-43.86,0-61.85-.07l-12.63,0-18.1-.05-12.23,0L64.33,190l-10.75-.05a61.21,61.21,0,0,1-24.39-4.74c-11.73-5.09-21.35-14.56-26.06-29.67-3.8-12.17-4.4-28-.35-48.12,6.82-33.89,24.59-61,47.74-75.06A73.4,73.4,0,0,1,66,25.19a64.87,64.87,0,0,1,6.86-1.85,69.25,69.25,0,0,1,33.12,1h0a81.1,81.1,0,0,1,11.53,4.13,88.19,88.19,0,0,1,15.92,9.3c17.81,12.82,34.16,32.15,60.44,53A322.48,322.48,0,0,0,220.73,110a41.87,41.87,0,0,1,12.79,12.84C249.91,148.77,236,190.22,182.73,190.22Z"/><path class="cls-2" d="M88.88,91.15l12-31.51a3.88,3.88,0,0,1,3.62-2.5h45.9A3.88,3.88,0,0,1,154,62.39L142,93.9a3.88,3.88,0,0,1-3.62,2.5H92.5A3.88,3.88,0,0,1,88.88,91.15Z"/><path class="cls-3" d="M131.94,65.22l-5.69,15a1.65,1.65,0,0,1-1.53,1.06H101.8A1.64,1.64,0,0,1,100.27,79l5.68-15a1.66,1.66,0,0,1,1.54-1h22.92A1.64,1.64,0,0,1,131.94,65.22Z"/><path class="cls-4" d="M140.29,79.84l-1.06,2.8a1.66,1.66,0,0,1-1.54,1h-5.3a1.64,1.64,0,0,1-1.53-2.22l1.06-2.8a1.66,1.66,0,0,1,1.54-1.06h5.3A1.64,1.64,0,0,1,140.29,79.84Z"/><path class="cls-3" d="M145.44,65.61l-2.93,7.86a1.94,1.94,0,0,1-1.81,1.25H136a1.93,1.93,0,0,1-1.81-2.61l2.93-7.85A1.92,1.92,0,0,1,139,63h4.68A1.93,1.93,0,0,1,145.44,65.61Z"/><path class="cls-4" d="M137.5,88.86l-1.06,2.8a1.66,1.66,0,0,1-1.54,1.06h-5.3a1.64,1.64,0,0,1-1.53-2.22l1.07-2.8a1.63,1.63,0,0,1,1.53-1.06H136A1.64,1.64,0,0,1,137.5,88.86Z"/><path class="cls-5" d="M149.51,97.89H46.19a.72.72,0,0,1,0-1.44H149.51a.72.72,0,0,1,0,1.44Z"/><path class="cls-5" d="M80.18,132.81,79.39,179a2.7,2.7,0,0,1-.93,2,10.2,10.2,0,0,1-1.95,1.28h0a11.59,11.59,0,0,1-6.91,1h0a2.78,2.78,0,0,1-2.3-2.21L58,133.87c-17.19-2.12-13.42-18.25-13.42-18.25s3,3.46,11.66,3.7c-.75,14.77,13.52,13.49,13.52,13.49Z"/><path class="cls-6" d="M119.4,143.06c-3.27,9.69-13.42,35.82-15.67,40.05a2.83,2.83,0,0,1-.31.51c-1.36,1.66-8.74,2-9.5-2.56-.67-4,7.67-39.33,9.46-46.85a1.13,1.13,0,0,0-1.11-1.4H69.8s-14.27,1.28-13.52-13.49a45.22,45.22,0,0,0,10-1,27.08,27.08,0,0,0,14.8-8.88s21.3,1.74,38.27,4.21C133.88,115.77,122.87,132.81,119.4,143.06Z"/><path class="cls-3" d="M103.73,183.11c2.54,1.23,6.84,3.75,9.64,5.44a.9.9,0,0,1-.46,1.67H95.11A2.25,2.25,0,0,1,92.85,188a23.08,23.08,0,0,1,1.07-6.92Z"/><path class="cls-3" d="M80.75,190.22H67.82a1.15,1.15,0,0,1-1-1.68l2.79-5.22a11.59,11.59,0,0,0,6.91-1h0l5.11,6.05A1.14,1.14,0,0,1,80.75,190.22Z"/><path class="cls-2" d="M81.13,109.46a27.13,27.13,0,0,1-14.8,8.87,44.55,44.55,0,0,1-10,1c-8.62-.23-11.66-3.69-11.66-3.69s-1.2-3.81-2.7-10l0-.13L36.75,50l16.92-10.2s6.18,5.28,16.13-1.51c0,0,8.59,3.92,11.61,8.74h0s-5.06.11-6,14.11C74.76,70.19,75.85,85.05,81.13,109.46Z"/><path class="cls-4" d="M105.4,96.4h0c-2.24,2.55-6.42,4.82-12.53,5.65-11.08,1.52-13.29-.11-16-29.63a103.4,103.4,0,0,0-1.53-11.29c1-14,6-14.11,6-14.11h0s9.2,0,13,41.21c0,0,9.74-3.35,12.4,1.58.08.15.16.32.23.49C107.77,92.09,107.22,94.33,105.4,96.4Z"/><path class="cls-4" d="M41.89,105.51c-5.7.94-11.55-2.31-11.14-18.24.9-35.43,6-37.29,6-37.29Z"/><path class="cls-7" d="M105.4,96.4c1.82-2.07,2.37-4.31,1.64-6.11-.07-.17-.15-.34-.23-.49,0,0,4.3.11,6.64,6.6Z"/><path class="cls-5" d="M79.52,8.21A7.81,7.81,0,0,1,76,12.87c-6.41,4-7,1.13-9.42,8-.24.68-.49,1.32-.76,1.92-2.44,5.52-5.94,8-7.91,8a12.27,12.27,0,0,1-3.84-3.4A34.63,34.63,0,0,1,50.5,14.29c-.26-3,1-4.49,2.59-5.16,0,0,.58-7.65,6.68-4.94S70.25,14.33,79.52,8.21Z"/><path class="cls-8" d="M79.52,8.21c-9.27,6.12-13.64-1.3-19.75-4s-6.68,4.94-6.68,4.94S51,1.56,57.44.2,69.2,4.8,73.19,4.8,78.92.73,78.92.73A12.79,12.79,0,0,1,79.52,8.21Z"/><path class="cls-7" d="M69.8,38.27c-9.95,6.79-16.13,1.51-16.13,1.51s0-5.88.38-12.37a12.27,12.27,0,0,0,3.84,3.4c2,0,5.47-2.51,7.91-8,0,0,2.21,6.69,3.4,12.2C69.46,36.16,69.67,37.28,69.8,38.27Z"/><path class="cls-9" d="M75.84,22.44a2.24,2.24,0,0,0-.68-.1,2.75,2.75,0,0,0-.29,5.48c-1,3.52-2.7,6.46-5.67,7.16-1.19-5.51-3.4-12.2-3.4-12.2.27-.6.52-1.24.76-1.92,2.41-6.86,3-4,9.42-8A57.91,57.91,0,0,1,75.84,22.44Z"/><path class="cls-7" d="M75.84,22.44a32.44,32.44,0,0,1-1,5.38,2.75,2.75,0,0,1,.29-5.48A2.24,2.24,0,0,1,75.84,22.44Z"/><path class="cls-5" d="M60.52,45.23A16.17,16.17,0,0,1,51.9,42.7a.36.36,0,1,1,.43-.58,15.15,15.15,0,0,0,17.26-.68A.36.36,0,1,1,70,42,16.11,16.11,0,0,1,60.52,45.23Z"/><path class="cls-5" d="M39.77,103.14h0c-6-.36-6.78-8.08-6.79-8.16a.36.36,0,0,1,.72-.07c0,.07.73,7.18,6.11,7.51a.36.36,0,0,1,0,.72Z"/><path class="cls-5" d="M44.2,101.73a.37.37,0,0,1-.36-.32c-.9-8.18-4.39-46.18-4.43-46.56a.37.37,0,0,1,.33-.4.36.36,0,0,1,.39.33c0,.38,3.52,38.38,4.43,46.55a.37.37,0,0,1-.32.4Z"/><path class="cls-5" d="M88.64,99.79a6,6,0,0,1-3.24-.89A6.6,6.6,0,0,1,82.67,95a.37.37,0,0,1,.28-.43.36.36,0,0,1,.43.28,6,6,0,0,0,2.41,3.43,6.22,6.22,0,0,0,4.87.5.38.38,0,0,1,.44.27.38.38,0,0,1-.27.44A9.67,9.67,0,0,1,88.64,99.79Z"/><path class="cls-2" d="M103.33,177.53l-.12,0A.38.38,0,0,1,103,177l17.19-47.16a.35.35,0,0,1,.46-.22.36.36,0,0,1,.21.47l-17.18,47.16A.35.35,0,0,1,103.33,177.53Z"/><path class="cls-5" d="M80.18,125.16a.37.37,0,0,1-.26-.62l9.36-9.18a.36.36,0,0,1,.51,0,.35.35,0,0,1,0,.51l-9.35,9.18A.36.36,0,0,1,80.18,125.16Z"/><path class="cls-2" d="M126.68,190.58a.35.35,0,0,1-.33-.22L102,133.17H24.54a.36.36,0,0,1,0-.72h77.73a.36.36,0,0,1,.34.22L127,190.08a.36.36,0,0,1-.19.47A.35.35,0,0,1,126.68,190.58Z"/><path class="cls-2" d="M40.43,90H12.34a.36.36,0,0,1,0-.72H40.43a.36.36,0,0,1,0,.72Z"/><path class="cls-2" d="M37.66,133.17a.38.38,0,0,1-.34-.23l-16.94-43a.36.36,0,1,1,.67-.26l17,43a.35.35,0,0,1-.21.46A.31.31,0,0,1,37.66,133.17Z"/><path class="cls-2" d="M179.76,178h-9.9a3.62,3.62,0,0,1-3.62-3.62V161a3.62,3.62,0,0,1,3.62-3.61h9.9a3.61,3.61,0,0,1,3.61,3.61v13.36A3.62,3.62,0,0,1,179.76,178Zm-9.9-19.87A2.89,2.89,0,0,0,167,161v13.36a2.89,2.89,0,0,0,2.89,2.89h9.9a2.89,2.89,0,0,0,2.89-2.89V161a2.9,2.9,0,0,0-2.89-2.89Z"/><path class="cls-2" d="M159.36,149.73H131.53a1.55,1.55,0,0,1-1.55-1.56V136.41a1.54,1.54,0,0,1,1.55-1.55h17.31a.36.36,0,0,1,0,.72H131.53a.83.83,0,0,0-.83.83v11.76a.83.83,0,0,0,.83.83h27.83a.84.84,0,0,0,.84-.83V136.41a.84.84,0,0,0-.84-.83h-4.15a.36.36,0,0,1,0-.72h4.15a1.55,1.55,0,0,1,1.56,1.55v11.76A1.56,1.56,0,0,1,159.36,149.73Z"/><path class="cls-2" d="M152.85,145.88a3.59,3.59,0,1,1,3.58-3.59A3.59,3.59,0,0,1,152.85,145.88Zm0-6.45a2.87,2.87,0,1,0,2.86,2.86A2.87,2.87,0,0,0,152.85,139.43Z"/><path class="cls-2" d="M165.49,182.82a5.2,5.2,0,1,1,5.19-5.2A5.2,5.2,0,0,1,165.49,182.82Zm0-9.66a4.47,4.47,0,1,0,4.47,4.46A4.47,4.47,0,0,0,165.49,173.16Z"/><path class="cls-2" d="M143,139.54h-9a.38.38,0,0,1-.37-.37.37.37,0,0,1,.37-.36h9a.36.36,0,0,1,.36.36A.37.37,0,0,1,143,139.54Z"/><path class="cls-2" d="M143,142.65h-9a.36.36,0,1,1,0-.72h9a.36.36,0,1,1,0,.72Z"/><path class="cls-2" d="M143,145.77h-9a.36.36,0,1,1,0-.72h9a.36.36,0,1,1,0,.72Z"/><path class="cls-2" d="M179.29,163.48h-9a.36.36,0,0,1-.36-.36.37.37,0,0,1,.36-.37h9a.37.37,0,0,1,.36.37A.36.36,0,0,1,179.29,163.48Z"/><path class="cls-2" d="M179.29,166.9h-9a.36.36,0,1,1,0-.72h9a.36.36,0,1,1,0,.72Z"/><path class="cls-2" d="M179.29,170.33h-9a.36.36,0,1,1,0-.72h9a.36.36,0,1,1,0,.72Z"/><path class="cls-2" d="M160.9,176.49a.31.31,0,0,1-.13,0c-1.21-.46-2.38-1-3.48-1.49a.36.36,0,0,1-.16-.49.35.35,0,0,1,.48-.16c1.08.52,2.23,1,3.42,1.47a.36.36,0,0,1-.13.7Zm-6.93-3.4a.35.35,0,0,1-.19-.06,30.72,30.72,0,0,1-3.26-2.33.36.36,0,1,1,.46-.56,30.85,30.85,0,0,0,3.19,2.28.36.36,0,0,1-.2.67Zm-6.1-5a.36.36,0,0,1-.27-.12,25.52,25.52,0,0,1-2.45-3.19.36.36,0,0,1,.11-.5.37.37,0,0,1,.5.1,22.61,22.61,0,0,0,2.38,3.1.36.36,0,0,1,0,.51A.33.33,0,0,1,147.87,168.05Zm-4.28-6.65a.37.37,0,0,1-.33-.22,24.6,24.6,0,0,1-1.25-3.84.36.36,0,0,1,.27-.43.35.35,0,0,1,.43.27,22.69,22.69,0,0,0,1.22,3.71.37.37,0,0,1-.2.48A.32.32,0,0,1,143.59,161.4Zm-1.8-7.71a.36.36,0,0,1-.36-.34c0-.44,0-.88,0-1.31a15.61,15.61,0,0,1,.2-2.74.36.36,0,0,1,.71.13,16.57,16.57,0,0,0-.18,2.61c0,.42,0,.84,0,1.27a.35.35,0,0,1-.34.38Z"/><path class="cls-2" d="M120,50.57a2.93,2.93,0,0,1-2-.85L101.09,32.85a2.88,2.88,0,0,1,0-4.08l4.64-4.65A.37.37,0,0,1,106,24a.36.36,0,0,1,.23.64l-4.61,4.62a2.17,2.17,0,0,0,0,3.06l16.86,16.87a2.16,2.16,0,0,0,1.54.63h0a2.14,2.14,0,0,0,1.53-.63l11.66-11.66a.36.36,0,0,1,.51.51L122,49.72A2.89,2.89,0,0,1,120,50.57Z"/><circle class="cls-3" cx="193.84" cy="121.53" r="26.42"/><path class="cls-10" d="M216.13,128.38H216a.36.36,0,0,1-.24-.45,22.94,22.94,0,0,0-9.17-25.35.36.36,0,0,1-.1-.5.37.37,0,0,1,.5-.1,23.59,23.59,0,0,1,9.46,26.15A.36.36,0,0,1,216.13,128.38Z"/><path class="cls-2" d="M207.62,135.11a2.39,2.39,0,0,1-.52,3.17,21.35,21.35,0,0,1-26,.43,2.38,2.38,0,0,1-.68-3.05,16.74,16.74,0,0,1,7.84-6.66,7.38,7.38,0,0,0,.8-.43c5.21,3,8.13,1.07,9.52-.55a6.62,6.62,0,0,0,1.53,1A17.23,17.23,0,0,1,207.62,135.11Z"/><path class="cls-2" d="M203.09,112.71a9,9,0,0,0-4.45,7.64c0,2.35-.61,3.51-1.44,4.09-1,.73-2.44.54-3.39.58a5,5,0,0,1-2.62-.56c-1.33-.69-2.63-2.18-3-5.2-.47-3.66-.54-7,.35-9,.66-1.57,3.22-3.4,6.69-1.1C198.52,111.31,199.88,112.53,203.09,112.71Z"/></g></g></svg>