<svg xmlns="http://www.w3.org/2000/svg" width="240" height="175.56" viewBox="0 0 240 175.56"><defs><style>.cls-1{fill:#fdbd7d;}.cls-2{fill:#d6daea;}.cls-3{fill:#0365ff;}.cls-4{fill:#1b1b41;}.cls-5{fill:#fff;}.cls-6{fill:#3b47bc;}.cls-7{fill:#fce8e8;}.cls-8{fill:#303054;}.cls-9{fill:#ff8685;}.cls-10{fill:#ffe1da;}</style></defs><title>step-3</title><g id="Layer_2" data-name="Layer 2"><g id="Layer_1-2" data-name="Layer 1"><path class="cls-1" d="M184.65,175.56c-22.18,0-42.38,0-59.77-.06l-12.21,0-17.49-.05-9.75,0H83.36l-13.13-.06-5.46,0-4.93,0h-.36a60.72,60.72,0,0,1-19.76-3.22q-1.76-.62-3.45-1.35C24.94,165.78,15.63,156.62,11.08,142c-.11-.35-.22-.72-.32-1.08-.28-1-.54-1.94-.77-2.94-.09-.34-.16-.68-.24-1-2.19-10-2.37-22.25.18-37,.09-.6.2-1.19.31-1.79.07-.35.13-.7.2-1,.1-.52.2-1,.31-1.58C16.9,65,32.27,40.09,52.48,25.86q2.16-1.53,4.41-2.88a73,73,0,0,1,10.37-5.23q2.26-.91,4.59-1.68c.93-.3,1.86-.58,2.8-.84,1.26-.36,2.54-.67,3.82-.94a66.92,66.92,0,0,1,32,1h0a78.08,78.08,0,0,1,11.14,4,85.56,85.56,0,0,1,15.39,9c17.21,12.39,33,31.07,58.41,51.26a314,314,0,0,0,25.94,18.55,40.33,40.33,0,0,1,12.37,12.41C249.58,135.51,236.14,175.56,184.65,175.56Z"/><rect class="cls-2" x="105.53" y="67.03" width="88.23" height="108.53"/><path class="cls-3" d="M109.74,61.8h79.82a4.2,4.2,0,0,1,4.2,4.2v7.89H105.53V66A4.21,4.21,0,0,1,109.74,61.8Z"/><rect class="cls-4" x="97.44" y="147.58" width="101.7" height="27.98" rx="4.21"/><rect class="cls-5" x="126.4" y="155.11" width="31.5" height="2.24" rx="1.12"/><rect class="cls-5" x="126.4" y="160.49" width="62.44" height="2.24" rx="1.12"/><rect class="cls-5" x="126.4" y="165.86" width="62.44" height="2.24" rx="1.12"/><circle class="cls-3" cx="117.85" cy="91.5" r="7.61"/><rect class="cls-5" x="131.58" y="86.13" width="26.08" height="2.24" rx="1.12"/><rect class="cls-5" x="131.58" y="91.5" width="57.47" height="2.24" rx="1.12"/><rect class="cls-5" x="131.58" y="96.88" width="57.47" height="2.24" rx="1.12"/><circle class="cls-3" cx="117.85" cy="126.49" r="7.61"/><rect class="cls-5" x="131.58" y="121.12" width="26.08" height="2.24" rx="1.12"/><rect class="cls-5" x="131.58" y="126.49" width="57.47" height="2.24" rx="1.12"/><rect class="cls-5" x="131.58" y="131.87" width="57.47" height="2.24" rx="1.12"/><rect class="cls-5" x="112.18" y="67.35" width="5.76" height="0.98" rx="0.49"/><rect class="cls-5" x="112.18" y="69.73" width="8.2" height="0.98" rx="0.49"/><rect class="cls-5" x="112.18" y="64.97" width="8.2" height="0.98" rx="0.49"/><rect class="cls-4" x="104.21" y="125.21" width="0.34" height="23.25"/><circle class="cls-4" cx="104.38" cy="125.21" r="3.29"/><path class="cls-4" d="M104.38,139.54s-.47-10.11-10.1-8.93"/><circle class="cls-3" cx="110.42" cy="161.53" r="7.61"/><path class="cls-4" d="M85.43,175.39H83.36l-13.13-.06-5.46,0-5.29-25.15v-8.78a11.21,11.21,0,0,0,3.77-3.61l0,0,.15-.22.3-.47c.16-.27.32-.55.48-.85l.15-.3c0-.05.05-.11.08-.17s.09-.19.14-.29c.22-.47.42-1,.61-1.51l.12-.34c.08-.25.16-.51.23-.78s.08-.26.11-.39c.14-.51.25-1,.36-1.6,0-.11,0-.23,0-.35s0-.24.06-.37c0-.32.09-.66.13-1l0-.36c0-.12,0-.25,0-.37l0-.5c0-.17,0-.35,0-.52a29,29,0,0,0,0-3.2c-.06-.89-.15-1.82-.29-2.8-2.25-15.73,8-5.31,8-5.31s2.85,2.29,4.34,7.87a32.36,32.36,0,0,1,.34,13.6,16.93,16.93,0,0,0,.22,6.54C80.18,149.61,82.78,161.29,85.43,175.39Z"/><path class="cls-6" d="M66.38,126.25h0c0,.35,0,.68,0,1a.17.17,0,0,1,0,.07c0,.17,0,.35,0,.52l0,.5a22.92,22.92,0,0,1-.67,4.06c0,.13-.07.26-.11.39l0,.14-.18.58a1.42,1.42,0,0,0,0,.16l-.09.24-.13.36a16.2,16.2,0,0,1-.7,1.61l-.15.3a14.58,14.58,0,0,1-.93,1.54l0,0a20.91,20.91,0,0,0-3.77,11.79v25.72a60.72,60.72,0,0,1-19.76-3.22c-.51-9.88-1-20.51-1.52-31.5-.05-1-.09-2-.13-3l0-.93s0-.07,0-.1c.38-7.59.77-13.64,3.56-17.65a10.64,10.64,0,0,1,3.82-3.38,12.38,12.38,0,0,1,1.91-.85c.34-.12.68-.23,1-.33s1-.26,1.52-.37c10.62-2.14,13.68,2.76,16.14,7.35.06.45.11.89.16,1.31,0,.22,0,.43.06.64s0,.27,0,.4l0,.45,0,.55,0,.53C66.38,125.57,66.38,125.91,66.38,126.25Z"/><path class="cls-5" d="M78.66,89.37c-1,5.07-.6,17-.39,21.65,0,1.16.09,1.85.09,1.85.4-.16,0,11,0,11S53,126.15,40.7,118.38L37.12,106.7c.21-.56.41-1.12.62-1.69A99.08,99.08,0,0,0,42.2,87.4c3.27-20.57,2.45-31.74.27-36.91-1.4-3.33-4-4.57-7.61-1.11C39.63,40.51,53.57,38,53.57,38l15.7,1.48s1.1-1.43,4,1.34S85.17,50,85.17,50s.43,1.14,1.08,3.15h0C86.46,68.51,79.72,84.08,78.66,89.37Z"/><path class="cls-7" d="M36.55,104.83l1.19.18c-.21.57-.41,1.13-.62,1.69Z"/><path class="cls-7" d="M79.65,111.23l-.1,1.08a12.75,12.75,0,0,1-1.19.56s0-.69-.09-1.85Z"/><path class="cls-7" d="M92,91.89a24.75,24.75,0,0,1-5.82,14.72,24.41,24.41,0,0,1-6.59,5.7,12.75,12.75,0,0,1-1.19.56s0-.69-.09-1.85c-.21-4.6-.62-16.58.39-21.65,1.06-5.29,7.8-20.86,7.59-36.2C88.37,59.77,92.8,75.77,92,91.89Z"/><path class="cls-4" d="M78.36,7.8A9.78,9.78,0,0,1,75.79,12a17,17,0,0,1-1.29,1.19l0,0c-4.22,3.53-6.64,1.93-6.64,1.93A31.76,31.76,0,0,1,65.38,23c-1.67,3.53-4.38,7-8.59,7.3a6.51,6.51,0,0,1-3.22-2.67,20.29,20.29,0,0,1-3.23-8.5c-2-10.8,3.23-10.48,3.23-10.48s.29-5.59,5.74-4.57S67,13.9,78.36,7.8Z"/><path class="cls-8" d="M78.36,7.8c-11.39,6.1-13.6-2.68-19-3.71s-5.74,4.57-5.74,4.57S52,.35,59.92,0s11.31,9.6,17.78,1.9A7.78,7.78,0,0,1,78.36,7.8Z"/><path class="cls-9" d="M69.27,39.49A16.13,16.13,0,0,1,53.57,38a90.51,90.51,0,0,1,0-10.37,6.51,6.51,0,0,0,3.22,2.67C61,30,63.71,26.54,65.38,23a102.92,102.92,0,0,1,2.86,11.45C68.84,37.29,69.27,39.49,69.27,39.49Z"/><path class="cls-10" d="M71.93,24.94a3.38,3.38,0,0,0,1.8,3c-.82,2.87-2.92,5.63-5.49,6.54A102.92,102.92,0,0,0,65.38,23a31.76,31.76,0,0,0,2.44-7.85s2.42,1.6,6.64-1.93l0,0a62,62,0,0,1,.2,8.44A3.35,3.35,0,0,0,71.93,24.94Z"/><path class="cls-9" d="M74.7,21.63a29.44,29.44,0,0,1-1,6.29,3.36,3.36,0,0,1,1-6.29Z"/><polygon class="cls-3" points="3 97.56 7.73 138.03 47.83 137.46 48.82 94.64 3 97.56"/><polygon class="cls-5" points="4.15 98.52 47.76 95.75 46.82 136.44 8.65 136.99 4.15 98.52"/><polygon class="cls-3" points="0 100.56 4.74 141.03 44.83 140.46 45.82 97.64 0 100.56"/><path class="cls-9" d="M19.55,125s-3.37,2-3.88,13.18c0,5.82,1.94,5.31,3.88,5.82s7.56-.17,9.61-3.34l-3.58.07s2.15-8,.31-13.58S19.55,125,19.55,125Z"/><path class="cls-7" d="M42.2,87.4A99.08,99.08,0,0,1,37.74,105c-.21.57-.41,1.13-.62,1.69-3.5,9.28-7.65,15.42-9.6,19.24-2.09,4.12-4.14,3.91-5.62,3.25-2.06-.93-4-3.47-3.47-8.35.59-5.6,4.24-18.72,6.81-26.71a70.75,70.75,0,0,0,2.9-13.25c1.08-9.12,3.36-25.09,6.64-31.35a1.09,1.09,0,0,1,.08-.15c3.58-3.46,6.21-2.22,7.61,1.11C44.65,55.66,45.47,66.83,42.2,87.4Z"/><path class="cls-4" d="M28,121.42a.32.32,0,0,1-.16,0,.35.35,0,0,1-.14-.47C42.1,93.66,41.6,62.69,41.59,62.38a.34.34,0,0,1,.34-.36.37.37,0,0,1,.36.34c0,.31.51,31.46-13.94,58.88A.35.35,0,0,1,28,121.42Z"/><path class="cls-4" d="M84.06,106.11a.35.35,0,0,1-.26-.59c6.16-6.51,6.14-17,6.14-17.08a.35.35,0,0,1,.35-.35h0a.35.35,0,0,1,.35.34c0,.11,0,10.86-6.33,17.57A.32.32,0,0,1,84.06,106.11Z"/><path class="cls-5" d="M42.64,167a.36.36,0,0,1-.35-.33l-1.18-21.18a.35.35,0,1,1,.69,0L43,166.66a.34.34,0,0,1-.33.37Z"/><path class="cls-4" d="M59.59,135.29A11.29,11.29,0,0,1,52,132.52a.35.35,0,1,1,.49-.49,11,11,0,0,0,7.49,2.55.38.38,0,0,1,.36.34.36.36,0,0,1-.34.36Z"/><path class="cls-5" d="M123.76,48.71a29.3,29.3,0,0,1-3.86-.49l.14-.68a27.79,27.79,0,0,0,3.76.47Zm3.88,0,0-.7a26.26,26.26,0,0,0,3.75-.54l.15.69A31.3,31.3,0,0,1,127.64,48.68Zm-11.49-1.47a29.44,29.44,0,0,1-3.58-1.5l.32-.63a27.41,27.41,0,0,0,3.49,1.47Zm19.07-.15L135,46.4a26.86,26.86,0,0,0,3.47-1.53l.33.62A28.93,28.93,0,0,1,135.22,47.06Zm-26-3.33a29.23,29.23,0,0,1-3-2.41l.47-.52a26.89,26.89,0,0,0,3,2.35Zm32.86-.28-.41-.56a28.21,28.21,0,0,0,2.93-2.41l.48.51A28.22,28.22,0,0,1,142.09,43.45ZM103.5,38.52a29.39,29.39,0,0,1-2.3-3.14l.59-.37A30.36,30.36,0,0,0,104,38.07Zm44.24-.37-.55-.44c.21-.26.42-.52.62-.79l.56.42ZM99.36,32A28,28,0,0,1,98,28.33l.67-.2A28.65,28.65,0,0,0,100,31.68Zm-2.23-7.43a29.29,29.29,0,0,1-.34-3.87h.7a27.93,27.93,0,0,0,.33,3.77Zm.53-7.67L97,16.79a29.16,29.16,0,0,1,.7-3.82l.68.17A29.49,29.49,0,0,0,97.66,16.87Z"/><path class="cls-5" d="M232.07,155.87,219.19,143a4.88,4.88,0,0,1,0-6.91L237.3,118l.49.5-18.11,18.1a4.21,4.21,0,0,0,0,5.93l12.88,12.87Z"/></g></g></svg>