<svg xmlns="http://www.w3.org/2000/svg" viewBox="0 0 48 58.56"><defs><style>.cls-1{fill:#212121;}.cls-2{fill:#3b8bff;}.cls-3{fill:#fff;}</style></defs><title>steps-icon</title><g id="Layer_2" data-name="Layer 2"><g id="Layer_1-2" data-name="Layer 1"><path class="cls-1" d="M23.42,58.56a5.52,5.52,0,0,1-2.91-1.46,4.63,4.63,0,0,1-1.25-2.14.55.55,0,0,0-.67-.5c-.74,0-1.49,0-2.23,0A2.47,2.47,0,0,1,13.92,52c-.08-1.76,0-2.08.56-3a4.65,4.65,0,0,1-.27-4.11A2.26,2.26,0,0,1,15,44a.83.83,0,0,0,.42-.78q0-1.69,0-3.37A.79.79,0,0,0,15,39,17.2,17.2,0,0,1,6.66,26.39,16.79,16.79,0,0,1,9.22,14.64,17.14,17.14,0,0,1,20.07,6.95c.54-.13,1.08-.22,1.63-.3a.89.89,0,0,1,1.13.69c.09.49-.24.91-.85,1a15.17,15.17,0,0,0-6.34,2.28c-5.31,3.54-7.86,8.51-7.31,14.88a15.19,15.19,0,0,0,7.59,12.05,2.38,2.38,0,0,1,1.24,2.27c0,1.19,0,2.39,0,3.62H30.86q0-1,0-1.92c0-.59,0-1.18,0-1.77A2.39,2.39,0,0,1,32,37.59a28.91,28.91,0,0,0,3.49-2.84,14.83,14.83,0,0,0,4.06-8.15c0-.23.07-.45.12-.67a.88.88,0,0,1,1-.76.86.86,0,0,1,.71,1.06,24.69,24.69,0,0,1-.64,2.9,17.23,17.23,0,0,1-7.6,9.8,1,1,0,0,0-.56,1c0,1.1,0,2.21,0,3.32a.91.91,0,0,0,.32.63A2.52,2.52,0,0,1,34.07,46c0,1,.19,2-.62,2.91.87,1,.66,2.24.58,3.4a2.38,2.38,0,0,1-2.24,2.09c-.84,0-1.68,0-2.51,0-.16,0-.43.14-.46.26a5.09,5.09,0,0,1-4.25,3.82ZM24,45.18H16.68c-.76,0-1,.28-1,1,0,.36,0,.72,0,1.09a.75.75,0,0,0,.68.78,4.41,4.41,0,0,0,.74,0H30.6c1.72,0,1.77,0,1.76-1.75,0-1-.24-1.19-1.23-1.19Zm0,4.66H17.32c-1.68,0-1.69,0-1.69,1.69,0,1,.2,1.22,1.19,1.22H30.64c1.71,0,1.71,0,1.71-1.72,0-1-.21-1.18-1.16-1.18Zm3,4.65H21a3.14,3.14,0,0,0,6.08,0Z"/><path class="cls-1" d="M36.1,23.07c0-1-.58-1.62-1.57-1.55s-1.36-.22-1.75-1.15a1.51,1.51,0,0,1,.43-2.09,1.35,1.35,0,0,0,0-2.16c-.42-.44-.86-.87-1.29-1.29a1.38,1.38,0,0,0-2.28,0,1.44,1.44,0,0,1-2,.38c-.93-.38-1.27-.78-1.19-1.78s-.56-1.52-1.57-1.55c-.51,0-1,0-1.54,0-1.37,0-1.87.5-1.87,1.85,0,1,0,1-1,1.36a3.47,3.47,0,0,0-.72.34.65.65,0,0,1-1-.16,2.63,2.63,0,0,0-.61-.6,9.37,9.37,0,0,0-1-.51,6.75,6.75,0,0,0-1,.61c-.49.42-.94.9-1.38,1.37a1.35,1.35,0,0,0,0,2.16,1.49,1.49,0,0,1,.43,2.09c-.38.88-.73,1.22-1.69,1.14s-1.61.54-1.63,1.6c0,.57,0,1.14,0,1.72,0,1.1.57,1.73,1.65,1.64s1.26.28,1.65,1.11a1.51,1.51,0,0,1-.43,2.14,1.36,1.36,0,0,0,0,2.16c.41.43.83.84,1.25,1.25a1.46,1.46,0,0,0,2.34,0c.83-.8.8-.68,1.93-.37s1.29.81,1.22,1.8a1.3,1.3,0,0,0,1.32,1.49,13.6,13.6,0,0,0,2.34,0,1.32,1.32,0,0,0,1.31-1.55c-.08-1,.24-1.36,1.16-1.74a1.48,1.48,0,0,1,2,.41,1.37,1.37,0,0,0,2.2,0q.68-.65,1.33-1.33a1.38,1.38,0,0,0,0-2.2,1.46,1.46,0,0,1-.42-2c.39-.9.78-1.23,1.74-1.16s1.57-.55,1.59-1.59C36.12,24.29,36.12,23.68,36.1,23.07Zm-1.75,1.73c-.55,0-1.08,0-1.6,0a1,1,0,0,0-1.09.8c-.34.92-.71,1.83-1.13,2.73a1,1,0,0,0,.17,1.3l1.12,1.09L30.62,31.9c-.28-.32-.6-.74-1-1.12s-.79-.48-1.43-.18c-.86.4-1.73.76-2.62,1.08a1,1,0,0,0-.83,1.06c0,.53,0,1.06,0,1.63H23.21c0-.56,0-1.11,0-1.65a1,1,0,0,0-.8-1c-.92-.34-1.83-.71-2.73-1.12a1,1,0,0,0-1.34.2l-1.06,1.19L16,30.72l1.21-1.08a1,1,0,0,0,.19-1.34c-.41-.89-.78-1.81-1.12-2.73a1,1,0,0,0-1-.78c-.53,0-1.06,0-1.63,0V23.21c.54,0,1.09,0,1.63,0a1,1,0,0,0,1-.79c.34-.92.71-1.84,1.12-2.73a1,1,0,0,0-.19-1.34L16,17.28l1.25-1.22,1.06,1.19a1,1,0,0,0,1.33.2c.89-.42,1.81-.78,2.73-1.13a1,1,0,0,0,.8-1c0-.53,0-1.06,0-1.64h1.58c0,.51,0,1,0,1.56a1,1,0,0,0,.83,1.13c.91.32,1.81.69,2.68,1.1a1,1,0,0,0,1.34-.17l1.07-1.15,1.2,1.17-1.12,1a1,1,0,0,0-.2,1.38c.41.87.77,1.77,1.1,2.68a1,1,0,0,0,1.07.82c.53,0,1.06,0,1.62,0Z"/><path class="cls-1" d="M26.13,6.62A17,17,0,0,1,31.91,8.4,17.37,17.37,0,0,1,41.1,20.28c.11.48.19,1,.26,1.46a.9.9,0,0,1-.73,1.11.87.87,0,0,1-1-.84,15.92,15.92,0,0,0-1.94-5.81A15.5,15.5,0,0,0,26.65,8.45c-.26,0-.53-.08-.79-.14a.86.86,0,0,1-.71-1A.88.88,0,0,1,26.13,6.62Z"/><path class="cls-1" d="M23.15,2.28c0-.48,0-1,0-1.43a.84.84,0,1,1,1.68,0c0,.93,0,1.86,0,2.79a.81.81,0,0,1-.82.85.83.83,0,0,1-.86-.86C23.12,3.2,23.15,2.74,23.15,2.28Z"/><path class="cls-1" d="M2.24,24.84c-.48,0-1,0-1.43,0A.78.78,0,0,1,0,24a.75.75,0,0,1,.73-.86c1,0,2.05,0,3.07,0a.73.73,0,0,1,.7.83.77.77,0,0,1-.78.81c-.49,0-1,0-1.48,0Z"/><path class="cls-1" d="M45.68,24.84c-.46,0-.91,0-1.37,0a.82.82,0,0,1-.83-.83.78.78,0,0,1,.77-.83c1,0,2,0,3,0a.83.83,0,0,1,0,1.66C46.67,24.85,46.18,24.84,45.68,24.84Z"/><path class="cls-1" d="M7.59,6.68a4.09,4.09,0,0,1,.7.42c.62.59,1.22,1.2,1.82,1.81.45.46.47.94.1,1.31s-.85.34-1.31-.11A26.16,26.16,0,0,1,7.07,8.25a1.21,1.21,0,0,1-.17-1C7,7,7.34,6.88,7.59,6.68Z"/><path class="cls-1" d="M40.48,6.72c.19.16.51.3.61.53A1,1,0,0,1,41,8.1c-.7.78-1.44,1.51-2.21,2.22a.72.72,0,0,1-1-.08.71.71,0,0,1-.13-1c.73-.8,1.52-1.54,2.29-2.3C40.05,6.81,40.23,6.81,40.48,6.72Z"/><path class="cls-1" d="M10.58,38.31a4.16,4.16,0,0,1-.44.75c-.59.62-1.2,1.22-1.81,1.82A.88.88,0,0,1,7,41a.86.86,0,0,1,.09-1.27C7.73,39,8.34,38.39,9,37.81a1.14,1.14,0,0,1,.92-.17C10.19,37.71,10.36,38.06,10.58,38.31Z"/><path class="cls-1" d="M38.3,37.41a4.92,4.92,0,0,1,.79.49c.61.57,1.2,1.17,1.78,1.77a.86.86,0,1,1-1.18,1.23c-.63-.61-1.27-1.21-1.84-1.87a1.25,1.25,0,0,1-.22-1C37.69,37.82,38,37.64,38.3,37.41Z"/><path class="cls-2" d="M24,45.18h7.14c1,0,1.23.23,1.23,1.19,0,1.71,0,1.75-1.76,1.75H17.06a4.41,4.41,0,0,1-.74,0,.75.75,0,0,1-.68-.78c0-.36,0-.72,0-1.09,0-.74.29-1,1-1Z"/><path class="cls-3" d="M24,49.84h7.2c1,0,1.16.22,1.16,1.18,0,1.71,0,1.72-1.71,1.72H16.82c-1,0-1.19-.21-1.19-1.22,0-1.68,0-1.69,1.69-1.69Z"/><path class="cls-2" d="M27,54.49a3.14,3.14,0,0,1-6.08,0Z"/><path class="cls-2" d="M32.74,23.22a1,1,0,0,1-1.07-.82c-.33-.91-.69-1.81-1.1-2.68a1,1,0,0,1,.2-1.38l1.12-1-1.2-1.17-1.07,1.15a1,1,0,0,1-1.34.17c-.87-.41-1.77-.78-2.68-1.1a1,1,0,0,1-.83-1.13c0-.52,0-1,0-1.56H23.21c0,.58,0,1.11,0,1.64a1,1,0,0,1-.8,1c-.92.34-1.84.71-2.73,1.13a1,1,0,0,1-1.33-.2l-1.06-1.19L16,17.28l1.21,1.09a1,1,0,0,1,.19,1.34c-.42.89-.78,1.81-1.12,2.73a1,1,0,0,1-1,.79c-.54,0-1.09,0-1.63,0v1.58c.57,0,1.1,0,1.63,0a1,1,0,0,1,1,.78c.34.92.71,1.84,1.12,2.73a1,1,0,0,1-.19,1.34L16,30.72l1.25,1.22,1.06-1.19a1,1,0,0,1,1.34-.2c.89.41,1.81.78,2.73,1.12a1,1,0,0,1,.8,1c0,.55,0,1.09,0,1.65h1.58c0-.57,0-1.1,0-1.63a1,1,0,0,1,.83-1.06c.89-.31,1.77-.67,2.62-1.08.64-.3.94-.32,1.43.18s.69.79,1,1.12l1.21-1.19-1.12-1.09a1,1,0,0,1-.17-1.3c.41-.89.79-1.8,1.13-2.73a1,1,0,0,1,1.09-.8c.53,0,1.05,0,1.6,0V23.21C33.79,23.21,33.26,23.2,32.74,23.22Zm-7.23,3.5a6.51,6.51,0,0,0-.75.42,1.4,1.4,0,0,1-1.51,0l-1.63-.95a1.34,1.34,0,0,1-.72-1.27c0-.63,0-1.26,0-1.89a1.32,1.32,0,0,1,.68-1.23c.57-.34,1.15-.67,1.73-1a1.34,1.34,0,0,1,1.41,0c.51.29,1,.6,1.53.88a1.45,1.45,0,0,1,.84,1.49c0,.27,0,.53,0,.8C27.45,25.43,26.7,26.2,25.51,26.72Z"/><path class="cls-1" d="M27.09,24c0-.27,0-.53,0-.8a1.45,1.45,0,0,0-.84-1.49c-.52-.28-1-.59-1.53-.88a1.34,1.34,0,0,0-1.41,0c-.58.33-1.16.66-1.73,1a1.32,1.32,0,0,0-.68,1.23c0,.63,0,1.26,0,1.89a1.34,1.34,0,0,0,.72,1.27l1.63.95a1.4,1.4,0,0,0,1.51,0,6.51,6.51,0,0,1,.75-.42C26.7,26.2,27.45,25.43,27.09,24Zm-1.86.84a2.19,2.19,0,0,1-1.22.67,2,2,0,0,1-1.22-.65c-.19-.2-.16-.66-.16-1s0-.6.15-.72A2.32,2.32,0,0,1,24,22.49a2.19,2.19,0,0,1,1.22.67c.18.16.14.55.2.85S25.41,24.69,25.23,24.85Z"/><path class="cls-2" d="M25.23,23.15A2.19,2.19,0,0,0,24,22.49a2.32,2.32,0,0,0-1.23.65c-.15.12-.16.48-.15.72s0,.8.16,1a2,2,0,0,0,1.22.65,2.19,2.19,0,0,0,1.22-.67c.18-.16.14-.55.21-.84S25.41,23.31,25.23,23.15Zm-.41.91a.83.83,0,1,1-.75-.89A.8.8,0,0,1,24.83,24.06Z"/><path class="cls-1" d="M23.95,24.83a.83.83,0,1,1,.13-1.66.8.8,0,0,1,.75.89A.81.81,0,0,1,23.95,24.83Z"/></g></g></svg>