<svg xmlns="http://www.w3.org/2000/svg" viewBox="0 0 107.75 75.42"><defs><style>.cls-1{fill:#1dd8cf;}.cls-2{fill:none;stroke:#212121;stroke-linecap:round;stroke-linejoin:round;stroke-width:2px;}</style></defs><title>top-questions</title><g id="Layer_2" data-name="Layer 2"><g id="Layer_1-2" data-name="Layer 1"><path class="cls-1" d="M32.86,21.06c-.08-3.24,1.22-7.36-.93-10.1a3.61,3.61,0,0,1-.23-.36,3,3,0,0,0-1.94,2.78v6.16a1.63,1.63,0,0,0,1.63,1.63h1.48S32.86,21.1,32.86,21.06Z"/><path class="cls-1" d="M87,25.16a8.3,8.3,0,0,1-4.14,7.15,8.54,8.54,0,0,1-4.29,1.15,8.35,8.35,0,0,1-8.41-8.3,8.17,8.17,0,0,1,1.18-4.25A8.45,8.45,0,0,1,87,25.16Z"/><path class="cls-1" d="M82.59,41.28l-1.1-.66a2.45,2.45,0,0,0-3.73,2.09v4.64a4.91,4.91,0,0,1-2.35,4.19L66,57.29a2.44,2.44,0,0,1-2.55,0L59.66,55a4.91,4.91,0,0,0-5.12,0l-3.77,2.3a2.46,2.46,0,0,1-2.56,0l-9.43-5.75a4.8,4.8,0,0,1-.71-.55,2,2,0,0,1-1.59-.17C33.05,49,32.94,44,32.94,40.49l-.24.13-1.1.66a4.94,4.94,0,0,0-2.35,4.19V73a2.46,2.46,0,0,0,2.46,2.46H80a4.91,4.91,0,0,0,4.91-4.91v-25A4.94,4.94,0,0,0,82.59,41.28Z"/><path class="cls-2" d="M26,48.86v-5.5a4.93,4.93,0,0,1,2.35-4.19l4.83-3"/><path class="cls-2" d="M58.09,73.3H30.94A4.91,4.91,0,0,1,26,68.39V53"/><path class="cls-2" d="M74.54,36.22l4.83,3a4.93,4.93,0,0,1,2.35,4.19v25a4.91,4.91,0,0,1-4.91,4.91H63.69"/><line class="cls-2" x1="66.85" y1="52.68" x2="60.81" y2="56.36"/><path class="cls-2" d="M74.54,31.55V45.23a4.91,4.91,0,0,1-2.35,4.19l-2,1.23"/><path class="cls-2" d="M49.92,10.41H69.63a4.9,4.9,0,0,1,4.8,3.88"/><line class="cls-2" x1="30.24" y1="10.41" x2="44.53" y2="10.41"/><path class="cls-2" d="M46.93,56.36,35.56,49.42a4.91,4.91,0,0,1-2.35-4.19V21.17"/><path class="cls-2" d="M74.54,64.74l-18.11-11a4.89,4.89,0,0,0-5.11,0l-18.11,11"/><path class="cls-2" d="M30.24,10.41h0a3,3,0,0,1,3,3v7.8a0,0,0,0,1,0,0h-4.3a1.64,1.64,0,0,1-1.64-1.64V13.38a3,3,0,0,1,3-3Z"/><path class="cls-2" d="M84.24,22.91a8.7,8.7,0,1,1-8.7-8.69A8.7,8.7,0,0,1,84.24,22.91Z"/><line class="cls-2" x1="42.21" y1="17.3" x2="53.88" y2="17.3"/><line class="cls-2" x1="42.21" y1="21.67" x2="49.1" y2="21.67"/><line class="cls-2" x1="42.21" y1="29.6" x2="56.12" y2="29.6"/><line class="cls-2" x1="42.21" y1="33.97" x2="54.34" y2="33.97"/><line class="cls-2" x1="42.21" y1="38.34" x2="59.69" y2="38.34"/><line class="cls-2" x1="42.21" y1="45.77" x2="47.23" y2="45.77"/><polygon class="cls-2" points="95.15 35.26 89.18 37.22 93.86 41.41 95.15 35.26"/><path class="cls-2" d="M74.29,24.57l.44-1.06a.82.82,0,0,1,1.07-.44h0a1.83,1.83,0,0,0,2.39-1l.32-.75a2.65,2.65,0,0,0-1.42-3.46h0a2.63,2.63,0,0,0-3.45,1.42h0"/><line class="cls-2" x1="73.24" y1="27.08" x2="73.24" y2="27.08"/><circle class="cls-2" cx="17.77" cy="33.39" r="2.83"/><circle class="cls-2" cx="81.3" cy="3.42" r="2.42"/><line class="cls-2" x1="15.58" y1="16.86" x2="15.58" y2="22.23"/><line class="cls-2" x1="18.27" y1="19.55" x2="12.89" y2="19.55"/><line class="cls-2" x1="2.7" y1="63.14" x2="1" y2="63.14"/><line class="cls-2" x1="26.03" y1="63.14" x2="7.89" y2="63.14"/><line class="cls-2" x1="93.67" y1="63.14" x2="81.72" y2="63.14"/><line class="cls-2" x1="106.75" y1="63.14" x2="99.75" y2="63.14"/></g></g></svg>