<svg xmlns="http://www.w3.org/2000/svg" viewBox="0 0 31.96 29.81"><defs><style>.cls-1{fill:none;stroke:#009171;stroke-linecap:round;stroke-linejoin:round;}</style></defs><title>wallet</title><g id="Layer_2" data-name="Layer 2"><g id="Layer_1-2" data-name="Layer 1"><path class="cls-1" d="M23.76,3.31h1.56a4,4,0,0,1,4,4v6"/><path class="cls-1" d="M.5,18.21V7.31a4,4,0,0,1,4-4h11"/><path class="cls-1" d="M29.32,20.12v5.19a4,4,0,0,1-4,4H4.5a4,4,0,0,1-4-4V21.7"/><path class="cls-1" d="M22.6,13.3h6.85a2,2,0,0,1,2,2v2.82a2,2,0,0,1-2,2H22.6a3.41,3.41,0,0,1-3.41-3.41v0A3.41,3.41,0,0,1,22.6,13.3Z"/><circle class="cls-1" cx="22.79" cy="16.71" r="1.5"/><line class="cls-1" x1="29.32" y1="8.06" x2="3.27" y2="8.06"/><path class="cls-1" d="M6.78,8.06,20.18.74a2,2,0,0,1,2.75.87l3.18,6.44"/></g></g></svg>